G75*
%MOIN*%
%OFA0B0*%
%FSLAX25Y25*%
%IPPOS*%
%LPD*%
%AMOC8*
5,1,8,0,0,1.08239X$1,22.5*
%
%ADD10C,0.00000*%
%ADD11R,0.03937X0.11811*%
%ADD12R,0.11811X0.03937*%
%ADD13R,0.04400X0.06900*%
%ADD14R,0.16000X0.16000*%
%ADD15R,0.20000X0.10000*%
D10*
X0001000Y0001000D02*
X0001000Y0285961D01*
X0254701Y0285961D01*
X0254701Y0001000D01*
X0001000Y0001000D01*
X0012063Y0016000D02*
X0012065Y0016125D01*
X0012071Y0016250D01*
X0012081Y0016374D01*
X0012095Y0016498D01*
X0012112Y0016622D01*
X0012134Y0016745D01*
X0012160Y0016867D01*
X0012189Y0016989D01*
X0012222Y0017109D01*
X0012260Y0017228D01*
X0012300Y0017347D01*
X0012345Y0017463D01*
X0012393Y0017578D01*
X0012445Y0017692D01*
X0012501Y0017804D01*
X0012560Y0017914D01*
X0012622Y0018022D01*
X0012688Y0018129D01*
X0012757Y0018233D01*
X0012830Y0018334D01*
X0012905Y0018434D01*
X0012984Y0018531D01*
X0013066Y0018625D01*
X0013151Y0018717D01*
X0013238Y0018806D01*
X0013329Y0018892D01*
X0013422Y0018975D01*
X0013518Y0019056D01*
X0013616Y0019133D01*
X0013716Y0019207D01*
X0013819Y0019278D01*
X0013924Y0019345D01*
X0014032Y0019410D01*
X0014141Y0019470D01*
X0014252Y0019528D01*
X0014365Y0019581D01*
X0014479Y0019631D01*
X0014595Y0019678D01*
X0014712Y0019720D01*
X0014831Y0019759D01*
X0014951Y0019795D01*
X0015072Y0019826D01*
X0015194Y0019854D01*
X0015316Y0019877D01*
X0015440Y0019897D01*
X0015564Y0019913D01*
X0015688Y0019925D01*
X0015813Y0019933D01*
X0015938Y0019937D01*
X0016062Y0019937D01*
X0016187Y0019933D01*
X0016312Y0019925D01*
X0016436Y0019913D01*
X0016560Y0019897D01*
X0016684Y0019877D01*
X0016806Y0019854D01*
X0016928Y0019826D01*
X0017049Y0019795D01*
X0017169Y0019759D01*
X0017288Y0019720D01*
X0017405Y0019678D01*
X0017521Y0019631D01*
X0017635Y0019581D01*
X0017748Y0019528D01*
X0017859Y0019470D01*
X0017969Y0019410D01*
X0018076Y0019345D01*
X0018181Y0019278D01*
X0018284Y0019207D01*
X0018384Y0019133D01*
X0018482Y0019056D01*
X0018578Y0018975D01*
X0018671Y0018892D01*
X0018762Y0018806D01*
X0018849Y0018717D01*
X0018934Y0018625D01*
X0019016Y0018531D01*
X0019095Y0018434D01*
X0019170Y0018334D01*
X0019243Y0018233D01*
X0019312Y0018129D01*
X0019378Y0018022D01*
X0019440Y0017914D01*
X0019499Y0017804D01*
X0019555Y0017692D01*
X0019607Y0017578D01*
X0019655Y0017463D01*
X0019700Y0017347D01*
X0019740Y0017228D01*
X0019778Y0017109D01*
X0019811Y0016989D01*
X0019840Y0016867D01*
X0019866Y0016745D01*
X0019888Y0016622D01*
X0019905Y0016498D01*
X0019919Y0016374D01*
X0019929Y0016250D01*
X0019935Y0016125D01*
X0019937Y0016000D01*
X0019935Y0015875D01*
X0019929Y0015750D01*
X0019919Y0015626D01*
X0019905Y0015502D01*
X0019888Y0015378D01*
X0019866Y0015255D01*
X0019840Y0015133D01*
X0019811Y0015011D01*
X0019778Y0014891D01*
X0019740Y0014772D01*
X0019700Y0014653D01*
X0019655Y0014537D01*
X0019607Y0014422D01*
X0019555Y0014308D01*
X0019499Y0014196D01*
X0019440Y0014086D01*
X0019378Y0013978D01*
X0019312Y0013871D01*
X0019243Y0013767D01*
X0019170Y0013666D01*
X0019095Y0013566D01*
X0019016Y0013469D01*
X0018934Y0013375D01*
X0018849Y0013283D01*
X0018762Y0013194D01*
X0018671Y0013108D01*
X0018578Y0013025D01*
X0018482Y0012944D01*
X0018384Y0012867D01*
X0018284Y0012793D01*
X0018181Y0012722D01*
X0018076Y0012655D01*
X0017968Y0012590D01*
X0017859Y0012530D01*
X0017748Y0012472D01*
X0017635Y0012419D01*
X0017521Y0012369D01*
X0017405Y0012322D01*
X0017288Y0012280D01*
X0017169Y0012241D01*
X0017049Y0012205D01*
X0016928Y0012174D01*
X0016806Y0012146D01*
X0016684Y0012123D01*
X0016560Y0012103D01*
X0016436Y0012087D01*
X0016312Y0012075D01*
X0016187Y0012067D01*
X0016062Y0012063D01*
X0015938Y0012063D01*
X0015813Y0012067D01*
X0015688Y0012075D01*
X0015564Y0012087D01*
X0015440Y0012103D01*
X0015316Y0012123D01*
X0015194Y0012146D01*
X0015072Y0012174D01*
X0014951Y0012205D01*
X0014831Y0012241D01*
X0014712Y0012280D01*
X0014595Y0012322D01*
X0014479Y0012369D01*
X0014365Y0012419D01*
X0014252Y0012472D01*
X0014141Y0012530D01*
X0014031Y0012590D01*
X0013924Y0012655D01*
X0013819Y0012722D01*
X0013716Y0012793D01*
X0013616Y0012867D01*
X0013518Y0012944D01*
X0013422Y0013025D01*
X0013329Y0013108D01*
X0013238Y0013194D01*
X0013151Y0013283D01*
X0013066Y0013375D01*
X0012984Y0013469D01*
X0012905Y0013566D01*
X0012830Y0013666D01*
X0012757Y0013767D01*
X0012688Y0013871D01*
X0012622Y0013978D01*
X0012560Y0014086D01*
X0012501Y0014196D01*
X0012445Y0014308D01*
X0012393Y0014422D01*
X0012345Y0014537D01*
X0012300Y0014653D01*
X0012260Y0014772D01*
X0012222Y0014891D01*
X0012189Y0015011D01*
X0012160Y0015133D01*
X0012134Y0015255D01*
X0012112Y0015378D01*
X0012095Y0015502D01*
X0012081Y0015626D01*
X0012071Y0015750D01*
X0012065Y0015875D01*
X0012063Y0016000D01*
X0031500Y0023500D02*
X0031502Y0023634D01*
X0031508Y0023768D01*
X0031518Y0023901D01*
X0031532Y0024035D01*
X0031550Y0024168D01*
X0031572Y0024300D01*
X0031597Y0024431D01*
X0031627Y0024562D01*
X0031661Y0024692D01*
X0031698Y0024820D01*
X0031739Y0024948D01*
X0031784Y0025074D01*
X0031833Y0025199D01*
X0031885Y0025322D01*
X0031941Y0025444D01*
X0032001Y0025564D01*
X0032064Y0025682D01*
X0032131Y0025798D01*
X0032201Y0025912D01*
X0032275Y0026024D01*
X0032352Y0026134D01*
X0032432Y0026242D01*
X0032515Y0026347D01*
X0032601Y0026449D01*
X0032690Y0026549D01*
X0032783Y0026646D01*
X0032878Y0026741D01*
X0032976Y0026832D01*
X0033076Y0026921D01*
X0033179Y0027006D01*
X0033285Y0027089D01*
X0033393Y0027168D01*
X0033503Y0027244D01*
X0033616Y0027317D01*
X0033731Y0027386D01*
X0033847Y0027452D01*
X0033966Y0027514D01*
X0034086Y0027573D01*
X0034209Y0027628D01*
X0034332Y0027680D01*
X0034457Y0027727D01*
X0034584Y0027771D01*
X0034712Y0027812D01*
X0034841Y0027848D01*
X0034971Y0027881D01*
X0035102Y0027909D01*
X0035233Y0027934D01*
X0035366Y0027955D01*
X0035499Y0027972D01*
X0035632Y0027985D01*
X0035766Y0027994D01*
X0035900Y0027999D01*
X0036034Y0028000D01*
X0036167Y0027997D01*
X0036301Y0027990D01*
X0036435Y0027979D01*
X0036568Y0027964D01*
X0036701Y0027945D01*
X0036833Y0027922D01*
X0036964Y0027896D01*
X0037094Y0027865D01*
X0037224Y0027830D01*
X0037352Y0027792D01*
X0037479Y0027750D01*
X0037605Y0027704D01*
X0037730Y0027654D01*
X0037853Y0027601D01*
X0037974Y0027544D01*
X0038094Y0027483D01*
X0038211Y0027419D01*
X0038327Y0027352D01*
X0038441Y0027281D01*
X0038552Y0027206D01*
X0038661Y0027129D01*
X0038768Y0027048D01*
X0038873Y0026964D01*
X0038974Y0026877D01*
X0039074Y0026787D01*
X0039170Y0026694D01*
X0039264Y0026598D01*
X0039355Y0026499D01*
X0039442Y0026398D01*
X0039527Y0026294D01*
X0039609Y0026188D01*
X0039687Y0026080D01*
X0039762Y0025969D01*
X0039834Y0025856D01*
X0039903Y0025740D01*
X0039968Y0025623D01*
X0040029Y0025504D01*
X0040087Y0025383D01*
X0040141Y0025261D01*
X0040192Y0025137D01*
X0040239Y0025011D01*
X0040282Y0024884D01*
X0040321Y0024756D01*
X0040357Y0024627D01*
X0040388Y0024497D01*
X0040416Y0024366D01*
X0040440Y0024234D01*
X0040460Y0024101D01*
X0040476Y0023968D01*
X0040488Y0023835D01*
X0040496Y0023701D01*
X0040500Y0023567D01*
X0040500Y0023433D01*
X0040496Y0023299D01*
X0040488Y0023165D01*
X0040476Y0023032D01*
X0040460Y0022899D01*
X0040440Y0022766D01*
X0040416Y0022634D01*
X0040388Y0022503D01*
X0040357Y0022373D01*
X0040321Y0022244D01*
X0040282Y0022116D01*
X0040239Y0021989D01*
X0040192Y0021863D01*
X0040141Y0021739D01*
X0040087Y0021617D01*
X0040029Y0021496D01*
X0039968Y0021377D01*
X0039903Y0021260D01*
X0039834Y0021144D01*
X0039762Y0021031D01*
X0039687Y0020920D01*
X0039609Y0020812D01*
X0039527Y0020706D01*
X0039442Y0020602D01*
X0039355Y0020501D01*
X0039264Y0020402D01*
X0039170Y0020306D01*
X0039074Y0020213D01*
X0038974Y0020123D01*
X0038873Y0020036D01*
X0038768Y0019952D01*
X0038661Y0019871D01*
X0038552Y0019794D01*
X0038441Y0019719D01*
X0038327Y0019648D01*
X0038211Y0019581D01*
X0038094Y0019517D01*
X0037974Y0019456D01*
X0037853Y0019399D01*
X0037730Y0019346D01*
X0037605Y0019296D01*
X0037479Y0019250D01*
X0037352Y0019208D01*
X0037224Y0019170D01*
X0037094Y0019135D01*
X0036964Y0019104D01*
X0036833Y0019078D01*
X0036701Y0019055D01*
X0036568Y0019036D01*
X0036435Y0019021D01*
X0036301Y0019010D01*
X0036167Y0019003D01*
X0036034Y0019000D01*
X0035900Y0019001D01*
X0035766Y0019006D01*
X0035632Y0019015D01*
X0035499Y0019028D01*
X0035366Y0019045D01*
X0035233Y0019066D01*
X0035102Y0019091D01*
X0034971Y0019119D01*
X0034841Y0019152D01*
X0034712Y0019188D01*
X0034584Y0019229D01*
X0034457Y0019273D01*
X0034332Y0019320D01*
X0034209Y0019372D01*
X0034086Y0019427D01*
X0033966Y0019486D01*
X0033847Y0019548D01*
X0033731Y0019614D01*
X0033616Y0019683D01*
X0033503Y0019756D01*
X0033393Y0019832D01*
X0033285Y0019911D01*
X0033179Y0019994D01*
X0033076Y0020079D01*
X0032976Y0020168D01*
X0032878Y0020259D01*
X0032783Y0020354D01*
X0032690Y0020451D01*
X0032601Y0020551D01*
X0032515Y0020653D01*
X0032432Y0020758D01*
X0032352Y0020866D01*
X0032275Y0020976D01*
X0032201Y0021088D01*
X0032131Y0021202D01*
X0032064Y0021318D01*
X0032001Y0021436D01*
X0031941Y0021556D01*
X0031885Y0021678D01*
X0031833Y0021801D01*
X0031784Y0021926D01*
X0031739Y0022052D01*
X0031698Y0022180D01*
X0031661Y0022308D01*
X0031627Y0022438D01*
X0031597Y0022569D01*
X0031572Y0022700D01*
X0031550Y0022832D01*
X0031532Y0022965D01*
X0031518Y0023099D01*
X0031508Y0023232D01*
X0031502Y0023366D01*
X0031500Y0023500D01*
X0031500Y0098500D02*
X0031502Y0098634D01*
X0031508Y0098768D01*
X0031518Y0098901D01*
X0031532Y0099035D01*
X0031550Y0099168D01*
X0031572Y0099300D01*
X0031597Y0099431D01*
X0031627Y0099562D01*
X0031661Y0099692D01*
X0031698Y0099820D01*
X0031739Y0099948D01*
X0031784Y0100074D01*
X0031833Y0100199D01*
X0031885Y0100322D01*
X0031941Y0100444D01*
X0032001Y0100564D01*
X0032064Y0100682D01*
X0032131Y0100798D01*
X0032201Y0100912D01*
X0032275Y0101024D01*
X0032352Y0101134D01*
X0032432Y0101242D01*
X0032515Y0101347D01*
X0032601Y0101449D01*
X0032690Y0101549D01*
X0032783Y0101646D01*
X0032878Y0101741D01*
X0032976Y0101832D01*
X0033076Y0101921D01*
X0033179Y0102006D01*
X0033285Y0102089D01*
X0033393Y0102168D01*
X0033503Y0102244D01*
X0033616Y0102317D01*
X0033731Y0102386D01*
X0033847Y0102452D01*
X0033966Y0102514D01*
X0034086Y0102573D01*
X0034209Y0102628D01*
X0034332Y0102680D01*
X0034457Y0102727D01*
X0034584Y0102771D01*
X0034712Y0102812D01*
X0034841Y0102848D01*
X0034971Y0102881D01*
X0035102Y0102909D01*
X0035233Y0102934D01*
X0035366Y0102955D01*
X0035499Y0102972D01*
X0035632Y0102985D01*
X0035766Y0102994D01*
X0035900Y0102999D01*
X0036034Y0103000D01*
X0036167Y0102997D01*
X0036301Y0102990D01*
X0036435Y0102979D01*
X0036568Y0102964D01*
X0036701Y0102945D01*
X0036833Y0102922D01*
X0036964Y0102896D01*
X0037094Y0102865D01*
X0037224Y0102830D01*
X0037352Y0102792D01*
X0037479Y0102750D01*
X0037605Y0102704D01*
X0037730Y0102654D01*
X0037853Y0102601D01*
X0037974Y0102544D01*
X0038094Y0102483D01*
X0038211Y0102419D01*
X0038327Y0102352D01*
X0038441Y0102281D01*
X0038552Y0102206D01*
X0038661Y0102129D01*
X0038768Y0102048D01*
X0038873Y0101964D01*
X0038974Y0101877D01*
X0039074Y0101787D01*
X0039170Y0101694D01*
X0039264Y0101598D01*
X0039355Y0101499D01*
X0039442Y0101398D01*
X0039527Y0101294D01*
X0039609Y0101188D01*
X0039687Y0101080D01*
X0039762Y0100969D01*
X0039834Y0100856D01*
X0039903Y0100740D01*
X0039968Y0100623D01*
X0040029Y0100504D01*
X0040087Y0100383D01*
X0040141Y0100261D01*
X0040192Y0100137D01*
X0040239Y0100011D01*
X0040282Y0099884D01*
X0040321Y0099756D01*
X0040357Y0099627D01*
X0040388Y0099497D01*
X0040416Y0099366D01*
X0040440Y0099234D01*
X0040460Y0099101D01*
X0040476Y0098968D01*
X0040488Y0098835D01*
X0040496Y0098701D01*
X0040500Y0098567D01*
X0040500Y0098433D01*
X0040496Y0098299D01*
X0040488Y0098165D01*
X0040476Y0098032D01*
X0040460Y0097899D01*
X0040440Y0097766D01*
X0040416Y0097634D01*
X0040388Y0097503D01*
X0040357Y0097373D01*
X0040321Y0097244D01*
X0040282Y0097116D01*
X0040239Y0096989D01*
X0040192Y0096863D01*
X0040141Y0096739D01*
X0040087Y0096617D01*
X0040029Y0096496D01*
X0039968Y0096377D01*
X0039903Y0096260D01*
X0039834Y0096144D01*
X0039762Y0096031D01*
X0039687Y0095920D01*
X0039609Y0095812D01*
X0039527Y0095706D01*
X0039442Y0095602D01*
X0039355Y0095501D01*
X0039264Y0095402D01*
X0039170Y0095306D01*
X0039074Y0095213D01*
X0038974Y0095123D01*
X0038873Y0095036D01*
X0038768Y0094952D01*
X0038661Y0094871D01*
X0038552Y0094794D01*
X0038441Y0094719D01*
X0038327Y0094648D01*
X0038211Y0094581D01*
X0038094Y0094517D01*
X0037974Y0094456D01*
X0037853Y0094399D01*
X0037730Y0094346D01*
X0037605Y0094296D01*
X0037479Y0094250D01*
X0037352Y0094208D01*
X0037224Y0094170D01*
X0037094Y0094135D01*
X0036964Y0094104D01*
X0036833Y0094078D01*
X0036701Y0094055D01*
X0036568Y0094036D01*
X0036435Y0094021D01*
X0036301Y0094010D01*
X0036167Y0094003D01*
X0036034Y0094000D01*
X0035900Y0094001D01*
X0035766Y0094006D01*
X0035632Y0094015D01*
X0035499Y0094028D01*
X0035366Y0094045D01*
X0035233Y0094066D01*
X0035102Y0094091D01*
X0034971Y0094119D01*
X0034841Y0094152D01*
X0034712Y0094188D01*
X0034584Y0094229D01*
X0034457Y0094273D01*
X0034332Y0094320D01*
X0034209Y0094372D01*
X0034086Y0094427D01*
X0033966Y0094486D01*
X0033847Y0094548D01*
X0033731Y0094614D01*
X0033616Y0094683D01*
X0033503Y0094756D01*
X0033393Y0094832D01*
X0033285Y0094911D01*
X0033179Y0094994D01*
X0033076Y0095079D01*
X0032976Y0095168D01*
X0032878Y0095259D01*
X0032783Y0095354D01*
X0032690Y0095451D01*
X0032601Y0095551D01*
X0032515Y0095653D01*
X0032432Y0095758D01*
X0032352Y0095866D01*
X0032275Y0095976D01*
X0032201Y0096088D01*
X0032131Y0096202D01*
X0032064Y0096318D01*
X0032001Y0096436D01*
X0031941Y0096556D01*
X0031885Y0096678D01*
X0031833Y0096801D01*
X0031784Y0096926D01*
X0031739Y0097052D01*
X0031698Y0097180D01*
X0031661Y0097308D01*
X0031627Y0097438D01*
X0031597Y0097569D01*
X0031572Y0097700D01*
X0031550Y0097832D01*
X0031532Y0097965D01*
X0031518Y0098099D01*
X0031508Y0098232D01*
X0031502Y0098366D01*
X0031500Y0098500D01*
X0012063Y0271000D02*
X0012065Y0271125D01*
X0012071Y0271250D01*
X0012081Y0271374D01*
X0012095Y0271498D01*
X0012112Y0271622D01*
X0012134Y0271745D01*
X0012160Y0271867D01*
X0012189Y0271989D01*
X0012222Y0272109D01*
X0012260Y0272228D01*
X0012300Y0272347D01*
X0012345Y0272463D01*
X0012393Y0272578D01*
X0012445Y0272692D01*
X0012501Y0272804D01*
X0012560Y0272914D01*
X0012622Y0273022D01*
X0012688Y0273129D01*
X0012757Y0273233D01*
X0012830Y0273334D01*
X0012905Y0273434D01*
X0012984Y0273531D01*
X0013066Y0273625D01*
X0013151Y0273717D01*
X0013238Y0273806D01*
X0013329Y0273892D01*
X0013422Y0273975D01*
X0013518Y0274056D01*
X0013616Y0274133D01*
X0013716Y0274207D01*
X0013819Y0274278D01*
X0013924Y0274345D01*
X0014032Y0274410D01*
X0014141Y0274470D01*
X0014252Y0274528D01*
X0014365Y0274581D01*
X0014479Y0274631D01*
X0014595Y0274678D01*
X0014712Y0274720D01*
X0014831Y0274759D01*
X0014951Y0274795D01*
X0015072Y0274826D01*
X0015194Y0274854D01*
X0015316Y0274877D01*
X0015440Y0274897D01*
X0015564Y0274913D01*
X0015688Y0274925D01*
X0015813Y0274933D01*
X0015938Y0274937D01*
X0016062Y0274937D01*
X0016187Y0274933D01*
X0016312Y0274925D01*
X0016436Y0274913D01*
X0016560Y0274897D01*
X0016684Y0274877D01*
X0016806Y0274854D01*
X0016928Y0274826D01*
X0017049Y0274795D01*
X0017169Y0274759D01*
X0017288Y0274720D01*
X0017405Y0274678D01*
X0017521Y0274631D01*
X0017635Y0274581D01*
X0017748Y0274528D01*
X0017859Y0274470D01*
X0017969Y0274410D01*
X0018076Y0274345D01*
X0018181Y0274278D01*
X0018284Y0274207D01*
X0018384Y0274133D01*
X0018482Y0274056D01*
X0018578Y0273975D01*
X0018671Y0273892D01*
X0018762Y0273806D01*
X0018849Y0273717D01*
X0018934Y0273625D01*
X0019016Y0273531D01*
X0019095Y0273434D01*
X0019170Y0273334D01*
X0019243Y0273233D01*
X0019312Y0273129D01*
X0019378Y0273022D01*
X0019440Y0272914D01*
X0019499Y0272804D01*
X0019555Y0272692D01*
X0019607Y0272578D01*
X0019655Y0272463D01*
X0019700Y0272347D01*
X0019740Y0272228D01*
X0019778Y0272109D01*
X0019811Y0271989D01*
X0019840Y0271867D01*
X0019866Y0271745D01*
X0019888Y0271622D01*
X0019905Y0271498D01*
X0019919Y0271374D01*
X0019929Y0271250D01*
X0019935Y0271125D01*
X0019937Y0271000D01*
X0019935Y0270875D01*
X0019929Y0270750D01*
X0019919Y0270626D01*
X0019905Y0270502D01*
X0019888Y0270378D01*
X0019866Y0270255D01*
X0019840Y0270133D01*
X0019811Y0270011D01*
X0019778Y0269891D01*
X0019740Y0269772D01*
X0019700Y0269653D01*
X0019655Y0269537D01*
X0019607Y0269422D01*
X0019555Y0269308D01*
X0019499Y0269196D01*
X0019440Y0269086D01*
X0019378Y0268978D01*
X0019312Y0268871D01*
X0019243Y0268767D01*
X0019170Y0268666D01*
X0019095Y0268566D01*
X0019016Y0268469D01*
X0018934Y0268375D01*
X0018849Y0268283D01*
X0018762Y0268194D01*
X0018671Y0268108D01*
X0018578Y0268025D01*
X0018482Y0267944D01*
X0018384Y0267867D01*
X0018284Y0267793D01*
X0018181Y0267722D01*
X0018076Y0267655D01*
X0017968Y0267590D01*
X0017859Y0267530D01*
X0017748Y0267472D01*
X0017635Y0267419D01*
X0017521Y0267369D01*
X0017405Y0267322D01*
X0017288Y0267280D01*
X0017169Y0267241D01*
X0017049Y0267205D01*
X0016928Y0267174D01*
X0016806Y0267146D01*
X0016684Y0267123D01*
X0016560Y0267103D01*
X0016436Y0267087D01*
X0016312Y0267075D01*
X0016187Y0267067D01*
X0016062Y0267063D01*
X0015938Y0267063D01*
X0015813Y0267067D01*
X0015688Y0267075D01*
X0015564Y0267087D01*
X0015440Y0267103D01*
X0015316Y0267123D01*
X0015194Y0267146D01*
X0015072Y0267174D01*
X0014951Y0267205D01*
X0014831Y0267241D01*
X0014712Y0267280D01*
X0014595Y0267322D01*
X0014479Y0267369D01*
X0014365Y0267419D01*
X0014252Y0267472D01*
X0014141Y0267530D01*
X0014031Y0267590D01*
X0013924Y0267655D01*
X0013819Y0267722D01*
X0013716Y0267793D01*
X0013616Y0267867D01*
X0013518Y0267944D01*
X0013422Y0268025D01*
X0013329Y0268108D01*
X0013238Y0268194D01*
X0013151Y0268283D01*
X0013066Y0268375D01*
X0012984Y0268469D01*
X0012905Y0268566D01*
X0012830Y0268666D01*
X0012757Y0268767D01*
X0012688Y0268871D01*
X0012622Y0268978D01*
X0012560Y0269086D01*
X0012501Y0269196D01*
X0012445Y0269308D01*
X0012393Y0269422D01*
X0012345Y0269537D01*
X0012300Y0269653D01*
X0012260Y0269772D01*
X0012222Y0269891D01*
X0012189Y0270011D01*
X0012160Y0270133D01*
X0012134Y0270255D01*
X0012112Y0270378D01*
X0012095Y0270502D01*
X0012081Y0270626D01*
X0012071Y0270750D01*
X0012065Y0270875D01*
X0012063Y0271000D01*
X0237063Y0271000D02*
X0237065Y0271125D01*
X0237071Y0271250D01*
X0237081Y0271374D01*
X0237095Y0271498D01*
X0237112Y0271622D01*
X0237134Y0271745D01*
X0237160Y0271867D01*
X0237189Y0271989D01*
X0237222Y0272109D01*
X0237260Y0272228D01*
X0237300Y0272347D01*
X0237345Y0272463D01*
X0237393Y0272578D01*
X0237445Y0272692D01*
X0237501Y0272804D01*
X0237560Y0272914D01*
X0237622Y0273022D01*
X0237688Y0273129D01*
X0237757Y0273233D01*
X0237830Y0273334D01*
X0237905Y0273434D01*
X0237984Y0273531D01*
X0238066Y0273625D01*
X0238151Y0273717D01*
X0238238Y0273806D01*
X0238329Y0273892D01*
X0238422Y0273975D01*
X0238518Y0274056D01*
X0238616Y0274133D01*
X0238716Y0274207D01*
X0238819Y0274278D01*
X0238924Y0274345D01*
X0239032Y0274410D01*
X0239141Y0274470D01*
X0239252Y0274528D01*
X0239365Y0274581D01*
X0239479Y0274631D01*
X0239595Y0274678D01*
X0239712Y0274720D01*
X0239831Y0274759D01*
X0239951Y0274795D01*
X0240072Y0274826D01*
X0240194Y0274854D01*
X0240316Y0274877D01*
X0240440Y0274897D01*
X0240564Y0274913D01*
X0240688Y0274925D01*
X0240813Y0274933D01*
X0240938Y0274937D01*
X0241062Y0274937D01*
X0241187Y0274933D01*
X0241312Y0274925D01*
X0241436Y0274913D01*
X0241560Y0274897D01*
X0241684Y0274877D01*
X0241806Y0274854D01*
X0241928Y0274826D01*
X0242049Y0274795D01*
X0242169Y0274759D01*
X0242288Y0274720D01*
X0242405Y0274678D01*
X0242521Y0274631D01*
X0242635Y0274581D01*
X0242748Y0274528D01*
X0242859Y0274470D01*
X0242969Y0274410D01*
X0243076Y0274345D01*
X0243181Y0274278D01*
X0243284Y0274207D01*
X0243384Y0274133D01*
X0243482Y0274056D01*
X0243578Y0273975D01*
X0243671Y0273892D01*
X0243762Y0273806D01*
X0243849Y0273717D01*
X0243934Y0273625D01*
X0244016Y0273531D01*
X0244095Y0273434D01*
X0244170Y0273334D01*
X0244243Y0273233D01*
X0244312Y0273129D01*
X0244378Y0273022D01*
X0244440Y0272914D01*
X0244499Y0272804D01*
X0244555Y0272692D01*
X0244607Y0272578D01*
X0244655Y0272463D01*
X0244700Y0272347D01*
X0244740Y0272228D01*
X0244778Y0272109D01*
X0244811Y0271989D01*
X0244840Y0271867D01*
X0244866Y0271745D01*
X0244888Y0271622D01*
X0244905Y0271498D01*
X0244919Y0271374D01*
X0244929Y0271250D01*
X0244935Y0271125D01*
X0244937Y0271000D01*
X0244935Y0270875D01*
X0244929Y0270750D01*
X0244919Y0270626D01*
X0244905Y0270502D01*
X0244888Y0270378D01*
X0244866Y0270255D01*
X0244840Y0270133D01*
X0244811Y0270011D01*
X0244778Y0269891D01*
X0244740Y0269772D01*
X0244700Y0269653D01*
X0244655Y0269537D01*
X0244607Y0269422D01*
X0244555Y0269308D01*
X0244499Y0269196D01*
X0244440Y0269086D01*
X0244378Y0268978D01*
X0244312Y0268871D01*
X0244243Y0268767D01*
X0244170Y0268666D01*
X0244095Y0268566D01*
X0244016Y0268469D01*
X0243934Y0268375D01*
X0243849Y0268283D01*
X0243762Y0268194D01*
X0243671Y0268108D01*
X0243578Y0268025D01*
X0243482Y0267944D01*
X0243384Y0267867D01*
X0243284Y0267793D01*
X0243181Y0267722D01*
X0243076Y0267655D01*
X0242968Y0267590D01*
X0242859Y0267530D01*
X0242748Y0267472D01*
X0242635Y0267419D01*
X0242521Y0267369D01*
X0242405Y0267322D01*
X0242288Y0267280D01*
X0242169Y0267241D01*
X0242049Y0267205D01*
X0241928Y0267174D01*
X0241806Y0267146D01*
X0241684Y0267123D01*
X0241560Y0267103D01*
X0241436Y0267087D01*
X0241312Y0267075D01*
X0241187Y0267067D01*
X0241062Y0267063D01*
X0240938Y0267063D01*
X0240813Y0267067D01*
X0240688Y0267075D01*
X0240564Y0267087D01*
X0240440Y0267103D01*
X0240316Y0267123D01*
X0240194Y0267146D01*
X0240072Y0267174D01*
X0239951Y0267205D01*
X0239831Y0267241D01*
X0239712Y0267280D01*
X0239595Y0267322D01*
X0239479Y0267369D01*
X0239365Y0267419D01*
X0239252Y0267472D01*
X0239141Y0267530D01*
X0239031Y0267590D01*
X0238924Y0267655D01*
X0238819Y0267722D01*
X0238716Y0267793D01*
X0238616Y0267867D01*
X0238518Y0267944D01*
X0238422Y0268025D01*
X0238329Y0268108D01*
X0238238Y0268194D01*
X0238151Y0268283D01*
X0238066Y0268375D01*
X0237984Y0268469D01*
X0237905Y0268566D01*
X0237830Y0268666D01*
X0237757Y0268767D01*
X0237688Y0268871D01*
X0237622Y0268978D01*
X0237560Y0269086D01*
X0237501Y0269196D01*
X0237445Y0269308D01*
X0237393Y0269422D01*
X0237345Y0269537D01*
X0237300Y0269653D01*
X0237260Y0269772D01*
X0237222Y0269891D01*
X0237189Y0270011D01*
X0237160Y0270133D01*
X0237134Y0270255D01*
X0237112Y0270378D01*
X0237095Y0270502D01*
X0237081Y0270626D01*
X0237071Y0270750D01*
X0237065Y0270875D01*
X0237063Y0271000D01*
X0237063Y0016000D02*
X0237065Y0016125D01*
X0237071Y0016250D01*
X0237081Y0016374D01*
X0237095Y0016498D01*
X0237112Y0016622D01*
X0237134Y0016745D01*
X0237160Y0016867D01*
X0237189Y0016989D01*
X0237222Y0017109D01*
X0237260Y0017228D01*
X0237300Y0017347D01*
X0237345Y0017463D01*
X0237393Y0017578D01*
X0237445Y0017692D01*
X0237501Y0017804D01*
X0237560Y0017914D01*
X0237622Y0018022D01*
X0237688Y0018129D01*
X0237757Y0018233D01*
X0237830Y0018334D01*
X0237905Y0018434D01*
X0237984Y0018531D01*
X0238066Y0018625D01*
X0238151Y0018717D01*
X0238238Y0018806D01*
X0238329Y0018892D01*
X0238422Y0018975D01*
X0238518Y0019056D01*
X0238616Y0019133D01*
X0238716Y0019207D01*
X0238819Y0019278D01*
X0238924Y0019345D01*
X0239032Y0019410D01*
X0239141Y0019470D01*
X0239252Y0019528D01*
X0239365Y0019581D01*
X0239479Y0019631D01*
X0239595Y0019678D01*
X0239712Y0019720D01*
X0239831Y0019759D01*
X0239951Y0019795D01*
X0240072Y0019826D01*
X0240194Y0019854D01*
X0240316Y0019877D01*
X0240440Y0019897D01*
X0240564Y0019913D01*
X0240688Y0019925D01*
X0240813Y0019933D01*
X0240938Y0019937D01*
X0241062Y0019937D01*
X0241187Y0019933D01*
X0241312Y0019925D01*
X0241436Y0019913D01*
X0241560Y0019897D01*
X0241684Y0019877D01*
X0241806Y0019854D01*
X0241928Y0019826D01*
X0242049Y0019795D01*
X0242169Y0019759D01*
X0242288Y0019720D01*
X0242405Y0019678D01*
X0242521Y0019631D01*
X0242635Y0019581D01*
X0242748Y0019528D01*
X0242859Y0019470D01*
X0242969Y0019410D01*
X0243076Y0019345D01*
X0243181Y0019278D01*
X0243284Y0019207D01*
X0243384Y0019133D01*
X0243482Y0019056D01*
X0243578Y0018975D01*
X0243671Y0018892D01*
X0243762Y0018806D01*
X0243849Y0018717D01*
X0243934Y0018625D01*
X0244016Y0018531D01*
X0244095Y0018434D01*
X0244170Y0018334D01*
X0244243Y0018233D01*
X0244312Y0018129D01*
X0244378Y0018022D01*
X0244440Y0017914D01*
X0244499Y0017804D01*
X0244555Y0017692D01*
X0244607Y0017578D01*
X0244655Y0017463D01*
X0244700Y0017347D01*
X0244740Y0017228D01*
X0244778Y0017109D01*
X0244811Y0016989D01*
X0244840Y0016867D01*
X0244866Y0016745D01*
X0244888Y0016622D01*
X0244905Y0016498D01*
X0244919Y0016374D01*
X0244929Y0016250D01*
X0244935Y0016125D01*
X0244937Y0016000D01*
X0244935Y0015875D01*
X0244929Y0015750D01*
X0244919Y0015626D01*
X0244905Y0015502D01*
X0244888Y0015378D01*
X0244866Y0015255D01*
X0244840Y0015133D01*
X0244811Y0015011D01*
X0244778Y0014891D01*
X0244740Y0014772D01*
X0244700Y0014653D01*
X0244655Y0014537D01*
X0244607Y0014422D01*
X0244555Y0014308D01*
X0244499Y0014196D01*
X0244440Y0014086D01*
X0244378Y0013978D01*
X0244312Y0013871D01*
X0244243Y0013767D01*
X0244170Y0013666D01*
X0244095Y0013566D01*
X0244016Y0013469D01*
X0243934Y0013375D01*
X0243849Y0013283D01*
X0243762Y0013194D01*
X0243671Y0013108D01*
X0243578Y0013025D01*
X0243482Y0012944D01*
X0243384Y0012867D01*
X0243284Y0012793D01*
X0243181Y0012722D01*
X0243076Y0012655D01*
X0242968Y0012590D01*
X0242859Y0012530D01*
X0242748Y0012472D01*
X0242635Y0012419D01*
X0242521Y0012369D01*
X0242405Y0012322D01*
X0242288Y0012280D01*
X0242169Y0012241D01*
X0242049Y0012205D01*
X0241928Y0012174D01*
X0241806Y0012146D01*
X0241684Y0012123D01*
X0241560Y0012103D01*
X0241436Y0012087D01*
X0241312Y0012075D01*
X0241187Y0012067D01*
X0241062Y0012063D01*
X0240938Y0012063D01*
X0240813Y0012067D01*
X0240688Y0012075D01*
X0240564Y0012087D01*
X0240440Y0012103D01*
X0240316Y0012123D01*
X0240194Y0012146D01*
X0240072Y0012174D01*
X0239951Y0012205D01*
X0239831Y0012241D01*
X0239712Y0012280D01*
X0239595Y0012322D01*
X0239479Y0012369D01*
X0239365Y0012419D01*
X0239252Y0012472D01*
X0239141Y0012530D01*
X0239031Y0012590D01*
X0238924Y0012655D01*
X0238819Y0012722D01*
X0238716Y0012793D01*
X0238616Y0012867D01*
X0238518Y0012944D01*
X0238422Y0013025D01*
X0238329Y0013108D01*
X0238238Y0013194D01*
X0238151Y0013283D01*
X0238066Y0013375D01*
X0237984Y0013469D01*
X0237905Y0013566D01*
X0237830Y0013666D01*
X0237757Y0013767D01*
X0237688Y0013871D01*
X0237622Y0013978D01*
X0237560Y0014086D01*
X0237501Y0014196D01*
X0237445Y0014308D01*
X0237393Y0014422D01*
X0237345Y0014537D01*
X0237300Y0014653D01*
X0237260Y0014772D01*
X0237222Y0014891D01*
X0237189Y0015011D01*
X0237160Y0015133D01*
X0237134Y0015255D01*
X0237112Y0015378D01*
X0237095Y0015502D01*
X0237081Y0015626D01*
X0237071Y0015750D01*
X0237065Y0015875D01*
X0237063Y0016000D01*
D11*
X0136315Y0128953D03*
X0130409Y0128953D03*
X0124504Y0128953D03*
X0118598Y0128953D03*
X0112693Y0128953D03*
X0106787Y0128953D03*
X0100882Y0128953D03*
X0094976Y0128953D03*
X0089071Y0128953D03*
X0083165Y0128953D03*
X0077260Y0128756D03*
X0071354Y0128756D03*
X0071354Y0218520D03*
X0077260Y0218520D03*
X0083165Y0218520D03*
X0089071Y0218520D03*
X0094976Y0218520D03*
X0100882Y0218520D03*
X0106787Y0218520D03*
X0112693Y0218520D03*
X0118598Y0218520D03*
X0124504Y0218520D03*
X0130409Y0218520D03*
X0136315Y0218520D03*
D12*
X0144583Y0209268D03*
X0144583Y0203165D03*
X0144583Y0197260D03*
X0144583Y0191354D03*
X0144583Y0185449D03*
X0144583Y0179543D03*
X0144583Y0173638D03*
X0144583Y0167732D03*
X0144583Y0161827D03*
X0144583Y0155921D03*
X0144583Y0150016D03*
X0144583Y0144110D03*
X0144583Y0138205D03*
D13*
X0091800Y0071000D03*
X0080200Y0071000D03*
X0080200Y0051000D03*
X0091800Y0051000D03*
D14*
X0201000Y0176000D03*
D15*
X0201000Y0131000D03*
X0201000Y0221000D03*
M02*
