%
M48
M72
T01C0.0197
T02C0.0236
T03C0.0240
T04C0.0394
T05C0.0400
T06C0.0787
T07C0.0900
T08C0.1000
%
T01
X8663Y11320
X10730Y14962
X12600Y23427
X7482Y23427
X10631Y5120
T02
X12502Y4529
X19096Y4529
X19096Y5612
T03
X10900Y20980
X11260Y20620
X11620Y20980
X12160Y20980
X12880Y20620
X13240Y20980
X13600Y20620
X15760Y20260
X14680Y25660
X8560Y6310
T04
X5100Y2100
X6100Y2100
X7100Y2100
X8100Y2100
X9100Y2100
X10100Y2100
X11100Y2100
X12100Y2100
X13100Y2100
X14100Y2100
X15100Y2100
X16100Y2100
X16100Y10100
X15100Y10100
X14100Y10100
X13100Y10100
X12100Y10100
X11100Y10100
X10100Y10100
X9100Y10100
X8100Y10100
X7100Y10100
X6100Y10100
X5100Y10100
X17100Y10100
X18100Y10100
X19100Y10100
X20100Y10100
T05
X7100Y25600
X7100Y24600
X8100Y24600
X8100Y25600
X9100Y25600
X9100Y24600
X10100Y24600
X10100Y25600
X11100Y25600
X11100Y24600
X12100Y24600
X12100Y25600
X13100Y25600
X13100Y24600
X14100Y24600
X14100Y25600
X22943Y12206
X21943Y12206
T06
X1600Y1600
X1600Y27100
X24100Y27100
X24100Y1600
T07
X3600Y2350
X3600Y9850
T08
X21600Y9600
X21600Y2600
M30
