G75*
%MOIN*%
%OFA0B0*%
%FSLAX25Y25*%
%IPPOS*%
%LPD*%
%AMOC8*
5,1,8,0,0,1.08239X$1,22.5*
%
%ADD10C,0.00000*%
%ADD11OC8,0.06000*%
%ADD12C,0.14000*%
%ADD13R,0.05937X0.05937*%
%ADD14C,0.05937*%
%ADD15C,0.06000*%
%ADD16C,0.03569*%
%ADD17C,0.01000*%
%ADD18C,0.04000*%
%ADD19R,0.03962X0.03962*%
%ADD20C,0.01600*%
D10*
X0001000Y0001000D02*
X0001000Y0285961D01*
X0254701Y0285961D01*
X0254701Y0001000D01*
X0001000Y0001000D01*
X0012063Y0016000D02*
X0012065Y0016125D01*
X0012071Y0016250D01*
X0012081Y0016374D01*
X0012095Y0016498D01*
X0012112Y0016622D01*
X0012134Y0016745D01*
X0012160Y0016867D01*
X0012189Y0016989D01*
X0012222Y0017109D01*
X0012260Y0017228D01*
X0012300Y0017347D01*
X0012345Y0017463D01*
X0012393Y0017578D01*
X0012445Y0017692D01*
X0012501Y0017804D01*
X0012560Y0017914D01*
X0012622Y0018022D01*
X0012688Y0018129D01*
X0012757Y0018233D01*
X0012830Y0018334D01*
X0012905Y0018434D01*
X0012984Y0018531D01*
X0013066Y0018625D01*
X0013151Y0018717D01*
X0013238Y0018806D01*
X0013329Y0018892D01*
X0013422Y0018975D01*
X0013518Y0019056D01*
X0013616Y0019133D01*
X0013716Y0019207D01*
X0013819Y0019278D01*
X0013924Y0019345D01*
X0014032Y0019410D01*
X0014141Y0019470D01*
X0014252Y0019528D01*
X0014365Y0019581D01*
X0014479Y0019631D01*
X0014595Y0019678D01*
X0014712Y0019720D01*
X0014831Y0019759D01*
X0014951Y0019795D01*
X0015072Y0019826D01*
X0015194Y0019854D01*
X0015316Y0019877D01*
X0015440Y0019897D01*
X0015564Y0019913D01*
X0015688Y0019925D01*
X0015813Y0019933D01*
X0015938Y0019937D01*
X0016062Y0019937D01*
X0016187Y0019933D01*
X0016312Y0019925D01*
X0016436Y0019913D01*
X0016560Y0019897D01*
X0016684Y0019877D01*
X0016806Y0019854D01*
X0016928Y0019826D01*
X0017049Y0019795D01*
X0017169Y0019759D01*
X0017288Y0019720D01*
X0017405Y0019678D01*
X0017521Y0019631D01*
X0017635Y0019581D01*
X0017748Y0019528D01*
X0017859Y0019470D01*
X0017969Y0019410D01*
X0018076Y0019345D01*
X0018181Y0019278D01*
X0018284Y0019207D01*
X0018384Y0019133D01*
X0018482Y0019056D01*
X0018578Y0018975D01*
X0018671Y0018892D01*
X0018762Y0018806D01*
X0018849Y0018717D01*
X0018934Y0018625D01*
X0019016Y0018531D01*
X0019095Y0018434D01*
X0019170Y0018334D01*
X0019243Y0018233D01*
X0019312Y0018129D01*
X0019378Y0018022D01*
X0019440Y0017914D01*
X0019499Y0017804D01*
X0019555Y0017692D01*
X0019607Y0017578D01*
X0019655Y0017463D01*
X0019700Y0017347D01*
X0019740Y0017228D01*
X0019778Y0017109D01*
X0019811Y0016989D01*
X0019840Y0016867D01*
X0019866Y0016745D01*
X0019888Y0016622D01*
X0019905Y0016498D01*
X0019919Y0016374D01*
X0019929Y0016250D01*
X0019935Y0016125D01*
X0019937Y0016000D01*
X0019935Y0015875D01*
X0019929Y0015750D01*
X0019919Y0015626D01*
X0019905Y0015502D01*
X0019888Y0015378D01*
X0019866Y0015255D01*
X0019840Y0015133D01*
X0019811Y0015011D01*
X0019778Y0014891D01*
X0019740Y0014772D01*
X0019700Y0014653D01*
X0019655Y0014537D01*
X0019607Y0014422D01*
X0019555Y0014308D01*
X0019499Y0014196D01*
X0019440Y0014086D01*
X0019378Y0013978D01*
X0019312Y0013871D01*
X0019243Y0013767D01*
X0019170Y0013666D01*
X0019095Y0013566D01*
X0019016Y0013469D01*
X0018934Y0013375D01*
X0018849Y0013283D01*
X0018762Y0013194D01*
X0018671Y0013108D01*
X0018578Y0013025D01*
X0018482Y0012944D01*
X0018384Y0012867D01*
X0018284Y0012793D01*
X0018181Y0012722D01*
X0018076Y0012655D01*
X0017968Y0012590D01*
X0017859Y0012530D01*
X0017748Y0012472D01*
X0017635Y0012419D01*
X0017521Y0012369D01*
X0017405Y0012322D01*
X0017288Y0012280D01*
X0017169Y0012241D01*
X0017049Y0012205D01*
X0016928Y0012174D01*
X0016806Y0012146D01*
X0016684Y0012123D01*
X0016560Y0012103D01*
X0016436Y0012087D01*
X0016312Y0012075D01*
X0016187Y0012067D01*
X0016062Y0012063D01*
X0015938Y0012063D01*
X0015813Y0012067D01*
X0015688Y0012075D01*
X0015564Y0012087D01*
X0015440Y0012103D01*
X0015316Y0012123D01*
X0015194Y0012146D01*
X0015072Y0012174D01*
X0014951Y0012205D01*
X0014831Y0012241D01*
X0014712Y0012280D01*
X0014595Y0012322D01*
X0014479Y0012369D01*
X0014365Y0012419D01*
X0014252Y0012472D01*
X0014141Y0012530D01*
X0014031Y0012590D01*
X0013924Y0012655D01*
X0013819Y0012722D01*
X0013716Y0012793D01*
X0013616Y0012867D01*
X0013518Y0012944D01*
X0013422Y0013025D01*
X0013329Y0013108D01*
X0013238Y0013194D01*
X0013151Y0013283D01*
X0013066Y0013375D01*
X0012984Y0013469D01*
X0012905Y0013566D01*
X0012830Y0013666D01*
X0012757Y0013767D01*
X0012688Y0013871D01*
X0012622Y0013978D01*
X0012560Y0014086D01*
X0012501Y0014196D01*
X0012445Y0014308D01*
X0012393Y0014422D01*
X0012345Y0014537D01*
X0012300Y0014653D01*
X0012260Y0014772D01*
X0012222Y0014891D01*
X0012189Y0015011D01*
X0012160Y0015133D01*
X0012134Y0015255D01*
X0012112Y0015378D01*
X0012095Y0015502D01*
X0012081Y0015626D01*
X0012071Y0015750D01*
X0012065Y0015875D01*
X0012063Y0016000D01*
X0031500Y0023500D02*
X0031502Y0023634D01*
X0031508Y0023768D01*
X0031518Y0023901D01*
X0031532Y0024035D01*
X0031550Y0024168D01*
X0031572Y0024300D01*
X0031597Y0024431D01*
X0031627Y0024562D01*
X0031661Y0024692D01*
X0031698Y0024820D01*
X0031739Y0024948D01*
X0031784Y0025074D01*
X0031833Y0025199D01*
X0031885Y0025322D01*
X0031941Y0025444D01*
X0032001Y0025564D01*
X0032064Y0025682D01*
X0032131Y0025798D01*
X0032201Y0025912D01*
X0032275Y0026024D01*
X0032352Y0026134D01*
X0032432Y0026242D01*
X0032515Y0026347D01*
X0032601Y0026449D01*
X0032690Y0026549D01*
X0032783Y0026646D01*
X0032878Y0026741D01*
X0032976Y0026832D01*
X0033076Y0026921D01*
X0033179Y0027006D01*
X0033285Y0027089D01*
X0033393Y0027168D01*
X0033503Y0027244D01*
X0033616Y0027317D01*
X0033731Y0027386D01*
X0033847Y0027452D01*
X0033966Y0027514D01*
X0034086Y0027573D01*
X0034209Y0027628D01*
X0034332Y0027680D01*
X0034457Y0027727D01*
X0034584Y0027771D01*
X0034712Y0027812D01*
X0034841Y0027848D01*
X0034971Y0027881D01*
X0035102Y0027909D01*
X0035233Y0027934D01*
X0035366Y0027955D01*
X0035499Y0027972D01*
X0035632Y0027985D01*
X0035766Y0027994D01*
X0035900Y0027999D01*
X0036034Y0028000D01*
X0036167Y0027997D01*
X0036301Y0027990D01*
X0036435Y0027979D01*
X0036568Y0027964D01*
X0036701Y0027945D01*
X0036833Y0027922D01*
X0036964Y0027896D01*
X0037094Y0027865D01*
X0037224Y0027830D01*
X0037352Y0027792D01*
X0037479Y0027750D01*
X0037605Y0027704D01*
X0037730Y0027654D01*
X0037853Y0027601D01*
X0037974Y0027544D01*
X0038094Y0027483D01*
X0038211Y0027419D01*
X0038327Y0027352D01*
X0038441Y0027281D01*
X0038552Y0027206D01*
X0038661Y0027129D01*
X0038768Y0027048D01*
X0038873Y0026964D01*
X0038974Y0026877D01*
X0039074Y0026787D01*
X0039170Y0026694D01*
X0039264Y0026598D01*
X0039355Y0026499D01*
X0039442Y0026398D01*
X0039527Y0026294D01*
X0039609Y0026188D01*
X0039687Y0026080D01*
X0039762Y0025969D01*
X0039834Y0025856D01*
X0039903Y0025740D01*
X0039968Y0025623D01*
X0040029Y0025504D01*
X0040087Y0025383D01*
X0040141Y0025261D01*
X0040192Y0025137D01*
X0040239Y0025011D01*
X0040282Y0024884D01*
X0040321Y0024756D01*
X0040357Y0024627D01*
X0040388Y0024497D01*
X0040416Y0024366D01*
X0040440Y0024234D01*
X0040460Y0024101D01*
X0040476Y0023968D01*
X0040488Y0023835D01*
X0040496Y0023701D01*
X0040500Y0023567D01*
X0040500Y0023433D01*
X0040496Y0023299D01*
X0040488Y0023165D01*
X0040476Y0023032D01*
X0040460Y0022899D01*
X0040440Y0022766D01*
X0040416Y0022634D01*
X0040388Y0022503D01*
X0040357Y0022373D01*
X0040321Y0022244D01*
X0040282Y0022116D01*
X0040239Y0021989D01*
X0040192Y0021863D01*
X0040141Y0021739D01*
X0040087Y0021617D01*
X0040029Y0021496D01*
X0039968Y0021377D01*
X0039903Y0021260D01*
X0039834Y0021144D01*
X0039762Y0021031D01*
X0039687Y0020920D01*
X0039609Y0020812D01*
X0039527Y0020706D01*
X0039442Y0020602D01*
X0039355Y0020501D01*
X0039264Y0020402D01*
X0039170Y0020306D01*
X0039074Y0020213D01*
X0038974Y0020123D01*
X0038873Y0020036D01*
X0038768Y0019952D01*
X0038661Y0019871D01*
X0038552Y0019794D01*
X0038441Y0019719D01*
X0038327Y0019648D01*
X0038211Y0019581D01*
X0038094Y0019517D01*
X0037974Y0019456D01*
X0037853Y0019399D01*
X0037730Y0019346D01*
X0037605Y0019296D01*
X0037479Y0019250D01*
X0037352Y0019208D01*
X0037224Y0019170D01*
X0037094Y0019135D01*
X0036964Y0019104D01*
X0036833Y0019078D01*
X0036701Y0019055D01*
X0036568Y0019036D01*
X0036435Y0019021D01*
X0036301Y0019010D01*
X0036167Y0019003D01*
X0036034Y0019000D01*
X0035900Y0019001D01*
X0035766Y0019006D01*
X0035632Y0019015D01*
X0035499Y0019028D01*
X0035366Y0019045D01*
X0035233Y0019066D01*
X0035102Y0019091D01*
X0034971Y0019119D01*
X0034841Y0019152D01*
X0034712Y0019188D01*
X0034584Y0019229D01*
X0034457Y0019273D01*
X0034332Y0019320D01*
X0034209Y0019372D01*
X0034086Y0019427D01*
X0033966Y0019486D01*
X0033847Y0019548D01*
X0033731Y0019614D01*
X0033616Y0019683D01*
X0033503Y0019756D01*
X0033393Y0019832D01*
X0033285Y0019911D01*
X0033179Y0019994D01*
X0033076Y0020079D01*
X0032976Y0020168D01*
X0032878Y0020259D01*
X0032783Y0020354D01*
X0032690Y0020451D01*
X0032601Y0020551D01*
X0032515Y0020653D01*
X0032432Y0020758D01*
X0032352Y0020866D01*
X0032275Y0020976D01*
X0032201Y0021088D01*
X0032131Y0021202D01*
X0032064Y0021318D01*
X0032001Y0021436D01*
X0031941Y0021556D01*
X0031885Y0021678D01*
X0031833Y0021801D01*
X0031784Y0021926D01*
X0031739Y0022052D01*
X0031698Y0022180D01*
X0031661Y0022308D01*
X0031627Y0022438D01*
X0031597Y0022569D01*
X0031572Y0022700D01*
X0031550Y0022832D01*
X0031532Y0022965D01*
X0031518Y0023099D01*
X0031508Y0023232D01*
X0031502Y0023366D01*
X0031500Y0023500D01*
X0031500Y0098500D02*
X0031502Y0098634D01*
X0031508Y0098768D01*
X0031518Y0098901D01*
X0031532Y0099035D01*
X0031550Y0099168D01*
X0031572Y0099300D01*
X0031597Y0099431D01*
X0031627Y0099562D01*
X0031661Y0099692D01*
X0031698Y0099820D01*
X0031739Y0099948D01*
X0031784Y0100074D01*
X0031833Y0100199D01*
X0031885Y0100322D01*
X0031941Y0100444D01*
X0032001Y0100564D01*
X0032064Y0100682D01*
X0032131Y0100798D01*
X0032201Y0100912D01*
X0032275Y0101024D01*
X0032352Y0101134D01*
X0032432Y0101242D01*
X0032515Y0101347D01*
X0032601Y0101449D01*
X0032690Y0101549D01*
X0032783Y0101646D01*
X0032878Y0101741D01*
X0032976Y0101832D01*
X0033076Y0101921D01*
X0033179Y0102006D01*
X0033285Y0102089D01*
X0033393Y0102168D01*
X0033503Y0102244D01*
X0033616Y0102317D01*
X0033731Y0102386D01*
X0033847Y0102452D01*
X0033966Y0102514D01*
X0034086Y0102573D01*
X0034209Y0102628D01*
X0034332Y0102680D01*
X0034457Y0102727D01*
X0034584Y0102771D01*
X0034712Y0102812D01*
X0034841Y0102848D01*
X0034971Y0102881D01*
X0035102Y0102909D01*
X0035233Y0102934D01*
X0035366Y0102955D01*
X0035499Y0102972D01*
X0035632Y0102985D01*
X0035766Y0102994D01*
X0035900Y0102999D01*
X0036034Y0103000D01*
X0036167Y0102997D01*
X0036301Y0102990D01*
X0036435Y0102979D01*
X0036568Y0102964D01*
X0036701Y0102945D01*
X0036833Y0102922D01*
X0036964Y0102896D01*
X0037094Y0102865D01*
X0037224Y0102830D01*
X0037352Y0102792D01*
X0037479Y0102750D01*
X0037605Y0102704D01*
X0037730Y0102654D01*
X0037853Y0102601D01*
X0037974Y0102544D01*
X0038094Y0102483D01*
X0038211Y0102419D01*
X0038327Y0102352D01*
X0038441Y0102281D01*
X0038552Y0102206D01*
X0038661Y0102129D01*
X0038768Y0102048D01*
X0038873Y0101964D01*
X0038974Y0101877D01*
X0039074Y0101787D01*
X0039170Y0101694D01*
X0039264Y0101598D01*
X0039355Y0101499D01*
X0039442Y0101398D01*
X0039527Y0101294D01*
X0039609Y0101188D01*
X0039687Y0101080D01*
X0039762Y0100969D01*
X0039834Y0100856D01*
X0039903Y0100740D01*
X0039968Y0100623D01*
X0040029Y0100504D01*
X0040087Y0100383D01*
X0040141Y0100261D01*
X0040192Y0100137D01*
X0040239Y0100011D01*
X0040282Y0099884D01*
X0040321Y0099756D01*
X0040357Y0099627D01*
X0040388Y0099497D01*
X0040416Y0099366D01*
X0040440Y0099234D01*
X0040460Y0099101D01*
X0040476Y0098968D01*
X0040488Y0098835D01*
X0040496Y0098701D01*
X0040500Y0098567D01*
X0040500Y0098433D01*
X0040496Y0098299D01*
X0040488Y0098165D01*
X0040476Y0098032D01*
X0040460Y0097899D01*
X0040440Y0097766D01*
X0040416Y0097634D01*
X0040388Y0097503D01*
X0040357Y0097373D01*
X0040321Y0097244D01*
X0040282Y0097116D01*
X0040239Y0096989D01*
X0040192Y0096863D01*
X0040141Y0096739D01*
X0040087Y0096617D01*
X0040029Y0096496D01*
X0039968Y0096377D01*
X0039903Y0096260D01*
X0039834Y0096144D01*
X0039762Y0096031D01*
X0039687Y0095920D01*
X0039609Y0095812D01*
X0039527Y0095706D01*
X0039442Y0095602D01*
X0039355Y0095501D01*
X0039264Y0095402D01*
X0039170Y0095306D01*
X0039074Y0095213D01*
X0038974Y0095123D01*
X0038873Y0095036D01*
X0038768Y0094952D01*
X0038661Y0094871D01*
X0038552Y0094794D01*
X0038441Y0094719D01*
X0038327Y0094648D01*
X0038211Y0094581D01*
X0038094Y0094517D01*
X0037974Y0094456D01*
X0037853Y0094399D01*
X0037730Y0094346D01*
X0037605Y0094296D01*
X0037479Y0094250D01*
X0037352Y0094208D01*
X0037224Y0094170D01*
X0037094Y0094135D01*
X0036964Y0094104D01*
X0036833Y0094078D01*
X0036701Y0094055D01*
X0036568Y0094036D01*
X0036435Y0094021D01*
X0036301Y0094010D01*
X0036167Y0094003D01*
X0036034Y0094000D01*
X0035900Y0094001D01*
X0035766Y0094006D01*
X0035632Y0094015D01*
X0035499Y0094028D01*
X0035366Y0094045D01*
X0035233Y0094066D01*
X0035102Y0094091D01*
X0034971Y0094119D01*
X0034841Y0094152D01*
X0034712Y0094188D01*
X0034584Y0094229D01*
X0034457Y0094273D01*
X0034332Y0094320D01*
X0034209Y0094372D01*
X0034086Y0094427D01*
X0033966Y0094486D01*
X0033847Y0094548D01*
X0033731Y0094614D01*
X0033616Y0094683D01*
X0033503Y0094756D01*
X0033393Y0094832D01*
X0033285Y0094911D01*
X0033179Y0094994D01*
X0033076Y0095079D01*
X0032976Y0095168D01*
X0032878Y0095259D01*
X0032783Y0095354D01*
X0032690Y0095451D01*
X0032601Y0095551D01*
X0032515Y0095653D01*
X0032432Y0095758D01*
X0032352Y0095866D01*
X0032275Y0095976D01*
X0032201Y0096088D01*
X0032131Y0096202D01*
X0032064Y0096318D01*
X0032001Y0096436D01*
X0031941Y0096556D01*
X0031885Y0096678D01*
X0031833Y0096801D01*
X0031784Y0096926D01*
X0031739Y0097052D01*
X0031698Y0097180D01*
X0031661Y0097308D01*
X0031627Y0097438D01*
X0031597Y0097569D01*
X0031572Y0097700D01*
X0031550Y0097832D01*
X0031532Y0097965D01*
X0031518Y0098099D01*
X0031508Y0098232D01*
X0031502Y0098366D01*
X0031500Y0098500D01*
X0012063Y0271000D02*
X0012065Y0271125D01*
X0012071Y0271250D01*
X0012081Y0271374D01*
X0012095Y0271498D01*
X0012112Y0271622D01*
X0012134Y0271745D01*
X0012160Y0271867D01*
X0012189Y0271989D01*
X0012222Y0272109D01*
X0012260Y0272228D01*
X0012300Y0272347D01*
X0012345Y0272463D01*
X0012393Y0272578D01*
X0012445Y0272692D01*
X0012501Y0272804D01*
X0012560Y0272914D01*
X0012622Y0273022D01*
X0012688Y0273129D01*
X0012757Y0273233D01*
X0012830Y0273334D01*
X0012905Y0273434D01*
X0012984Y0273531D01*
X0013066Y0273625D01*
X0013151Y0273717D01*
X0013238Y0273806D01*
X0013329Y0273892D01*
X0013422Y0273975D01*
X0013518Y0274056D01*
X0013616Y0274133D01*
X0013716Y0274207D01*
X0013819Y0274278D01*
X0013924Y0274345D01*
X0014032Y0274410D01*
X0014141Y0274470D01*
X0014252Y0274528D01*
X0014365Y0274581D01*
X0014479Y0274631D01*
X0014595Y0274678D01*
X0014712Y0274720D01*
X0014831Y0274759D01*
X0014951Y0274795D01*
X0015072Y0274826D01*
X0015194Y0274854D01*
X0015316Y0274877D01*
X0015440Y0274897D01*
X0015564Y0274913D01*
X0015688Y0274925D01*
X0015813Y0274933D01*
X0015938Y0274937D01*
X0016062Y0274937D01*
X0016187Y0274933D01*
X0016312Y0274925D01*
X0016436Y0274913D01*
X0016560Y0274897D01*
X0016684Y0274877D01*
X0016806Y0274854D01*
X0016928Y0274826D01*
X0017049Y0274795D01*
X0017169Y0274759D01*
X0017288Y0274720D01*
X0017405Y0274678D01*
X0017521Y0274631D01*
X0017635Y0274581D01*
X0017748Y0274528D01*
X0017859Y0274470D01*
X0017969Y0274410D01*
X0018076Y0274345D01*
X0018181Y0274278D01*
X0018284Y0274207D01*
X0018384Y0274133D01*
X0018482Y0274056D01*
X0018578Y0273975D01*
X0018671Y0273892D01*
X0018762Y0273806D01*
X0018849Y0273717D01*
X0018934Y0273625D01*
X0019016Y0273531D01*
X0019095Y0273434D01*
X0019170Y0273334D01*
X0019243Y0273233D01*
X0019312Y0273129D01*
X0019378Y0273022D01*
X0019440Y0272914D01*
X0019499Y0272804D01*
X0019555Y0272692D01*
X0019607Y0272578D01*
X0019655Y0272463D01*
X0019700Y0272347D01*
X0019740Y0272228D01*
X0019778Y0272109D01*
X0019811Y0271989D01*
X0019840Y0271867D01*
X0019866Y0271745D01*
X0019888Y0271622D01*
X0019905Y0271498D01*
X0019919Y0271374D01*
X0019929Y0271250D01*
X0019935Y0271125D01*
X0019937Y0271000D01*
X0019935Y0270875D01*
X0019929Y0270750D01*
X0019919Y0270626D01*
X0019905Y0270502D01*
X0019888Y0270378D01*
X0019866Y0270255D01*
X0019840Y0270133D01*
X0019811Y0270011D01*
X0019778Y0269891D01*
X0019740Y0269772D01*
X0019700Y0269653D01*
X0019655Y0269537D01*
X0019607Y0269422D01*
X0019555Y0269308D01*
X0019499Y0269196D01*
X0019440Y0269086D01*
X0019378Y0268978D01*
X0019312Y0268871D01*
X0019243Y0268767D01*
X0019170Y0268666D01*
X0019095Y0268566D01*
X0019016Y0268469D01*
X0018934Y0268375D01*
X0018849Y0268283D01*
X0018762Y0268194D01*
X0018671Y0268108D01*
X0018578Y0268025D01*
X0018482Y0267944D01*
X0018384Y0267867D01*
X0018284Y0267793D01*
X0018181Y0267722D01*
X0018076Y0267655D01*
X0017968Y0267590D01*
X0017859Y0267530D01*
X0017748Y0267472D01*
X0017635Y0267419D01*
X0017521Y0267369D01*
X0017405Y0267322D01*
X0017288Y0267280D01*
X0017169Y0267241D01*
X0017049Y0267205D01*
X0016928Y0267174D01*
X0016806Y0267146D01*
X0016684Y0267123D01*
X0016560Y0267103D01*
X0016436Y0267087D01*
X0016312Y0267075D01*
X0016187Y0267067D01*
X0016062Y0267063D01*
X0015938Y0267063D01*
X0015813Y0267067D01*
X0015688Y0267075D01*
X0015564Y0267087D01*
X0015440Y0267103D01*
X0015316Y0267123D01*
X0015194Y0267146D01*
X0015072Y0267174D01*
X0014951Y0267205D01*
X0014831Y0267241D01*
X0014712Y0267280D01*
X0014595Y0267322D01*
X0014479Y0267369D01*
X0014365Y0267419D01*
X0014252Y0267472D01*
X0014141Y0267530D01*
X0014031Y0267590D01*
X0013924Y0267655D01*
X0013819Y0267722D01*
X0013716Y0267793D01*
X0013616Y0267867D01*
X0013518Y0267944D01*
X0013422Y0268025D01*
X0013329Y0268108D01*
X0013238Y0268194D01*
X0013151Y0268283D01*
X0013066Y0268375D01*
X0012984Y0268469D01*
X0012905Y0268566D01*
X0012830Y0268666D01*
X0012757Y0268767D01*
X0012688Y0268871D01*
X0012622Y0268978D01*
X0012560Y0269086D01*
X0012501Y0269196D01*
X0012445Y0269308D01*
X0012393Y0269422D01*
X0012345Y0269537D01*
X0012300Y0269653D01*
X0012260Y0269772D01*
X0012222Y0269891D01*
X0012189Y0270011D01*
X0012160Y0270133D01*
X0012134Y0270255D01*
X0012112Y0270378D01*
X0012095Y0270502D01*
X0012081Y0270626D01*
X0012071Y0270750D01*
X0012065Y0270875D01*
X0012063Y0271000D01*
X0237063Y0271000D02*
X0237065Y0271125D01*
X0237071Y0271250D01*
X0237081Y0271374D01*
X0237095Y0271498D01*
X0237112Y0271622D01*
X0237134Y0271745D01*
X0237160Y0271867D01*
X0237189Y0271989D01*
X0237222Y0272109D01*
X0237260Y0272228D01*
X0237300Y0272347D01*
X0237345Y0272463D01*
X0237393Y0272578D01*
X0237445Y0272692D01*
X0237501Y0272804D01*
X0237560Y0272914D01*
X0237622Y0273022D01*
X0237688Y0273129D01*
X0237757Y0273233D01*
X0237830Y0273334D01*
X0237905Y0273434D01*
X0237984Y0273531D01*
X0238066Y0273625D01*
X0238151Y0273717D01*
X0238238Y0273806D01*
X0238329Y0273892D01*
X0238422Y0273975D01*
X0238518Y0274056D01*
X0238616Y0274133D01*
X0238716Y0274207D01*
X0238819Y0274278D01*
X0238924Y0274345D01*
X0239032Y0274410D01*
X0239141Y0274470D01*
X0239252Y0274528D01*
X0239365Y0274581D01*
X0239479Y0274631D01*
X0239595Y0274678D01*
X0239712Y0274720D01*
X0239831Y0274759D01*
X0239951Y0274795D01*
X0240072Y0274826D01*
X0240194Y0274854D01*
X0240316Y0274877D01*
X0240440Y0274897D01*
X0240564Y0274913D01*
X0240688Y0274925D01*
X0240813Y0274933D01*
X0240938Y0274937D01*
X0241062Y0274937D01*
X0241187Y0274933D01*
X0241312Y0274925D01*
X0241436Y0274913D01*
X0241560Y0274897D01*
X0241684Y0274877D01*
X0241806Y0274854D01*
X0241928Y0274826D01*
X0242049Y0274795D01*
X0242169Y0274759D01*
X0242288Y0274720D01*
X0242405Y0274678D01*
X0242521Y0274631D01*
X0242635Y0274581D01*
X0242748Y0274528D01*
X0242859Y0274470D01*
X0242969Y0274410D01*
X0243076Y0274345D01*
X0243181Y0274278D01*
X0243284Y0274207D01*
X0243384Y0274133D01*
X0243482Y0274056D01*
X0243578Y0273975D01*
X0243671Y0273892D01*
X0243762Y0273806D01*
X0243849Y0273717D01*
X0243934Y0273625D01*
X0244016Y0273531D01*
X0244095Y0273434D01*
X0244170Y0273334D01*
X0244243Y0273233D01*
X0244312Y0273129D01*
X0244378Y0273022D01*
X0244440Y0272914D01*
X0244499Y0272804D01*
X0244555Y0272692D01*
X0244607Y0272578D01*
X0244655Y0272463D01*
X0244700Y0272347D01*
X0244740Y0272228D01*
X0244778Y0272109D01*
X0244811Y0271989D01*
X0244840Y0271867D01*
X0244866Y0271745D01*
X0244888Y0271622D01*
X0244905Y0271498D01*
X0244919Y0271374D01*
X0244929Y0271250D01*
X0244935Y0271125D01*
X0244937Y0271000D01*
X0244935Y0270875D01*
X0244929Y0270750D01*
X0244919Y0270626D01*
X0244905Y0270502D01*
X0244888Y0270378D01*
X0244866Y0270255D01*
X0244840Y0270133D01*
X0244811Y0270011D01*
X0244778Y0269891D01*
X0244740Y0269772D01*
X0244700Y0269653D01*
X0244655Y0269537D01*
X0244607Y0269422D01*
X0244555Y0269308D01*
X0244499Y0269196D01*
X0244440Y0269086D01*
X0244378Y0268978D01*
X0244312Y0268871D01*
X0244243Y0268767D01*
X0244170Y0268666D01*
X0244095Y0268566D01*
X0244016Y0268469D01*
X0243934Y0268375D01*
X0243849Y0268283D01*
X0243762Y0268194D01*
X0243671Y0268108D01*
X0243578Y0268025D01*
X0243482Y0267944D01*
X0243384Y0267867D01*
X0243284Y0267793D01*
X0243181Y0267722D01*
X0243076Y0267655D01*
X0242968Y0267590D01*
X0242859Y0267530D01*
X0242748Y0267472D01*
X0242635Y0267419D01*
X0242521Y0267369D01*
X0242405Y0267322D01*
X0242288Y0267280D01*
X0242169Y0267241D01*
X0242049Y0267205D01*
X0241928Y0267174D01*
X0241806Y0267146D01*
X0241684Y0267123D01*
X0241560Y0267103D01*
X0241436Y0267087D01*
X0241312Y0267075D01*
X0241187Y0267067D01*
X0241062Y0267063D01*
X0240938Y0267063D01*
X0240813Y0267067D01*
X0240688Y0267075D01*
X0240564Y0267087D01*
X0240440Y0267103D01*
X0240316Y0267123D01*
X0240194Y0267146D01*
X0240072Y0267174D01*
X0239951Y0267205D01*
X0239831Y0267241D01*
X0239712Y0267280D01*
X0239595Y0267322D01*
X0239479Y0267369D01*
X0239365Y0267419D01*
X0239252Y0267472D01*
X0239141Y0267530D01*
X0239031Y0267590D01*
X0238924Y0267655D01*
X0238819Y0267722D01*
X0238716Y0267793D01*
X0238616Y0267867D01*
X0238518Y0267944D01*
X0238422Y0268025D01*
X0238329Y0268108D01*
X0238238Y0268194D01*
X0238151Y0268283D01*
X0238066Y0268375D01*
X0237984Y0268469D01*
X0237905Y0268566D01*
X0237830Y0268666D01*
X0237757Y0268767D01*
X0237688Y0268871D01*
X0237622Y0268978D01*
X0237560Y0269086D01*
X0237501Y0269196D01*
X0237445Y0269308D01*
X0237393Y0269422D01*
X0237345Y0269537D01*
X0237300Y0269653D01*
X0237260Y0269772D01*
X0237222Y0269891D01*
X0237189Y0270011D01*
X0237160Y0270133D01*
X0237134Y0270255D01*
X0237112Y0270378D01*
X0237095Y0270502D01*
X0237081Y0270626D01*
X0237071Y0270750D01*
X0237065Y0270875D01*
X0237063Y0271000D01*
X0237063Y0016000D02*
X0237065Y0016125D01*
X0237071Y0016250D01*
X0237081Y0016374D01*
X0237095Y0016498D01*
X0237112Y0016622D01*
X0237134Y0016745D01*
X0237160Y0016867D01*
X0237189Y0016989D01*
X0237222Y0017109D01*
X0237260Y0017228D01*
X0237300Y0017347D01*
X0237345Y0017463D01*
X0237393Y0017578D01*
X0237445Y0017692D01*
X0237501Y0017804D01*
X0237560Y0017914D01*
X0237622Y0018022D01*
X0237688Y0018129D01*
X0237757Y0018233D01*
X0237830Y0018334D01*
X0237905Y0018434D01*
X0237984Y0018531D01*
X0238066Y0018625D01*
X0238151Y0018717D01*
X0238238Y0018806D01*
X0238329Y0018892D01*
X0238422Y0018975D01*
X0238518Y0019056D01*
X0238616Y0019133D01*
X0238716Y0019207D01*
X0238819Y0019278D01*
X0238924Y0019345D01*
X0239032Y0019410D01*
X0239141Y0019470D01*
X0239252Y0019528D01*
X0239365Y0019581D01*
X0239479Y0019631D01*
X0239595Y0019678D01*
X0239712Y0019720D01*
X0239831Y0019759D01*
X0239951Y0019795D01*
X0240072Y0019826D01*
X0240194Y0019854D01*
X0240316Y0019877D01*
X0240440Y0019897D01*
X0240564Y0019913D01*
X0240688Y0019925D01*
X0240813Y0019933D01*
X0240938Y0019937D01*
X0241062Y0019937D01*
X0241187Y0019933D01*
X0241312Y0019925D01*
X0241436Y0019913D01*
X0241560Y0019897D01*
X0241684Y0019877D01*
X0241806Y0019854D01*
X0241928Y0019826D01*
X0242049Y0019795D01*
X0242169Y0019759D01*
X0242288Y0019720D01*
X0242405Y0019678D01*
X0242521Y0019631D01*
X0242635Y0019581D01*
X0242748Y0019528D01*
X0242859Y0019470D01*
X0242969Y0019410D01*
X0243076Y0019345D01*
X0243181Y0019278D01*
X0243284Y0019207D01*
X0243384Y0019133D01*
X0243482Y0019056D01*
X0243578Y0018975D01*
X0243671Y0018892D01*
X0243762Y0018806D01*
X0243849Y0018717D01*
X0243934Y0018625D01*
X0244016Y0018531D01*
X0244095Y0018434D01*
X0244170Y0018334D01*
X0244243Y0018233D01*
X0244312Y0018129D01*
X0244378Y0018022D01*
X0244440Y0017914D01*
X0244499Y0017804D01*
X0244555Y0017692D01*
X0244607Y0017578D01*
X0244655Y0017463D01*
X0244700Y0017347D01*
X0244740Y0017228D01*
X0244778Y0017109D01*
X0244811Y0016989D01*
X0244840Y0016867D01*
X0244866Y0016745D01*
X0244888Y0016622D01*
X0244905Y0016498D01*
X0244919Y0016374D01*
X0244929Y0016250D01*
X0244935Y0016125D01*
X0244937Y0016000D01*
X0244935Y0015875D01*
X0244929Y0015750D01*
X0244919Y0015626D01*
X0244905Y0015502D01*
X0244888Y0015378D01*
X0244866Y0015255D01*
X0244840Y0015133D01*
X0244811Y0015011D01*
X0244778Y0014891D01*
X0244740Y0014772D01*
X0244700Y0014653D01*
X0244655Y0014537D01*
X0244607Y0014422D01*
X0244555Y0014308D01*
X0244499Y0014196D01*
X0244440Y0014086D01*
X0244378Y0013978D01*
X0244312Y0013871D01*
X0244243Y0013767D01*
X0244170Y0013666D01*
X0244095Y0013566D01*
X0244016Y0013469D01*
X0243934Y0013375D01*
X0243849Y0013283D01*
X0243762Y0013194D01*
X0243671Y0013108D01*
X0243578Y0013025D01*
X0243482Y0012944D01*
X0243384Y0012867D01*
X0243284Y0012793D01*
X0243181Y0012722D01*
X0243076Y0012655D01*
X0242968Y0012590D01*
X0242859Y0012530D01*
X0242748Y0012472D01*
X0242635Y0012419D01*
X0242521Y0012369D01*
X0242405Y0012322D01*
X0242288Y0012280D01*
X0242169Y0012241D01*
X0242049Y0012205D01*
X0241928Y0012174D01*
X0241806Y0012146D01*
X0241684Y0012123D01*
X0241560Y0012103D01*
X0241436Y0012087D01*
X0241312Y0012075D01*
X0241187Y0012067D01*
X0241062Y0012063D01*
X0240938Y0012063D01*
X0240813Y0012067D01*
X0240688Y0012075D01*
X0240564Y0012087D01*
X0240440Y0012103D01*
X0240316Y0012123D01*
X0240194Y0012146D01*
X0240072Y0012174D01*
X0239951Y0012205D01*
X0239831Y0012241D01*
X0239712Y0012280D01*
X0239595Y0012322D01*
X0239479Y0012369D01*
X0239365Y0012419D01*
X0239252Y0012472D01*
X0239141Y0012530D01*
X0239031Y0012590D01*
X0238924Y0012655D01*
X0238819Y0012722D01*
X0238716Y0012793D01*
X0238616Y0012867D01*
X0238518Y0012944D01*
X0238422Y0013025D01*
X0238329Y0013108D01*
X0238238Y0013194D01*
X0238151Y0013283D01*
X0238066Y0013375D01*
X0237984Y0013469D01*
X0237905Y0013566D01*
X0237830Y0013666D01*
X0237757Y0013767D01*
X0237688Y0013871D01*
X0237622Y0013978D01*
X0237560Y0014086D01*
X0237501Y0014196D01*
X0237445Y0014308D01*
X0237393Y0014422D01*
X0237345Y0014537D01*
X0237300Y0014653D01*
X0237260Y0014772D01*
X0237222Y0014891D01*
X0237189Y0015011D01*
X0237160Y0015133D01*
X0237134Y0015255D01*
X0237112Y0015378D01*
X0237095Y0015502D01*
X0237081Y0015626D01*
X0237071Y0015750D01*
X0237065Y0015875D01*
X0237063Y0016000D01*
D11*
X0141000Y0246000D03*
X0141000Y0256000D03*
X0131000Y0256000D03*
X0131000Y0246000D03*
X0121000Y0246000D03*
X0121000Y0256000D03*
X0111000Y0256000D03*
X0111000Y0246000D03*
X0101000Y0246000D03*
X0101000Y0256000D03*
X0091000Y0256000D03*
X0091000Y0246000D03*
X0081000Y0246000D03*
X0081000Y0256000D03*
X0071000Y0256000D03*
X0071000Y0246000D03*
D12*
X0216000Y0096000D03*
X0216000Y0026000D03*
D13*
X0201000Y0101000D03*
D14*
X0191000Y0101000D03*
X0181000Y0101000D03*
X0171000Y0101000D03*
X0161000Y0101000D03*
X0151000Y0101000D03*
X0141000Y0101000D03*
X0131000Y0101000D03*
X0121000Y0101000D03*
X0111000Y0101000D03*
X0101000Y0101000D03*
X0091000Y0101000D03*
X0081000Y0101000D03*
X0071000Y0101000D03*
X0061000Y0101000D03*
X0051000Y0101000D03*
X0051000Y0021000D03*
X0061000Y0021000D03*
X0071000Y0021000D03*
X0081000Y0021000D03*
X0091000Y0021000D03*
X0101000Y0021000D03*
X0111000Y0021000D03*
X0121000Y0021000D03*
X0131000Y0021000D03*
X0141000Y0021000D03*
X0151000Y0021000D03*
X0161000Y0021000D03*
D15*
X0219425Y0119063D02*
X0219425Y0125063D01*
X0229425Y0125063D02*
X0229425Y0119063D01*
D16*
X0126000Y0234268D03*
X0074819Y0234268D03*
X0107299Y0149622D03*
X0086630Y0113205D03*
X0106315Y0051197D03*
D17*
X0106315Y0149622D01*
X0107299Y0149622D01*
X0086630Y0113205D02*
X0086630Y0086630D01*
X0102378Y0070882D01*
X0102378Y0029622D01*
X0111000Y0021000D01*
X0085600Y0063100D02*
X0065961Y0063100D01*
X0065961Y0236909D01*
X0062335Y0246751D01*
X0070300Y0255700D01*
X0071000Y0256000D01*
X0081000Y0246000D02*
X0081100Y0245800D01*
X0081100Y0243100D01*
X0109000Y0215200D01*
X0109000Y0209800D01*
X0112600Y0206200D02*
X0112600Y0223300D01*
X0091000Y0244900D01*
X0091000Y0246000D01*
X0101000Y0246000D02*
X0101800Y0245800D01*
X0101800Y0244000D01*
X0116200Y0229600D01*
X0116200Y0209800D01*
X0121600Y0209800D02*
X0121600Y0234100D01*
X0111700Y0244000D01*
X0111700Y0245800D01*
X0111000Y0246000D01*
X0121000Y0246000D02*
X0121600Y0245800D01*
X0132400Y0235000D01*
X0132400Y0209800D01*
X0130600Y0206200D02*
X0128800Y0206200D01*
X0130600Y0206200D02*
X0134200Y0202600D01*
X0157600Y0202600D01*
X0136000Y0206200D02*
X0136000Y0241300D01*
X0131500Y0245800D01*
X0131000Y0246000D01*
X0131000Y0256000D02*
X0130600Y0256600D01*
X0136900Y0262900D01*
X0144100Y0262900D01*
X0147700Y0259300D01*
X0147700Y0257500D01*
X0146800Y0256600D01*
D18*
X0146800Y0256600D03*
X0132400Y0209800D03*
X0128800Y0206200D03*
X0136000Y0206200D03*
X0121600Y0209800D03*
X0116200Y0209800D03*
X0112600Y0206200D03*
X0109000Y0209800D03*
X0157600Y0202600D03*
X0085600Y0063100D03*
D19*
X0125016Y0045291D03*
X0190961Y0045291D03*
X0190961Y0056118D03*
D20*
X0190961Y0101000D01*
X0191000Y0101000D01*
X0187010Y0103305D02*
X0184990Y0103305D01*
X0184873Y0103588D02*
X0185568Y0101909D01*
X0185568Y0100091D01*
X0184873Y0098412D01*
X0183588Y0097127D01*
X0181909Y0096431D01*
X0180091Y0096431D01*
X0178412Y0097127D01*
X0177127Y0098412D01*
X0176431Y0100091D01*
X0176431Y0101909D01*
X0177127Y0103588D01*
X0178412Y0104873D01*
X0180091Y0105568D01*
X0181909Y0105568D01*
X0183588Y0104873D01*
X0184873Y0103588D01*
X0183515Y0104903D02*
X0188485Y0104903D01*
X0188412Y0104873D02*
X0187127Y0103588D01*
X0186431Y0101909D01*
X0186431Y0100091D01*
X0187127Y0098412D01*
X0188412Y0097127D01*
X0188561Y0097066D01*
X0188561Y0059699D01*
X0188317Y0059699D01*
X0187380Y0058762D01*
X0187380Y0053474D01*
X0188317Y0052537D01*
X0193604Y0052537D01*
X0194542Y0053474D01*
X0194542Y0058762D01*
X0193604Y0059699D01*
X0193361Y0059699D01*
X0193361Y0097033D01*
X0193588Y0097127D01*
X0194873Y0098412D01*
X0195568Y0100091D01*
X0195568Y0101909D01*
X0194873Y0103588D01*
X0193588Y0104873D01*
X0191909Y0105568D01*
X0190091Y0105568D01*
X0188412Y0104873D01*
X0186431Y0101706D02*
X0185568Y0101706D01*
X0185568Y0100108D02*
X0186431Y0100108D01*
X0187087Y0098509D02*
X0184913Y0098509D01*
X0183066Y0096911D02*
X0188561Y0096911D01*
X0188561Y0095312D02*
X0108415Y0095312D01*
X0108415Y0093714D02*
X0188561Y0093714D01*
X0188561Y0092115D02*
X0108415Y0092115D01*
X0108415Y0090517D02*
X0188561Y0090517D01*
X0188561Y0088918D02*
X0108415Y0088918D01*
X0108415Y0087320D02*
X0188561Y0087320D01*
X0188561Y0085721D02*
X0108415Y0085721D01*
X0108415Y0084123D02*
X0188561Y0084123D01*
X0188561Y0082524D02*
X0108415Y0082524D01*
X0108415Y0080926D02*
X0188561Y0080926D01*
X0188561Y0079327D02*
X0108415Y0079327D01*
X0108415Y0077729D02*
X0188561Y0077729D01*
X0188561Y0076130D02*
X0108415Y0076130D01*
X0108415Y0074532D02*
X0188561Y0074532D01*
X0188561Y0072933D02*
X0108415Y0072933D01*
X0108415Y0071334D02*
X0188561Y0071334D01*
X0188561Y0069736D02*
X0108415Y0069736D01*
X0108415Y0068137D02*
X0188561Y0068137D01*
X0188561Y0066539D02*
X0108415Y0066539D01*
X0108415Y0064940D02*
X0188561Y0064940D01*
X0188561Y0063342D02*
X0108415Y0063342D01*
X0108415Y0061743D02*
X0188561Y0061743D01*
X0188561Y0060145D02*
X0108415Y0060145D01*
X0108415Y0058546D02*
X0187380Y0058546D01*
X0187380Y0056948D02*
X0108415Y0056948D01*
X0108415Y0055349D02*
X0187380Y0055349D01*
X0187380Y0053751D02*
X0108547Y0053751D01*
X0108415Y0053883D02*
X0108415Y0097126D01*
X0110091Y0096431D01*
X0111909Y0096431D01*
X0113588Y0097127D01*
X0114873Y0098412D01*
X0115568Y0100091D01*
X0115568Y0101909D01*
X0114873Y0103588D01*
X0113588Y0104873D01*
X0111909Y0105568D01*
X0110091Y0105568D01*
X0108415Y0104874D01*
X0108415Y0146421D01*
X0109216Y0146753D01*
X0110168Y0147705D01*
X0110683Y0148949D01*
X0110683Y0150295D01*
X0110168Y0151539D01*
X0109216Y0152491D01*
X0107972Y0153006D01*
X0106626Y0153006D01*
X0105382Y0152491D01*
X0104430Y0151539D01*
X0103915Y0150295D01*
X0103915Y0148949D01*
X0104215Y0148225D01*
X0104215Y0104246D01*
X0103588Y0104873D01*
X0101909Y0105568D01*
X0100091Y0105568D01*
X0098412Y0104873D01*
X0097127Y0103588D01*
X0096431Y0101909D01*
X0096431Y0100091D01*
X0097127Y0098412D01*
X0098412Y0097127D01*
X0100091Y0096431D01*
X0101909Y0096431D01*
X0103588Y0097127D01*
X0104215Y0097754D01*
X0104215Y0072015D01*
X0103248Y0072982D01*
X0088730Y0087500D01*
X0088730Y0096995D01*
X0090091Y0096431D01*
X0091909Y0096431D01*
X0093588Y0097127D01*
X0094873Y0098412D01*
X0095568Y0100091D01*
X0095568Y0101909D01*
X0094873Y0103588D01*
X0093588Y0104873D01*
X0091909Y0105568D01*
X0090091Y0105568D01*
X0088730Y0105005D01*
X0088730Y0110519D01*
X0089499Y0111288D01*
X0090014Y0112532D01*
X0090014Y0113878D01*
X0089499Y0115122D01*
X0088547Y0116074D01*
X0087303Y0116589D01*
X0085957Y0116589D01*
X0084713Y0116074D01*
X0083761Y0115122D01*
X0083246Y0113878D01*
X0083246Y0112532D01*
X0083761Y0111288D01*
X0084530Y0110519D01*
X0084530Y0103931D01*
X0083588Y0104873D01*
X0081909Y0105568D01*
X0080091Y0105568D01*
X0078412Y0104873D01*
X0077127Y0103588D01*
X0076431Y0101909D01*
X0076431Y0100091D01*
X0077127Y0098412D01*
X0078412Y0097127D01*
X0080091Y0096431D01*
X0081909Y0096431D01*
X0083588Y0097127D01*
X0084530Y0098069D01*
X0084530Y0085760D01*
X0100278Y0070012D01*
X0100278Y0028752D01*
X0106634Y0022397D01*
X0106431Y0021909D01*
X0106431Y0020091D01*
X0107127Y0018412D01*
X0108412Y0017127D01*
X0110091Y0016431D01*
X0111909Y0016431D01*
X0113588Y0017127D01*
X0114873Y0018412D01*
X0115568Y0020091D01*
X0115568Y0021909D01*
X0114873Y0023588D01*
X0113588Y0024873D01*
X0111909Y0025568D01*
X0110091Y0025568D01*
X0109603Y0025366D01*
X0104478Y0030492D01*
X0104478Y0048295D01*
X0105642Y0047813D01*
X0106988Y0047813D01*
X0108232Y0048328D01*
X0109184Y0049280D01*
X0109699Y0050524D01*
X0109699Y0051870D01*
X0109184Y0053114D01*
X0108415Y0053883D01*
X0109582Y0052152D02*
X0249901Y0052152D01*
X0249901Y0050554D02*
X0109699Y0050554D01*
X0108859Y0048955D02*
X0249901Y0048955D01*
X0249901Y0047357D02*
X0194542Y0047357D01*
X0194542Y0047935D02*
X0193604Y0048872D01*
X0188317Y0048872D01*
X0187380Y0047935D01*
X0187380Y0047691D01*
X0128597Y0047691D01*
X0128597Y0047935D01*
X0127660Y0048872D01*
X0122372Y0048872D01*
X0121435Y0047935D01*
X0121435Y0042647D01*
X0122372Y0041710D01*
X0127660Y0041710D01*
X0128597Y0042647D01*
X0128597Y0042891D01*
X0187380Y0042891D01*
X0187380Y0042647D01*
X0188317Y0041710D01*
X0193604Y0041710D01*
X0194542Y0042647D01*
X0194542Y0047935D01*
X0194542Y0045758D02*
X0249901Y0045758D01*
X0249901Y0044160D02*
X0194542Y0044160D01*
X0194456Y0042561D02*
X0249901Y0042561D01*
X0249901Y0040963D02*
X0104478Y0040963D01*
X0104478Y0042561D02*
X0121521Y0042561D01*
X0121435Y0044160D02*
X0104478Y0044160D01*
X0104478Y0045758D02*
X0121435Y0045758D01*
X0121435Y0047357D02*
X0104478Y0047357D01*
X0100278Y0047357D02*
X0048269Y0047357D01*
X0048263Y0048955D02*
X0100278Y0048955D01*
X0100278Y0050554D02*
X0048257Y0050554D01*
X0048252Y0052152D02*
X0100278Y0052152D01*
X0100278Y0053751D02*
X0048246Y0053751D01*
X0048240Y0055349D02*
X0100278Y0055349D01*
X0100278Y0056948D02*
X0048234Y0056948D01*
X0048228Y0058546D02*
X0100278Y0058546D01*
X0100278Y0060145D02*
X0087736Y0060145D01*
X0087639Y0060048D02*
X0088652Y0061061D01*
X0089200Y0062384D01*
X0089200Y0063816D01*
X0088652Y0065139D01*
X0087639Y0066152D01*
X0086316Y0066700D01*
X0084884Y0066700D01*
X0083561Y0066152D01*
X0082609Y0065200D01*
X0068061Y0065200D01*
X0068061Y0097479D01*
X0068412Y0097127D01*
X0070091Y0096431D01*
X0071909Y0096431D01*
X0073588Y0097127D01*
X0074873Y0098412D01*
X0075568Y0100091D01*
X0075568Y0101909D01*
X0074873Y0103588D01*
X0073588Y0104873D01*
X0071909Y0105568D01*
X0070091Y0105568D01*
X0068412Y0104873D01*
X0068061Y0104521D01*
X0068061Y0236447D01*
X0068232Y0236818D01*
X0068061Y0237283D01*
X0068061Y0237779D01*
X0067772Y0238067D01*
X0064741Y0246296D01*
X0066200Y0247935D01*
X0066200Y0246200D01*
X0070800Y0246200D01*
X0070800Y0250800D01*
X0069012Y0250800D01*
X0066633Y0248422D01*
X0069284Y0251400D01*
X0072905Y0251400D01*
X0075600Y0254095D01*
X0075600Y0257905D01*
X0072905Y0260600D01*
X0069095Y0260600D01*
X0066400Y0257905D01*
X0066400Y0254477D01*
X0061116Y0248540D01*
X0060793Y0248421D01*
X0060559Y0247914D01*
X0060188Y0247498D01*
X0060208Y0247154D01*
X0060064Y0246842D01*
X0060257Y0246318D01*
X0060290Y0245761D01*
X0060547Y0245532D01*
X0063861Y0236534D01*
X0063861Y0104600D01*
X0063588Y0104873D01*
X0061909Y0105568D01*
X0060091Y0105568D01*
X0058412Y0104873D01*
X0057127Y0103588D01*
X0056431Y0101909D01*
X0056431Y0100091D01*
X0057127Y0098412D01*
X0058412Y0097127D01*
X0060091Y0096431D01*
X0061909Y0096431D01*
X0063588Y0097127D01*
X0063861Y0097400D01*
X0063861Y0063970D01*
X0063861Y0062230D01*
X0065091Y0061000D01*
X0082609Y0061000D01*
X0083561Y0060048D01*
X0084884Y0059500D01*
X0086316Y0059500D01*
X0087639Y0060048D01*
X0088935Y0061743D02*
X0100278Y0061743D01*
X0100278Y0063342D02*
X0089200Y0063342D01*
X0088734Y0064940D02*
X0100278Y0064940D01*
X0100278Y0066539D02*
X0086705Y0066539D01*
X0084495Y0066539D02*
X0068061Y0066539D01*
X0068061Y0068137D02*
X0100278Y0068137D01*
X0100278Y0069736D02*
X0068061Y0069736D01*
X0068061Y0071334D02*
X0098955Y0071334D01*
X0097357Y0072933D02*
X0068061Y0072933D01*
X0068061Y0074532D02*
X0095758Y0074532D01*
X0094160Y0076130D02*
X0068061Y0076130D01*
X0068061Y0077729D02*
X0092561Y0077729D01*
X0090963Y0079327D02*
X0068061Y0079327D01*
X0068061Y0080926D02*
X0089364Y0080926D01*
X0087766Y0082524D02*
X0068061Y0082524D01*
X0068061Y0084123D02*
X0086167Y0084123D01*
X0084569Y0085721D02*
X0068061Y0085721D01*
X0068061Y0087320D02*
X0084530Y0087320D01*
X0084530Y0088918D02*
X0068061Y0088918D01*
X0068061Y0090517D02*
X0084530Y0090517D01*
X0084530Y0092115D02*
X0068061Y0092115D01*
X0068061Y0093714D02*
X0084530Y0093714D01*
X0084530Y0095312D02*
X0068061Y0095312D01*
X0068061Y0096911D02*
X0068934Y0096911D01*
X0073066Y0096911D02*
X0078934Y0096911D01*
X0077087Y0098509D02*
X0074913Y0098509D01*
X0075568Y0100108D02*
X0076431Y0100108D01*
X0076431Y0101706D02*
X0075568Y0101706D01*
X0074990Y0103305D02*
X0077010Y0103305D01*
X0078485Y0104903D02*
X0073515Y0104903D01*
X0068485Y0104903D02*
X0068061Y0104903D01*
X0068061Y0106502D02*
X0084530Y0106502D01*
X0084530Y0108100D02*
X0068061Y0108100D01*
X0068061Y0109699D02*
X0084530Y0109699D01*
X0083757Y0111297D02*
X0068061Y0111297D01*
X0068061Y0112896D02*
X0083246Y0112896D01*
X0083501Y0114494D02*
X0068061Y0114494D01*
X0068061Y0116093D02*
X0084759Y0116093D01*
X0088501Y0116093D02*
X0104215Y0116093D01*
X0104215Y0117691D02*
X0068061Y0117691D01*
X0068061Y0119290D02*
X0104215Y0119290D01*
X0104215Y0120888D02*
X0068061Y0120888D01*
X0068061Y0122487D02*
X0104215Y0122487D01*
X0104215Y0124085D02*
X0068061Y0124085D01*
X0068061Y0125684D02*
X0104215Y0125684D01*
X0104215Y0127282D02*
X0068061Y0127282D01*
X0068061Y0128881D02*
X0104215Y0128881D01*
X0104215Y0130479D02*
X0068061Y0130479D01*
X0068061Y0132078D02*
X0104215Y0132078D01*
X0104215Y0133676D02*
X0068061Y0133676D01*
X0068061Y0135275D02*
X0104215Y0135275D01*
X0104215Y0136873D02*
X0068061Y0136873D01*
X0068061Y0138472D02*
X0104215Y0138472D01*
X0104215Y0140070D02*
X0068061Y0140070D01*
X0068061Y0141669D02*
X0104215Y0141669D01*
X0104215Y0143268D02*
X0068061Y0143268D01*
X0068061Y0144866D02*
X0104215Y0144866D01*
X0104215Y0146465D02*
X0068061Y0146465D01*
X0068061Y0148063D02*
X0104215Y0148063D01*
X0103915Y0149662D02*
X0068061Y0149662D01*
X0068061Y0151260D02*
X0104315Y0151260D01*
X0106269Y0152859D02*
X0068061Y0152859D01*
X0068061Y0154457D02*
X0249901Y0154457D01*
X0249901Y0152859D02*
X0108329Y0152859D01*
X0110284Y0151260D02*
X0249901Y0151260D01*
X0249901Y0149662D02*
X0110683Y0149662D01*
X0110317Y0148063D02*
X0249901Y0148063D01*
X0249901Y0146465D02*
X0108520Y0146465D01*
X0108415Y0144866D02*
X0249901Y0144866D01*
X0249901Y0143268D02*
X0108415Y0143268D01*
X0108415Y0141669D02*
X0249901Y0141669D01*
X0249901Y0140070D02*
X0108415Y0140070D01*
X0108415Y0138472D02*
X0249901Y0138472D01*
X0249901Y0136873D02*
X0108415Y0136873D01*
X0108415Y0135275D02*
X0249901Y0135275D01*
X0249901Y0133676D02*
X0108415Y0133676D01*
X0108415Y0132078D02*
X0249901Y0132078D01*
X0249901Y0130479D02*
X0108415Y0130479D01*
X0108415Y0128881D02*
X0216738Y0128881D01*
X0216820Y0128963D02*
X0215526Y0127669D01*
X0214825Y0125978D01*
X0214825Y0118148D01*
X0215526Y0116457D01*
X0216820Y0115163D01*
X0218510Y0114463D01*
X0220340Y0114463D01*
X0222031Y0115163D01*
X0223325Y0116457D01*
X0224025Y0118148D01*
X0224025Y0125978D01*
X0223325Y0127669D01*
X0222031Y0128963D01*
X0220340Y0129663D01*
X0218510Y0129663D01*
X0216820Y0128963D01*
X0215366Y0127282D02*
X0108415Y0127282D01*
X0108415Y0125684D02*
X0214825Y0125684D01*
X0214825Y0124085D02*
X0108415Y0124085D01*
X0108415Y0122487D02*
X0214825Y0122487D01*
X0214825Y0120888D02*
X0108415Y0120888D01*
X0108415Y0119290D02*
X0214825Y0119290D01*
X0215014Y0117691D02*
X0108415Y0117691D01*
X0108415Y0116093D02*
X0215890Y0116093D01*
X0218435Y0114494D02*
X0108415Y0114494D01*
X0108415Y0112896D02*
X0249901Y0112896D01*
X0249901Y0114494D02*
X0230416Y0114494D01*
X0230340Y0114463D02*
X0232031Y0115163D01*
X0233325Y0116457D01*
X0234025Y0118148D01*
X0234025Y0125978D01*
X0233325Y0127669D01*
X0232031Y0128963D01*
X0230340Y0129663D01*
X0228510Y0129663D01*
X0226820Y0128963D01*
X0225526Y0127669D01*
X0224825Y0125978D01*
X0224825Y0118148D01*
X0225526Y0116457D01*
X0226820Y0115163D01*
X0228510Y0114463D01*
X0230340Y0114463D01*
X0228435Y0114494D02*
X0220416Y0114494D01*
X0222960Y0116093D02*
X0225890Y0116093D01*
X0225014Y0117691D02*
X0223836Y0117691D01*
X0224025Y0119290D02*
X0224825Y0119290D01*
X0224825Y0120888D02*
X0224025Y0120888D01*
X0224025Y0122487D02*
X0224825Y0122487D01*
X0224825Y0124085D02*
X0224025Y0124085D01*
X0224025Y0125684D02*
X0224825Y0125684D01*
X0225366Y0127282D02*
X0223485Y0127282D01*
X0222113Y0128881D02*
X0226738Y0128881D01*
X0232113Y0128881D02*
X0249901Y0128881D01*
X0249901Y0127282D02*
X0233485Y0127282D01*
X0234025Y0125684D02*
X0249901Y0125684D01*
X0249901Y0124085D02*
X0234025Y0124085D01*
X0234025Y0122487D02*
X0249901Y0122487D01*
X0249901Y0120888D02*
X0234025Y0120888D01*
X0234025Y0119290D02*
X0249901Y0119290D01*
X0249901Y0117691D02*
X0233836Y0117691D01*
X0232960Y0116093D02*
X0249901Y0116093D01*
X0249901Y0111297D02*
X0108415Y0111297D01*
X0108415Y0109699D02*
X0249901Y0109699D01*
X0249901Y0108100D02*
X0108415Y0108100D01*
X0108415Y0106502D02*
X0249901Y0106502D01*
X0249901Y0104903D02*
X0205296Y0104903D01*
X0205568Y0104631D02*
X0204631Y0105568D01*
X0197369Y0105568D01*
X0196431Y0104631D01*
X0196431Y0097369D01*
X0197369Y0096431D01*
X0204631Y0096431D01*
X0205568Y0097369D01*
X0205568Y0104631D01*
X0205568Y0103305D02*
X0211162Y0103305D01*
X0211128Y0103291D02*
X0208709Y0100872D01*
X0207400Y0097711D01*
X0207400Y0094289D01*
X0208709Y0091128D01*
X0211128Y0088709D01*
X0214289Y0087400D01*
X0217711Y0087400D01*
X0220872Y0088709D01*
X0223291Y0091128D01*
X0224600Y0094289D01*
X0224600Y0097711D01*
X0223291Y0100872D01*
X0220872Y0103291D01*
X0217711Y0104600D01*
X0214289Y0104600D01*
X0211128Y0103291D01*
X0209544Y0101706D02*
X0205568Y0101706D01*
X0205568Y0100108D02*
X0208393Y0100108D01*
X0207731Y0098509D02*
X0205568Y0098509D01*
X0205110Y0096911D02*
X0207400Y0096911D01*
X0207400Y0095312D02*
X0193361Y0095312D01*
X0193361Y0093714D02*
X0207638Y0093714D01*
X0208301Y0092115D02*
X0193361Y0092115D01*
X0193361Y0090517D02*
X0209321Y0090517D01*
X0210920Y0088918D02*
X0193361Y0088918D01*
X0193361Y0087320D02*
X0249901Y0087320D01*
X0249901Y0088918D02*
X0221080Y0088918D01*
X0222679Y0090517D02*
X0249901Y0090517D01*
X0249901Y0092115D02*
X0223699Y0092115D01*
X0224362Y0093714D02*
X0249901Y0093714D01*
X0249901Y0095312D02*
X0224600Y0095312D01*
X0224600Y0096911D02*
X0249901Y0096911D01*
X0249901Y0098509D02*
X0224269Y0098509D01*
X0223607Y0100108D02*
X0249901Y0100108D01*
X0249901Y0101706D02*
X0222456Y0101706D01*
X0220838Y0103305D02*
X0249901Y0103305D01*
X0249901Y0085721D02*
X0193361Y0085721D01*
X0193361Y0084123D02*
X0249901Y0084123D01*
X0249901Y0082524D02*
X0193361Y0082524D01*
X0193361Y0080926D02*
X0249901Y0080926D01*
X0249901Y0079327D02*
X0193361Y0079327D01*
X0193361Y0077729D02*
X0249901Y0077729D01*
X0249901Y0076130D02*
X0193361Y0076130D01*
X0193361Y0074532D02*
X0249901Y0074532D01*
X0249901Y0072933D02*
X0193361Y0072933D01*
X0193361Y0071334D02*
X0249901Y0071334D01*
X0249901Y0069736D02*
X0193361Y0069736D01*
X0193361Y0068137D02*
X0249901Y0068137D01*
X0249901Y0066539D02*
X0193361Y0066539D01*
X0193361Y0064940D02*
X0249901Y0064940D01*
X0249901Y0063342D02*
X0193361Y0063342D01*
X0193361Y0061743D02*
X0249901Y0061743D01*
X0249901Y0060145D02*
X0193361Y0060145D01*
X0194542Y0058546D02*
X0249901Y0058546D01*
X0249901Y0056948D02*
X0194542Y0056948D01*
X0194542Y0055349D02*
X0249901Y0055349D01*
X0249901Y0053751D02*
X0194542Y0053751D01*
X0190961Y0045291D02*
X0125016Y0045291D01*
X0128511Y0042561D02*
X0187466Y0042561D01*
X0208709Y0030872D02*
X0207400Y0027711D01*
X0207400Y0024289D01*
X0208709Y0021128D01*
X0211128Y0018709D01*
X0214289Y0017400D01*
X0217711Y0017400D01*
X0220872Y0018709D01*
X0223291Y0021128D01*
X0224600Y0024289D01*
X0224600Y0027711D01*
X0223291Y0030872D01*
X0220872Y0033291D01*
X0217711Y0034600D01*
X0214289Y0034600D01*
X0211128Y0033291D01*
X0208709Y0030872D01*
X0209209Y0031372D02*
X0104478Y0031372D01*
X0104478Y0032970D02*
X0210808Y0032970D01*
X0214214Y0034569D02*
X0104478Y0034569D01*
X0104478Y0036167D02*
X0249901Y0036167D01*
X0249901Y0034569D02*
X0217786Y0034569D01*
X0221192Y0032970D02*
X0249901Y0032970D01*
X0249901Y0031372D02*
X0222791Y0031372D01*
X0223746Y0029773D02*
X0249901Y0029773D01*
X0249901Y0028175D02*
X0224408Y0028175D01*
X0224600Y0026576D02*
X0249901Y0026576D01*
X0249901Y0024978D02*
X0224600Y0024978D01*
X0224223Y0023379D02*
X0236023Y0023379D01*
X0236051Y0023407D02*
X0233593Y0020949D01*
X0232263Y0017738D01*
X0232263Y0014262D01*
X0233593Y0011051D01*
X0233644Y0011000D01*
X0048402Y0011000D01*
X0048379Y0017160D01*
X0048412Y0017127D01*
X0050091Y0016431D01*
X0051909Y0016431D01*
X0053588Y0017127D01*
X0054873Y0018412D01*
X0055568Y0020091D01*
X0055568Y0021909D01*
X0054873Y0023588D01*
X0053588Y0024873D01*
X0051909Y0025568D01*
X0050091Y0025568D01*
X0048412Y0024873D01*
X0048351Y0024812D01*
X0048086Y0097453D01*
X0048412Y0097127D01*
X0050091Y0096431D01*
X0051909Y0096431D01*
X0053588Y0097127D01*
X0054873Y0098412D01*
X0055568Y0100091D01*
X0055568Y0101909D01*
X0054873Y0103588D01*
X0053588Y0104873D01*
X0051909Y0105568D01*
X0050091Y0105568D01*
X0048412Y0104873D01*
X0048061Y0104521D01*
X0047417Y0281000D01*
X0249901Y0281000D01*
X0249901Y0011000D01*
X0248356Y0011000D01*
X0248407Y0011051D01*
X0249737Y0014262D01*
X0249737Y0017738D01*
X0248407Y0020949D01*
X0245949Y0023407D01*
X0242738Y0024737D01*
X0239262Y0024737D01*
X0236051Y0023407D01*
X0234425Y0021781D02*
X0223561Y0021781D01*
X0222344Y0020182D02*
X0233275Y0020182D01*
X0232613Y0018584D02*
X0220568Y0018584D01*
X0211432Y0018584D02*
X0164944Y0018584D01*
X0164873Y0018412D02*
X0165568Y0020091D01*
X0165568Y0021909D01*
X0164873Y0023588D01*
X0163588Y0024873D01*
X0161909Y0025568D01*
X0160091Y0025568D01*
X0158412Y0024873D01*
X0157127Y0023588D01*
X0156431Y0021909D01*
X0156431Y0020091D01*
X0157127Y0018412D01*
X0158412Y0017127D01*
X0160091Y0016431D01*
X0161909Y0016431D01*
X0163588Y0017127D01*
X0164873Y0018412D01*
X0165568Y0020182D02*
X0209656Y0020182D01*
X0208439Y0021781D02*
X0165568Y0021781D01*
X0164959Y0023379D02*
X0207777Y0023379D01*
X0207400Y0024978D02*
X0163335Y0024978D01*
X0158665Y0024978D02*
X0153335Y0024978D01*
X0153588Y0024873D02*
X0151909Y0025568D01*
X0150091Y0025568D01*
X0148412Y0024873D01*
X0147127Y0023588D01*
X0146431Y0021909D01*
X0146431Y0020091D01*
X0147127Y0018412D01*
X0148412Y0017127D01*
X0150091Y0016431D01*
X0151909Y0016431D01*
X0153588Y0017127D01*
X0154873Y0018412D01*
X0155568Y0020091D01*
X0155568Y0021909D01*
X0154873Y0023588D01*
X0153588Y0024873D01*
X0154959Y0023379D02*
X0157041Y0023379D01*
X0156431Y0021781D02*
X0155568Y0021781D01*
X0155568Y0020182D02*
X0156431Y0020182D01*
X0157056Y0018584D02*
X0154944Y0018584D01*
X0153245Y0016985D02*
X0158755Y0016985D01*
X0163245Y0016985D02*
X0232263Y0016985D01*
X0232263Y0015387D02*
X0048386Y0015387D01*
X0048380Y0016985D02*
X0048755Y0016985D01*
X0048391Y0013788D02*
X0232459Y0013788D01*
X0233121Y0012190D02*
X0048397Y0012190D01*
X0053245Y0016985D02*
X0058755Y0016985D01*
X0058412Y0017127D02*
X0060091Y0016431D01*
X0061909Y0016431D01*
X0063588Y0017127D01*
X0064873Y0018412D01*
X0065568Y0020091D01*
X0065568Y0021909D01*
X0064873Y0023588D01*
X0063588Y0024873D01*
X0061909Y0025568D01*
X0060091Y0025568D01*
X0058412Y0024873D01*
X0057127Y0023588D01*
X0056431Y0021909D01*
X0056431Y0020091D01*
X0057127Y0018412D01*
X0058412Y0017127D01*
X0057056Y0018584D02*
X0054944Y0018584D01*
X0055568Y0020182D02*
X0056431Y0020182D01*
X0056431Y0021781D02*
X0055568Y0021781D01*
X0054959Y0023379D02*
X0057041Y0023379D01*
X0058665Y0024978D02*
X0053335Y0024978D01*
X0048665Y0024978D02*
X0048351Y0024978D01*
X0048345Y0026576D02*
X0102454Y0026576D01*
X0101909Y0025568D02*
X0100091Y0025568D01*
X0098412Y0024873D01*
X0097127Y0023588D01*
X0096431Y0021909D01*
X0096431Y0020091D01*
X0097127Y0018412D01*
X0098412Y0017127D01*
X0100091Y0016431D01*
X0101909Y0016431D01*
X0103588Y0017127D01*
X0104873Y0018412D01*
X0105568Y0020091D01*
X0105568Y0021909D01*
X0104873Y0023588D01*
X0103588Y0024873D01*
X0101909Y0025568D01*
X0103335Y0024978D02*
X0104052Y0024978D01*
X0104959Y0023379D02*
X0105651Y0023379D01*
X0105568Y0021781D02*
X0106431Y0021781D01*
X0106431Y0020182D02*
X0105568Y0020182D01*
X0104944Y0018584D02*
X0107056Y0018584D01*
X0108755Y0016985D02*
X0103245Y0016985D01*
X0098755Y0016985D02*
X0093245Y0016985D01*
X0093588Y0017127D02*
X0094873Y0018412D01*
X0095568Y0020091D01*
X0095568Y0021909D01*
X0094873Y0023588D01*
X0093588Y0024873D01*
X0091909Y0025568D01*
X0090091Y0025568D01*
X0088412Y0024873D01*
X0087127Y0023588D01*
X0086431Y0021909D01*
X0086431Y0020091D01*
X0087127Y0018412D01*
X0088412Y0017127D01*
X0090091Y0016431D01*
X0091909Y0016431D01*
X0093588Y0017127D01*
X0094944Y0018584D02*
X0097056Y0018584D01*
X0096431Y0020182D02*
X0095568Y0020182D01*
X0095568Y0021781D02*
X0096431Y0021781D01*
X0097041Y0023379D02*
X0094959Y0023379D01*
X0093335Y0024978D02*
X0098665Y0024978D01*
X0100855Y0028175D02*
X0048339Y0028175D01*
X0048333Y0029773D02*
X0100278Y0029773D01*
X0100278Y0031372D02*
X0048327Y0031372D01*
X0048321Y0032970D02*
X0100278Y0032970D01*
X0100278Y0034569D02*
X0048316Y0034569D01*
X0048310Y0036167D02*
X0100278Y0036167D01*
X0100278Y0037766D02*
X0048304Y0037766D01*
X0048298Y0039364D02*
X0100278Y0039364D01*
X0100278Y0040963D02*
X0048292Y0040963D01*
X0048287Y0042561D02*
X0100278Y0042561D01*
X0100278Y0044160D02*
X0048281Y0044160D01*
X0048275Y0045758D02*
X0100278Y0045758D01*
X0104478Y0039364D02*
X0249901Y0039364D01*
X0249901Y0037766D02*
X0104478Y0037766D01*
X0105197Y0029773D02*
X0208254Y0029773D01*
X0207592Y0028175D02*
X0106795Y0028175D01*
X0108394Y0026576D02*
X0207400Y0026576D01*
X0245977Y0023379D02*
X0249901Y0023379D01*
X0249901Y0021781D02*
X0247575Y0021781D01*
X0248725Y0020182D02*
X0249901Y0020182D01*
X0249901Y0018584D02*
X0249387Y0018584D01*
X0249737Y0016985D02*
X0249901Y0016985D01*
X0249901Y0015387D02*
X0249737Y0015387D01*
X0249901Y0013788D02*
X0249541Y0013788D01*
X0249901Y0012190D02*
X0248879Y0012190D01*
X0196890Y0096911D02*
X0193361Y0096911D01*
X0194913Y0098509D02*
X0196431Y0098509D01*
X0196431Y0100108D02*
X0195568Y0100108D01*
X0195568Y0101706D02*
X0196431Y0101706D01*
X0196431Y0103305D02*
X0194990Y0103305D01*
X0193515Y0104903D02*
X0196703Y0104903D01*
X0178485Y0104903D02*
X0173740Y0104903D01*
X0173499Y0105078D02*
X0172830Y0105419D01*
X0172117Y0105651D01*
X0171375Y0105768D01*
X0171184Y0105768D01*
X0171184Y0101184D01*
X0175768Y0101184D01*
X0175768Y0101375D01*
X0175651Y0102117D01*
X0175419Y0102830D01*
X0175078Y0103499D01*
X0174637Y0104106D01*
X0174106Y0104637D01*
X0173499Y0105078D01*
X0171184Y0104903D02*
X0170816Y0104903D01*
X0170816Y0105768D02*
X0170625Y0105768D01*
X0169883Y0105651D01*
X0169170Y0105419D01*
X0168501Y0105078D01*
X0167894Y0104637D01*
X0167363Y0104106D01*
X0166922Y0103499D01*
X0166581Y0102830D01*
X0166349Y0102117D01*
X0166231Y0101375D01*
X0166231Y0101184D01*
X0170816Y0101184D01*
X0170816Y0100816D01*
X0171184Y0100816D01*
X0171184Y0096231D01*
X0171375Y0096231D01*
X0172117Y0096349D01*
X0172830Y0096581D01*
X0173499Y0096922D01*
X0174106Y0097363D01*
X0174637Y0097894D01*
X0175078Y0098501D01*
X0175419Y0099170D01*
X0175651Y0099883D01*
X0175768Y0100625D01*
X0175768Y0100816D01*
X0171184Y0100816D01*
X0171184Y0101184D01*
X0170816Y0101184D01*
X0170816Y0105768D01*
X0170816Y0103305D02*
X0171184Y0103305D01*
X0171184Y0101706D02*
X0170816Y0101706D01*
X0170816Y0100816D02*
X0166231Y0100816D01*
X0166231Y0100625D01*
X0166349Y0099883D01*
X0166581Y0099170D01*
X0166922Y0098501D01*
X0167363Y0097894D01*
X0167894Y0097363D01*
X0168501Y0096922D01*
X0169170Y0096581D01*
X0169883Y0096349D01*
X0170625Y0096231D01*
X0170816Y0096231D01*
X0170816Y0100816D01*
X0170816Y0100108D02*
X0171184Y0100108D01*
X0171184Y0098509D02*
X0170816Y0098509D01*
X0170816Y0096911D02*
X0171184Y0096911D01*
X0173478Y0096911D02*
X0178934Y0096911D01*
X0177087Y0098509D02*
X0175083Y0098509D01*
X0175687Y0100108D02*
X0176431Y0100108D01*
X0176431Y0101706D02*
X0175716Y0101706D01*
X0175177Y0103305D02*
X0177010Y0103305D01*
X0168260Y0104903D02*
X0163515Y0104903D01*
X0163588Y0104873D02*
X0161909Y0105568D01*
X0160091Y0105568D01*
X0158412Y0104873D01*
X0157127Y0103588D01*
X0156431Y0101909D01*
X0156431Y0100091D01*
X0157127Y0098412D01*
X0158412Y0097127D01*
X0160091Y0096431D01*
X0161909Y0096431D01*
X0163588Y0097127D01*
X0164873Y0098412D01*
X0165568Y0100091D01*
X0165568Y0101909D01*
X0164873Y0103588D01*
X0163588Y0104873D01*
X0164990Y0103305D02*
X0166823Y0103305D01*
X0166284Y0101706D02*
X0165568Y0101706D01*
X0165568Y0100108D02*
X0166313Y0100108D01*
X0166917Y0098509D02*
X0164913Y0098509D01*
X0163066Y0096911D02*
X0168522Y0096911D01*
X0158934Y0096911D02*
X0153066Y0096911D01*
X0153588Y0097127D02*
X0151909Y0096431D01*
X0150091Y0096431D01*
X0148412Y0097127D01*
X0147127Y0098412D01*
X0146431Y0100091D01*
X0146431Y0101909D01*
X0147127Y0103588D01*
X0148412Y0104873D01*
X0150091Y0105568D01*
X0151909Y0105568D01*
X0153588Y0104873D01*
X0154873Y0103588D01*
X0155568Y0101909D01*
X0155568Y0100091D01*
X0154873Y0098412D01*
X0153588Y0097127D01*
X0154913Y0098509D02*
X0157087Y0098509D01*
X0156431Y0100108D02*
X0155568Y0100108D01*
X0155568Y0101706D02*
X0156431Y0101706D01*
X0157010Y0103305D02*
X0154990Y0103305D01*
X0153515Y0104903D02*
X0158485Y0104903D01*
X0148485Y0104903D02*
X0143515Y0104903D01*
X0143588Y0104873D02*
X0141909Y0105568D01*
X0140091Y0105568D01*
X0138412Y0104873D01*
X0137127Y0103588D01*
X0136431Y0101909D01*
X0136431Y0100091D01*
X0137127Y0098412D01*
X0138412Y0097127D01*
X0140091Y0096431D01*
X0141909Y0096431D01*
X0143588Y0097127D01*
X0144873Y0098412D01*
X0145568Y0100091D01*
X0145568Y0101909D01*
X0144873Y0103588D01*
X0143588Y0104873D01*
X0144990Y0103305D02*
X0147010Y0103305D01*
X0146431Y0101706D02*
X0145568Y0101706D01*
X0145568Y0100108D02*
X0146431Y0100108D01*
X0147087Y0098509D02*
X0144913Y0098509D01*
X0143066Y0096911D02*
X0148934Y0096911D01*
X0138934Y0096911D02*
X0133066Y0096911D01*
X0133588Y0097127D02*
X0134873Y0098412D01*
X0135568Y0100091D01*
X0135568Y0101909D01*
X0134873Y0103588D01*
X0133588Y0104873D01*
X0131909Y0105568D01*
X0130091Y0105568D01*
X0128412Y0104873D01*
X0127127Y0103588D01*
X0126431Y0101909D01*
X0126431Y0100091D01*
X0127127Y0098412D01*
X0128412Y0097127D01*
X0130091Y0096431D01*
X0131909Y0096431D01*
X0133588Y0097127D01*
X0134913Y0098509D02*
X0137087Y0098509D01*
X0136431Y0100108D02*
X0135568Y0100108D01*
X0135568Y0101706D02*
X0136431Y0101706D01*
X0137010Y0103305D02*
X0134990Y0103305D01*
X0133515Y0104903D02*
X0138485Y0104903D01*
X0128485Y0104903D02*
X0123515Y0104903D01*
X0123588Y0104873D02*
X0121909Y0105568D01*
X0120091Y0105568D01*
X0118412Y0104873D01*
X0117127Y0103588D01*
X0116431Y0101909D01*
X0116431Y0100091D01*
X0117127Y0098412D01*
X0118412Y0097127D01*
X0120091Y0096431D01*
X0121909Y0096431D01*
X0123588Y0097127D01*
X0124873Y0098412D01*
X0125568Y0100091D01*
X0125568Y0101909D01*
X0124873Y0103588D01*
X0123588Y0104873D01*
X0124990Y0103305D02*
X0127010Y0103305D01*
X0126431Y0101706D02*
X0125568Y0101706D01*
X0125568Y0100108D02*
X0126431Y0100108D01*
X0127087Y0098509D02*
X0124913Y0098509D01*
X0123066Y0096911D02*
X0128934Y0096911D01*
X0118934Y0096911D02*
X0113066Y0096911D01*
X0114913Y0098509D02*
X0117087Y0098509D01*
X0116431Y0100108D02*
X0115568Y0100108D01*
X0115568Y0101706D02*
X0116431Y0101706D01*
X0117010Y0103305D02*
X0114990Y0103305D01*
X0113515Y0104903D02*
X0118485Y0104903D01*
X0108485Y0104903D02*
X0108415Y0104903D01*
X0104215Y0104903D02*
X0103515Y0104903D01*
X0104215Y0106502D02*
X0088730Y0106502D01*
X0088730Y0108100D02*
X0104215Y0108100D01*
X0104215Y0109699D02*
X0088730Y0109699D01*
X0089503Y0111297D02*
X0104215Y0111297D01*
X0104215Y0112896D02*
X0090014Y0112896D01*
X0089759Y0114494D02*
X0104215Y0114494D01*
X0098485Y0104903D02*
X0093515Y0104903D01*
X0094990Y0103305D02*
X0097010Y0103305D01*
X0096431Y0101706D02*
X0095568Y0101706D01*
X0095568Y0100108D02*
X0096431Y0100108D01*
X0097087Y0098509D02*
X0094913Y0098509D01*
X0093066Y0096911D02*
X0098934Y0096911D01*
X0103066Y0096911D02*
X0104215Y0096911D01*
X0104215Y0095312D02*
X0088730Y0095312D01*
X0088730Y0093714D02*
X0104215Y0093714D01*
X0104215Y0092115D02*
X0088730Y0092115D01*
X0088730Y0090517D02*
X0104215Y0090517D01*
X0104215Y0088918D02*
X0088730Y0088918D01*
X0088910Y0087320D02*
X0104215Y0087320D01*
X0104215Y0085721D02*
X0090509Y0085721D01*
X0092107Y0084123D02*
X0104215Y0084123D01*
X0104215Y0082524D02*
X0093706Y0082524D01*
X0095304Y0080926D02*
X0104215Y0080926D01*
X0104215Y0079327D02*
X0096903Y0079327D01*
X0098501Y0077729D02*
X0104215Y0077729D01*
X0104215Y0076130D02*
X0100100Y0076130D01*
X0101698Y0074532D02*
X0104215Y0074532D01*
X0104215Y0072933D02*
X0103297Y0072933D01*
X0083464Y0060145D02*
X0048222Y0060145D01*
X0048217Y0061743D02*
X0064347Y0061743D01*
X0063861Y0063342D02*
X0048211Y0063342D01*
X0048205Y0064940D02*
X0063861Y0064940D01*
X0063861Y0066539D02*
X0048199Y0066539D01*
X0048193Y0068137D02*
X0063861Y0068137D01*
X0063861Y0069736D02*
X0048187Y0069736D01*
X0048182Y0071334D02*
X0063861Y0071334D01*
X0063861Y0072933D02*
X0048176Y0072933D01*
X0048170Y0074532D02*
X0063861Y0074532D01*
X0063861Y0076130D02*
X0048164Y0076130D01*
X0048158Y0077729D02*
X0063861Y0077729D01*
X0063861Y0079327D02*
X0048152Y0079327D01*
X0048147Y0080926D02*
X0063861Y0080926D01*
X0063861Y0082524D02*
X0048141Y0082524D01*
X0048135Y0084123D02*
X0063861Y0084123D01*
X0063861Y0085721D02*
X0048129Y0085721D01*
X0048123Y0087320D02*
X0063861Y0087320D01*
X0063861Y0088918D02*
X0048118Y0088918D01*
X0048112Y0090517D02*
X0063861Y0090517D01*
X0063861Y0092115D02*
X0048106Y0092115D01*
X0048100Y0093714D02*
X0063861Y0093714D01*
X0063861Y0095312D02*
X0048094Y0095312D01*
X0048088Y0096911D02*
X0048934Y0096911D01*
X0053066Y0096911D02*
X0058934Y0096911D01*
X0057087Y0098509D02*
X0054913Y0098509D01*
X0055568Y0100108D02*
X0056431Y0100108D01*
X0056431Y0101706D02*
X0055568Y0101706D01*
X0054990Y0103305D02*
X0057010Y0103305D01*
X0058485Y0104903D02*
X0053515Y0104903D01*
X0048485Y0104903D02*
X0048059Y0104903D01*
X0048053Y0106502D02*
X0063861Y0106502D01*
X0063861Y0108100D02*
X0048048Y0108100D01*
X0048042Y0109699D02*
X0063861Y0109699D01*
X0063861Y0111297D02*
X0048036Y0111297D01*
X0048030Y0112896D02*
X0063861Y0112896D01*
X0063861Y0114494D02*
X0048024Y0114494D01*
X0048018Y0116093D02*
X0063861Y0116093D01*
X0063861Y0117691D02*
X0048013Y0117691D01*
X0048007Y0119290D02*
X0063861Y0119290D01*
X0063861Y0120888D02*
X0048001Y0120888D01*
X0047995Y0122487D02*
X0063861Y0122487D01*
X0063861Y0124085D02*
X0047989Y0124085D01*
X0047984Y0125684D02*
X0063861Y0125684D01*
X0063861Y0127282D02*
X0047978Y0127282D01*
X0047972Y0128881D02*
X0063861Y0128881D01*
X0063861Y0130479D02*
X0047966Y0130479D01*
X0047960Y0132078D02*
X0063861Y0132078D01*
X0063861Y0133676D02*
X0047954Y0133676D01*
X0047949Y0135275D02*
X0063861Y0135275D01*
X0063861Y0136873D02*
X0047943Y0136873D01*
X0047937Y0138472D02*
X0063861Y0138472D01*
X0063861Y0140070D02*
X0047931Y0140070D01*
X0047925Y0141669D02*
X0063861Y0141669D01*
X0063861Y0143268D02*
X0047919Y0143268D01*
X0047914Y0144866D02*
X0063861Y0144866D01*
X0063861Y0146465D02*
X0047908Y0146465D01*
X0047902Y0148063D02*
X0063861Y0148063D01*
X0063861Y0149662D02*
X0047896Y0149662D01*
X0047890Y0151260D02*
X0063861Y0151260D01*
X0063861Y0152859D02*
X0047884Y0152859D01*
X0047879Y0154457D02*
X0063861Y0154457D01*
X0063861Y0156056D02*
X0047873Y0156056D01*
X0047867Y0157654D02*
X0063861Y0157654D01*
X0063861Y0159253D02*
X0047861Y0159253D01*
X0047855Y0160851D02*
X0063861Y0160851D01*
X0063861Y0162450D02*
X0047849Y0162450D01*
X0047844Y0164048D02*
X0063861Y0164048D01*
X0063861Y0165647D02*
X0047838Y0165647D01*
X0047832Y0167245D02*
X0063861Y0167245D01*
X0063861Y0168844D02*
X0047826Y0168844D01*
X0047820Y0170442D02*
X0063861Y0170442D01*
X0063861Y0172041D02*
X0047815Y0172041D01*
X0047809Y0173639D02*
X0063861Y0173639D01*
X0063861Y0175238D02*
X0047803Y0175238D01*
X0047797Y0176836D02*
X0063861Y0176836D01*
X0063861Y0178435D02*
X0047791Y0178435D01*
X0047785Y0180033D02*
X0063861Y0180033D01*
X0063861Y0181632D02*
X0047780Y0181632D01*
X0047774Y0183230D02*
X0063861Y0183230D01*
X0063861Y0184829D02*
X0047768Y0184829D01*
X0047762Y0186427D02*
X0063861Y0186427D01*
X0063861Y0188026D02*
X0047756Y0188026D01*
X0047750Y0189624D02*
X0063861Y0189624D01*
X0063861Y0191223D02*
X0047745Y0191223D01*
X0047739Y0192821D02*
X0063861Y0192821D01*
X0063861Y0194420D02*
X0047733Y0194420D01*
X0047727Y0196018D02*
X0063861Y0196018D01*
X0063861Y0197617D02*
X0047721Y0197617D01*
X0047715Y0199215D02*
X0063861Y0199215D01*
X0063861Y0200814D02*
X0047710Y0200814D01*
X0047704Y0202412D02*
X0063861Y0202412D01*
X0063861Y0204011D02*
X0047698Y0204011D01*
X0047692Y0205609D02*
X0063861Y0205609D01*
X0063861Y0207208D02*
X0047686Y0207208D01*
X0047680Y0208806D02*
X0063861Y0208806D01*
X0063861Y0210405D02*
X0047675Y0210405D01*
X0047669Y0212003D02*
X0063861Y0212003D01*
X0063861Y0213602D02*
X0047663Y0213602D01*
X0047657Y0215201D02*
X0063861Y0215201D01*
X0063861Y0216799D02*
X0047651Y0216799D01*
X0047646Y0218398D02*
X0063861Y0218398D01*
X0063861Y0219996D02*
X0047640Y0219996D01*
X0047634Y0221595D02*
X0063861Y0221595D01*
X0063861Y0223193D02*
X0047628Y0223193D01*
X0047622Y0224792D02*
X0063861Y0224792D01*
X0063861Y0226390D02*
X0047616Y0226390D01*
X0047611Y0227989D02*
X0063861Y0227989D01*
X0063861Y0229587D02*
X0047605Y0229587D01*
X0047599Y0231186D02*
X0063861Y0231186D01*
X0063861Y0232784D02*
X0047593Y0232784D01*
X0047587Y0234383D02*
X0063861Y0234383D01*
X0063861Y0235981D02*
X0047581Y0235981D01*
X0047576Y0237580D02*
X0063476Y0237580D01*
X0062887Y0239178D02*
X0047570Y0239178D01*
X0047564Y0240777D02*
X0062298Y0240777D01*
X0061709Y0242375D02*
X0047558Y0242375D01*
X0047552Y0243974D02*
X0061121Y0243974D01*
X0060501Y0245572D02*
X0047546Y0245572D01*
X0047541Y0247171D02*
X0060207Y0247171D01*
X0061320Y0248769D02*
X0047535Y0248769D01*
X0047529Y0250368D02*
X0062743Y0250368D01*
X0064166Y0251966D02*
X0047523Y0251966D01*
X0047517Y0253565D02*
X0065588Y0253565D01*
X0066400Y0255163D02*
X0047512Y0255163D01*
X0047506Y0256762D02*
X0066400Y0256762D01*
X0066855Y0258360D02*
X0047500Y0258360D01*
X0047494Y0259959D02*
X0068453Y0259959D01*
X0073547Y0259959D02*
X0078453Y0259959D01*
X0079095Y0260600D02*
X0076400Y0257905D01*
X0076400Y0254095D01*
X0079095Y0251400D01*
X0082905Y0251400D01*
X0085600Y0254095D01*
X0085600Y0257905D01*
X0082905Y0260600D01*
X0079095Y0260600D01*
X0076855Y0258360D02*
X0075145Y0258360D01*
X0075600Y0256762D02*
X0076400Y0256762D01*
X0076400Y0255163D02*
X0075600Y0255163D01*
X0075070Y0253565D02*
X0076930Y0253565D01*
X0078528Y0251966D02*
X0073472Y0251966D01*
X0072988Y0250800D02*
X0071200Y0250800D01*
X0071200Y0246200D01*
X0070800Y0246200D01*
X0070800Y0245800D01*
X0071200Y0245800D01*
X0071200Y0246200D01*
X0075800Y0246200D01*
X0075800Y0247988D01*
X0072988Y0250800D01*
X0073420Y0250368D02*
X0078862Y0250368D01*
X0079095Y0250600D02*
X0076400Y0247905D01*
X0076400Y0244095D01*
X0079095Y0241400D01*
X0079830Y0241400D01*
X0080230Y0241000D01*
X0106900Y0214330D01*
X0106900Y0212791D01*
X0105948Y0211839D01*
X0105400Y0210516D01*
X0105400Y0209084D01*
X0105948Y0207761D01*
X0106961Y0206748D01*
X0108284Y0206200D01*
X0109000Y0206200D01*
X0109000Y0205484D01*
X0109548Y0204161D01*
X0110561Y0203148D01*
X0111884Y0202600D01*
X0113316Y0202600D01*
X0114639Y0203148D01*
X0115652Y0204161D01*
X0116200Y0205484D01*
X0116200Y0206200D01*
X0116916Y0206200D01*
X0118239Y0206748D01*
X0118900Y0207409D01*
X0119561Y0206748D01*
X0120884Y0206200D01*
X0122316Y0206200D01*
X0123639Y0206748D01*
X0124652Y0207761D01*
X0125200Y0209084D01*
X0125200Y0210516D01*
X0124652Y0211839D01*
X0123700Y0212791D01*
X0123700Y0234970D01*
X0115088Y0243582D01*
X0115600Y0244095D01*
X0115600Y0247905D01*
X0112905Y0250600D01*
X0109095Y0250600D01*
X0106400Y0247905D01*
X0106400Y0244095D01*
X0109095Y0241400D01*
X0111330Y0241400D01*
X0119500Y0233230D01*
X0119500Y0212791D01*
X0118900Y0212191D01*
X0118300Y0212791D01*
X0118300Y0230470D01*
X0105138Y0243632D01*
X0105600Y0244095D01*
X0105600Y0247905D01*
X0102905Y0250600D01*
X0099095Y0250600D01*
X0096400Y0247905D01*
X0096400Y0244095D01*
X0099095Y0241400D01*
X0101430Y0241400D01*
X0114100Y0228730D01*
X0114100Y0224770D01*
X0095188Y0243682D01*
X0095600Y0244095D01*
X0095600Y0247905D01*
X0092905Y0250600D01*
X0089095Y0250600D01*
X0086400Y0247905D01*
X0086400Y0244095D01*
X0089095Y0241400D01*
X0091530Y0241400D01*
X0110500Y0222430D01*
X0110500Y0216670D01*
X0084338Y0242832D01*
X0085600Y0244095D01*
X0085600Y0247905D01*
X0082905Y0250600D01*
X0079095Y0250600D01*
X0077264Y0248769D02*
X0075019Y0248769D01*
X0075800Y0247171D02*
X0076400Y0247171D01*
X0075800Y0245800D02*
X0071200Y0245800D01*
X0071200Y0241200D01*
X0072988Y0241200D01*
X0075800Y0244012D01*
X0075800Y0245800D01*
X0075800Y0245572D02*
X0076400Y0245572D01*
X0076521Y0243974D02*
X0075762Y0243974D01*
X0074163Y0242375D02*
X0078119Y0242375D01*
X0080453Y0240777D02*
X0066774Y0240777D01*
X0066185Y0242375D02*
X0067837Y0242375D01*
X0069012Y0241200D02*
X0070800Y0241200D01*
X0070800Y0245800D01*
X0066200Y0245800D01*
X0066200Y0244012D01*
X0069012Y0241200D01*
X0070800Y0242375D02*
X0071200Y0242375D01*
X0071200Y0243974D02*
X0070800Y0243974D01*
X0070800Y0245572D02*
X0071200Y0245572D01*
X0071200Y0247171D02*
X0070800Y0247171D01*
X0070800Y0248769D02*
X0071200Y0248769D01*
X0071200Y0250368D02*
X0070800Y0250368D01*
X0068580Y0250368D02*
X0068366Y0250368D01*
X0066981Y0248769D02*
X0066943Y0248769D01*
X0066200Y0247171D02*
X0065520Y0247171D01*
X0065008Y0245572D02*
X0066200Y0245572D01*
X0066238Y0243974D02*
X0065596Y0243974D01*
X0067363Y0239178D02*
X0082052Y0239178D01*
X0083650Y0237580D02*
X0068061Y0237580D01*
X0068061Y0235981D02*
X0085249Y0235981D01*
X0086847Y0234383D02*
X0068061Y0234383D01*
X0068061Y0232784D02*
X0088446Y0232784D01*
X0090045Y0231186D02*
X0068061Y0231186D01*
X0068061Y0229587D02*
X0091643Y0229587D01*
X0093242Y0227989D02*
X0068061Y0227989D01*
X0068061Y0226390D02*
X0094840Y0226390D01*
X0096439Y0224792D02*
X0068061Y0224792D01*
X0068061Y0223193D02*
X0098037Y0223193D01*
X0099636Y0221595D02*
X0068061Y0221595D01*
X0068061Y0219996D02*
X0101234Y0219996D01*
X0102833Y0218398D02*
X0068061Y0218398D01*
X0068061Y0216799D02*
X0104431Y0216799D01*
X0106030Y0215201D02*
X0068061Y0215201D01*
X0068061Y0213602D02*
X0106900Y0213602D01*
X0106112Y0212003D02*
X0068061Y0212003D01*
X0068061Y0210405D02*
X0105400Y0210405D01*
X0105515Y0208806D02*
X0068061Y0208806D01*
X0068061Y0207208D02*
X0106501Y0207208D01*
X0109000Y0205609D02*
X0068061Y0205609D01*
X0068061Y0204011D02*
X0109698Y0204011D01*
X0115502Y0204011D02*
X0125898Y0204011D01*
X0125748Y0204161D02*
X0126761Y0203148D01*
X0128084Y0202600D01*
X0129516Y0202600D01*
X0130728Y0203102D01*
X0132100Y0201730D01*
X0133330Y0200500D01*
X0154609Y0200500D01*
X0155561Y0199548D01*
X0156884Y0199000D01*
X0158316Y0199000D01*
X0159639Y0199548D01*
X0160652Y0200561D01*
X0161200Y0201884D01*
X0161200Y0203316D01*
X0160652Y0204639D01*
X0159639Y0205652D01*
X0158316Y0206200D01*
X0156884Y0206200D01*
X0155561Y0205652D01*
X0154609Y0204700D01*
X0139275Y0204700D01*
X0139600Y0205484D01*
X0139600Y0206916D01*
X0139052Y0208239D01*
X0138100Y0209191D01*
X0138100Y0242170D01*
X0135600Y0244670D01*
X0135600Y0247905D01*
X0132905Y0250600D01*
X0129095Y0250600D01*
X0126400Y0247905D01*
X0126400Y0244095D01*
X0129095Y0241400D01*
X0132905Y0241400D01*
X0132918Y0241412D01*
X0133900Y0240430D01*
X0133900Y0236470D01*
X0133270Y0237100D01*
X0133270Y0237100D01*
X0125600Y0244770D01*
X0125600Y0247905D01*
X0122905Y0250600D01*
X0119095Y0250600D01*
X0116400Y0247905D01*
X0116400Y0244095D01*
X0119095Y0241400D01*
X0122905Y0241400D01*
X0122968Y0241462D01*
X0130300Y0234130D01*
X0130300Y0212791D01*
X0129348Y0211839D01*
X0128800Y0210516D01*
X0128800Y0209800D01*
X0128084Y0209800D01*
X0126761Y0209252D01*
X0125748Y0208239D01*
X0125200Y0206916D01*
X0125200Y0205484D01*
X0125748Y0204161D01*
X0125200Y0205609D02*
X0116200Y0205609D01*
X0118699Y0207208D02*
X0119101Y0207208D01*
X0124099Y0207208D02*
X0125321Y0207208D01*
X0125085Y0208806D02*
X0126315Y0208806D01*
X0125200Y0210405D02*
X0128800Y0210405D01*
X0129512Y0212003D02*
X0124488Y0212003D01*
X0123700Y0213602D02*
X0130300Y0213602D01*
X0130300Y0215201D02*
X0123700Y0215201D01*
X0123700Y0216799D02*
X0130300Y0216799D01*
X0130300Y0218398D02*
X0123700Y0218398D01*
X0123700Y0219996D02*
X0130300Y0219996D01*
X0130300Y0221595D02*
X0123700Y0221595D01*
X0123700Y0223193D02*
X0130300Y0223193D01*
X0130300Y0224792D02*
X0123700Y0224792D01*
X0123700Y0226390D02*
X0130300Y0226390D01*
X0130300Y0227989D02*
X0123700Y0227989D01*
X0123700Y0229587D02*
X0130300Y0229587D01*
X0130300Y0231186D02*
X0123700Y0231186D01*
X0123700Y0232784D02*
X0130300Y0232784D01*
X0130048Y0234383D02*
X0123700Y0234383D01*
X0122689Y0235981D02*
X0128449Y0235981D01*
X0126850Y0237580D02*
X0121090Y0237580D01*
X0119492Y0239178D02*
X0125252Y0239178D01*
X0123653Y0240777D02*
X0117893Y0240777D01*
X0118119Y0242375D02*
X0116295Y0242375D01*
X0116521Y0243974D02*
X0115479Y0243974D01*
X0115600Y0245572D02*
X0116400Y0245572D01*
X0116400Y0247171D02*
X0115600Y0247171D01*
X0114736Y0248769D02*
X0117264Y0248769D01*
X0118862Y0250368D02*
X0113138Y0250368D01*
X0112905Y0251400D02*
X0115600Y0254095D01*
X0115600Y0257905D01*
X0112905Y0260600D01*
X0109095Y0260600D01*
X0106400Y0257905D01*
X0106400Y0254095D01*
X0109095Y0251400D01*
X0112905Y0251400D01*
X0113472Y0251966D02*
X0118528Y0251966D01*
X0119095Y0251400D02*
X0122905Y0251400D01*
X0125600Y0254095D01*
X0125600Y0257905D01*
X0122905Y0260600D01*
X0119095Y0260600D01*
X0116400Y0257905D01*
X0116400Y0254095D01*
X0119095Y0251400D01*
X0116930Y0253565D02*
X0115070Y0253565D01*
X0115600Y0255163D02*
X0116400Y0255163D01*
X0116400Y0256762D02*
X0115600Y0256762D01*
X0115145Y0258360D02*
X0116855Y0258360D01*
X0118453Y0259959D02*
X0113547Y0259959D01*
X0108453Y0259959D02*
X0103547Y0259959D01*
X0102905Y0260600D02*
X0099095Y0260600D01*
X0096400Y0257905D01*
X0096400Y0254095D01*
X0099095Y0251400D01*
X0102905Y0251400D01*
X0105600Y0254095D01*
X0105600Y0257905D01*
X0102905Y0260600D01*
X0105145Y0258360D02*
X0106855Y0258360D01*
X0106400Y0256762D02*
X0105600Y0256762D01*
X0105600Y0255163D02*
X0106400Y0255163D01*
X0106930Y0253565D02*
X0105070Y0253565D01*
X0103472Y0251966D02*
X0108528Y0251966D01*
X0108862Y0250368D02*
X0103138Y0250368D01*
X0104736Y0248769D02*
X0107264Y0248769D01*
X0106400Y0247171D02*
X0105600Y0247171D01*
X0105600Y0245572D02*
X0106400Y0245572D01*
X0106521Y0243974D02*
X0105479Y0243974D01*
X0106395Y0242375D02*
X0108119Y0242375D01*
X0107993Y0240777D02*
X0111953Y0240777D01*
X0113552Y0239178D02*
X0109592Y0239178D01*
X0111190Y0237580D02*
X0115150Y0237580D01*
X0116749Y0235981D02*
X0112789Y0235981D01*
X0114387Y0234383D02*
X0118347Y0234383D01*
X0119500Y0232784D02*
X0115986Y0232784D01*
X0117584Y0231186D02*
X0119500Y0231186D01*
X0119500Y0229587D02*
X0118300Y0229587D01*
X0118300Y0227989D02*
X0119500Y0227989D01*
X0119500Y0226390D02*
X0118300Y0226390D01*
X0118300Y0224792D02*
X0119500Y0224792D01*
X0119500Y0223193D02*
X0118300Y0223193D01*
X0118300Y0221595D02*
X0119500Y0221595D01*
X0119500Y0219996D02*
X0118300Y0219996D01*
X0118300Y0218398D02*
X0119500Y0218398D01*
X0119500Y0216799D02*
X0118300Y0216799D01*
X0118300Y0215201D02*
X0119500Y0215201D01*
X0119500Y0213602D02*
X0118300Y0213602D01*
X0110500Y0216799D02*
X0110371Y0216799D01*
X0110500Y0218398D02*
X0108772Y0218398D01*
X0107174Y0219996D02*
X0110500Y0219996D01*
X0110500Y0221595D02*
X0105575Y0221595D01*
X0103977Y0223193D02*
X0109737Y0223193D01*
X0108139Y0224792D02*
X0102378Y0224792D01*
X0100780Y0226390D02*
X0106540Y0226390D01*
X0104942Y0227989D02*
X0099181Y0227989D01*
X0097583Y0229587D02*
X0103343Y0229587D01*
X0101745Y0231186D02*
X0095984Y0231186D01*
X0094386Y0232784D02*
X0100146Y0232784D01*
X0098547Y0234383D02*
X0092787Y0234383D01*
X0091189Y0235981D02*
X0096949Y0235981D01*
X0095350Y0237580D02*
X0089590Y0237580D01*
X0087992Y0239178D02*
X0093752Y0239178D01*
X0092153Y0240777D02*
X0086393Y0240777D01*
X0084795Y0242375D02*
X0088119Y0242375D01*
X0086521Y0243974D02*
X0085479Y0243974D01*
X0085600Y0245572D02*
X0086400Y0245572D01*
X0086400Y0247171D02*
X0085600Y0247171D01*
X0084736Y0248769D02*
X0087264Y0248769D01*
X0088862Y0250368D02*
X0083138Y0250368D01*
X0083472Y0251966D02*
X0088528Y0251966D01*
X0089095Y0251400D02*
X0092905Y0251400D01*
X0095600Y0254095D01*
X0095600Y0257905D01*
X0092905Y0260600D01*
X0089095Y0260600D01*
X0086400Y0257905D01*
X0086400Y0254095D01*
X0089095Y0251400D01*
X0086930Y0253565D02*
X0085070Y0253565D01*
X0085600Y0255163D02*
X0086400Y0255163D01*
X0086400Y0256762D02*
X0085600Y0256762D01*
X0085145Y0258360D02*
X0086855Y0258360D01*
X0088453Y0259959D02*
X0083547Y0259959D01*
X0093547Y0259959D02*
X0098453Y0259959D01*
X0096855Y0258360D02*
X0095145Y0258360D01*
X0095600Y0256762D02*
X0096400Y0256762D01*
X0096400Y0255163D02*
X0095600Y0255163D01*
X0095070Y0253565D02*
X0096930Y0253565D01*
X0098528Y0251966D02*
X0093472Y0251966D01*
X0093138Y0250368D02*
X0098862Y0250368D01*
X0097264Y0248769D02*
X0094736Y0248769D01*
X0095600Y0247171D02*
X0096400Y0247171D01*
X0096400Y0245572D02*
X0095600Y0245572D01*
X0095479Y0243974D02*
X0096521Y0243974D01*
X0096495Y0242375D02*
X0098119Y0242375D01*
X0098093Y0240777D02*
X0102053Y0240777D01*
X0103652Y0239178D02*
X0099692Y0239178D01*
X0101290Y0237580D02*
X0105250Y0237580D01*
X0106849Y0235981D02*
X0102889Y0235981D01*
X0104487Y0234383D02*
X0108447Y0234383D01*
X0110046Y0232784D02*
X0106086Y0232784D01*
X0107684Y0231186D02*
X0111645Y0231186D01*
X0113243Y0229587D02*
X0109283Y0229587D01*
X0110881Y0227989D02*
X0114100Y0227989D01*
X0114100Y0226390D02*
X0112480Y0226390D01*
X0114078Y0224792D02*
X0114100Y0224792D01*
X0129593Y0240777D02*
X0133553Y0240777D01*
X0133900Y0239178D02*
X0131192Y0239178D01*
X0132790Y0237580D02*
X0133900Y0237580D01*
X0138100Y0237580D02*
X0249901Y0237580D01*
X0249901Y0239178D02*
X0138100Y0239178D01*
X0138100Y0240777D02*
X0249901Y0240777D01*
X0249901Y0242375D02*
X0143881Y0242375D01*
X0142905Y0241400D02*
X0145600Y0244095D01*
X0145600Y0247905D01*
X0142905Y0250600D01*
X0139095Y0250600D01*
X0136400Y0247905D01*
X0136400Y0244095D01*
X0139095Y0241400D01*
X0142905Y0241400D01*
X0145479Y0243974D02*
X0249901Y0243974D01*
X0249901Y0245572D02*
X0145600Y0245572D01*
X0145600Y0247171D02*
X0249901Y0247171D01*
X0249901Y0248769D02*
X0144736Y0248769D01*
X0143138Y0250368D02*
X0249901Y0250368D01*
X0249901Y0251966D02*
X0143472Y0251966D01*
X0142905Y0251400D02*
X0144968Y0253462D01*
X0146084Y0253000D01*
X0147516Y0253000D01*
X0148839Y0253548D01*
X0149852Y0254561D01*
X0150400Y0255884D01*
X0150400Y0257316D01*
X0149852Y0258639D01*
X0149800Y0258691D01*
X0149800Y0260170D01*
X0146200Y0263770D01*
X0144970Y0265000D01*
X0136030Y0265000D01*
X0131630Y0260600D01*
X0129095Y0260600D01*
X0126400Y0257905D01*
X0126400Y0254095D01*
X0129095Y0251400D01*
X0132905Y0251400D01*
X0135600Y0254095D01*
X0135600Y0257905D01*
X0135238Y0258268D01*
X0137770Y0260800D01*
X0143230Y0260800D01*
X0144570Y0259461D01*
X0144307Y0259198D01*
X0142905Y0260600D01*
X0139095Y0260600D01*
X0136400Y0257905D01*
X0136400Y0254095D01*
X0139095Y0251400D01*
X0142905Y0251400D01*
X0138862Y0250368D02*
X0133138Y0250368D01*
X0133472Y0251966D02*
X0138528Y0251966D01*
X0136930Y0253565D02*
X0135070Y0253565D01*
X0135600Y0255163D02*
X0136400Y0255163D01*
X0136400Y0256762D02*
X0135600Y0256762D01*
X0135330Y0258360D02*
X0136855Y0258360D01*
X0136929Y0259959D02*
X0138453Y0259959D01*
X0143547Y0259959D02*
X0144071Y0259959D01*
X0146814Y0263156D02*
X0237107Y0263156D01*
X0236051Y0263593D02*
X0239262Y0262263D01*
X0242738Y0262263D01*
X0245949Y0263593D01*
X0248407Y0266051D01*
X0249737Y0269262D01*
X0249737Y0272738D01*
X0248407Y0275949D01*
X0245949Y0278407D01*
X0242738Y0279737D01*
X0239262Y0279737D01*
X0236051Y0278407D01*
X0233593Y0275949D01*
X0232263Y0272738D01*
X0232263Y0269262D01*
X0233593Y0266051D01*
X0236051Y0263593D01*
X0234890Y0264754D02*
X0145215Y0264754D01*
X0148412Y0261557D02*
X0249901Y0261557D01*
X0249901Y0259959D02*
X0149800Y0259959D01*
X0149967Y0258360D02*
X0249901Y0258360D01*
X0249901Y0256762D02*
X0150400Y0256762D01*
X0150102Y0255163D02*
X0249901Y0255163D01*
X0249901Y0253565D02*
X0148856Y0253565D01*
X0138119Y0242375D02*
X0137895Y0242375D01*
X0136521Y0243974D02*
X0136296Y0243974D01*
X0136400Y0245572D02*
X0135600Y0245572D01*
X0135600Y0247171D02*
X0136400Y0247171D01*
X0137264Y0248769D02*
X0134736Y0248769D01*
X0128862Y0250368D02*
X0123138Y0250368D01*
X0123472Y0251966D02*
X0128528Y0251966D01*
X0126930Y0253565D02*
X0125070Y0253565D01*
X0125600Y0255163D02*
X0126400Y0255163D01*
X0126400Y0256762D02*
X0125600Y0256762D01*
X0125145Y0258360D02*
X0126855Y0258360D01*
X0128453Y0259959D02*
X0123547Y0259959D01*
X0132588Y0261557D02*
X0047488Y0261557D01*
X0047482Y0263156D02*
X0134186Y0263156D01*
X0135785Y0264754D02*
X0047477Y0264754D01*
X0047471Y0266353D02*
X0233468Y0266353D01*
X0232806Y0267951D02*
X0047465Y0267951D01*
X0047459Y0269550D02*
X0232263Y0269550D01*
X0232263Y0271148D02*
X0047453Y0271148D01*
X0047447Y0272747D02*
X0232267Y0272747D01*
X0232929Y0274345D02*
X0047442Y0274345D01*
X0047436Y0275944D02*
X0233591Y0275944D01*
X0235186Y0277542D02*
X0047430Y0277542D01*
X0047424Y0279141D02*
X0237823Y0279141D01*
X0244177Y0279141D02*
X0249901Y0279141D01*
X0249901Y0280739D02*
X0047418Y0280739D01*
X0068061Y0202412D02*
X0131418Y0202412D01*
X0133016Y0200814D02*
X0068061Y0200814D01*
X0068061Y0199215D02*
X0156364Y0199215D01*
X0158836Y0199215D02*
X0249901Y0199215D01*
X0249901Y0197617D02*
X0068061Y0197617D01*
X0068061Y0196018D02*
X0249901Y0196018D01*
X0249901Y0194420D02*
X0068061Y0194420D01*
X0068061Y0192821D02*
X0249901Y0192821D01*
X0249901Y0191223D02*
X0068061Y0191223D01*
X0068061Y0189624D02*
X0249901Y0189624D01*
X0249901Y0188026D02*
X0068061Y0188026D01*
X0068061Y0186427D02*
X0249901Y0186427D01*
X0249901Y0184829D02*
X0068061Y0184829D01*
X0068061Y0183230D02*
X0249901Y0183230D01*
X0249901Y0181632D02*
X0068061Y0181632D01*
X0068061Y0180033D02*
X0249901Y0180033D01*
X0249901Y0178435D02*
X0068061Y0178435D01*
X0068061Y0176836D02*
X0249901Y0176836D01*
X0249901Y0175238D02*
X0068061Y0175238D01*
X0068061Y0173639D02*
X0249901Y0173639D01*
X0249901Y0172041D02*
X0068061Y0172041D01*
X0068061Y0170442D02*
X0249901Y0170442D01*
X0249901Y0168844D02*
X0068061Y0168844D01*
X0068061Y0167245D02*
X0249901Y0167245D01*
X0249901Y0165647D02*
X0068061Y0165647D01*
X0068061Y0164048D02*
X0249901Y0164048D01*
X0249901Y0162450D02*
X0068061Y0162450D01*
X0068061Y0160851D02*
X0249901Y0160851D01*
X0249901Y0159253D02*
X0068061Y0159253D01*
X0068061Y0157654D02*
X0249901Y0157654D01*
X0249901Y0156056D02*
X0068061Y0156056D01*
X0063861Y0104903D02*
X0063515Y0104903D01*
X0063861Y0096911D02*
X0063066Y0096911D01*
X0083066Y0096911D02*
X0084530Y0096911D01*
X0088730Y0096911D02*
X0088934Y0096911D01*
X0084530Y0104903D02*
X0083515Y0104903D01*
X0108415Y0096911D02*
X0108934Y0096911D01*
X0113335Y0024978D02*
X0118665Y0024978D01*
X0118412Y0024873D02*
X0117127Y0023588D01*
X0116431Y0021909D01*
X0116431Y0020091D01*
X0117127Y0018412D01*
X0118412Y0017127D01*
X0120091Y0016431D01*
X0121909Y0016431D01*
X0123588Y0017127D01*
X0124873Y0018412D01*
X0125568Y0020091D01*
X0125568Y0021909D01*
X0124873Y0023588D01*
X0123588Y0024873D01*
X0121909Y0025568D01*
X0120091Y0025568D01*
X0118412Y0024873D01*
X0117041Y0023379D02*
X0114959Y0023379D01*
X0115568Y0021781D02*
X0116431Y0021781D01*
X0116431Y0020182D02*
X0115568Y0020182D01*
X0114944Y0018584D02*
X0117056Y0018584D01*
X0118755Y0016985D02*
X0113245Y0016985D01*
X0123245Y0016985D02*
X0128755Y0016985D01*
X0128412Y0017127D02*
X0130091Y0016431D01*
X0131909Y0016431D01*
X0133588Y0017127D01*
X0134873Y0018412D01*
X0135568Y0020091D01*
X0135568Y0021909D01*
X0134873Y0023588D01*
X0133588Y0024873D01*
X0131909Y0025568D01*
X0130091Y0025568D01*
X0128412Y0024873D01*
X0127127Y0023588D01*
X0126431Y0021909D01*
X0126431Y0020091D01*
X0127127Y0018412D01*
X0128412Y0017127D01*
X0127056Y0018584D02*
X0124944Y0018584D01*
X0125568Y0020182D02*
X0126431Y0020182D01*
X0126431Y0021781D02*
X0125568Y0021781D01*
X0124959Y0023379D02*
X0127041Y0023379D01*
X0128665Y0024978D02*
X0123335Y0024978D01*
X0133335Y0024978D02*
X0138665Y0024978D01*
X0138412Y0024873D02*
X0137127Y0023588D01*
X0136431Y0021909D01*
X0136431Y0020091D01*
X0137127Y0018412D01*
X0138412Y0017127D01*
X0140091Y0016431D01*
X0141909Y0016431D01*
X0143588Y0017127D01*
X0144873Y0018412D01*
X0145568Y0020091D01*
X0145568Y0021909D01*
X0144873Y0023588D01*
X0143588Y0024873D01*
X0141909Y0025568D01*
X0140091Y0025568D01*
X0138412Y0024873D01*
X0137041Y0023379D02*
X0134959Y0023379D01*
X0135568Y0021781D02*
X0136431Y0021781D01*
X0136431Y0020182D02*
X0135568Y0020182D01*
X0134944Y0018584D02*
X0137056Y0018584D01*
X0138755Y0016985D02*
X0133245Y0016985D01*
X0143245Y0016985D02*
X0148755Y0016985D01*
X0147056Y0018584D02*
X0144944Y0018584D01*
X0145568Y0020182D02*
X0146431Y0020182D01*
X0146431Y0021781D02*
X0145568Y0021781D01*
X0144959Y0023379D02*
X0147041Y0023379D01*
X0148665Y0024978D02*
X0143335Y0024978D01*
X0088665Y0024978D02*
X0083335Y0024978D01*
X0083588Y0024873D02*
X0081909Y0025568D01*
X0080091Y0025568D01*
X0078412Y0024873D01*
X0077127Y0023588D01*
X0076431Y0021909D01*
X0076431Y0020091D01*
X0077127Y0018412D01*
X0078412Y0017127D01*
X0080091Y0016431D01*
X0081909Y0016431D01*
X0083588Y0017127D01*
X0084873Y0018412D01*
X0085568Y0020091D01*
X0085568Y0021909D01*
X0084873Y0023588D01*
X0083588Y0024873D01*
X0084959Y0023379D02*
X0087041Y0023379D01*
X0086431Y0021781D02*
X0085568Y0021781D01*
X0085568Y0020182D02*
X0086431Y0020182D01*
X0087056Y0018584D02*
X0084944Y0018584D01*
X0083245Y0016985D02*
X0088755Y0016985D01*
X0078755Y0016985D02*
X0073245Y0016985D01*
X0073588Y0017127D02*
X0074873Y0018412D01*
X0075568Y0020091D01*
X0075568Y0021909D01*
X0074873Y0023588D01*
X0073588Y0024873D01*
X0071909Y0025568D01*
X0070091Y0025568D01*
X0068412Y0024873D01*
X0067127Y0023588D01*
X0066431Y0021909D01*
X0066431Y0020091D01*
X0067127Y0018412D01*
X0068412Y0017127D01*
X0070091Y0016431D01*
X0071909Y0016431D01*
X0073588Y0017127D01*
X0074944Y0018584D02*
X0077056Y0018584D01*
X0076431Y0020182D02*
X0075568Y0020182D01*
X0075568Y0021781D02*
X0076431Y0021781D01*
X0077041Y0023379D02*
X0074959Y0023379D01*
X0073335Y0024978D02*
X0078665Y0024978D01*
X0068665Y0024978D02*
X0063335Y0024978D01*
X0064959Y0023379D02*
X0067041Y0023379D01*
X0066431Y0021781D02*
X0065568Y0021781D01*
X0065568Y0020182D02*
X0066431Y0020182D01*
X0067056Y0018584D02*
X0064944Y0018584D01*
X0063245Y0016985D02*
X0068755Y0016985D01*
X0160757Y0200814D02*
X0249901Y0200814D01*
X0249901Y0202412D02*
X0161200Y0202412D01*
X0160912Y0204011D02*
X0249901Y0204011D01*
X0249901Y0205609D02*
X0159682Y0205609D01*
X0155518Y0205609D02*
X0139600Y0205609D01*
X0139479Y0207208D02*
X0249901Y0207208D01*
X0249901Y0208806D02*
X0138485Y0208806D01*
X0138100Y0210405D02*
X0249901Y0210405D01*
X0249901Y0212003D02*
X0138100Y0212003D01*
X0138100Y0213602D02*
X0249901Y0213602D01*
X0249901Y0215201D02*
X0138100Y0215201D01*
X0138100Y0216799D02*
X0249901Y0216799D01*
X0249901Y0218398D02*
X0138100Y0218398D01*
X0138100Y0219996D02*
X0249901Y0219996D01*
X0249901Y0221595D02*
X0138100Y0221595D01*
X0138100Y0223193D02*
X0249901Y0223193D01*
X0249901Y0224792D02*
X0138100Y0224792D01*
X0138100Y0226390D02*
X0249901Y0226390D01*
X0249901Y0227989D02*
X0138100Y0227989D01*
X0138100Y0229587D02*
X0249901Y0229587D01*
X0249901Y0231186D02*
X0138100Y0231186D01*
X0138100Y0232784D02*
X0249901Y0232784D01*
X0249901Y0234383D02*
X0138100Y0234383D01*
X0138100Y0235981D02*
X0249901Y0235981D01*
X0249901Y0263156D02*
X0244893Y0263156D01*
X0247110Y0264754D02*
X0249901Y0264754D01*
X0249901Y0266353D02*
X0248532Y0266353D01*
X0249194Y0267951D02*
X0249901Y0267951D01*
X0249901Y0269550D02*
X0249737Y0269550D01*
X0249737Y0271148D02*
X0249901Y0271148D01*
X0249901Y0272747D02*
X0249733Y0272747D01*
X0249901Y0274345D02*
X0249071Y0274345D01*
X0248409Y0275944D02*
X0249901Y0275944D01*
X0249901Y0277542D02*
X0246814Y0277542D01*
X0128119Y0242375D02*
X0127995Y0242375D01*
X0126521Y0243974D02*
X0126396Y0243974D01*
X0126400Y0245572D02*
X0125600Y0245572D01*
X0125600Y0247171D02*
X0126400Y0247171D01*
X0127264Y0248769D02*
X0124736Y0248769D01*
M02*
