G75*
%MOIN*%
%OFA0B0*%
%FSLAX25Y25*%
%IPPOS*%
%LPD*%
%AMOC8*
5,1,8,0,0,1.08239X$1,22.5*
%
%ADD10C,0.00000*%
%ADD11R,0.03937X0.11811*%
%ADD12R,0.11811X0.03937*%
%ADD13OC8,0.06000*%
%ADD14R,0.04400X0.06900*%
%ADD15R,0.16000X0.16000*%
%ADD16R,0.20000X0.10000*%
%ADD17C,0.14000*%
%ADD18R,0.05937X0.05937*%
%ADD19C,0.05937*%
%ADD20C,0.06000*%
%ADD21C,0.01000*%
%ADD22C,0.03569*%
%ADD23C,0.04000*%
%ADD24C,0.01600*%
%ADD25R,0.03962X0.03962*%
D10*
X0001000Y0001000D02*
X0001000Y0285961D01*
X0254701Y0285961D01*
X0254701Y0001000D01*
X0001000Y0001000D01*
X0012063Y0016000D02*
X0012065Y0016125D01*
X0012071Y0016250D01*
X0012081Y0016374D01*
X0012095Y0016498D01*
X0012112Y0016622D01*
X0012134Y0016745D01*
X0012160Y0016867D01*
X0012189Y0016989D01*
X0012222Y0017109D01*
X0012260Y0017228D01*
X0012300Y0017347D01*
X0012345Y0017463D01*
X0012393Y0017578D01*
X0012445Y0017692D01*
X0012501Y0017804D01*
X0012560Y0017914D01*
X0012622Y0018022D01*
X0012688Y0018129D01*
X0012757Y0018233D01*
X0012830Y0018334D01*
X0012905Y0018434D01*
X0012984Y0018531D01*
X0013066Y0018625D01*
X0013151Y0018717D01*
X0013238Y0018806D01*
X0013329Y0018892D01*
X0013422Y0018975D01*
X0013518Y0019056D01*
X0013616Y0019133D01*
X0013716Y0019207D01*
X0013819Y0019278D01*
X0013924Y0019345D01*
X0014032Y0019410D01*
X0014141Y0019470D01*
X0014252Y0019528D01*
X0014365Y0019581D01*
X0014479Y0019631D01*
X0014595Y0019678D01*
X0014712Y0019720D01*
X0014831Y0019759D01*
X0014951Y0019795D01*
X0015072Y0019826D01*
X0015194Y0019854D01*
X0015316Y0019877D01*
X0015440Y0019897D01*
X0015564Y0019913D01*
X0015688Y0019925D01*
X0015813Y0019933D01*
X0015938Y0019937D01*
X0016062Y0019937D01*
X0016187Y0019933D01*
X0016312Y0019925D01*
X0016436Y0019913D01*
X0016560Y0019897D01*
X0016684Y0019877D01*
X0016806Y0019854D01*
X0016928Y0019826D01*
X0017049Y0019795D01*
X0017169Y0019759D01*
X0017288Y0019720D01*
X0017405Y0019678D01*
X0017521Y0019631D01*
X0017635Y0019581D01*
X0017748Y0019528D01*
X0017859Y0019470D01*
X0017969Y0019410D01*
X0018076Y0019345D01*
X0018181Y0019278D01*
X0018284Y0019207D01*
X0018384Y0019133D01*
X0018482Y0019056D01*
X0018578Y0018975D01*
X0018671Y0018892D01*
X0018762Y0018806D01*
X0018849Y0018717D01*
X0018934Y0018625D01*
X0019016Y0018531D01*
X0019095Y0018434D01*
X0019170Y0018334D01*
X0019243Y0018233D01*
X0019312Y0018129D01*
X0019378Y0018022D01*
X0019440Y0017914D01*
X0019499Y0017804D01*
X0019555Y0017692D01*
X0019607Y0017578D01*
X0019655Y0017463D01*
X0019700Y0017347D01*
X0019740Y0017228D01*
X0019778Y0017109D01*
X0019811Y0016989D01*
X0019840Y0016867D01*
X0019866Y0016745D01*
X0019888Y0016622D01*
X0019905Y0016498D01*
X0019919Y0016374D01*
X0019929Y0016250D01*
X0019935Y0016125D01*
X0019937Y0016000D01*
X0019935Y0015875D01*
X0019929Y0015750D01*
X0019919Y0015626D01*
X0019905Y0015502D01*
X0019888Y0015378D01*
X0019866Y0015255D01*
X0019840Y0015133D01*
X0019811Y0015011D01*
X0019778Y0014891D01*
X0019740Y0014772D01*
X0019700Y0014653D01*
X0019655Y0014537D01*
X0019607Y0014422D01*
X0019555Y0014308D01*
X0019499Y0014196D01*
X0019440Y0014086D01*
X0019378Y0013978D01*
X0019312Y0013871D01*
X0019243Y0013767D01*
X0019170Y0013666D01*
X0019095Y0013566D01*
X0019016Y0013469D01*
X0018934Y0013375D01*
X0018849Y0013283D01*
X0018762Y0013194D01*
X0018671Y0013108D01*
X0018578Y0013025D01*
X0018482Y0012944D01*
X0018384Y0012867D01*
X0018284Y0012793D01*
X0018181Y0012722D01*
X0018076Y0012655D01*
X0017968Y0012590D01*
X0017859Y0012530D01*
X0017748Y0012472D01*
X0017635Y0012419D01*
X0017521Y0012369D01*
X0017405Y0012322D01*
X0017288Y0012280D01*
X0017169Y0012241D01*
X0017049Y0012205D01*
X0016928Y0012174D01*
X0016806Y0012146D01*
X0016684Y0012123D01*
X0016560Y0012103D01*
X0016436Y0012087D01*
X0016312Y0012075D01*
X0016187Y0012067D01*
X0016062Y0012063D01*
X0015938Y0012063D01*
X0015813Y0012067D01*
X0015688Y0012075D01*
X0015564Y0012087D01*
X0015440Y0012103D01*
X0015316Y0012123D01*
X0015194Y0012146D01*
X0015072Y0012174D01*
X0014951Y0012205D01*
X0014831Y0012241D01*
X0014712Y0012280D01*
X0014595Y0012322D01*
X0014479Y0012369D01*
X0014365Y0012419D01*
X0014252Y0012472D01*
X0014141Y0012530D01*
X0014031Y0012590D01*
X0013924Y0012655D01*
X0013819Y0012722D01*
X0013716Y0012793D01*
X0013616Y0012867D01*
X0013518Y0012944D01*
X0013422Y0013025D01*
X0013329Y0013108D01*
X0013238Y0013194D01*
X0013151Y0013283D01*
X0013066Y0013375D01*
X0012984Y0013469D01*
X0012905Y0013566D01*
X0012830Y0013666D01*
X0012757Y0013767D01*
X0012688Y0013871D01*
X0012622Y0013978D01*
X0012560Y0014086D01*
X0012501Y0014196D01*
X0012445Y0014308D01*
X0012393Y0014422D01*
X0012345Y0014537D01*
X0012300Y0014653D01*
X0012260Y0014772D01*
X0012222Y0014891D01*
X0012189Y0015011D01*
X0012160Y0015133D01*
X0012134Y0015255D01*
X0012112Y0015378D01*
X0012095Y0015502D01*
X0012081Y0015626D01*
X0012071Y0015750D01*
X0012065Y0015875D01*
X0012063Y0016000D01*
X0031500Y0023500D02*
X0031502Y0023634D01*
X0031508Y0023768D01*
X0031518Y0023901D01*
X0031532Y0024035D01*
X0031550Y0024168D01*
X0031572Y0024300D01*
X0031597Y0024431D01*
X0031627Y0024562D01*
X0031661Y0024692D01*
X0031698Y0024820D01*
X0031739Y0024948D01*
X0031784Y0025074D01*
X0031833Y0025199D01*
X0031885Y0025322D01*
X0031941Y0025444D01*
X0032001Y0025564D01*
X0032064Y0025682D01*
X0032131Y0025798D01*
X0032201Y0025912D01*
X0032275Y0026024D01*
X0032352Y0026134D01*
X0032432Y0026242D01*
X0032515Y0026347D01*
X0032601Y0026449D01*
X0032690Y0026549D01*
X0032783Y0026646D01*
X0032878Y0026741D01*
X0032976Y0026832D01*
X0033076Y0026921D01*
X0033179Y0027006D01*
X0033285Y0027089D01*
X0033393Y0027168D01*
X0033503Y0027244D01*
X0033616Y0027317D01*
X0033731Y0027386D01*
X0033847Y0027452D01*
X0033966Y0027514D01*
X0034086Y0027573D01*
X0034209Y0027628D01*
X0034332Y0027680D01*
X0034457Y0027727D01*
X0034584Y0027771D01*
X0034712Y0027812D01*
X0034841Y0027848D01*
X0034971Y0027881D01*
X0035102Y0027909D01*
X0035233Y0027934D01*
X0035366Y0027955D01*
X0035499Y0027972D01*
X0035632Y0027985D01*
X0035766Y0027994D01*
X0035900Y0027999D01*
X0036034Y0028000D01*
X0036167Y0027997D01*
X0036301Y0027990D01*
X0036435Y0027979D01*
X0036568Y0027964D01*
X0036701Y0027945D01*
X0036833Y0027922D01*
X0036964Y0027896D01*
X0037094Y0027865D01*
X0037224Y0027830D01*
X0037352Y0027792D01*
X0037479Y0027750D01*
X0037605Y0027704D01*
X0037730Y0027654D01*
X0037853Y0027601D01*
X0037974Y0027544D01*
X0038094Y0027483D01*
X0038211Y0027419D01*
X0038327Y0027352D01*
X0038441Y0027281D01*
X0038552Y0027206D01*
X0038661Y0027129D01*
X0038768Y0027048D01*
X0038873Y0026964D01*
X0038974Y0026877D01*
X0039074Y0026787D01*
X0039170Y0026694D01*
X0039264Y0026598D01*
X0039355Y0026499D01*
X0039442Y0026398D01*
X0039527Y0026294D01*
X0039609Y0026188D01*
X0039687Y0026080D01*
X0039762Y0025969D01*
X0039834Y0025856D01*
X0039903Y0025740D01*
X0039968Y0025623D01*
X0040029Y0025504D01*
X0040087Y0025383D01*
X0040141Y0025261D01*
X0040192Y0025137D01*
X0040239Y0025011D01*
X0040282Y0024884D01*
X0040321Y0024756D01*
X0040357Y0024627D01*
X0040388Y0024497D01*
X0040416Y0024366D01*
X0040440Y0024234D01*
X0040460Y0024101D01*
X0040476Y0023968D01*
X0040488Y0023835D01*
X0040496Y0023701D01*
X0040500Y0023567D01*
X0040500Y0023433D01*
X0040496Y0023299D01*
X0040488Y0023165D01*
X0040476Y0023032D01*
X0040460Y0022899D01*
X0040440Y0022766D01*
X0040416Y0022634D01*
X0040388Y0022503D01*
X0040357Y0022373D01*
X0040321Y0022244D01*
X0040282Y0022116D01*
X0040239Y0021989D01*
X0040192Y0021863D01*
X0040141Y0021739D01*
X0040087Y0021617D01*
X0040029Y0021496D01*
X0039968Y0021377D01*
X0039903Y0021260D01*
X0039834Y0021144D01*
X0039762Y0021031D01*
X0039687Y0020920D01*
X0039609Y0020812D01*
X0039527Y0020706D01*
X0039442Y0020602D01*
X0039355Y0020501D01*
X0039264Y0020402D01*
X0039170Y0020306D01*
X0039074Y0020213D01*
X0038974Y0020123D01*
X0038873Y0020036D01*
X0038768Y0019952D01*
X0038661Y0019871D01*
X0038552Y0019794D01*
X0038441Y0019719D01*
X0038327Y0019648D01*
X0038211Y0019581D01*
X0038094Y0019517D01*
X0037974Y0019456D01*
X0037853Y0019399D01*
X0037730Y0019346D01*
X0037605Y0019296D01*
X0037479Y0019250D01*
X0037352Y0019208D01*
X0037224Y0019170D01*
X0037094Y0019135D01*
X0036964Y0019104D01*
X0036833Y0019078D01*
X0036701Y0019055D01*
X0036568Y0019036D01*
X0036435Y0019021D01*
X0036301Y0019010D01*
X0036167Y0019003D01*
X0036034Y0019000D01*
X0035900Y0019001D01*
X0035766Y0019006D01*
X0035632Y0019015D01*
X0035499Y0019028D01*
X0035366Y0019045D01*
X0035233Y0019066D01*
X0035102Y0019091D01*
X0034971Y0019119D01*
X0034841Y0019152D01*
X0034712Y0019188D01*
X0034584Y0019229D01*
X0034457Y0019273D01*
X0034332Y0019320D01*
X0034209Y0019372D01*
X0034086Y0019427D01*
X0033966Y0019486D01*
X0033847Y0019548D01*
X0033731Y0019614D01*
X0033616Y0019683D01*
X0033503Y0019756D01*
X0033393Y0019832D01*
X0033285Y0019911D01*
X0033179Y0019994D01*
X0033076Y0020079D01*
X0032976Y0020168D01*
X0032878Y0020259D01*
X0032783Y0020354D01*
X0032690Y0020451D01*
X0032601Y0020551D01*
X0032515Y0020653D01*
X0032432Y0020758D01*
X0032352Y0020866D01*
X0032275Y0020976D01*
X0032201Y0021088D01*
X0032131Y0021202D01*
X0032064Y0021318D01*
X0032001Y0021436D01*
X0031941Y0021556D01*
X0031885Y0021678D01*
X0031833Y0021801D01*
X0031784Y0021926D01*
X0031739Y0022052D01*
X0031698Y0022180D01*
X0031661Y0022308D01*
X0031627Y0022438D01*
X0031597Y0022569D01*
X0031572Y0022700D01*
X0031550Y0022832D01*
X0031532Y0022965D01*
X0031518Y0023099D01*
X0031508Y0023232D01*
X0031502Y0023366D01*
X0031500Y0023500D01*
X0031500Y0098500D02*
X0031502Y0098634D01*
X0031508Y0098768D01*
X0031518Y0098901D01*
X0031532Y0099035D01*
X0031550Y0099168D01*
X0031572Y0099300D01*
X0031597Y0099431D01*
X0031627Y0099562D01*
X0031661Y0099692D01*
X0031698Y0099820D01*
X0031739Y0099948D01*
X0031784Y0100074D01*
X0031833Y0100199D01*
X0031885Y0100322D01*
X0031941Y0100444D01*
X0032001Y0100564D01*
X0032064Y0100682D01*
X0032131Y0100798D01*
X0032201Y0100912D01*
X0032275Y0101024D01*
X0032352Y0101134D01*
X0032432Y0101242D01*
X0032515Y0101347D01*
X0032601Y0101449D01*
X0032690Y0101549D01*
X0032783Y0101646D01*
X0032878Y0101741D01*
X0032976Y0101832D01*
X0033076Y0101921D01*
X0033179Y0102006D01*
X0033285Y0102089D01*
X0033393Y0102168D01*
X0033503Y0102244D01*
X0033616Y0102317D01*
X0033731Y0102386D01*
X0033847Y0102452D01*
X0033966Y0102514D01*
X0034086Y0102573D01*
X0034209Y0102628D01*
X0034332Y0102680D01*
X0034457Y0102727D01*
X0034584Y0102771D01*
X0034712Y0102812D01*
X0034841Y0102848D01*
X0034971Y0102881D01*
X0035102Y0102909D01*
X0035233Y0102934D01*
X0035366Y0102955D01*
X0035499Y0102972D01*
X0035632Y0102985D01*
X0035766Y0102994D01*
X0035900Y0102999D01*
X0036034Y0103000D01*
X0036167Y0102997D01*
X0036301Y0102990D01*
X0036435Y0102979D01*
X0036568Y0102964D01*
X0036701Y0102945D01*
X0036833Y0102922D01*
X0036964Y0102896D01*
X0037094Y0102865D01*
X0037224Y0102830D01*
X0037352Y0102792D01*
X0037479Y0102750D01*
X0037605Y0102704D01*
X0037730Y0102654D01*
X0037853Y0102601D01*
X0037974Y0102544D01*
X0038094Y0102483D01*
X0038211Y0102419D01*
X0038327Y0102352D01*
X0038441Y0102281D01*
X0038552Y0102206D01*
X0038661Y0102129D01*
X0038768Y0102048D01*
X0038873Y0101964D01*
X0038974Y0101877D01*
X0039074Y0101787D01*
X0039170Y0101694D01*
X0039264Y0101598D01*
X0039355Y0101499D01*
X0039442Y0101398D01*
X0039527Y0101294D01*
X0039609Y0101188D01*
X0039687Y0101080D01*
X0039762Y0100969D01*
X0039834Y0100856D01*
X0039903Y0100740D01*
X0039968Y0100623D01*
X0040029Y0100504D01*
X0040087Y0100383D01*
X0040141Y0100261D01*
X0040192Y0100137D01*
X0040239Y0100011D01*
X0040282Y0099884D01*
X0040321Y0099756D01*
X0040357Y0099627D01*
X0040388Y0099497D01*
X0040416Y0099366D01*
X0040440Y0099234D01*
X0040460Y0099101D01*
X0040476Y0098968D01*
X0040488Y0098835D01*
X0040496Y0098701D01*
X0040500Y0098567D01*
X0040500Y0098433D01*
X0040496Y0098299D01*
X0040488Y0098165D01*
X0040476Y0098032D01*
X0040460Y0097899D01*
X0040440Y0097766D01*
X0040416Y0097634D01*
X0040388Y0097503D01*
X0040357Y0097373D01*
X0040321Y0097244D01*
X0040282Y0097116D01*
X0040239Y0096989D01*
X0040192Y0096863D01*
X0040141Y0096739D01*
X0040087Y0096617D01*
X0040029Y0096496D01*
X0039968Y0096377D01*
X0039903Y0096260D01*
X0039834Y0096144D01*
X0039762Y0096031D01*
X0039687Y0095920D01*
X0039609Y0095812D01*
X0039527Y0095706D01*
X0039442Y0095602D01*
X0039355Y0095501D01*
X0039264Y0095402D01*
X0039170Y0095306D01*
X0039074Y0095213D01*
X0038974Y0095123D01*
X0038873Y0095036D01*
X0038768Y0094952D01*
X0038661Y0094871D01*
X0038552Y0094794D01*
X0038441Y0094719D01*
X0038327Y0094648D01*
X0038211Y0094581D01*
X0038094Y0094517D01*
X0037974Y0094456D01*
X0037853Y0094399D01*
X0037730Y0094346D01*
X0037605Y0094296D01*
X0037479Y0094250D01*
X0037352Y0094208D01*
X0037224Y0094170D01*
X0037094Y0094135D01*
X0036964Y0094104D01*
X0036833Y0094078D01*
X0036701Y0094055D01*
X0036568Y0094036D01*
X0036435Y0094021D01*
X0036301Y0094010D01*
X0036167Y0094003D01*
X0036034Y0094000D01*
X0035900Y0094001D01*
X0035766Y0094006D01*
X0035632Y0094015D01*
X0035499Y0094028D01*
X0035366Y0094045D01*
X0035233Y0094066D01*
X0035102Y0094091D01*
X0034971Y0094119D01*
X0034841Y0094152D01*
X0034712Y0094188D01*
X0034584Y0094229D01*
X0034457Y0094273D01*
X0034332Y0094320D01*
X0034209Y0094372D01*
X0034086Y0094427D01*
X0033966Y0094486D01*
X0033847Y0094548D01*
X0033731Y0094614D01*
X0033616Y0094683D01*
X0033503Y0094756D01*
X0033393Y0094832D01*
X0033285Y0094911D01*
X0033179Y0094994D01*
X0033076Y0095079D01*
X0032976Y0095168D01*
X0032878Y0095259D01*
X0032783Y0095354D01*
X0032690Y0095451D01*
X0032601Y0095551D01*
X0032515Y0095653D01*
X0032432Y0095758D01*
X0032352Y0095866D01*
X0032275Y0095976D01*
X0032201Y0096088D01*
X0032131Y0096202D01*
X0032064Y0096318D01*
X0032001Y0096436D01*
X0031941Y0096556D01*
X0031885Y0096678D01*
X0031833Y0096801D01*
X0031784Y0096926D01*
X0031739Y0097052D01*
X0031698Y0097180D01*
X0031661Y0097308D01*
X0031627Y0097438D01*
X0031597Y0097569D01*
X0031572Y0097700D01*
X0031550Y0097832D01*
X0031532Y0097965D01*
X0031518Y0098099D01*
X0031508Y0098232D01*
X0031502Y0098366D01*
X0031500Y0098500D01*
X0012063Y0271000D02*
X0012065Y0271125D01*
X0012071Y0271250D01*
X0012081Y0271374D01*
X0012095Y0271498D01*
X0012112Y0271622D01*
X0012134Y0271745D01*
X0012160Y0271867D01*
X0012189Y0271989D01*
X0012222Y0272109D01*
X0012260Y0272228D01*
X0012300Y0272347D01*
X0012345Y0272463D01*
X0012393Y0272578D01*
X0012445Y0272692D01*
X0012501Y0272804D01*
X0012560Y0272914D01*
X0012622Y0273022D01*
X0012688Y0273129D01*
X0012757Y0273233D01*
X0012830Y0273334D01*
X0012905Y0273434D01*
X0012984Y0273531D01*
X0013066Y0273625D01*
X0013151Y0273717D01*
X0013238Y0273806D01*
X0013329Y0273892D01*
X0013422Y0273975D01*
X0013518Y0274056D01*
X0013616Y0274133D01*
X0013716Y0274207D01*
X0013819Y0274278D01*
X0013924Y0274345D01*
X0014032Y0274410D01*
X0014141Y0274470D01*
X0014252Y0274528D01*
X0014365Y0274581D01*
X0014479Y0274631D01*
X0014595Y0274678D01*
X0014712Y0274720D01*
X0014831Y0274759D01*
X0014951Y0274795D01*
X0015072Y0274826D01*
X0015194Y0274854D01*
X0015316Y0274877D01*
X0015440Y0274897D01*
X0015564Y0274913D01*
X0015688Y0274925D01*
X0015813Y0274933D01*
X0015938Y0274937D01*
X0016062Y0274937D01*
X0016187Y0274933D01*
X0016312Y0274925D01*
X0016436Y0274913D01*
X0016560Y0274897D01*
X0016684Y0274877D01*
X0016806Y0274854D01*
X0016928Y0274826D01*
X0017049Y0274795D01*
X0017169Y0274759D01*
X0017288Y0274720D01*
X0017405Y0274678D01*
X0017521Y0274631D01*
X0017635Y0274581D01*
X0017748Y0274528D01*
X0017859Y0274470D01*
X0017969Y0274410D01*
X0018076Y0274345D01*
X0018181Y0274278D01*
X0018284Y0274207D01*
X0018384Y0274133D01*
X0018482Y0274056D01*
X0018578Y0273975D01*
X0018671Y0273892D01*
X0018762Y0273806D01*
X0018849Y0273717D01*
X0018934Y0273625D01*
X0019016Y0273531D01*
X0019095Y0273434D01*
X0019170Y0273334D01*
X0019243Y0273233D01*
X0019312Y0273129D01*
X0019378Y0273022D01*
X0019440Y0272914D01*
X0019499Y0272804D01*
X0019555Y0272692D01*
X0019607Y0272578D01*
X0019655Y0272463D01*
X0019700Y0272347D01*
X0019740Y0272228D01*
X0019778Y0272109D01*
X0019811Y0271989D01*
X0019840Y0271867D01*
X0019866Y0271745D01*
X0019888Y0271622D01*
X0019905Y0271498D01*
X0019919Y0271374D01*
X0019929Y0271250D01*
X0019935Y0271125D01*
X0019937Y0271000D01*
X0019935Y0270875D01*
X0019929Y0270750D01*
X0019919Y0270626D01*
X0019905Y0270502D01*
X0019888Y0270378D01*
X0019866Y0270255D01*
X0019840Y0270133D01*
X0019811Y0270011D01*
X0019778Y0269891D01*
X0019740Y0269772D01*
X0019700Y0269653D01*
X0019655Y0269537D01*
X0019607Y0269422D01*
X0019555Y0269308D01*
X0019499Y0269196D01*
X0019440Y0269086D01*
X0019378Y0268978D01*
X0019312Y0268871D01*
X0019243Y0268767D01*
X0019170Y0268666D01*
X0019095Y0268566D01*
X0019016Y0268469D01*
X0018934Y0268375D01*
X0018849Y0268283D01*
X0018762Y0268194D01*
X0018671Y0268108D01*
X0018578Y0268025D01*
X0018482Y0267944D01*
X0018384Y0267867D01*
X0018284Y0267793D01*
X0018181Y0267722D01*
X0018076Y0267655D01*
X0017968Y0267590D01*
X0017859Y0267530D01*
X0017748Y0267472D01*
X0017635Y0267419D01*
X0017521Y0267369D01*
X0017405Y0267322D01*
X0017288Y0267280D01*
X0017169Y0267241D01*
X0017049Y0267205D01*
X0016928Y0267174D01*
X0016806Y0267146D01*
X0016684Y0267123D01*
X0016560Y0267103D01*
X0016436Y0267087D01*
X0016312Y0267075D01*
X0016187Y0267067D01*
X0016062Y0267063D01*
X0015938Y0267063D01*
X0015813Y0267067D01*
X0015688Y0267075D01*
X0015564Y0267087D01*
X0015440Y0267103D01*
X0015316Y0267123D01*
X0015194Y0267146D01*
X0015072Y0267174D01*
X0014951Y0267205D01*
X0014831Y0267241D01*
X0014712Y0267280D01*
X0014595Y0267322D01*
X0014479Y0267369D01*
X0014365Y0267419D01*
X0014252Y0267472D01*
X0014141Y0267530D01*
X0014031Y0267590D01*
X0013924Y0267655D01*
X0013819Y0267722D01*
X0013716Y0267793D01*
X0013616Y0267867D01*
X0013518Y0267944D01*
X0013422Y0268025D01*
X0013329Y0268108D01*
X0013238Y0268194D01*
X0013151Y0268283D01*
X0013066Y0268375D01*
X0012984Y0268469D01*
X0012905Y0268566D01*
X0012830Y0268666D01*
X0012757Y0268767D01*
X0012688Y0268871D01*
X0012622Y0268978D01*
X0012560Y0269086D01*
X0012501Y0269196D01*
X0012445Y0269308D01*
X0012393Y0269422D01*
X0012345Y0269537D01*
X0012300Y0269653D01*
X0012260Y0269772D01*
X0012222Y0269891D01*
X0012189Y0270011D01*
X0012160Y0270133D01*
X0012134Y0270255D01*
X0012112Y0270378D01*
X0012095Y0270502D01*
X0012081Y0270626D01*
X0012071Y0270750D01*
X0012065Y0270875D01*
X0012063Y0271000D01*
X0237063Y0271000D02*
X0237065Y0271125D01*
X0237071Y0271250D01*
X0237081Y0271374D01*
X0237095Y0271498D01*
X0237112Y0271622D01*
X0237134Y0271745D01*
X0237160Y0271867D01*
X0237189Y0271989D01*
X0237222Y0272109D01*
X0237260Y0272228D01*
X0237300Y0272347D01*
X0237345Y0272463D01*
X0237393Y0272578D01*
X0237445Y0272692D01*
X0237501Y0272804D01*
X0237560Y0272914D01*
X0237622Y0273022D01*
X0237688Y0273129D01*
X0237757Y0273233D01*
X0237830Y0273334D01*
X0237905Y0273434D01*
X0237984Y0273531D01*
X0238066Y0273625D01*
X0238151Y0273717D01*
X0238238Y0273806D01*
X0238329Y0273892D01*
X0238422Y0273975D01*
X0238518Y0274056D01*
X0238616Y0274133D01*
X0238716Y0274207D01*
X0238819Y0274278D01*
X0238924Y0274345D01*
X0239032Y0274410D01*
X0239141Y0274470D01*
X0239252Y0274528D01*
X0239365Y0274581D01*
X0239479Y0274631D01*
X0239595Y0274678D01*
X0239712Y0274720D01*
X0239831Y0274759D01*
X0239951Y0274795D01*
X0240072Y0274826D01*
X0240194Y0274854D01*
X0240316Y0274877D01*
X0240440Y0274897D01*
X0240564Y0274913D01*
X0240688Y0274925D01*
X0240813Y0274933D01*
X0240938Y0274937D01*
X0241062Y0274937D01*
X0241187Y0274933D01*
X0241312Y0274925D01*
X0241436Y0274913D01*
X0241560Y0274897D01*
X0241684Y0274877D01*
X0241806Y0274854D01*
X0241928Y0274826D01*
X0242049Y0274795D01*
X0242169Y0274759D01*
X0242288Y0274720D01*
X0242405Y0274678D01*
X0242521Y0274631D01*
X0242635Y0274581D01*
X0242748Y0274528D01*
X0242859Y0274470D01*
X0242969Y0274410D01*
X0243076Y0274345D01*
X0243181Y0274278D01*
X0243284Y0274207D01*
X0243384Y0274133D01*
X0243482Y0274056D01*
X0243578Y0273975D01*
X0243671Y0273892D01*
X0243762Y0273806D01*
X0243849Y0273717D01*
X0243934Y0273625D01*
X0244016Y0273531D01*
X0244095Y0273434D01*
X0244170Y0273334D01*
X0244243Y0273233D01*
X0244312Y0273129D01*
X0244378Y0273022D01*
X0244440Y0272914D01*
X0244499Y0272804D01*
X0244555Y0272692D01*
X0244607Y0272578D01*
X0244655Y0272463D01*
X0244700Y0272347D01*
X0244740Y0272228D01*
X0244778Y0272109D01*
X0244811Y0271989D01*
X0244840Y0271867D01*
X0244866Y0271745D01*
X0244888Y0271622D01*
X0244905Y0271498D01*
X0244919Y0271374D01*
X0244929Y0271250D01*
X0244935Y0271125D01*
X0244937Y0271000D01*
X0244935Y0270875D01*
X0244929Y0270750D01*
X0244919Y0270626D01*
X0244905Y0270502D01*
X0244888Y0270378D01*
X0244866Y0270255D01*
X0244840Y0270133D01*
X0244811Y0270011D01*
X0244778Y0269891D01*
X0244740Y0269772D01*
X0244700Y0269653D01*
X0244655Y0269537D01*
X0244607Y0269422D01*
X0244555Y0269308D01*
X0244499Y0269196D01*
X0244440Y0269086D01*
X0244378Y0268978D01*
X0244312Y0268871D01*
X0244243Y0268767D01*
X0244170Y0268666D01*
X0244095Y0268566D01*
X0244016Y0268469D01*
X0243934Y0268375D01*
X0243849Y0268283D01*
X0243762Y0268194D01*
X0243671Y0268108D01*
X0243578Y0268025D01*
X0243482Y0267944D01*
X0243384Y0267867D01*
X0243284Y0267793D01*
X0243181Y0267722D01*
X0243076Y0267655D01*
X0242968Y0267590D01*
X0242859Y0267530D01*
X0242748Y0267472D01*
X0242635Y0267419D01*
X0242521Y0267369D01*
X0242405Y0267322D01*
X0242288Y0267280D01*
X0242169Y0267241D01*
X0242049Y0267205D01*
X0241928Y0267174D01*
X0241806Y0267146D01*
X0241684Y0267123D01*
X0241560Y0267103D01*
X0241436Y0267087D01*
X0241312Y0267075D01*
X0241187Y0267067D01*
X0241062Y0267063D01*
X0240938Y0267063D01*
X0240813Y0267067D01*
X0240688Y0267075D01*
X0240564Y0267087D01*
X0240440Y0267103D01*
X0240316Y0267123D01*
X0240194Y0267146D01*
X0240072Y0267174D01*
X0239951Y0267205D01*
X0239831Y0267241D01*
X0239712Y0267280D01*
X0239595Y0267322D01*
X0239479Y0267369D01*
X0239365Y0267419D01*
X0239252Y0267472D01*
X0239141Y0267530D01*
X0239031Y0267590D01*
X0238924Y0267655D01*
X0238819Y0267722D01*
X0238716Y0267793D01*
X0238616Y0267867D01*
X0238518Y0267944D01*
X0238422Y0268025D01*
X0238329Y0268108D01*
X0238238Y0268194D01*
X0238151Y0268283D01*
X0238066Y0268375D01*
X0237984Y0268469D01*
X0237905Y0268566D01*
X0237830Y0268666D01*
X0237757Y0268767D01*
X0237688Y0268871D01*
X0237622Y0268978D01*
X0237560Y0269086D01*
X0237501Y0269196D01*
X0237445Y0269308D01*
X0237393Y0269422D01*
X0237345Y0269537D01*
X0237300Y0269653D01*
X0237260Y0269772D01*
X0237222Y0269891D01*
X0237189Y0270011D01*
X0237160Y0270133D01*
X0237134Y0270255D01*
X0237112Y0270378D01*
X0237095Y0270502D01*
X0237081Y0270626D01*
X0237071Y0270750D01*
X0237065Y0270875D01*
X0237063Y0271000D01*
X0237063Y0016000D02*
X0237065Y0016125D01*
X0237071Y0016250D01*
X0237081Y0016374D01*
X0237095Y0016498D01*
X0237112Y0016622D01*
X0237134Y0016745D01*
X0237160Y0016867D01*
X0237189Y0016989D01*
X0237222Y0017109D01*
X0237260Y0017228D01*
X0237300Y0017347D01*
X0237345Y0017463D01*
X0237393Y0017578D01*
X0237445Y0017692D01*
X0237501Y0017804D01*
X0237560Y0017914D01*
X0237622Y0018022D01*
X0237688Y0018129D01*
X0237757Y0018233D01*
X0237830Y0018334D01*
X0237905Y0018434D01*
X0237984Y0018531D01*
X0238066Y0018625D01*
X0238151Y0018717D01*
X0238238Y0018806D01*
X0238329Y0018892D01*
X0238422Y0018975D01*
X0238518Y0019056D01*
X0238616Y0019133D01*
X0238716Y0019207D01*
X0238819Y0019278D01*
X0238924Y0019345D01*
X0239032Y0019410D01*
X0239141Y0019470D01*
X0239252Y0019528D01*
X0239365Y0019581D01*
X0239479Y0019631D01*
X0239595Y0019678D01*
X0239712Y0019720D01*
X0239831Y0019759D01*
X0239951Y0019795D01*
X0240072Y0019826D01*
X0240194Y0019854D01*
X0240316Y0019877D01*
X0240440Y0019897D01*
X0240564Y0019913D01*
X0240688Y0019925D01*
X0240813Y0019933D01*
X0240938Y0019937D01*
X0241062Y0019937D01*
X0241187Y0019933D01*
X0241312Y0019925D01*
X0241436Y0019913D01*
X0241560Y0019897D01*
X0241684Y0019877D01*
X0241806Y0019854D01*
X0241928Y0019826D01*
X0242049Y0019795D01*
X0242169Y0019759D01*
X0242288Y0019720D01*
X0242405Y0019678D01*
X0242521Y0019631D01*
X0242635Y0019581D01*
X0242748Y0019528D01*
X0242859Y0019470D01*
X0242969Y0019410D01*
X0243076Y0019345D01*
X0243181Y0019278D01*
X0243284Y0019207D01*
X0243384Y0019133D01*
X0243482Y0019056D01*
X0243578Y0018975D01*
X0243671Y0018892D01*
X0243762Y0018806D01*
X0243849Y0018717D01*
X0243934Y0018625D01*
X0244016Y0018531D01*
X0244095Y0018434D01*
X0244170Y0018334D01*
X0244243Y0018233D01*
X0244312Y0018129D01*
X0244378Y0018022D01*
X0244440Y0017914D01*
X0244499Y0017804D01*
X0244555Y0017692D01*
X0244607Y0017578D01*
X0244655Y0017463D01*
X0244700Y0017347D01*
X0244740Y0017228D01*
X0244778Y0017109D01*
X0244811Y0016989D01*
X0244840Y0016867D01*
X0244866Y0016745D01*
X0244888Y0016622D01*
X0244905Y0016498D01*
X0244919Y0016374D01*
X0244929Y0016250D01*
X0244935Y0016125D01*
X0244937Y0016000D01*
X0244935Y0015875D01*
X0244929Y0015750D01*
X0244919Y0015626D01*
X0244905Y0015502D01*
X0244888Y0015378D01*
X0244866Y0015255D01*
X0244840Y0015133D01*
X0244811Y0015011D01*
X0244778Y0014891D01*
X0244740Y0014772D01*
X0244700Y0014653D01*
X0244655Y0014537D01*
X0244607Y0014422D01*
X0244555Y0014308D01*
X0244499Y0014196D01*
X0244440Y0014086D01*
X0244378Y0013978D01*
X0244312Y0013871D01*
X0244243Y0013767D01*
X0244170Y0013666D01*
X0244095Y0013566D01*
X0244016Y0013469D01*
X0243934Y0013375D01*
X0243849Y0013283D01*
X0243762Y0013194D01*
X0243671Y0013108D01*
X0243578Y0013025D01*
X0243482Y0012944D01*
X0243384Y0012867D01*
X0243284Y0012793D01*
X0243181Y0012722D01*
X0243076Y0012655D01*
X0242968Y0012590D01*
X0242859Y0012530D01*
X0242748Y0012472D01*
X0242635Y0012419D01*
X0242521Y0012369D01*
X0242405Y0012322D01*
X0242288Y0012280D01*
X0242169Y0012241D01*
X0242049Y0012205D01*
X0241928Y0012174D01*
X0241806Y0012146D01*
X0241684Y0012123D01*
X0241560Y0012103D01*
X0241436Y0012087D01*
X0241312Y0012075D01*
X0241187Y0012067D01*
X0241062Y0012063D01*
X0240938Y0012063D01*
X0240813Y0012067D01*
X0240688Y0012075D01*
X0240564Y0012087D01*
X0240440Y0012103D01*
X0240316Y0012123D01*
X0240194Y0012146D01*
X0240072Y0012174D01*
X0239951Y0012205D01*
X0239831Y0012241D01*
X0239712Y0012280D01*
X0239595Y0012322D01*
X0239479Y0012369D01*
X0239365Y0012419D01*
X0239252Y0012472D01*
X0239141Y0012530D01*
X0239031Y0012590D01*
X0238924Y0012655D01*
X0238819Y0012722D01*
X0238716Y0012793D01*
X0238616Y0012867D01*
X0238518Y0012944D01*
X0238422Y0013025D01*
X0238329Y0013108D01*
X0238238Y0013194D01*
X0238151Y0013283D01*
X0238066Y0013375D01*
X0237984Y0013469D01*
X0237905Y0013566D01*
X0237830Y0013666D01*
X0237757Y0013767D01*
X0237688Y0013871D01*
X0237622Y0013978D01*
X0237560Y0014086D01*
X0237501Y0014196D01*
X0237445Y0014308D01*
X0237393Y0014422D01*
X0237345Y0014537D01*
X0237300Y0014653D01*
X0237260Y0014772D01*
X0237222Y0014891D01*
X0237189Y0015011D01*
X0237160Y0015133D01*
X0237134Y0015255D01*
X0237112Y0015378D01*
X0237095Y0015502D01*
X0237081Y0015626D01*
X0237071Y0015750D01*
X0237065Y0015875D01*
X0237063Y0016000D01*
D11*
X0136315Y0128953D03*
X0130409Y0128953D03*
X0124504Y0128953D03*
X0118598Y0128953D03*
X0112693Y0128953D03*
X0106787Y0128953D03*
X0100882Y0128953D03*
X0094976Y0128953D03*
X0089071Y0128953D03*
X0083165Y0128953D03*
X0077260Y0128756D03*
X0071354Y0128756D03*
X0071354Y0218520D03*
X0077260Y0218520D03*
X0083165Y0218520D03*
X0089071Y0218520D03*
X0094976Y0218520D03*
X0100882Y0218520D03*
X0106787Y0218520D03*
X0112693Y0218520D03*
X0118598Y0218520D03*
X0124504Y0218520D03*
X0130409Y0218520D03*
X0136315Y0218520D03*
D12*
X0144583Y0209268D03*
X0144583Y0203165D03*
X0144583Y0197260D03*
X0144583Y0191354D03*
X0144583Y0185449D03*
X0144583Y0179543D03*
X0144583Y0173638D03*
X0144583Y0167732D03*
X0144583Y0161827D03*
X0144583Y0155921D03*
X0144583Y0150016D03*
X0144583Y0144110D03*
X0144583Y0138205D03*
D13*
X0141000Y0246000D03*
X0141000Y0256000D03*
X0131000Y0256000D03*
X0131000Y0246000D03*
X0121000Y0246000D03*
X0121000Y0256000D03*
X0111000Y0256000D03*
X0111000Y0246000D03*
X0101000Y0246000D03*
X0101000Y0256000D03*
X0091000Y0256000D03*
X0091000Y0246000D03*
X0081000Y0246000D03*
X0081000Y0256000D03*
X0071000Y0256000D03*
X0071000Y0246000D03*
D14*
X0080200Y0071000D03*
X0091800Y0071000D03*
X0091800Y0051000D03*
X0080200Y0051000D03*
D15*
X0201000Y0176000D03*
D16*
X0201000Y0131000D03*
X0201000Y0221000D03*
D17*
X0216000Y0096000D03*
X0216000Y0026000D03*
D18*
X0201000Y0101000D03*
D19*
X0191000Y0101000D03*
X0181000Y0101000D03*
X0171000Y0101000D03*
X0161000Y0101000D03*
X0151000Y0101000D03*
X0141000Y0101000D03*
X0131000Y0101000D03*
X0121000Y0101000D03*
X0111000Y0101000D03*
X0101000Y0101000D03*
X0091000Y0101000D03*
X0081000Y0101000D03*
X0071000Y0101000D03*
X0061000Y0101000D03*
X0051000Y0101000D03*
X0051000Y0021000D03*
X0061000Y0021000D03*
X0071000Y0021000D03*
X0081000Y0021000D03*
X0091000Y0021000D03*
X0101000Y0021000D03*
X0111000Y0021000D03*
X0121000Y0021000D03*
X0131000Y0021000D03*
X0141000Y0021000D03*
X0151000Y0021000D03*
X0161000Y0021000D03*
D20*
X0219425Y0119063D02*
X0219425Y0125063D01*
X0229425Y0125063D02*
X0229425Y0119063D01*
D21*
X0207100Y0105400D02*
X0207100Y0096400D01*
X0131500Y0020800D01*
X0131000Y0021000D01*
X0106315Y0051197D02*
X0091800Y0051197D01*
X0091800Y0051000D01*
X0082169Y0039953D01*
X0065800Y0022600D01*
X0065800Y0019000D01*
X0063100Y0016300D01*
X0055900Y0016300D01*
X0051400Y0020800D01*
X0051000Y0021000D01*
X0061000Y0021000D02*
X0061300Y0021700D01*
X0061300Y0039700D01*
X0080200Y0058600D01*
X0080200Y0071000D01*
X0080200Y0071200D01*
X0076600Y0074800D01*
X0076600Y0102700D01*
X0082900Y0109000D01*
X0082900Y0128800D01*
X0083165Y0128953D01*
X0089071Y0128953D02*
X0089583Y0129465D01*
X0089583Y0153559D01*
X0102378Y0166354D01*
X0102378Y0208677D01*
X0106787Y0213087D01*
X0106787Y0218520D01*
X0107200Y0218800D01*
X0107200Y0223300D01*
X0115300Y0231400D01*
X0115300Y0246700D01*
X0120700Y0252100D01*
X0120700Y0255700D01*
X0121000Y0256000D01*
X0122500Y0261100D02*
X0100000Y0261100D01*
X0095500Y0256600D01*
X0095500Y0253900D01*
X0092800Y0251200D01*
X0089200Y0251200D01*
X0085600Y0254800D01*
X0085600Y0257500D01*
X0082000Y0261100D01*
X0075700Y0261100D01*
X0071200Y0256600D01*
X0071000Y0256000D01*
X0066700Y0258400D02*
X0071200Y0262900D01*
X0084700Y0262900D01*
X0091000Y0256600D01*
X0091000Y0256000D01*
X0085600Y0251200D02*
X0081100Y0255700D01*
X0081000Y0256000D01*
X0085600Y0251200D02*
X0085600Y0244000D01*
X0083800Y0242200D01*
X0083800Y0218800D01*
X0083165Y0218520D01*
X0088300Y0217900D02*
X0088300Y0213400D01*
X0085600Y0210700D01*
X0069400Y0210700D01*
X0066700Y0213400D01*
X0066700Y0258400D01*
X0095500Y0250300D02*
X0100900Y0255700D01*
X0101000Y0256000D01*
X0106300Y0251200D02*
X0110800Y0255700D01*
X0111000Y0256000D01*
X0106300Y0251200D02*
X0106300Y0244900D01*
X0100900Y0239500D01*
X0100900Y0218800D01*
X0100882Y0218520D01*
X0095500Y0218800D02*
X0094976Y0218520D01*
X0095500Y0218800D02*
X0095500Y0250300D01*
X0122500Y0261100D02*
X0126100Y0257500D01*
X0126100Y0244000D01*
X0136000Y0234100D01*
X0136000Y0218800D01*
X0136315Y0218520D01*
X0132400Y0209800D02*
X0132400Y0193600D01*
X0140500Y0185500D01*
X0144100Y0185500D01*
X0144583Y0185449D01*
X0144100Y0180100D02*
X0139600Y0180100D01*
X0121600Y0198100D01*
X0121600Y0209800D01*
X0125200Y0209800D02*
X0128800Y0206200D01*
X0125200Y0209800D02*
X0125200Y0217900D01*
X0124504Y0218520D01*
X0116200Y0209800D02*
X0116200Y0198100D01*
X0140500Y0173800D01*
X0144100Y0173800D01*
X0144583Y0173638D01*
X0144100Y0168400D02*
X0139600Y0168400D01*
X0112600Y0195400D01*
X0112600Y0206200D01*
X0109000Y0209800D02*
X0109000Y0193600D01*
X0140500Y0162100D01*
X0144100Y0162100D01*
X0144583Y0161827D01*
X0144583Y0167732D02*
X0144100Y0168400D01*
X0144583Y0179543D02*
X0144100Y0180100D01*
X0144583Y0191354D02*
X0144100Y0191800D01*
X0139600Y0191800D01*
X0136000Y0195400D01*
X0136000Y0206200D01*
X0144583Y0203165D02*
X0145000Y0203500D01*
X0148600Y0203500D01*
X0152200Y0207100D01*
X0152200Y0251200D01*
X0146800Y0256600D01*
X0147700Y0261100D02*
X0139600Y0261100D01*
X0136000Y0257500D01*
X0136000Y0251200D01*
X0140500Y0246700D01*
X0141000Y0246000D01*
X0145000Y0243100D02*
X0145900Y0244000D01*
X0145900Y0251200D01*
X0141400Y0255700D01*
X0141000Y0256000D01*
X0147700Y0261100D02*
X0154000Y0254800D01*
X0154000Y0202600D01*
X0149500Y0198100D01*
X0145000Y0198100D01*
X0144583Y0197260D01*
X0144583Y0209268D02*
X0145000Y0209800D01*
X0145000Y0243100D01*
X0157600Y0202600D02*
X0182800Y0202600D01*
X0182800Y0175600D01*
X0200800Y0157600D01*
X0200800Y0131500D01*
X0201000Y0131000D01*
X0207100Y0105400D02*
X0156700Y0155800D01*
X0145000Y0155800D01*
X0144583Y0155921D01*
X0144583Y0150016D02*
X0107299Y0150016D01*
X0107299Y0149622D01*
X0106787Y0128953D02*
X0106300Y0128800D01*
X0106300Y0117100D01*
X0091000Y0101800D01*
X0091000Y0101000D01*
X0081100Y0101800D02*
X0081000Y0101000D01*
X0081100Y0101800D02*
X0100000Y0120700D01*
X0100000Y0128800D01*
X0100882Y0128953D01*
X0094976Y0128953D02*
X0094976Y0121551D01*
X0086630Y0113205D01*
X0076600Y0123400D02*
X0055000Y0101800D01*
X0051400Y0101800D01*
X0051000Y0101000D01*
X0076600Y0123400D02*
X0076600Y0127900D01*
X0077260Y0128756D01*
X0101000Y0101000D02*
X0112600Y0112600D01*
X0112600Y0128800D01*
X0112693Y0128953D01*
X0118598Y0128953D02*
X0118900Y0128800D01*
X0118900Y0113500D01*
X0130600Y0101800D01*
X0131000Y0101000D01*
X0140500Y0101800D02*
X0141000Y0101000D01*
X0140500Y0101800D02*
X0125200Y0117100D01*
X0125200Y0128800D01*
X0124504Y0128953D01*
X0130409Y0128953D02*
X0130600Y0128800D01*
X0130600Y0121600D01*
X0150400Y0101800D01*
X0151000Y0101000D01*
X0160300Y0101800D02*
X0161000Y0101000D01*
X0160300Y0101800D02*
X0136900Y0125200D01*
X0136900Y0128800D01*
X0136315Y0128953D01*
X0144583Y0144110D02*
X0145000Y0144100D01*
X0158500Y0144100D01*
X0200800Y0101800D01*
X0201000Y0101000D01*
X0182800Y0202600D02*
X0200800Y0220600D01*
X0201000Y0221000D01*
X0089071Y0218520D02*
X0088300Y0217900D01*
X0091800Y0071000D02*
X0091000Y0070300D01*
X0085600Y0064900D01*
X0085600Y0063100D01*
X0085600Y0056400D01*
X0080200Y0051000D01*
D22*
X0106315Y0051197D03*
X0086630Y0113205D03*
X0107299Y0149622D03*
X0126000Y0234268D03*
X0074819Y0234268D03*
D23*
X0109000Y0209800D03*
X0112600Y0206200D03*
X0116200Y0209800D03*
X0121600Y0209800D03*
X0128800Y0206200D03*
X0132400Y0209800D03*
X0136000Y0206200D03*
X0157600Y0202600D03*
X0146800Y0256600D03*
X0085600Y0063100D03*
D24*
X0125016Y0063100D01*
X0125016Y0045291D01*
X0121435Y0045758D02*
X0090016Y0045758D01*
X0090183Y0045950D02*
X0094663Y0045950D01*
X0095600Y0046887D01*
X0095600Y0049097D01*
X0103629Y0049097D01*
X0104398Y0048328D01*
X0105642Y0047813D01*
X0106988Y0047813D01*
X0108232Y0048328D01*
X0109184Y0049280D01*
X0109699Y0050524D01*
X0109699Y0051870D01*
X0109184Y0053114D01*
X0108232Y0054066D01*
X0106988Y0054581D01*
X0105642Y0054581D01*
X0104398Y0054066D01*
X0103629Y0053297D01*
X0095600Y0053297D01*
X0095600Y0055113D01*
X0094663Y0056050D01*
X0088937Y0056050D01*
X0088000Y0055113D01*
X0088000Y0049837D01*
X0080613Y0041364D01*
X0064344Y0024117D01*
X0063588Y0024873D01*
X0063400Y0024951D01*
X0063400Y0038830D01*
X0076400Y0051830D01*
X0076400Y0046887D01*
X0077337Y0045950D01*
X0083063Y0045950D01*
X0084000Y0046887D01*
X0084000Y0051830D01*
X0087700Y0055530D01*
X0087700Y0060109D01*
X0088291Y0060700D01*
X0122616Y0060700D01*
X0122616Y0048872D01*
X0122372Y0048872D01*
X0121435Y0047935D01*
X0121435Y0042647D01*
X0122372Y0041710D01*
X0127660Y0041710D01*
X0128597Y0042647D01*
X0128597Y0047935D01*
X0127660Y0048872D01*
X0127416Y0048872D01*
X0127416Y0063577D01*
X0127050Y0064459D01*
X0126375Y0065135D01*
X0125493Y0065500D01*
X0089170Y0065500D01*
X0089620Y0065950D01*
X0094663Y0065950D01*
X0095600Y0066887D01*
X0095600Y0075113D01*
X0094663Y0076050D01*
X0088937Y0076050D01*
X0088000Y0075113D01*
X0088000Y0070270D01*
X0084109Y0066379D01*
X0083561Y0066152D01*
X0082548Y0065139D01*
X0082300Y0064540D01*
X0082300Y0065950D01*
X0083063Y0065950D01*
X0084000Y0066887D01*
X0084000Y0075113D01*
X0083063Y0076050D01*
X0078700Y0076050D01*
X0078700Y0097008D01*
X0080091Y0096431D01*
X0081909Y0096431D01*
X0083588Y0097127D01*
X0084873Y0098412D01*
X0085568Y0100091D01*
X0085568Y0101909D01*
X0085161Y0102892D01*
X0102100Y0119830D01*
X0102100Y0121447D01*
X0103513Y0121447D01*
X0103835Y0121769D01*
X0104156Y0121447D01*
X0104200Y0121447D01*
X0104200Y0117970D01*
X0091799Y0105568D01*
X0090091Y0105568D01*
X0088412Y0104873D01*
X0087127Y0103588D01*
X0086431Y0101909D01*
X0086431Y0100091D01*
X0087127Y0098412D01*
X0088412Y0097127D01*
X0090091Y0096431D01*
X0091909Y0096431D01*
X0093588Y0097127D01*
X0094873Y0098412D01*
X0095568Y0100091D01*
X0095568Y0101909D01*
X0095132Y0102962D01*
X0108400Y0116230D01*
X0108400Y0121447D01*
X0109419Y0121447D01*
X0109740Y0121769D01*
X0110062Y0121447D01*
X0110500Y0121447D01*
X0110500Y0113470D01*
X0102397Y0105366D01*
X0101909Y0105568D01*
X0100091Y0105568D01*
X0098412Y0104873D01*
X0097127Y0103588D01*
X0096431Y0101909D01*
X0096431Y0100091D01*
X0097127Y0098412D01*
X0098412Y0097127D01*
X0100091Y0096431D01*
X0101909Y0096431D01*
X0103588Y0097127D01*
X0104873Y0098412D01*
X0105568Y0100091D01*
X0105568Y0101909D01*
X0105366Y0102397D01*
X0114700Y0111730D01*
X0114700Y0121447D01*
X0115324Y0121447D01*
X0115646Y0121769D01*
X0115967Y0121447D01*
X0116800Y0121447D01*
X0116800Y0112630D01*
X0126751Y0102679D01*
X0126431Y0101909D01*
X0126431Y0100091D01*
X0127127Y0098412D01*
X0128412Y0097127D01*
X0130091Y0096431D01*
X0131909Y0096431D01*
X0133588Y0097127D01*
X0134873Y0098412D01*
X0135568Y0100091D01*
X0135568Y0101909D01*
X0134873Y0103588D01*
X0133588Y0104873D01*
X0131909Y0105568D01*
X0130091Y0105568D01*
X0129886Y0105484D01*
X0121000Y0114370D01*
X0121000Y0121447D01*
X0121230Y0121447D01*
X0121551Y0121769D01*
X0121873Y0121447D01*
X0123100Y0121447D01*
X0123100Y0116230D01*
X0136721Y0102609D01*
X0136431Y0101909D01*
X0136431Y0100091D01*
X0137127Y0098412D01*
X0138412Y0097127D01*
X0140091Y0096431D01*
X0141909Y0096431D01*
X0143588Y0097127D01*
X0144873Y0098412D01*
X0145568Y0100091D01*
X0145568Y0101909D01*
X0144873Y0103588D01*
X0143588Y0104873D01*
X0141909Y0105568D01*
X0140091Y0105568D01*
X0139816Y0105454D01*
X0127300Y0117970D01*
X0127300Y0121612D01*
X0127457Y0121769D01*
X0127778Y0121447D01*
X0128500Y0121447D01*
X0128500Y0120730D01*
X0146692Y0102538D01*
X0146431Y0101909D01*
X0146431Y0100091D01*
X0147127Y0098412D01*
X0148412Y0097127D01*
X0150091Y0096431D01*
X0151909Y0096431D01*
X0153588Y0097127D01*
X0154873Y0098412D01*
X0155568Y0100091D01*
X0155568Y0101909D01*
X0154873Y0103588D01*
X0153588Y0104873D01*
X0151909Y0105568D01*
X0150091Y0105568D01*
X0149745Y0105425D01*
X0133723Y0121447D01*
X0137683Y0121447D01*
X0156663Y0102467D01*
X0156431Y0101909D01*
X0156431Y0100091D01*
X0157127Y0098412D01*
X0158412Y0097127D01*
X0160091Y0096431D01*
X0161909Y0096431D01*
X0163588Y0097127D01*
X0164873Y0098412D01*
X0165568Y0100091D01*
X0165568Y0101909D01*
X0164873Y0103588D01*
X0163588Y0104873D01*
X0161909Y0105568D01*
X0160091Y0105568D01*
X0159674Y0105396D01*
X0139883Y0125186D01*
X0139883Y0134436D01*
X0144398Y0134436D01*
X0144398Y0138020D01*
X0136877Y0138020D01*
X0136877Y0136458D01*
X0133684Y0136458D01*
X0133362Y0136137D01*
X0133041Y0136458D01*
X0127778Y0136458D01*
X0127457Y0136137D01*
X0127135Y0136458D01*
X0121873Y0136458D01*
X0121551Y0136137D01*
X0121230Y0136458D01*
X0115967Y0136458D01*
X0115646Y0136137D01*
X0115324Y0136458D01*
X0110062Y0136458D01*
X0109740Y0136137D01*
X0109419Y0136458D01*
X0104156Y0136458D01*
X0103835Y0136137D01*
X0103513Y0136458D01*
X0098251Y0136458D01*
X0097929Y0136137D01*
X0097608Y0136458D01*
X0092345Y0136458D01*
X0092024Y0136137D01*
X0091702Y0136458D01*
X0091683Y0136458D01*
X0091683Y0152689D01*
X0104478Y0165484D01*
X0104478Y0207807D01*
X0105504Y0208833D01*
X0105948Y0207761D01*
X0106900Y0206809D01*
X0106900Y0192730D01*
X0108130Y0191500D01*
X0137077Y0162553D01*
X0137077Y0159196D01*
X0137399Y0158874D01*
X0137077Y0158552D01*
X0137077Y0153290D01*
X0137399Y0152969D01*
X0137077Y0152647D01*
X0137077Y0152116D01*
X0109592Y0152116D01*
X0109216Y0152491D01*
X0107972Y0153006D01*
X0106626Y0153006D01*
X0105382Y0152491D01*
X0104430Y0151539D01*
X0103915Y0150295D01*
X0103915Y0148949D01*
X0104430Y0147705D01*
X0105382Y0146753D01*
X0106626Y0146238D01*
X0107972Y0146238D01*
X0109216Y0146753D01*
X0110168Y0147705D01*
X0110256Y0147916D01*
X0137077Y0147916D01*
X0137077Y0147384D01*
X0137399Y0147063D01*
X0137077Y0146741D01*
X0137077Y0141479D01*
X0137257Y0141299D01*
X0137237Y0141278D01*
X0137000Y0140868D01*
X0136877Y0140410D01*
X0136877Y0138389D01*
X0144398Y0138389D01*
X0144398Y0138020D01*
X0144767Y0138020D01*
X0144767Y0134436D01*
X0150725Y0134436D01*
X0151183Y0134559D01*
X0151593Y0134796D01*
X0151929Y0135131D01*
X0152166Y0135541D01*
X0152288Y0135999D01*
X0152288Y0138020D01*
X0144767Y0138020D01*
X0144767Y0138389D01*
X0152288Y0138389D01*
X0152288Y0140410D01*
X0152166Y0140868D01*
X0151929Y0141278D01*
X0151908Y0141299D01*
X0152088Y0141479D01*
X0152088Y0142000D01*
X0157630Y0142000D01*
X0196431Y0103199D01*
X0196431Y0097369D01*
X0197369Y0096431D01*
X0204162Y0096431D01*
X0132892Y0025161D01*
X0131909Y0025568D01*
X0130091Y0025568D01*
X0128412Y0024873D01*
X0127127Y0023588D01*
X0126431Y0021909D01*
X0126431Y0020091D01*
X0127127Y0018412D01*
X0128412Y0017127D01*
X0130091Y0016431D01*
X0131909Y0016431D01*
X0133588Y0017127D01*
X0134873Y0018412D01*
X0135568Y0020091D01*
X0135568Y0021899D01*
X0137035Y0023365D01*
X0136431Y0021909D01*
X0136431Y0020091D01*
X0137127Y0018412D01*
X0138412Y0017127D01*
X0140091Y0016431D01*
X0141909Y0016431D01*
X0143588Y0017127D01*
X0144873Y0018412D01*
X0145568Y0020091D01*
X0145568Y0021909D01*
X0144873Y0023588D01*
X0143588Y0024873D01*
X0141909Y0025568D01*
X0140091Y0025568D01*
X0138635Y0024965D01*
X0207564Y0093894D01*
X0208709Y0091128D01*
X0211128Y0088709D01*
X0214289Y0087400D01*
X0217711Y0087400D01*
X0220872Y0088709D01*
X0223291Y0091128D01*
X0223994Y0092826D01*
X0223994Y0085810D01*
X0191580Y0059699D01*
X0188317Y0059699D01*
X0187380Y0058762D01*
X0187380Y0053474D01*
X0188317Y0052537D01*
X0193604Y0052537D01*
X0194542Y0053474D01*
X0194542Y0055921D01*
X0227025Y0082088D01*
X0227025Y0077924D01*
X0191546Y0048872D01*
X0188317Y0048872D01*
X0187380Y0047935D01*
X0187380Y0042647D01*
X0188317Y0041710D01*
X0193604Y0041710D01*
X0194542Y0042647D01*
X0194542Y0045122D01*
X0230671Y0074706D01*
X0230785Y0074753D01*
X0231038Y0075006D01*
X0231315Y0075233D01*
X0231373Y0075341D01*
X0231460Y0075428D01*
X0231597Y0075759D01*
X0231766Y0076074D01*
X0231778Y0076197D01*
X0231825Y0076310D01*
X0231825Y0076668D01*
X0231861Y0077025D01*
X0231825Y0077142D01*
X0231825Y0115078D01*
X0232031Y0115163D01*
X0233325Y0116457D01*
X0234025Y0118148D01*
X0234025Y0125978D01*
X0233325Y0127669D01*
X0232031Y0128963D01*
X0230340Y0129663D01*
X0228510Y0129663D01*
X0226820Y0128963D01*
X0225526Y0127669D01*
X0224825Y0125978D01*
X0224825Y0118148D01*
X0225526Y0116457D01*
X0226820Y0115163D01*
X0227025Y0115078D01*
X0227025Y0112920D01*
X0223990Y0118064D01*
X0224025Y0118148D01*
X0224025Y0125978D01*
X0223325Y0127669D01*
X0222031Y0128963D01*
X0220340Y0129663D01*
X0218510Y0129663D01*
X0216820Y0128963D01*
X0215526Y0127669D01*
X0214825Y0125978D01*
X0214825Y0118148D01*
X0215526Y0116457D01*
X0216820Y0115163D01*
X0218510Y0114463D01*
X0220340Y0114463D01*
X0220502Y0114530D01*
X0223994Y0108612D01*
X0223994Y0099174D01*
X0223291Y0100872D01*
X0220872Y0103291D01*
X0217711Y0104600D01*
X0214289Y0104600D01*
X0211128Y0103291D01*
X0209200Y0101362D01*
X0209200Y0106270D01*
X0207970Y0107500D01*
X0191070Y0124400D01*
X0211663Y0124400D01*
X0212600Y0125337D01*
X0212600Y0136663D01*
X0211663Y0137600D01*
X0202900Y0137600D01*
X0202900Y0158470D01*
X0195170Y0166200D01*
X0200200Y0166200D01*
X0200200Y0175200D01*
X0191200Y0175200D01*
X0191200Y0170170D01*
X0184900Y0176470D01*
X0184900Y0201730D01*
X0197570Y0214400D01*
X0211663Y0214400D01*
X0212600Y0215337D01*
X0212600Y0226663D01*
X0211663Y0227600D01*
X0190337Y0227600D01*
X0189400Y0226663D01*
X0189400Y0215337D01*
X0190337Y0214400D01*
X0191630Y0214400D01*
X0181930Y0204700D01*
X0160591Y0204700D01*
X0159639Y0205652D01*
X0158316Y0206200D01*
X0156884Y0206200D01*
X0156100Y0205875D01*
X0156100Y0255670D01*
X0149800Y0261970D01*
X0148570Y0263200D01*
X0138730Y0263200D01*
X0135130Y0259600D01*
X0134518Y0258988D01*
X0132905Y0260600D01*
X0129095Y0260600D01*
X0127532Y0259038D01*
X0123370Y0263200D01*
X0099130Y0263200D01*
X0094718Y0258788D01*
X0092905Y0260600D01*
X0089970Y0260600D01*
X0085570Y0265000D01*
X0070330Y0265000D01*
X0069100Y0263770D01*
X0064600Y0259270D01*
X0064600Y0212530D01*
X0065830Y0211300D01*
X0068530Y0208600D01*
X0086470Y0208600D01*
X0087700Y0209830D01*
X0088884Y0211014D01*
X0091702Y0211014D01*
X0092024Y0211336D01*
X0092345Y0211014D01*
X0097608Y0211014D01*
X0097929Y0211336D01*
X0098251Y0211014D01*
X0101745Y0211014D01*
X0101508Y0210777D01*
X0100278Y0209547D01*
X0100278Y0167224D01*
X0088713Y0155659D01*
X0087483Y0154429D01*
X0087483Y0136458D01*
X0086440Y0136458D01*
X0086118Y0136137D01*
X0085797Y0136458D01*
X0080534Y0136458D01*
X0080114Y0136038D01*
X0079891Y0136261D01*
X0074629Y0136261D01*
X0074449Y0136081D01*
X0074428Y0136102D01*
X0074018Y0136339D01*
X0073560Y0136461D01*
X0071539Y0136461D01*
X0071539Y0128940D01*
X0071170Y0128940D01*
X0071170Y0128572D01*
X0067586Y0128572D01*
X0067586Y0122613D01*
X0067708Y0122156D01*
X0067945Y0121745D01*
X0068281Y0121410D01*
X0068691Y0121173D01*
X0069149Y0121050D01*
X0071170Y0121050D01*
X0071170Y0128572D01*
X0071539Y0128572D01*
X0071539Y0121308D01*
X0054345Y0104115D01*
X0053588Y0104873D01*
X0051909Y0105568D01*
X0050091Y0105568D01*
X0048412Y0104873D01*
X0047417Y0103878D01*
X0047417Y0281000D01*
X0249901Y0281000D01*
X0249901Y0011000D01*
X0248356Y0011000D01*
X0248407Y0011051D01*
X0249737Y0014262D01*
X0249737Y0017738D01*
X0248407Y0020949D01*
X0245949Y0023407D01*
X0242738Y0024737D01*
X0239262Y0024737D01*
X0236051Y0023407D01*
X0233593Y0020949D01*
X0232263Y0017738D01*
X0232263Y0014262D01*
X0233593Y0011051D01*
X0233644Y0011000D01*
X0047417Y0011000D01*
X0047417Y0018122D01*
X0048412Y0017127D01*
X0050091Y0016431D01*
X0051909Y0016431D01*
X0052538Y0016692D01*
X0055030Y0014200D01*
X0063970Y0014200D01*
X0065200Y0015430D01*
X0067654Y0017885D01*
X0068412Y0017127D01*
X0070091Y0016431D01*
X0071909Y0016431D01*
X0073588Y0017127D01*
X0074873Y0018412D01*
X0075568Y0020091D01*
X0075568Y0021909D01*
X0074873Y0023588D01*
X0073588Y0024873D01*
X0071909Y0025568D01*
X0071487Y0025568D01*
X0083132Y0037914D01*
X0083180Y0037917D01*
X0083724Y0038542D01*
X0084293Y0039145D01*
X0084292Y0039192D01*
X0090183Y0045950D01*
X0088622Y0044160D02*
X0121435Y0044160D01*
X0121521Y0042561D02*
X0087229Y0042561D01*
X0085835Y0040963D02*
X0148693Y0040963D01*
X0150291Y0042561D02*
X0128511Y0042561D01*
X0128597Y0044160D02*
X0151890Y0044160D01*
X0153488Y0045758D02*
X0128597Y0045758D01*
X0128597Y0047357D02*
X0155087Y0047357D01*
X0156686Y0048955D02*
X0127416Y0048955D01*
X0127416Y0050554D02*
X0158284Y0050554D01*
X0159883Y0052152D02*
X0127416Y0052152D01*
X0127416Y0053751D02*
X0161481Y0053751D01*
X0163080Y0055349D02*
X0127416Y0055349D01*
X0127416Y0056948D02*
X0164678Y0056948D01*
X0166277Y0058546D02*
X0127416Y0058546D01*
X0127416Y0060145D02*
X0167875Y0060145D01*
X0169474Y0061743D02*
X0127416Y0061743D01*
X0127416Y0063342D02*
X0171072Y0063342D01*
X0172671Y0064940D02*
X0126569Y0064940D01*
X0122616Y0060145D02*
X0087736Y0060145D01*
X0087700Y0058546D02*
X0122616Y0058546D01*
X0122616Y0056948D02*
X0087700Y0056948D01*
X0087519Y0055349D02*
X0088237Y0055349D01*
X0088000Y0053751D02*
X0085921Y0053751D01*
X0084322Y0052152D02*
X0088000Y0052152D01*
X0088000Y0050554D02*
X0084000Y0050554D01*
X0084000Y0048955D02*
X0087231Y0048955D01*
X0085838Y0047357D02*
X0084000Y0047357D01*
X0084444Y0045758D02*
X0070328Y0045758D01*
X0068730Y0044160D02*
X0083050Y0044160D01*
X0081657Y0042561D02*
X0067131Y0042561D01*
X0065533Y0040963D02*
X0080234Y0040963D01*
X0078727Y0039364D02*
X0063934Y0039364D01*
X0063400Y0037766D02*
X0077219Y0037766D01*
X0075711Y0036167D02*
X0063400Y0036167D01*
X0063400Y0034569D02*
X0074203Y0034569D01*
X0072695Y0032970D02*
X0063400Y0032970D01*
X0063400Y0031372D02*
X0071187Y0031372D01*
X0069680Y0029773D02*
X0063400Y0029773D01*
X0063400Y0028175D02*
X0068172Y0028175D01*
X0066664Y0026576D02*
X0063400Y0026576D01*
X0063400Y0024978D02*
X0065156Y0024978D01*
X0072437Y0026576D02*
X0134306Y0026576D01*
X0135905Y0028175D02*
X0073945Y0028175D01*
X0075453Y0029773D02*
X0137503Y0029773D01*
X0139102Y0031372D02*
X0076961Y0031372D01*
X0078469Y0032970D02*
X0140700Y0032970D01*
X0142299Y0034569D02*
X0079977Y0034569D01*
X0081485Y0036167D02*
X0143897Y0036167D01*
X0145496Y0037766D02*
X0082992Y0037766D01*
X0084441Y0039364D02*
X0147094Y0039364D01*
X0149837Y0036167D02*
X0249901Y0036167D01*
X0249901Y0034569D02*
X0217786Y0034569D01*
X0217711Y0034600D02*
X0214289Y0034600D01*
X0211128Y0033291D01*
X0208709Y0030872D01*
X0207400Y0027711D01*
X0207400Y0024289D01*
X0208709Y0021128D01*
X0211128Y0018709D01*
X0214289Y0017400D01*
X0217711Y0017400D01*
X0220872Y0018709D01*
X0223291Y0021128D01*
X0224600Y0024289D01*
X0224600Y0027711D01*
X0223291Y0030872D01*
X0220872Y0033291D01*
X0217711Y0034600D01*
X0221192Y0032970D02*
X0249901Y0032970D01*
X0249901Y0031372D02*
X0222791Y0031372D01*
X0223746Y0029773D02*
X0249901Y0029773D01*
X0249901Y0028175D02*
X0224408Y0028175D01*
X0224600Y0026576D02*
X0249901Y0026576D01*
X0249901Y0024978D02*
X0224600Y0024978D01*
X0224223Y0023379D02*
X0236023Y0023379D01*
X0234425Y0021781D02*
X0223561Y0021781D01*
X0222344Y0020182D02*
X0233275Y0020182D01*
X0232613Y0018584D02*
X0220568Y0018584D01*
X0211432Y0018584D02*
X0164944Y0018584D01*
X0164873Y0018412D02*
X0165568Y0020091D01*
X0165568Y0021909D01*
X0164873Y0023588D01*
X0163588Y0024873D01*
X0161909Y0025568D01*
X0160091Y0025568D01*
X0158412Y0024873D01*
X0157127Y0023588D01*
X0156431Y0021909D01*
X0156431Y0020091D01*
X0157127Y0018412D01*
X0158412Y0017127D01*
X0160091Y0016431D01*
X0161909Y0016431D01*
X0163588Y0017127D01*
X0164873Y0018412D01*
X0165568Y0020182D02*
X0209656Y0020182D01*
X0208439Y0021781D02*
X0165568Y0021781D01*
X0164959Y0023379D02*
X0207777Y0023379D01*
X0207400Y0024978D02*
X0163335Y0024978D01*
X0158665Y0024978D02*
X0153335Y0024978D01*
X0153588Y0024873D02*
X0151909Y0025568D01*
X0150091Y0025568D01*
X0148412Y0024873D01*
X0147127Y0023588D01*
X0146431Y0021909D01*
X0146431Y0020091D01*
X0147127Y0018412D01*
X0148412Y0017127D01*
X0150091Y0016431D01*
X0151909Y0016431D01*
X0153588Y0017127D01*
X0154873Y0018412D01*
X0155568Y0020091D01*
X0155568Y0021909D01*
X0154873Y0023588D01*
X0153588Y0024873D01*
X0154959Y0023379D02*
X0157041Y0023379D01*
X0156431Y0021781D02*
X0155568Y0021781D01*
X0155568Y0020182D02*
X0156431Y0020182D01*
X0157056Y0018584D02*
X0154944Y0018584D01*
X0153245Y0016985D02*
X0158755Y0016985D01*
X0163245Y0016985D02*
X0232263Y0016985D01*
X0232263Y0015387D02*
X0065156Y0015387D01*
X0066755Y0016985D02*
X0068755Y0016985D01*
X0073245Y0016985D02*
X0078755Y0016985D01*
X0078412Y0017127D02*
X0080091Y0016431D01*
X0081909Y0016431D01*
X0083588Y0017127D01*
X0084873Y0018412D01*
X0085568Y0020091D01*
X0085568Y0021909D01*
X0084873Y0023588D01*
X0083588Y0024873D01*
X0081909Y0025568D01*
X0080091Y0025568D01*
X0078412Y0024873D01*
X0077127Y0023588D01*
X0076431Y0021909D01*
X0076431Y0020091D01*
X0077127Y0018412D01*
X0078412Y0017127D01*
X0077056Y0018584D02*
X0074944Y0018584D01*
X0075568Y0020182D02*
X0076431Y0020182D01*
X0076431Y0021781D02*
X0075568Y0021781D01*
X0074959Y0023379D02*
X0077041Y0023379D01*
X0078665Y0024978D02*
X0073335Y0024978D01*
X0083335Y0024978D02*
X0088665Y0024978D01*
X0088412Y0024873D02*
X0087127Y0023588D01*
X0086431Y0021909D01*
X0086431Y0020091D01*
X0087127Y0018412D01*
X0088412Y0017127D01*
X0090091Y0016431D01*
X0091909Y0016431D01*
X0093588Y0017127D01*
X0094873Y0018412D01*
X0095568Y0020091D01*
X0095568Y0021909D01*
X0094873Y0023588D01*
X0093588Y0024873D01*
X0091909Y0025568D01*
X0090091Y0025568D01*
X0088412Y0024873D01*
X0087041Y0023379D02*
X0084959Y0023379D01*
X0085568Y0021781D02*
X0086431Y0021781D01*
X0086431Y0020182D02*
X0085568Y0020182D01*
X0084944Y0018584D02*
X0087056Y0018584D01*
X0088755Y0016985D02*
X0083245Y0016985D01*
X0093245Y0016985D02*
X0098755Y0016985D01*
X0098412Y0017127D02*
X0100091Y0016431D01*
X0101909Y0016431D01*
X0103588Y0017127D01*
X0104873Y0018412D01*
X0105568Y0020091D01*
X0105568Y0021909D01*
X0104873Y0023588D01*
X0103588Y0024873D01*
X0101909Y0025568D01*
X0100091Y0025568D01*
X0098412Y0024873D01*
X0097127Y0023588D01*
X0096431Y0021909D01*
X0096431Y0020091D01*
X0097127Y0018412D01*
X0098412Y0017127D01*
X0097056Y0018584D02*
X0094944Y0018584D01*
X0095568Y0020182D02*
X0096431Y0020182D01*
X0096431Y0021781D02*
X0095568Y0021781D01*
X0094959Y0023379D02*
X0097041Y0023379D01*
X0098665Y0024978D02*
X0093335Y0024978D01*
X0103335Y0024978D02*
X0108665Y0024978D01*
X0108412Y0024873D02*
X0107127Y0023588D01*
X0106431Y0021909D01*
X0106431Y0020091D01*
X0107127Y0018412D01*
X0108412Y0017127D01*
X0110091Y0016431D01*
X0111909Y0016431D01*
X0113588Y0017127D01*
X0114873Y0018412D01*
X0115568Y0020091D01*
X0115568Y0021909D01*
X0114873Y0023588D01*
X0113588Y0024873D01*
X0111909Y0025568D01*
X0110091Y0025568D01*
X0108412Y0024873D01*
X0107041Y0023379D02*
X0104959Y0023379D01*
X0105568Y0021781D02*
X0106431Y0021781D01*
X0106431Y0020182D02*
X0105568Y0020182D01*
X0104944Y0018584D02*
X0107056Y0018584D01*
X0108755Y0016985D02*
X0103245Y0016985D01*
X0113245Y0016985D02*
X0118755Y0016985D01*
X0118412Y0017127D02*
X0120091Y0016431D01*
X0121909Y0016431D01*
X0123588Y0017127D01*
X0124873Y0018412D01*
X0125568Y0020091D01*
X0125568Y0021909D01*
X0124873Y0023588D01*
X0123588Y0024873D01*
X0121909Y0025568D01*
X0120091Y0025568D01*
X0118412Y0024873D01*
X0117127Y0023588D01*
X0116431Y0021909D01*
X0116431Y0020091D01*
X0117127Y0018412D01*
X0118412Y0017127D01*
X0117056Y0018584D02*
X0114944Y0018584D01*
X0115568Y0020182D02*
X0116431Y0020182D01*
X0116431Y0021781D02*
X0115568Y0021781D01*
X0114959Y0023379D02*
X0117041Y0023379D01*
X0118665Y0024978D02*
X0113335Y0024978D01*
X0123335Y0024978D02*
X0128665Y0024978D01*
X0127041Y0023379D02*
X0124959Y0023379D01*
X0125568Y0021781D02*
X0126431Y0021781D01*
X0126431Y0020182D02*
X0125568Y0020182D01*
X0124944Y0018584D02*
X0127056Y0018584D01*
X0128755Y0016985D02*
X0123245Y0016985D01*
X0133245Y0016985D02*
X0138755Y0016985D01*
X0137056Y0018584D02*
X0134944Y0018584D01*
X0135568Y0020182D02*
X0136431Y0020182D01*
X0136431Y0021781D02*
X0135568Y0021781D01*
X0138648Y0024978D02*
X0138665Y0024978D01*
X0140246Y0026576D02*
X0207400Y0026576D01*
X0207592Y0028175D02*
X0141845Y0028175D01*
X0143443Y0029773D02*
X0208254Y0029773D01*
X0209209Y0031372D02*
X0145042Y0031372D01*
X0146640Y0032970D02*
X0210808Y0032970D01*
X0214214Y0034569D02*
X0148239Y0034569D01*
X0151436Y0037766D02*
X0249901Y0037766D01*
X0249901Y0039364D02*
X0153034Y0039364D01*
X0154633Y0040963D02*
X0249901Y0040963D01*
X0249901Y0042561D02*
X0194456Y0042561D01*
X0194542Y0044160D02*
X0249901Y0044160D01*
X0249901Y0045758D02*
X0195319Y0045758D01*
X0197271Y0047357D02*
X0249901Y0047357D01*
X0249901Y0048955D02*
X0199224Y0048955D01*
X0201176Y0050554D02*
X0249901Y0050554D01*
X0249901Y0052152D02*
X0203128Y0052152D01*
X0205080Y0053751D02*
X0249901Y0053751D01*
X0249901Y0055349D02*
X0207032Y0055349D01*
X0208984Y0056948D02*
X0249901Y0056948D01*
X0249901Y0058546D02*
X0210937Y0058546D01*
X0212889Y0060145D02*
X0249901Y0060145D01*
X0249901Y0061743D02*
X0214841Y0061743D01*
X0216793Y0063342D02*
X0249901Y0063342D01*
X0249901Y0064940D02*
X0218745Y0064940D01*
X0220698Y0066539D02*
X0249901Y0066539D01*
X0249901Y0068137D02*
X0222650Y0068137D01*
X0224602Y0069736D02*
X0249901Y0069736D01*
X0249901Y0071334D02*
X0226554Y0071334D01*
X0228506Y0072933D02*
X0249901Y0072933D01*
X0249901Y0074532D02*
X0230458Y0074532D01*
X0231772Y0076130D02*
X0249901Y0076130D01*
X0249901Y0077729D02*
X0231825Y0077729D01*
X0231825Y0079327D02*
X0249901Y0079327D01*
X0249901Y0080926D02*
X0231825Y0080926D01*
X0231825Y0082524D02*
X0249901Y0082524D01*
X0249901Y0084123D02*
X0231825Y0084123D01*
X0231825Y0085721D02*
X0249901Y0085721D01*
X0249901Y0087320D02*
X0231825Y0087320D01*
X0231825Y0088918D02*
X0249901Y0088918D01*
X0249901Y0090517D02*
X0231825Y0090517D01*
X0231825Y0092115D02*
X0249901Y0092115D01*
X0249901Y0093714D02*
X0231825Y0093714D01*
X0231825Y0095312D02*
X0249901Y0095312D01*
X0249901Y0096911D02*
X0231825Y0096911D01*
X0231825Y0098509D02*
X0249901Y0098509D01*
X0249901Y0100108D02*
X0231825Y0100108D01*
X0231825Y0101706D02*
X0249901Y0101706D01*
X0249901Y0103305D02*
X0231825Y0103305D01*
X0231825Y0104903D02*
X0249901Y0104903D01*
X0249901Y0106502D02*
X0231825Y0106502D01*
X0231825Y0108100D02*
X0249901Y0108100D01*
X0249901Y0109699D02*
X0231825Y0109699D01*
X0231825Y0111297D02*
X0249901Y0111297D01*
X0249901Y0112896D02*
X0231825Y0112896D01*
X0231825Y0114494D02*
X0249901Y0114494D01*
X0249901Y0116093D02*
X0232960Y0116093D01*
X0233836Y0117691D02*
X0249901Y0117691D01*
X0249901Y0119290D02*
X0234025Y0119290D01*
X0234025Y0120888D02*
X0249901Y0120888D01*
X0249901Y0122487D02*
X0234025Y0122487D01*
X0234025Y0124085D02*
X0249901Y0124085D01*
X0249901Y0125684D02*
X0234025Y0125684D01*
X0233485Y0127282D02*
X0249901Y0127282D01*
X0249901Y0128881D02*
X0232113Y0128881D01*
X0226738Y0128881D02*
X0222113Y0128881D01*
X0223485Y0127282D02*
X0225366Y0127282D01*
X0224825Y0125684D02*
X0224025Y0125684D01*
X0224025Y0124085D02*
X0224825Y0124085D01*
X0224825Y0122487D02*
X0224025Y0122487D01*
X0224025Y0120888D02*
X0224825Y0120888D01*
X0224825Y0119290D02*
X0224025Y0119290D01*
X0224210Y0117691D02*
X0225014Y0117691D01*
X0225153Y0116093D02*
X0225890Y0116093D01*
X0226097Y0114494D02*
X0227025Y0114494D01*
X0226394Y0109268D02*
X0219425Y0121079D01*
X0214825Y0120888D02*
X0194581Y0120888D01*
X0192983Y0122487D02*
X0214825Y0122487D01*
X0214825Y0124085D02*
X0191384Y0124085D01*
X0196180Y0119290D02*
X0214825Y0119290D01*
X0215014Y0117691D02*
X0197779Y0117691D01*
X0199377Y0116093D02*
X0215890Y0116093D01*
X0218435Y0114494D02*
X0200976Y0114494D01*
X0202574Y0112896D02*
X0221467Y0112896D01*
X0222410Y0111297D02*
X0204173Y0111297D01*
X0205771Y0109699D02*
X0223353Y0109699D01*
X0223994Y0108100D02*
X0207370Y0108100D01*
X0208968Y0106502D02*
X0223994Y0106502D01*
X0223994Y0104903D02*
X0209200Y0104903D01*
X0209200Y0103305D02*
X0211162Y0103305D01*
X0209544Y0101706D02*
X0209200Y0101706D01*
X0203042Y0095312D02*
X0078700Y0095312D01*
X0078700Y0093714D02*
X0201444Y0093714D01*
X0199845Y0092115D02*
X0078700Y0092115D01*
X0078700Y0090517D02*
X0198247Y0090517D01*
X0196648Y0088918D02*
X0078700Y0088918D01*
X0078700Y0087320D02*
X0195050Y0087320D01*
X0193451Y0085721D02*
X0078700Y0085721D01*
X0078700Y0084123D02*
X0191853Y0084123D01*
X0190254Y0082524D02*
X0078700Y0082524D01*
X0078700Y0080926D02*
X0188656Y0080926D01*
X0187057Y0079327D02*
X0078700Y0079327D01*
X0078700Y0077729D02*
X0185459Y0077729D01*
X0183860Y0076130D02*
X0078700Y0076130D01*
X0084000Y0074532D02*
X0088000Y0074532D01*
X0088000Y0072933D02*
X0084000Y0072933D01*
X0084000Y0071334D02*
X0088000Y0071334D01*
X0087466Y0069736D02*
X0084000Y0069736D01*
X0084000Y0068137D02*
X0085868Y0068137D01*
X0084269Y0066539D02*
X0083652Y0066539D01*
X0082466Y0064940D02*
X0082300Y0064940D01*
X0095252Y0066539D02*
X0174269Y0066539D01*
X0175868Y0068137D02*
X0095600Y0068137D01*
X0095600Y0069736D02*
X0177466Y0069736D01*
X0179065Y0071334D02*
X0095600Y0071334D01*
X0095600Y0072933D02*
X0180663Y0072933D01*
X0182262Y0074532D02*
X0095600Y0074532D01*
X0095363Y0055349D02*
X0122616Y0055349D01*
X0122616Y0053751D02*
X0108547Y0053751D01*
X0109582Y0052152D02*
X0122616Y0052152D01*
X0122616Y0050554D02*
X0109699Y0050554D01*
X0108859Y0048955D02*
X0122616Y0048955D01*
X0121435Y0047357D02*
X0095600Y0047357D01*
X0095600Y0048955D02*
X0103770Y0048955D01*
X0104083Y0053751D02*
X0095600Y0053751D01*
X0076400Y0050554D02*
X0075124Y0050554D01*
X0076400Y0048955D02*
X0073525Y0048955D01*
X0071927Y0047357D02*
X0076400Y0047357D01*
X0053844Y0015387D02*
X0047417Y0015387D01*
X0047417Y0016985D02*
X0048755Y0016985D01*
X0047417Y0013788D02*
X0232459Y0013788D01*
X0233121Y0012190D02*
X0047417Y0012190D01*
X0078700Y0096911D02*
X0078934Y0096911D01*
X0083066Y0096911D02*
X0088934Y0096911D01*
X0087087Y0098509D02*
X0084913Y0098509D01*
X0085568Y0100108D02*
X0086431Y0100108D01*
X0086431Y0101706D02*
X0085568Y0101706D01*
X0085575Y0103305D02*
X0087010Y0103305D01*
X0087173Y0104903D02*
X0088485Y0104903D01*
X0088772Y0106502D02*
X0092732Y0106502D01*
X0094330Y0108100D02*
X0090370Y0108100D01*
X0091969Y0109699D02*
X0095929Y0109699D01*
X0097527Y0111297D02*
X0093567Y0111297D01*
X0095166Y0112896D02*
X0099126Y0112896D01*
X0100724Y0114494D02*
X0096764Y0114494D01*
X0098363Y0116093D02*
X0102323Y0116093D01*
X0103921Y0117691D02*
X0099961Y0117691D01*
X0101560Y0119290D02*
X0104200Y0119290D01*
X0104200Y0120888D02*
X0102100Y0120888D01*
X0108400Y0120888D02*
X0110500Y0120888D01*
X0110500Y0119290D02*
X0108400Y0119290D01*
X0108400Y0117691D02*
X0110500Y0117691D01*
X0110500Y0116093D02*
X0108263Y0116093D01*
X0106664Y0114494D02*
X0110500Y0114494D01*
X0109926Y0112896D02*
X0105066Y0112896D01*
X0103467Y0111297D02*
X0108327Y0111297D01*
X0106729Y0109699D02*
X0101869Y0109699D01*
X0100270Y0108100D02*
X0105130Y0108100D01*
X0103532Y0106502D02*
X0098672Y0106502D01*
X0098485Y0104903D02*
X0097073Y0104903D01*
X0097010Y0103305D02*
X0095475Y0103305D01*
X0095568Y0101706D02*
X0096431Y0101706D01*
X0096431Y0100108D02*
X0095568Y0100108D01*
X0094913Y0098509D02*
X0097087Y0098509D01*
X0098934Y0096911D02*
X0093066Y0096911D01*
X0103066Y0096911D02*
X0108934Y0096911D01*
X0108412Y0097127D02*
X0110091Y0096431D01*
X0111909Y0096431D01*
X0113588Y0097127D01*
X0114873Y0098412D01*
X0115568Y0100091D01*
X0115568Y0101909D01*
X0114873Y0103588D01*
X0113588Y0104873D01*
X0111909Y0105568D01*
X0110091Y0105568D01*
X0108412Y0104873D01*
X0107127Y0103588D01*
X0106431Y0101909D01*
X0106431Y0100091D01*
X0107127Y0098412D01*
X0108412Y0097127D01*
X0107087Y0098509D02*
X0104913Y0098509D01*
X0105568Y0100108D02*
X0106431Y0100108D01*
X0106431Y0101706D02*
X0105568Y0101706D01*
X0106275Y0103305D02*
X0107010Y0103305D01*
X0107873Y0104903D02*
X0108485Y0104903D01*
X0109472Y0106502D02*
X0122928Y0106502D01*
X0121909Y0105568D02*
X0120091Y0105568D01*
X0118412Y0104873D01*
X0117127Y0103588D01*
X0116431Y0101909D01*
X0116431Y0100091D01*
X0117127Y0098412D01*
X0118412Y0097127D01*
X0120091Y0096431D01*
X0121909Y0096431D01*
X0123588Y0097127D01*
X0124873Y0098412D01*
X0125568Y0100091D01*
X0125568Y0101909D01*
X0124873Y0103588D01*
X0123588Y0104873D01*
X0121909Y0105568D01*
X0123515Y0104903D02*
X0124527Y0104903D01*
X0124990Y0103305D02*
X0126125Y0103305D01*
X0126431Y0101706D02*
X0125568Y0101706D01*
X0125568Y0100108D02*
X0126431Y0100108D01*
X0127087Y0098509D02*
X0124913Y0098509D01*
X0123066Y0096911D02*
X0128934Y0096911D01*
X0133066Y0096911D02*
X0138934Y0096911D01*
X0137087Y0098509D02*
X0134913Y0098509D01*
X0135568Y0100108D02*
X0136431Y0100108D01*
X0136431Y0101706D02*
X0135568Y0101706D01*
X0136025Y0103305D02*
X0134990Y0103305D01*
X0134427Y0104903D02*
X0133515Y0104903D01*
X0132828Y0106502D02*
X0128868Y0106502D01*
X0127270Y0108100D02*
X0131230Y0108100D01*
X0129631Y0109699D02*
X0125671Y0109699D01*
X0124073Y0111297D02*
X0128033Y0111297D01*
X0126434Y0112896D02*
X0122474Y0112896D01*
X0121000Y0114494D02*
X0124836Y0114494D01*
X0123237Y0116093D02*
X0121000Y0116093D01*
X0121000Y0117691D02*
X0123100Y0117691D01*
X0123100Y0119290D02*
X0121000Y0119290D01*
X0121000Y0120888D02*
X0123100Y0120888D01*
X0127300Y0120888D02*
X0128500Y0120888D01*
X0127300Y0119290D02*
X0129940Y0119290D01*
X0131539Y0117691D02*
X0127579Y0117691D01*
X0129177Y0116093D02*
X0133137Y0116093D01*
X0134736Y0114494D02*
X0130776Y0114494D01*
X0132374Y0112896D02*
X0136334Y0112896D01*
X0137933Y0111297D02*
X0133973Y0111297D01*
X0135571Y0109699D02*
X0139531Y0109699D01*
X0141130Y0108100D02*
X0137170Y0108100D01*
X0138768Y0106502D02*
X0142728Y0106502D01*
X0143515Y0104903D02*
X0144327Y0104903D01*
X0144990Y0103305D02*
X0145925Y0103305D01*
X0145568Y0101706D02*
X0146431Y0101706D01*
X0146431Y0100108D02*
X0145568Y0100108D01*
X0144913Y0098509D02*
X0147087Y0098509D01*
X0148934Y0096911D02*
X0143066Y0096911D01*
X0153066Y0096911D02*
X0158934Y0096911D01*
X0157087Y0098509D02*
X0154913Y0098509D01*
X0155568Y0100108D02*
X0156431Y0100108D01*
X0156431Y0101706D02*
X0155568Y0101706D01*
X0155825Y0103305D02*
X0154990Y0103305D01*
X0154227Y0104903D02*
X0153515Y0104903D01*
X0152628Y0106502D02*
X0148668Y0106502D01*
X0147070Y0108100D02*
X0151030Y0108100D01*
X0149431Y0109699D02*
X0145471Y0109699D01*
X0143873Y0111297D02*
X0147833Y0111297D01*
X0146234Y0112896D02*
X0142274Y0112896D01*
X0140676Y0114494D02*
X0144636Y0114494D01*
X0143037Y0116093D02*
X0139077Y0116093D01*
X0137478Y0117691D02*
X0141439Y0117691D01*
X0139840Y0119290D02*
X0135880Y0119290D01*
X0134281Y0120888D02*
X0138242Y0120888D01*
X0140984Y0124085D02*
X0175545Y0124085D01*
X0177143Y0122487D02*
X0142583Y0122487D01*
X0144181Y0120888D02*
X0178742Y0120888D01*
X0180340Y0119290D02*
X0145780Y0119290D01*
X0147379Y0117691D02*
X0181939Y0117691D01*
X0183537Y0116093D02*
X0148977Y0116093D01*
X0150576Y0114494D02*
X0185136Y0114494D01*
X0186734Y0112896D02*
X0152174Y0112896D01*
X0153773Y0111297D02*
X0188333Y0111297D01*
X0189931Y0109699D02*
X0155371Y0109699D01*
X0156970Y0108100D02*
X0191530Y0108100D01*
X0193128Y0106502D02*
X0158568Y0106502D01*
X0163515Y0104903D02*
X0168260Y0104903D01*
X0168501Y0105078D02*
X0167894Y0104637D01*
X0167363Y0104106D01*
X0166922Y0103499D01*
X0166581Y0102830D01*
X0166349Y0102117D01*
X0166231Y0101375D01*
X0166231Y0101184D01*
X0170816Y0101184D01*
X0170816Y0100816D01*
X0171184Y0100816D01*
X0171184Y0096231D01*
X0171375Y0096231D01*
X0172117Y0096349D01*
X0172830Y0096581D01*
X0173499Y0096922D01*
X0174106Y0097363D01*
X0174637Y0097894D01*
X0175078Y0098501D01*
X0175419Y0099170D01*
X0175651Y0099883D01*
X0175768Y0100625D01*
X0175768Y0100816D01*
X0171184Y0100816D01*
X0171184Y0101184D01*
X0175768Y0101184D01*
X0175768Y0101375D01*
X0175651Y0102117D01*
X0175419Y0102830D01*
X0175078Y0103499D01*
X0174637Y0104106D01*
X0174106Y0104637D01*
X0173499Y0105078D01*
X0172830Y0105419D01*
X0172117Y0105651D01*
X0171375Y0105768D01*
X0171184Y0105768D01*
X0171184Y0101184D01*
X0170816Y0101184D01*
X0170816Y0105768D01*
X0170625Y0105768D01*
X0169883Y0105651D01*
X0169170Y0105419D01*
X0168501Y0105078D01*
X0170816Y0104903D02*
X0171184Y0104903D01*
X0171184Y0103305D02*
X0170816Y0103305D01*
X0170816Y0101706D02*
X0171184Y0101706D01*
X0170816Y0100816D02*
X0166231Y0100816D01*
X0166231Y0100625D01*
X0166349Y0099883D01*
X0166581Y0099170D01*
X0166922Y0098501D01*
X0167363Y0097894D01*
X0167894Y0097363D01*
X0168501Y0096922D01*
X0169170Y0096581D01*
X0169883Y0096349D01*
X0170625Y0096231D01*
X0170816Y0096231D01*
X0170816Y0100816D01*
X0170816Y0100108D02*
X0171184Y0100108D01*
X0171184Y0098509D02*
X0170816Y0098509D01*
X0170816Y0096911D02*
X0171184Y0096911D01*
X0173478Y0096911D02*
X0178934Y0096911D01*
X0178412Y0097127D02*
X0180091Y0096431D01*
X0181909Y0096431D01*
X0183588Y0097127D01*
X0184873Y0098412D01*
X0185568Y0100091D01*
X0185568Y0101909D01*
X0184873Y0103588D01*
X0183588Y0104873D01*
X0181909Y0105568D01*
X0180091Y0105568D01*
X0178412Y0104873D01*
X0177127Y0103588D01*
X0176431Y0101909D01*
X0176431Y0100091D01*
X0177127Y0098412D01*
X0178412Y0097127D01*
X0177087Y0098509D02*
X0175083Y0098509D01*
X0175687Y0100108D02*
X0176431Y0100108D01*
X0176431Y0101706D02*
X0175716Y0101706D01*
X0175177Y0103305D02*
X0177010Y0103305D01*
X0178485Y0104903D02*
X0173740Y0104903D01*
X0166823Y0103305D02*
X0164990Y0103305D01*
X0165568Y0101706D02*
X0166284Y0101706D01*
X0166313Y0100108D02*
X0165568Y0100108D01*
X0164913Y0098509D02*
X0166917Y0098509D01*
X0168522Y0096911D02*
X0163066Y0096911D01*
X0183066Y0096911D02*
X0188934Y0096911D01*
X0188412Y0097127D02*
X0190091Y0096431D01*
X0191909Y0096431D01*
X0193588Y0097127D01*
X0194873Y0098412D01*
X0195568Y0100091D01*
X0195568Y0101909D01*
X0194873Y0103588D01*
X0193588Y0104873D01*
X0191909Y0105568D01*
X0190091Y0105568D01*
X0188412Y0104873D01*
X0187127Y0103588D01*
X0186431Y0101909D01*
X0186431Y0100091D01*
X0187127Y0098412D01*
X0188412Y0097127D01*
X0187087Y0098509D02*
X0184913Y0098509D01*
X0185568Y0100108D02*
X0186431Y0100108D01*
X0186431Y0101706D02*
X0185568Y0101706D01*
X0184990Y0103305D02*
X0187010Y0103305D01*
X0188485Y0104903D02*
X0183515Y0104903D01*
X0193515Y0104903D02*
X0194727Y0104903D01*
X0194990Y0103305D02*
X0196325Y0103305D01*
X0196431Y0101706D02*
X0195568Y0101706D01*
X0195568Y0100108D02*
X0196431Y0100108D01*
X0196431Y0098509D02*
X0194913Y0098509D01*
X0193066Y0096911D02*
X0196890Y0096911D01*
X0204186Y0090517D02*
X0209321Y0090517D01*
X0208301Y0092115D02*
X0205785Y0092115D01*
X0207383Y0093714D02*
X0207638Y0093714D01*
X0210920Y0088918D02*
X0202588Y0088918D01*
X0200989Y0087320D02*
X0223994Y0087320D01*
X0223994Y0088918D02*
X0221080Y0088918D01*
X0222679Y0090517D02*
X0223994Y0090517D01*
X0223994Y0092115D02*
X0223699Y0092115D01*
X0223607Y0100108D02*
X0223994Y0100108D01*
X0223994Y0101706D02*
X0222456Y0101706D01*
X0223994Y0103305D02*
X0220838Y0103305D01*
X0226394Y0109268D02*
X0226394Y0084661D01*
X0190961Y0056118D01*
X0187380Y0055349D02*
X0169019Y0055349D01*
X0167421Y0053751D02*
X0187380Y0053751D01*
X0187380Y0056948D02*
X0170618Y0056948D01*
X0172216Y0058546D02*
X0187380Y0058546D01*
X0192134Y0060145D02*
X0173815Y0060145D01*
X0175413Y0061743D02*
X0194118Y0061743D01*
X0196102Y0063342D02*
X0177012Y0063342D01*
X0178610Y0064940D02*
X0198087Y0064940D01*
X0200071Y0066539D02*
X0180209Y0066539D01*
X0181807Y0068137D02*
X0202055Y0068137D01*
X0204040Y0069736D02*
X0183406Y0069736D01*
X0185004Y0071334D02*
X0206024Y0071334D01*
X0208009Y0072933D02*
X0186603Y0072933D01*
X0188201Y0074532D02*
X0209993Y0074532D01*
X0211977Y0076130D02*
X0189800Y0076130D01*
X0191398Y0077729D02*
X0213962Y0077729D01*
X0215946Y0079327D02*
X0192997Y0079327D01*
X0194595Y0080926D02*
X0217930Y0080926D01*
X0219915Y0082524D02*
X0196194Y0082524D01*
X0197792Y0084123D02*
X0221899Y0084123D01*
X0223883Y0085721D02*
X0199391Y0085721D01*
X0211691Y0069736D02*
X0217025Y0069736D01*
X0215073Y0068137D02*
X0209707Y0068137D01*
X0207723Y0066539D02*
X0213121Y0066539D01*
X0211169Y0064940D02*
X0205738Y0064940D01*
X0203754Y0063342D02*
X0209217Y0063342D01*
X0207265Y0061743D02*
X0201770Y0061743D01*
X0199785Y0060145D02*
X0205312Y0060145D01*
X0203360Y0058546D02*
X0197801Y0058546D01*
X0195816Y0056948D02*
X0201408Y0056948D01*
X0199456Y0055349D02*
X0194542Y0055349D01*
X0194542Y0053751D02*
X0197504Y0053751D01*
X0195551Y0052152D02*
X0165822Y0052152D01*
X0164224Y0050554D02*
X0193599Y0050554D01*
X0191647Y0048955D02*
X0162625Y0048955D01*
X0161027Y0047357D02*
X0187380Y0047357D01*
X0187380Y0045758D02*
X0159428Y0045758D01*
X0157830Y0044160D02*
X0187380Y0044160D01*
X0187466Y0042561D02*
X0156231Y0042561D01*
X0148665Y0024978D02*
X0143335Y0024978D01*
X0144959Y0023379D02*
X0147041Y0023379D01*
X0146431Y0021781D02*
X0145568Y0021781D01*
X0145568Y0020182D02*
X0146431Y0020182D01*
X0147056Y0018584D02*
X0144944Y0018584D01*
X0143245Y0016985D02*
X0148755Y0016985D01*
X0190961Y0045291D02*
X0229425Y0076787D01*
X0229425Y0122063D01*
X0220523Y0114494D02*
X0220416Y0114494D01*
X0214825Y0125684D02*
X0212600Y0125684D01*
X0212600Y0127282D02*
X0215366Y0127282D01*
X0216738Y0128881D02*
X0212600Y0128881D01*
X0212600Y0130479D02*
X0249901Y0130479D01*
X0249901Y0132078D02*
X0212600Y0132078D01*
X0212600Y0133676D02*
X0249901Y0133676D01*
X0249901Y0135275D02*
X0212600Y0135275D01*
X0212389Y0136873D02*
X0249901Y0136873D01*
X0249901Y0138472D02*
X0202900Y0138472D01*
X0202900Y0140070D02*
X0249901Y0140070D01*
X0249901Y0141669D02*
X0202900Y0141669D01*
X0202900Y0143268D02*
X0249901Y0143268D01*
X0249901Y0144866D02*
X0202900Y0144866D01*
X0202900Y0146465D02*
X0249901Y0146465D01*
X0249901Y0148063D02*
X0202900Y0148063D01*
X0202900Y0149662D02*
X0249901Y0149662D01*
X0249901Y0151260D02*
X0202900Y0151260D01*
X0202900Y0152859D02*
X0249901Y0152859D01*
X0249901Y0154457D02*
X0202900Y0154457D01*
X0202900Y0156056D02*
X0249901Y0156056D01*
X0249901Y0157654D02*
X0202900Y0157654D01*
X0202117Y0159253D02*
X0249901Y0159253D01*
X0249901Y0160851D02*
X0200519Y0160851D01*
X0198920Y0162450D02*
X0249901Y0162450D01*
X0249901Y0164048D02*
X0197322Y0164048D01*
X0195723Y0165647D02*
X0249901Y0165647D01*
X0249901Y0167245D02*
X0210643Y0167245D01*
X0210677Y0167305D02*
X0210800Y0167763D01*
X0210800Y0175200D01*
X0201800Y0175200D01*
X0201800Y0176800D01*
X0200200Y0176800D01*
X0200200Y0185800D01*
X0192763Y0185800D01*
X0192305Y0185677D01*
X0191895Y0185440D01*
X0191560Y0185105D01*
X0191323Y0184695D01*
X0191200Y0184237D01*
X0191200Y0176800D01*
X0200200Y0176800D01*
X0200200Y0175200D01*
X0201800Y0175200D01*
X0201800Y0166200D01*
X0209237Y0166200D01*
X0209695Y0166323D01*
X0210105Y0166560D01*
X0210440Y0166895D01*
X0210677Y0167305D01*
X0210800Y0168844D02*
X0249901Y0168844D01*
X0249901Y0170442D02*
X0210800Y0170442D01*
X0210800Y0172041D02*
X0249901Y0172041D01*
X0249901Y0173639D02*
X0210800Y0173639D01*
X0210800Y0176800D02*
X0210800Y0184237D01*
X0210677Y0184695D01*
X0210440Y0185105D01*
X0210105Y0185440D01*
X0209695Y0185677D01*
X0209237Y0185800D01*
X0201800Y0185800D01*
X0201800Y0176800D01*
X0210800Y0176800D01*
X0210800Y0176836D02*
X0249901Y0176836D01*
X0249901Y0175238D02*
X0201800Y0175238D01*
X0201800Y0176836D02*
X0200200Y0176836D01*
X0200200Y0175238D02*
X0186132Y0175238D01*
X0184900Y0176836D02*
X0191200Y0176836D01*
X0191200Y0178435D02*
X0184900Y0178435D01*
X0184900Y0180033D02*
X0191200Y0180033D01*
X0191200Y0181632D02*
X0184900Y0181632D01*
X0184900Y0183230D02*
X0191200Y0183230D01*
X0191400Y0184829D02*
X0184900Y0184829D01*
X0184900Y0186427D02*
X0249901Y0186427D01*
X0249901Y0184829D02*
X0210600Y0184829D01*
X0210800Y0183230D02*
X0249901Y0183230D01*
X0249901Y0181632D02*
X0210800Y0181632D01*
X0210800Y0180033D02*
X0249901Y0180033D01*
X0249901Y0178435D02*
X0210800Y0178435D01*
X0201800Y0178435D02*
X0200200Y0178435D01*
X0200200Y0180033D02*
X0201800Y0180033D01*
X0201800Y0181632D02*
X0200200Y0181632D01*
X0200200Y0183230D02*
X0201800Y0183230D01*
X0201800Y0184829D02*
X0200200Y0184829D01*
X0200200Y0173639D02*
X0201800Y0173639D01*
X0201800Y0172041D02*
X0200200Y0172041D01*
X0200200Y0170442D02*
X0201800Y0170442D01*
X0201800Y0168844D02*
X0200200Y0168844D01*
X0200200Y0167245D02*
X0201800Y0167245D01*
X0191200Y0170442D02*
X0190928Y0170442D01*
X0191200Y0172041D02*
X0189329Y0172041D01*
X0187731Y0173639D02*
X0191200Y0173639D01*
X0184900Y0188026D02*
X0249901Y0188026D01*
X0249901Y0189624D02*
X0184900Y0189624D01*
X0184900Y0191223D02*
X0249901Y0191223D01*
X0249901Y0192821D02*
X0184900Y0192821D01*
X0184900Y0194420D02*
X0249901Y0194420D01*
X0249901Y0196018D02*
X0184900Y0196018D01*
X0184900Y0197617D02*
X0249901Y0197617D01*
X0249901Y0199215D02*
X0184900Y0199215D01*
X0184900Y0200814D02*
X0249901Y0200814D01*
X0249901Y0202412D02*
X0185582Y0202412D01*
X0187181Y0204011D02*
X0249901Y0204011D01*
X0249901Y0205609D02*
X0188779Y0205609D01*
X0190378Y0207208D02*
X0249901Y0207208D01*
X0249901Y0208806D02*
X0191976Y0208806D01*
X0193575Y0210405D02*
X0249901Y0210405D01*
X0249901Y0212003D02*
X0195173Y0212003D01*
X0196772Y0213602D02*
X0249901Y0213602D01*
X0249901Y0215201D02*
X0212463Y0215201D01*
X0212600Y0216799D02*
X0249901Y0216799D01*
X0249901Y0218398D02*
X0212600Y0218398D01*
X0212600Y0219996D02*
X0249901Y0219996D01*
X0249901Y0221595D02*
X0212600Y0221595D01*
X0212600Y0223193D02*
X0249901Y0223193D01*
X0249901Y0224792D02*
X0212600Y0224792D01*
X0212600Y0226390D02*
X0249901Y0226390D01*
X0249901Y0227989D02*
X0156100Y0227989D01*
X0156100Y0229587D02*
X0249901Y0229587D01*
X0249901Y0231186D02*
X0156100Y0231186D01*
X0156100Y0232784D02*
X0249901Y0232784D01*
X0249901Y0234383D02*
X0156100Y0234383D01*
X0156100Y0235981D02*
X0249901Y0235981D01*
X0249901Y0237580D02*
X0156100Y0237580D01*
X0156100Y0239178D02*
X0249901Y0239178D01*
X0249901Y0240777D02*
X0156100Y0240777D01*
X0156100Y0242375D02*
X0249901Y0242375D01*
X0249901Y0243974D02*
X0156100Y0243974D01*
X0156100Y0245572D02*
X0249901Y0245572D01*
X0249901Y0247171D02*
X0156100Y0247171D01*
X0156100Y0248769D02*
X0249901Y0248769D01*
X0249901Y0250368D02*
X0156100Y0250368D01*
X0156100Y0251966D02*
X0249901Y0251966D01*
X0249901Y0253565D02*
X0156100Y0253565D01*
X0156100Y0255163D02*
X0249901Y0255163D01*
X0249901Y0256762D02*
X0155008Y0256762D01*
X0153410Y0258360D02*
X0249901Y0258360D01*
X0249901Y0259959D02*
X0151811Y0259959D01*
X0150212Y0261557D02*
X0249901Y0261557D01*
X0249901Y0263156D02*
X0244893Y0263156D01*
X0245949Y0263593D02*
X0242738Y0262263D01*
X0239262Y0262263D01*
X0236051Y0263593D01*
X0233593Y0266051D01*
X0232263Y0269262D01*
X0232263Y0272738D01*
X0233593Y0275949D01*
X0236051Y0278407D01*
X0239262Y0279737D01*
X0242738Y0279737D01*
X0245949Y0278407D01*
X0248407Y0275949D01*
X0249737Y0272738D01*
X0249737Y0269262D01*
X0248407Y0266051D01*
X0245949Y0263593D01*
X0247110Y0264754D02*
X0249901Y0264754D01*
X0249901Y0266353D02*
X0248532Y0266353D01*
X0249194Y0267951D02*
X0249901Y0267951D01*
X0249901Y0269550D02*
X0249737Y0269550D01*
X0249737Y0271148D02*
X0249901Y0271148D01*
X0249901Y0272747D02*
X0249733Y0272747D01*
X0249901Y0274345D02*
X0249071Y0274345D01*
X0248409Y0275944D02*
X0249901Y0275944D01*
X0249901Y0277542D02*
X0246814Y0277542D01*
X0244177Y0279141D02*
X0249901Y0279141D01*
X0249901Y0280739D02*
X0047417Y0280739D01*
X0047417Y0279141D02*
X0237823Y0279141D01*
X0235186Y0277542D02*
X0047417Y0277542D01*
X0047417Y0275944D02*
X0233591Y0275944D01*
X0232929Y0274345D02*
X0047417Y0274345D01*
X0047417Y0272747D02*
X0232267Y0272747D01*
X0232263Y0271148D02*
X0047417Y0271148D01*
X0047417Y0269550D02*
X0232263Y0269550D01*
X0232806Y0267951D02*
X0047417Y0267951D01*
X0047417Y0266353D02*
X0233468Y0266353D01*
X0234890Y0264754D02*
X0085815Y0264754D01*
X0087414Y0263156D02*
X0099086Y0263156D01*
X0097488Y0261557D02*
X0089012Y0261557D01*
X0093547Y0259959D02*
X0095889Y0259959D01*
X0083500Y0250330D02*
X0083500Y0250005D01*
X0082905Y0250600D01*
X0079095Y0250600D01*
X0076400Y0247905D01*
X0076400Y0244095D01*
X0079095Y0241400D01*
X0081700Y0241400D01*
X0081700Y0226025D01*
X0080534Y0226025D01*
X0080354Y0225845D01*
X0080334Y0225866D01*
X0079923Y0226103D01*
X0079465Y0226225D01*
X0077444Y0226225D01*
X0077444Y0218704D01*
X0077076Y0218704D01*
X0077076Y0226225D01*
X0075054Y0226225D01*
X0074597Y0226103D01*
X0074307Y0225935D01*
X0074018Y0226103D01*
X0073560Y0226225D01*
X0071539Y0226225D01*
X0071539Y0218704D01*
X0075123Y0218704D01*
X0077076Y0218704D01*
X0077076Y0218335D01*
X0071539Y0218335D01*
X0071539Y0218704D01*
X0071170Y0218704D01*
X0071170Y0226225D01*
X0069149Y0226225D01*
X0068800Y0226132D01*
X0068800Y0241412D01*
X0069012Y0241200D01*
X0070800Y0241200D01*
X0070800Y0245800D01*
X0071200Y0245800D01*
X0071200Y0246200D01*
X0075800Y0246200D01*
X0075800Y0247988D01*
X0072988Y0250800D01*
X0071200Y0250800D01*
X0071200Y0246200D01*
X0070800Y0246200D01*
X0070800Y0250800D01*
X0069012Y0250800D01*
X0068800Y0250588D01*
X0068800Y0251695D01*
X0069095Y0251400D01*
X0072905Y0251400D01*
X0075600Y0254095D01*
X0075600Y0257905D01*
X0075538Y0257968D01*
X0076570Y0259000D01*
X0077495Y0259000D01*
X0076400Y0257905D01*
X0076400Y0254095D01*
X0079095Y0251400D01*
X0082430Y0251400D01*
X0083500Y0250330D01*
X0083462Y0250368D02*
X0083138Y0250368D01*
X0078862Y0250368D02*
X0073420Y0250368D01*
X0073472Y0251966D02*
X0078528Y0251966D01*
X0076930Y0253565D02*
X0075070Y0253565D01*
X0075600Y0255163D02*
X0076400Y0255163D01*
X0076400Y0256762D02*
X0075600Y0256762D01*
X0075930Y0258360D02*
X0076855Y0258360D01*
X0070085Y0264754D02*
X0047417Y0264754D01*
X0047417Y0263156D02*
X0068486Y0263156D01*
X0066888Y0261557D02*
X0047417Y0261557D01*
X0047417Y0259959D02*
X0065289Y0259959D01*
X0064600Y0258360D02*
X0047417Y0258360D01*
X0047417Y0256762D02*
X0064600Y0256762D01*
X0064600Y0255163D02*
X0047417Y0255163D01*
X0047417Y0253565D02*
X0064600Y0253565D01*
X0064600Y0251966D02*
X0047417Y0251966D01*
X0047417Y0250368D02*
X0064600Y0250368D01*
X0064600Y0248769D02*
X0047417Y0248769D01*
X0047417Y0247171D02*
X0064600Y0247171D01*
X0064600Y0245572D02*
X0047417Y0245572D01*
X0047417Y0243974D02*
X0064600Y0243974D01*
X0064600Y0242375D02*
X0047417Y0242375D01*
X0047417Y0240777D02*
X0064600Y0240777D01*
X0064600Y0239178D02*
X0047417Y0239178D01*
X0047417Y0237580D02*
X0064600Y0237580D01*
X0064600Y0235981D02*
X0047417Y0235981D01*
X0047417Y0234383D02*
X0064600Y0234383D01*
X0064600Y0232784D02*
X0047417Y0232784D01*
X0047417Y0231186D02*
X0064600Y0231186D01*
X0064600Y0229587D02*
X0047417Y0229587D01*
X0047417Y0227989D02*
X0064600Y0227989D01*
X0064600Y0226390D02*
X0047417Y0226390D01*
X0047417Y0224792D02*
X0064600Y0224792D01*
X0064600Y0223193D02*
X0047417Y0223193D01*
X0047417Y0221595D02*
X0064600Y0221595D01*
X0064600Y0219996D02*
X0047417Y0219996D01*
X0047417Y0218398D02*
X0064600Y0218398D01*
X0064600Y0216799D02*
X0047417Y0216799D01*
X0047417Y0215201D02*
X0064600Y0215201D01*
X0064600Y0213602D02*
X0047417Y0213602D01*
X0047417Y0212003D02*
X0065127Y0212003D01*
X0066725Y0210405D02*
X0047417Y0210405D01*
X0047417Y0208806D02*
X0068324Y0208806D01*
X0071539Y0218398D02*
X0077076Y0218398D01*
X0077076Y0219996D02*
X0077444Y0219996D01*
X0077444Y0221595D02*
X0077076Y0221595D01*
X0077076Y0223193D02*
X0077444Y0223193D01*
X0077444Y0224792D02*
X0077076Y0224792D01*
X0081700Y0226390D02*
X0068800Y0226390D01*
X0068800Y0227989D02*
X0081700Y0227989D01*
X0081700Y0229587D02*
X0068800Y0229587D01*
X0068800Y0231186D02*
X0081700Y0231186D01*
X0081700Y0232784D02*
X0068800Y0232784D01*
X0068800Y0234383D02*
X0081700Y0234383D01*
X0081700Y0235981D02*
X0068800Y0235981D01*
X0068800Y0237580D02*
X0081700Y0237580D01*
X0081700Y0239178D02*
X0068800Y0239178D01*
X0068800Y0240777D02*
X0081700Y0240777D01*
X0078119Y0242375D02*
X0074163Y0242375D01*
X0072988Y0241200D02*
X0075800Y0244012D01*
X0075800Y0245800D01*
X0071200Y0245800D01*
X0071200Y0241200D01*
X0072988Y0241200D01*
X0071200Y0242375D02*
X0070800Y0242375D01*
X0070800Y0243974D02*
X0071200Y0243974D01*
X0071200Y0245572D02*
X0070800Y0245572D01*
X0070800Y0247171D02*
X0071200Y0247171D01*
X0071200Y0248769D02*
X0070800Y0248769D01*
X0070800Y0250368D02*
X0071200Y0250368D01*
X0075019Y0248769D02*
X0077264Y0248769D01*
X0076400Y0247171D02*
X0075800Y0247171D01*
X0075800Y0245572D02*
X0076400Y0245572D01*
X0076521Y0243974D02*
X0075762Y0243974D01*
X0071539Y0224792D02*
X0071170Y0224792D01*
X0071170Y0223193D02*
X0071539Y0223193D01*
X0071539Y0221595D02*
X0071170Y0221595D01*
X0071170Y0219996D02*
X0071539Y0219996D01*
X0086676Y0208806D02*
X0100278Y0208806D01*
X0100278Y0207208D02*
X0047417Y0207208D01*
X0047417Y0205609D02*
X0100278Y0205609D01*
X0100278Y0204011D02*
X0047417Y0204011D01*
X0047417Y0202412D02*
X0100278Y0202412D01*
X0100278Y0200814D02*
X0047417Y0200814D01*
X0047417Y0199215D02*
X0100278Y0199215D01*
X0100278Y0197617D02*
X0047417Y0197617D01*
X0047417Y0196018D02*
X0100278Y0196018D01*
X0100278Y0194420D02*
X0047417Y0194420D01*
X0047417Y0192821D02*
X0100278Y0192821D01*
X0100278Y0191223D02*
X0047417Y0191223D01*
X0047417Y0189624D02*
X0100278Y0189624D01*
X0100278Y0188026D02*
X0047417Y0188026D01*
X0047417Y0186427D02*
X0100278Y0186427D01*
X0100278Y0184829D02*
X0047417Y0184829D01*
X0047417Y0183230D02*
X0100278Y0183230D01*
X0100278Y0181632D02*
X0047417Y0181632D01*
X0047417Y0180033D02*
X0100278Y0180033D01*
X0100278Y0178435D02*
X0047417Y0178435D01*
X0047417Y0176836D02*
X0100278Y0176836D01*
X0100278Y0175238D02*
X0047417Y0175238D01*
X0047417Y0173639D02*
X0100278Y0173639D01*
X0100278Y0172041D02*
X0047417Y0172041D01*
X0047417Y0170442D02*
X0100278Y0170442D01*
X0100278Y0168844D02*
X0047417Y0168844D01*
X0047417Y0167245D02*
X0100278Y0167245D01*
X0098700Y0165647D02*
X0047417Y0165647D01*
X0047417Y0164048D02*
X0097102Y0164048D01*
X0095503Y0162450D02*
X0047417Y0162450D01*
X0047417Y0160851D02*
X0093905Y0160851D01*
X0092306Y0159253D02*
X0047417Y0159253D01*
X0047417Y0157654D02*
X0090708Y0157654D01*
X0089109Y0156056D02*
X0047417Y0156056D01*
X0047417Y0154457D02*
X0087511Y0154457D01*
X0087483Y0152859D02*
X0047417Y0152859D01*
X0047417Y0151260D02*
X0087483Y0151260D01*
X0087483Y0149662D02*
X0047417Y0149662D01*
X0047417Y0148063D02*
X0087483Y0148063D01*
X0087483Y0146465D02*
X0047417Y0146465D01*
X0047417Y0144866D02*
X0087483Y0144866D01*
X0087483Y0143268D02*
X0047417Y0143268D01*
X0047417Y0141669D02*
X0087483Y0141669D01*
X0087483Y0140070D02*
X0047417Y0140070D01*
X0047417Y0138472D02*
X0087483Y0138472D01*
X0087483Y0136873D02*
X0047417Y0136873D01*
X0047417Y0135275D02*
X0067687Y0135275D01*
X0067708Y0135356D02*
X0067586Y0134898D01*
X0067586Y0128940D01*
X0071170Y0128940D01*
X0071170Y0136461D01*
X0069149Y0136461D01*
X0068691Y0136339D01*
X0068281Y0136102D01*
X0067945Y0135767D01*
X0067708Y0135356D01*
X0067586Y0133676D02*
X0047417Y0133676D01*
X0047417Y0132078D02*
X0067586Y0132078D01*
X0067586Y0130479D02*
X0047417Y0130479D01*
X0047417Y0128881D02*
X0071170Y0128881D01*
X0071170Y0130479D02*
X0071539Y0130479D01*
X0071539Y0132078D02*
X0071170Y0132078D01*
X0071170Y0133676D02*
X0071539Y0133676D01*
X0071539Y0135275D02*
X0071170Y0135275D01*
X0071170Y0127282D02*
X0071539Y0127282D01*
X0071539Y0125684D02*
X0071170Y0125684D01*
X0071170Y0124085D02*
X0071539Y0124085D01*
X0071539Y0122487D02*
X0071170Y0122487D01*
X0071119Y0120888D02*
X0047417Y0120888D01*
X0047417Y0119290D02*
X0069520Y0119290D01*
X0067921Y0117691D02*
X0047417Y0117691D01*
X0047417Y0116093D02*
X0066323Y0116093D01*
X0064724Y0114494D02*
X0047417Y0114494D01*
X0047417Y0112896D02*
X0063126Y0112896D01*
X0061527Y0111297D02*
X0047417Y0111297D01*
X0047417Y0109699D02*
X0059929Y0109699D01*
X0058330Y0108100D02*
X0047417Y0108100D01*
X0047417Y0106502D02*
X0056732Y0106502D01*
X0055133Y0104903D02*
X0053515Y0104903D01*
X0048485Y0104903D02*
X0047417Y0104903D01*
X0047417Y0122487D02*
X0067620Y0122487D01*
X0067586Y0124085D02*
X0047417Y0124085D01*
X0047417Y0125684D02*
X0067586Y0125684D01*
X0067586Y0127282D02*
X0047417Y0127282D01*
X0091683Y0136873D02*
X0136877Y0136873D01*
X0136877Y0138472D02*
X0091683Y0138472D01*
X0091683Y0140070D02*
X0136877Y0140070D01*
X0137077Y0141669D02*
X0091683Y0141669D01*
X0091683Y0143268D02*
X0137077Y0143268D01*
X0137077Y0144866D02*
X0091683Y0144866D01*
X0091683Y0146465D02*
X0106079Y0146465D01*
X0104282Y0148063D02*
X0091683Y0148063D01*
X0091683Y0149662D02*
X0103915Y0149662D01*
X0104315Y0151260D02*
X0091683Y0151260D01*
X0091852Y0152859D02*
X0106269Y0152859D01*
X0108329Y0152859D02*
X0137289Y0152859D01*
X0137077Y0154457D02*
X0093451Y0154457D01*
X0095049Y0156056D02*
X0137077Y0156056D01*
X0137077Y0157654D02*
X0096648Y0157654D01*
X0098246Y0159253D02*
X0137077Y0159253D01*
X0137077Y0160851D02*
X0099845Y0160851D01*
X0101443Y0162450D02*
X0137077Y0162450D01*
X0135582Y0164048D02*
X0103042Y0164048D01*
X0104478Y0165647D02*
X0133983Y0165647D01*
X0132385Y0167245D02*
X0104478Y0167245D01*
X0104478Y0168844D02*
X0130786Y0168844D01*
X0129188Y0170442D02*
X0104478Y0170442D01*
X0104478Y0172041D02*
X0127589Y0172041D01*
X0125991Y0173639D02*
X0104478Y0173639D01*
X0104478Y0175238D02*
X0124392Y0175238D01*
X0122794Y0176836D02*
X0104478Y0176836D01*
X0104478Y0178435D02*
X0121195Y0178435D01*
X0119597Y0180033D02*
X0104478Y0180033D01*
X0104478Y0181632D02*
X0117998Y0181632D01*
X0116400Y0183230D02*
X0104478Y0183230D01*
X0104478Y0184829D02*
X0114801Y0184829D01*
X0113203Y0186427D02*
X0104478Y0186427D01*
X0104478Y0188026D02*
X0111604Y0188026D01*
X0110006Y0189624D02*
X0104478Y0189624D01*
X0104478Y0191223D02*
X0108407Y0191223D01*
X0106900Y0192821D02*
X0104478Y0192821D01*
X0104478Y0194420D02*
X0106900Y0194420D01*
X0106900Y0196018D02*
X0104478Y0196018D01*
X0104478Y0197617D02*
X0106900Y0197617D01*
X0106900Y0199215D02*
X0104478Y0199215D01*
X0104478Y0200814D02*
X0106900Y0200814D01*
X0106900Y0202412D02*
X0104478Y0202412D01*
X0104478Y0204011D02*
X0106900Y0204011D01*
X0106900Y0205609D02*
X0104478Y0205609D01*
X0104478Y0207208D02*
X0106501Y0207208D01*
X0105515Y0208806D02*
X0105477Y0208806D01*
X0101136Y0210405D02*
X0088275Y0210405D01*
X0112895Y0226025D02*
X0116170Y0229300D01*
X0117400Y0230530D01*
X0117400Y0243095D01*
X0119095Y0241400D01*
X0122905Y0241400D01*
X0124318Y0242812D01*
X0125230Y0241900D01*
X0133900Y0233230D01*
X0133900Y0226025D01*
X0133684Y0226025D01*
X0133504Y0225845D01*
X0133483Y0225866D01*
X0133073Y0226103D01*
X0132615Y0226225D01*
X0130594Y0226225D01*
X0130594Y0218704D01*
X0130225Y0218704D01*
X0130225Y0226225D01*
X0128204Y0226225D01*
X0127746Y0226103D01*
X0127336Y0225866D01*
X0127315Y0225845D01*
X0127135Y0226025D01*
X0121873Y0226025D01*
X0121551Y0225704D01*
X0121230Y0226025D01*
X0115967Y0226025D01*
X0115646Y0225704D01*
X0115324Y0226025D01*
X0112895Y0226025D01*
X0113260Y0226390D02*
X0133900Y0226390D01*
X0133900Y0227989D02*
X0114858Y0227989D01*
X0116170Y0229300D02*
X0116170Y0229300D01*
X0116457Y0229587D02*
X0133900Y0229587D01*
X0133900Y0231186D02*
X0117400Y0231186D01*
X0117400Y0232784D02*
X0133900Y0232784D01*
X0132747Y0234383D02*
X0117400Y0234383D01*
X0117400Y0235981D02*
X0131149Y0235981D01*
X0129550Y0237580D02*
X0117400Y0237580D01*
X0117400Y0239178D02*
X0127952Y0239178D01*
X0126353Y0240777D02*
X0117400Y0240777D01*
X0117400Y0242375D02*
X0118119Y0242375D01*
X0123881Y0242375D02*
X0124755Y0242375D01*
X0126611Y0259959D02*
X0128453Y0259959D01*
X0125012Y0261557D02*
X0137088Y0261557D01*
X0138686Y0263156D02*
X0123414Y0263156D01*
X0133547Y0259959D02*
X0135489Y0259959D01*
X0148614Y0263156D02*
X0237107Y0263156D01*
X0189400Y0226390D02*
X0156100Y0226390D01*
X0156100Y0224792D02*
X0189400Y0224792D01*
X0189400Y0223193D02*
X0156100Y0223193D01*
X0156100Y0221595D02*
X0189400Y0221595D01*
X0189400Y0219996D02*
X0156100Y0219996D01*
X0156100Y0218398D02*
X0189400Y0218398D01*
X0189400Y0216799D02*
X0156100Y0216799D01*
X0156100Y0215201D02*
X0189537Y0215201D01*
X0190832Y0213602D02*
X0156100Y0213602D01*
X0156100Y0212003D02*
X0189234Y0212003D01*
X0187635Y0210405D02*
X0156100Y0210405D01*
X0156100Y0208806D02*
X0186037Y0208806D01*
X0184438Y0207208D02*
X0156100Y0207208D01*
X0159682Y0205609D02*
X0182840Y0205609D01*
X0130594Y0219996D02*
X0130225Y0219996D01*
X0130225Y0221595D02*
X0130594Y0221595D01*
X0130594Y0223193D02*
X0130225Y0223193D01*
X0130225Y0224792D02*
X0130594Y0224792D01*
X0137077Y0146465D02*
X0108520Y0146465D01*
X0114700Y0120888D02*
X0116800Y0120888D01*
X0116800Y0119290D02*
X0114700Y0119290D01*
X0114700Y0117691D02*
X0116800Y0117691D01*
X0116800Y0116093D02*
X0114700Y0116093D01*
X0114700Y0114494D02*
X0116800Y0114494D01*
X0116800Y0112896D02*
X0114700Y0112896D01*
X0114267Y0111297D02*
X0118133Y0111297D01*
X0119731Y0109699D02*
X0112669Y0109699D01*
X0111070Y0108100D02*
X0121330Y0108100D01*
X0118485Y0104903D02*
X0113515Y0104903D01*
X0114990Y0103305D02*
X0117010Y0103305D01*
X0116431Y0101706D02*
X0115568Y0101706D01*
X0115568Y0100108D02*
X0116431Y0100108D01*
X0117087Y0098509D02*
X0114913Y0098509D01*
X0113066Y0096911D02*
X0118934Y0096911D01*
X0139883Y0125684D02*
X0173946Y0125684D01*
X0172348Y0127282D02*
X0139883Y0127282D01*
X0139883Y0128881D02*
X0170749Y0128881D01*
X0169151Y0130479D02*
X0139883Y0130479D01*
X0139883Y0132078D02*
X0167552Y0132078D01*
X0165954Y0133676D02*
X0139883Y0133676D01*
X0144398Y0135275D02*
X0144767Y0135275D01*
X0144767Y0136873D02*
X0144398Y0136873D01*
X0152012Y0135275D02*
X0164355Y0135275D01*
X0162757Y0136873D02*
X0152288Y0136873D01*
X0152288Y0138472D02*
X0161158Y0138472D01*
X0159560Y0140070D02*
X0152288Y0140070D01*
X0152088Y0141669D02*
X0157961Y0141669D01*
X0215660Y0072933D02*
X0220930Y0072933D01*
X0222882Y0074532D02*
X0217644Y0074532D01*
X0219629Y0076130D02*
X0224834Y0076130D01*
X0226786Y0077729D02*
X0221613Y0077729D01*
X0223597Y0079327D02*
X0227025Y0079327D01*
X0227025Y0080926D02*
X0225582Y0080926D01*
X0218978Y0071334D02*
X0213676Y0071334D01*
X0245977Y0023379D02*
X0249901Y0023379D01*
X0249901Y0021781D02*
X0247575Y0021781D01*
X0248725Y0020182D02*
X0249901Y0020182D01*
X0249901Y0018584D02*
X0249387Y0018584D01*
X0249737Y0016985D02*
X0249901Y0016985D01*
X0249901Y0015387D02*
X0249737Y0015387D01*
X0249901Y0013788D02*
X0249541Y0013788D01*
X0249901Y0012190D02*
X0248879Y0012190D01*
D25*
X0190961Y0045291D03*
X0190961Y0056118D03*
X0125016Y0045291D03*
M02*
