G04 EAGLE Gerber RS-274X export*
G75*
%MOMM*%
%FSLAX34Y34*%
%LPD*%
%INTop Copper*%
%IPPOS*%
%AMOC8*
5,1,8,0,0,1.08239X$1,22.5*%
G01*
%ADD10R,1.000000X3.000000*%
%ADD11R,3.000000X1.000000*%
%ADD12P,1.649562X8X22.500000*%
%ADD13R,1.117600X1.752600*%
%ADD14R,4.064000X4.064000*%
%ADD15R,5.080000X2.540000*%
%ADD16C,3.556000*%
%ADD17R,1.508000X1.508000*%
%ADD18C,1.508000*%
%ADD19C,1.524000*%
%ADD20C,0.254000*%
%ADD21C,0.906400*%
%ADD22C,1.016000*%
%ADD23C,0.406400*%
%ADD24R,1.006400X1.006400*%

G36*
X590925Y23370D02*
X590925Y23370D01*
X590934Y23369D01*
X591125Y23390D01*
X591316Y23409D01*
X591325Y23411D01*
X591334Y23412D01*
X591517Y23470D01*
X591701Y23527D01*
X591709Y23531D01*
X591718Y23534D01*
X591886Y23627D01*
X592055Y23719D01*
X592062Y23724D01*
X592070Y23729D01*
X592218Y23854D01*
X592365Y23976D01*
X592370Y23983D01*
X592377Y23989D01*
X592497Y24140D01*
X592617Y24290D01*
X592621Y24298D01*
X592627Y24305D01*
X592714Y24478D01*
X592802Y24647D01*
X592805Y24656D01*
X592809Y24664D01*
X592861Y24851D01*
X592914Y25034D01*
X592915Y25043D01*
X592917Y25052D01*
X592931Y25243D01*
X592947Y25436D01*
X592946Y25445D01*
X592946Y25454D01*
X592922Y25644D01*
X592900Y25835D01*
X592897Y25844D01*
X592896Y25853D01*
X592835Y26035D01*
X592775Y26218D01*
X592771Y26226D01*
X592768Y26235D01*
X592672Y26401D01*
X592577Y26569D01*
X592571Y26576D01*
X592567Y26584D01*
X592531Y26625D01*
X589439Y34090D01*
X589439Y42110D01*
X592509Y49520D01*
X598180Y55191D01*
X605590Y58261D01*
X613610Y58261D01*
X621020Y55191D01*
X626691Y49520D01*
X629761Y42110D01*
X629761Y34090D01*
X626662Y26610D01*
X626593Y26525D01*
X626589Y26517D01*
X626583Y26510D01*
X626495Y26339D01*
X626404Y26169D01*
X626402Y26161D01*
X626398Y26153D01*
X626344Y25967D01*
X626289Y25783D01*
X626289Y25775D01*
X626286Y25766D01*
X626270Y25574D01*
X626253Y25382D01*
X626254Y25373D01*
X626253Y25364D01*
X626276Y25174D01*
X626296Y24982D01*
X626299Y24974D01*
X626300Y24965D01*
X626360Y24782D01*
X626418Y24598D01*
X626422Y24590D01*
X626425Y24582D01*
X626519Y24415D01*
X626613Y24246D01*
X626618Y24239D01*
X626623Y24231D01*
X626748Y24086D01*
X626873Y23939D01*
X626880Y23933D01*
X626886Y23927D01*
X627037Y23810D01*
X627189Y23689D01*
X627197Y23685D01*
X627204Y23680D01*
X627376Y23594D01*
X627548Y23507D01*
X627557Y23505D01*
X627565Y23500D01*
X627752Y23450D01*
X627936Y23399D01*
X627945Y23398D01*
X627953Y23396D01*
X628284Y23369D01*
X632208Y23369D01*
X632226Y23371D01*
X632244Y23369D01*
X632426Y23390D01*
X632609Y23409D01*
X632626Y23414D01*
X632643Y23416D01*
X632818Y23473D01*
X632994Y23527D01*
X633009Y23535D01*
X633026Y23541D01*
X633186Y23631D01*
X633348Y23719D01*
X633361Y23730D01*
X633377Y23739D01*
X633516Y23859D01*
X633657Y23976D01*
X633668Y23990D01*
X633682Y24002D01*
X633794Y24147D01*
X633909Y24290D01*
X633917Y24306D01*
X633928Y24320D01*
X634010Y24485D01*
X634095Y24647D01*
X634100Y24664D01*
X634108Y24681D01*
X634155Y24859D01*
X634206Y25034D01*
X634208Y25052D01*
X634212Y25069D01*
X634239Y25400D01*
X634239Y711200D01*
X634237Y711218D01*
X634239Y711236D01*
X634218Y711418D01*
X634199Y711601D01*
X634194Y711618D01*
X634192Y711635D01*
X634135Y711810D01*
X634081Y711986D01*
X634073Y712001D01*
X634067Y712018D01*
X633977Y712178D01*
X633889Y712340D01*
X633878Y712353D01*
X633869Y712369D01*
X633749Y712508D01*
X633632Y712649D01*
X633618Y712660D01*
X633606Y712674D01*
X633461Y712786D01*
X633318Y712901D01*
X633302Y712909D01*
X633288Y712920D01*
X633123Y713002D01*
X632961Y713087D01*
X632944Y713092D01*
X632928Y713100D01*
X632749Y713147D01*
X632574Y713198D01*
X632556Y713200D01*
X632539Y713204D01*
X632208Y713231D01*
X117900Y713231D01*
X117882Y713229D01*
X117864Y713231D01*
X117682Y713210D01*
X117499Y713191D01*
X117482Y713186D01*
X117465Y713184D01*
X117290Y713127D01*
X117114Y713073D01*
X117099Y713065D01*
X117082Y713059D01*
X116922Y712969D01*
X116760Y712881D01*
X116747Y712870D01*
X116731Y712861D01*
X116592Y712741D01*
X116451Y712624D01*
X116440Y712610D01*
X116427Y712598D01*
X116314Y712453D01*
X116199Y712310D01*
X116191Y712294D01*
X116180Y712280D01*
X116098Y712115D01*
X116013Y711953D01*
X116008Y711936D01*
X116000Y711920D01*
X115953Y711741D01*
X115902Y711566D01*
X115900Y711548D01*
X115896Y711531D01*
X115869Y711200D01*
X115869Y261311D01*
X115870Y261302D01*
X115869Y261293D01*
X115890Y261101D01*
X115909Y260910D01*
X115911Y260901D01*
X115912Y260892D01*
X115970Y260710D01*
X116027Y260525D01*
X116031Y260517D01*
X116034Y260509D01*
X116127Y260340D01*
X116219Y260171D01*
X116224Y260164D01*
X116229Y260156D01*
X116353Y260009D01*
X116476Y259862D01*
X116483Y259856D01*
X116489Y259849D01*
X116640Y259730D01*
X116790Y259609D01*
X116798Y259605D01*
X116805Y259600D01*
X116978Y259512D01*
X117147Y259424D01*
X117156Y259421D01*
X117164Y259417D01*
X117350Y259365D01*
X117534Y259312D01*
X117543Y259312D01*
X117552Y259309D01*
X117745Y259295D01*
X117936Y259280D01*
X117944Y259281D01*
X117953Y259280D01*
X118146Y259304D01*
X118335Y259326D01*
X118344Y259329D01*
X118353Y259330D01*
X118535Y259392D01*
X118718Y259451D01*
X118726Y259456D01*
X118734Y259459D01*
X118900Y259554D01*
X119069Y259649D01*
X119076Y259655D01*
X119083Y259660D01*
X119336Y259874D01*
X121578Y262115D01*
X124230Y263214D01*
X124231Y263214D01*
X125096Y263573D01*
X128904Y263573D01*
X132422Y262115D01*
X134061Y260477D01*
X134075Y260465D01*
X134087Y260452D01*
X134231Y260338D01*
X134373Y260222D01*
X134388Y260213D01*
X134403Y260202D01*
X134567Y260119D01*
X134728Y260033D01*
X134745Y260028D01*
X134761Y260020D01*
X134939Y259970D01*
X135114Y259918D01*
X135132Y259917D01*
X135149Y259912D01*
X135332Y259898D01*
X135515Y259882D01*
X135533Y259884D01*
X135551Y259882D01*
X135733Y259905D01*
X135916Y259925D01*
X135933Y259931D01*
X135950Y259933D01*
X136124Y259991D01*
X136299Y260047D01*
X136315Y260055D01*
X136332Y260061D01*
X136491Y260152D01*
X136652Y260241D01*
X136665Y260253D01*
X136681Y260262D01*
X136934Y260477D01*
X180604Y304147D01*
X180621Y304168D01*
X180642Y304185D01*
X180749Y304323D01*
X180859Y304459D01*
X180872Y304482D01*
X180888Y304503D01*
X180966Y304660D01*
X181048Y304814D01*
X181056Y304840D01*
X181068Y304864D01*
X181113Y305033D01*
X181163Y305200D01*
X181165Y305227D01*
X181172Y305253D01*
X181199Y305583D01*
X181199Y324032D01*
X181197Y324050D01*
X181199Y324067D01*
X181178Y324249D01*
X181159Y324432D01*
X181154Y324449D01*
X181152Y324467D01*
X181139Y324508D01*
X181166Y324602D01*
X181168Y324620D01*
X181172Y324637D01*
X181199Y324968D01*
X181199Y342041D01*
X184035Y342041D01*
X184681Y341868D01*
X185363Y341474D01*
X185434Y341415D01*
X185450Y341407D01*
X185464Y341396D01*
X185629Y341312D01*
X185790Y341227D01*
X185807Y341221D01*
X185823Y341213D01*
X186001Y341164D01*
X186176Y341112D01*
X186194Y341110D01*
X186211Y341105D01*
X186394Y341092D01*
X186577Y341075D01*
X186595Y341077D01*
X186613Y341076D01*
X186794Y341099D01*
X186977Y341119D01*
X186994Y341124D01*
X187012Y341126D01*
X187185Y341185D01*
X187361Y341240D01*
X187377Y341249D01*
X187394Y341255D01*
X187553Y341346D01*
X187713Y341435D01*
X187727Y341447D01*
X187743Y341456D01*
X187833Y341533D01*
X199543Y341533D01*
X199683Y341422D01*
X199825Y341306D01*
X199841Y341298D01*
X199855Y341287D01*
X200019Y341203D01*
X200181Y341117D01*
X200198Y341112D01*
X200214Y341104D01*
X200391Y341055D01*
X200567Y341003D01*
X200585Y341001D01*
X200602Y340996D01*
X200785Y340983D01*
X200968Y340966D01*
X200986Y340968D01*
X201003Y340967D01*
X201185Y340990D01*
X201368Y341010D01*
X201385Y341015D01*
X201403Y341017D01*
X201576Y341075D01*
X201752Y341131D01*
X201768Y341140D01*
X201784Y341145D01*
X201943Y341237D01*
X202104Y341326D01*
X202118Y341337D01*
X202133Y341346D01*
X202386Y341561D01*
X202858Y342033D01*
X214542Y342033D01*
X214764Y341811D01*
X214778Y341800D01*
X214789Y341786D01*
X214933Y341672D01*
X215075Y341556D01*
X215091Y341548D01*
X215105Y341536D01*
X215269Y341453D01*
X215431Y341367D01*
X215448Y341362D01*
X215464Y341354D01*
X215641Y341305D01*
X215817Y341253D01*
X215835Y341251D01*
X215852Y341246D01*
X216035Y341233D01*
X216218Y341216D01*
X216236Y341218D01*
X216253Y341217D01*
X216435Y341240D01*
X216618Y341260D01*
X216635Y341265D01*
X216653Y341267D01*
X216826Y341325D01*
X217002Y341381D01*
X217018Y341390D01*
X217034Y341395D01*
X217194Y341487D01*
X217354Y341576D01*
X217368Y341587D01*
X217383Y341596D01*
X217636Y341811D01*
X217858Y342033D01*
X219666Y342033D01*
X219684Y342035D01*
X219702Y342033D01*
X219884Y342054D01*
X220067Y342073D01*
X220084Y342078D01*
X220101Y342080D01*
X220276Y342137D01*
X220452Y342191D01*
X220467Y342199D01*
X220484Y342205D01*
X220644Y342295D01*
X220806Y342383D01*
X220819Y342394D01*
X220835Y342403D01*
X220974Y342523D01*
X221115Y342640D01*
X221126Y342654D01*
X221140Y342666D01*
X221252Y342811D01*
X221367Y342954D01*
X221375Y342970D01*
X221386Y342984D01*
X221468Y343149D01*
X221553Y343311D01*
X221558Y343328D01*
X221566Y343344D01*
X221613Y343523D01*
X221664Y343698D01*
X221666Y343716D01*
X221670Y343733D01*
X221697Y344064D01*
X221697Y388868D01*
X253602Y420773D01*
X253619Y420794D01*
X253640Y420811D01*
X253747Y420949D01*
X253857Y421085D01*
X253870Y421108D01*
X253886Y421129D01*
X253964Y421286D01*
X254046Y421440D01*
X254054Y421466D01*
X254066Y421490D01*
X254111Y421659D01*
X254161Y421826D01*
X254163Y421853D01*
X254170Y421879D01*
X254197Y422209D01*
X254197Y528868D01*
X256727Y531398D01*
X257329Y532000D01*
X257335Y532007D01*
X257341Y532012D01*
X257462Y532162D01*
X257584Y532311D01*
X257588Y532319D01*
X257594Y532326D01*
X257682Y532496D01*
X257773Y532667D01*
X257775Y532676D01*
X257779Y532683D01*
X257832Y532867D01*
X257887Y533053D01*
X257888Y533062D01*
X257891Y533070D01*
X257906Y533261D01*
X257924Y533454D01*
X257923Y533463D01*
X257924Y533472D01*
X257901Y533661D01*
X257880Y533854D01*
X257878Y533863D01*
X257877Y533871D01*
X257817Y534054D01*
X257759Y534238D01*
X257755Y534246D01*
X257752Y534254D01*
X257657Y534423D01*
X257564Y534590D01*
X257558Y534597D01*
X257554Y534605D01*
X257428Y534750D01*
X257304Y534897D01*
X257297Y534903D01*
X257291Y534910D01*
X257140Y535027D01*
X256988Y535147D01*
X256980Y535151D01*
X256973Y535156D01*
X256800Y535242D01*
X256629Y535329D01*
X256620Y535332D01*
X256612Y535336D01*
X256424Y535386D01*
X256241Y535437D01*
X256232Y535438D01*
X256223Y535440D01*
X255893Y535467D01*
X247858Y535467D01*
X247636Y535689D01*
X247623Y535700D01*
X247611Y535714D01*
X247467Y535827D01*
X247325Y535944D01*
X247309Y535952D01*
X247295Y535963D01*
X247132Y536046D01*
X246969Y536133D01*
X246952Y536138D01*
X246936Y536146D01*
X246759Y536195D01*
X246583Y536247D01*
X246565Y536249D01*
X246548Y536254D01*
X246365Y536267D01*
X246182Y536284D01*
X246164Y536282D01*
X246147Y536283D01*
X245965Y536260D01*
X245782Y536240D01*
X245765Y536235D01*
X245747Y536233D01*
X245573Y536174D01*
X245398Y536119D01*
X245383Y536110D01*
X245366Y536105D01*
X245206Y536013D01*
X245046Y535924D01*
X245032Y535913D01*
X245017Y535904D01*
X244764Y535689D01*
X244542Y535467D01*
X232858Y535467D01*
X232636Y535689D01*
X232623Y535700D01*
X232611Y535714D01*
X232467Y535827D01*
X232325Y535944D01*
X232309Y535952D01*
X232295Y535963D01*
X232132Y536046D01*
X231969Y536133D01*
X231952Y536138D01*
X231936Y536146D01*
X231759Y536195D01*
X231583Y536247D01*
X231565Y536249D01*
X231548Y536254D01*
X231365Y536267D01*
X231182Y536284D01*
X231164Y536282D01*
X231147Y536283D01*
X230965Y536260D01*
X230782Y536240D01*
X230765Y536235D01*
X230747Y536233D01*
X230573Y536174D01*
X230398Y536119D01*
X230383Y536110D01*
X230366Y536105D01*
X230206Y536013D01*
X230046Y535924D01*
X230032Y535913D01*
X230017Y535904D01*
X229764Y535689D01*
X229542Y535467D01*
X223225Y535467D01*
X223199Y535465D01*
X223172Y535467D01*
X222998Y535445D01*
X222825Y535427D01*
X222799Y535420D01*
X222773Y535416D01*
X222607Y535361D01*
X222440Y535309D01*
X222416Y535296D01*
X222391Y535288D01*
X222239Y535201D01*
X222086Y535117D01*
X222065Y535100D01*
X222042Y535087D01*
X221789Y534872D01*
X216252Y529335D01*
X172368Y529335D01*
X163575Y538128D01*
X163575Y655164D01*
X176940Y668529D01*
X213966Y668529D01*
X224547Y657948D01*
X224568Y657931D01*
X224585Y657910D01*
X224723Y657803D01*
X224859Y657693D01*
X224882Y657680D01*
X224903Y657664D01*
X225060Y657586D01*
X225214Y657504D01*
X225240Y657496D01*
X225264Y657484D01*
X225433Y657439D01*
X225600Y657389D01*
X225627Y657387D01*
X225653Y657380D01*
X225983Y657353D01*
X232598Y657353D01*
X236607Y653344D01*
X236621Y653333D01*
X236632Y653319D01*
X236776Y653205D01*
X236918Y653089D01*
X236934Y653081D01*
X236948Y653070D01*
X237113Y652986D01*
X237274Y652901D01*
X237291Y652895D01*
X237307Y652887D01*
X237485Y652838D01*
X237660Y652786D01*
X237678Y652784D01*
X237695Y652779D01*
X237878Y652766D01*
X238061Y652749D01*
X238079Y652751D01*
X238096Y652750D01*
X238278Y652773D01*
X238461Y652793D01*
X238478Y652798D01*
X238496Y652800D01*
X238670Y652859D01*
X238845Y652914D01*
X238861Y652923D01*
X238878Y652929D01*
X239037Y653020D01*
X239197Y653109D01*
X239211Y653121D01*
X239226Y653130D01*
X239479Y653344D01*
X250092Y663957D01*
X309978Y663957D01*
X319956Y653979D01*
X319969Y653968D01*
X319981Y653954D01*
X320125Y653841D01*
X320267Y653724D01*
X320283Y653716D01*
X320297Y653705D01*
X320461Y653621D01*
X320623Y653536D01*
X320640Y653530D01*
X320656Y653522D01*
X320833Y653473D01*
X321009Y653421D01*
X321026Y653419D01*
X321044Y653414D01*
X321227Y653401D01*
X321410Y653384D01*
X321427Y653386D01*
X321445Y653385D01*
X321627Y653408D01*
X321810Y653428D01*
X321827Y653433D01*
X321845Y653435D01*
X322018Y653494D01*
X322194Y653549D01*
X322209Y653558D01*
X322226Y653564D01*
X322386Y653655D01*
X322546Y653744D01*
X322560Y653756D01*
X322575Y653765D01*
X322828Y653979D01*
X326202Y657353D01*
X334198Y657353D01*
X337699Y653852D01*
X337713Y653841D01*
X337724Y653827D01*
X337868Y653713D01*
X338010Y653597D01*
X338026Y653589D01*
X338040Y653578D01*
X338204Y653494D01*
X338366Y653409D01*
X338383Y653403D01*
X338399Y653395D01*
X338576Y653346D01*
X338752Y653294D01*
X338770Y653292D01*
X338787Y653287D01*
X338970Y653274D01*
X339153Y653257D01*
X339171Y653259D01*
X339188Y653258D01*
X339370Y653281D01*
X339553Y653301D01*
X339570Y653306D01*
X339588Y653308D01*
X339761Y653367D01*
X339937Y653422D01*
X339953Y653431D01*
X339970Y653437D01*
X340129Y653528D01*
X340289Y653617D01*
X340303Y653629D01*
X340318Y653638D01*
X340571Y653852D01*
X350676Y663957D01*
X373986Y663957D01*
X391923Y646020D01*
X391923Y520383D01*
X391924Y520370D01*
X391923Y520357D01*
X391944Y520170D01*
X391963Y519983D01*
X391967Y519970D01*
X391968Y519956D01*
X392025Y519778D01*
X392081Y519598D01*
X392087Y519586D01*
X392091Y519573D01*
X392183Y519409D01*
X392273Y519244D01*
X392281Y519233D01*
X392288Y519222D01*
X392410Y519078D01*
X392530Y518934D01*
X392541Y518926D01*
X392549Y518916D01*
X392698Y518799D01*
X392844Y518682D01*
X392856Y518676D01*
X392866Y518668D01*
X393036Y518583D01*
X393201Y518497D01*
X393214Y518493D01*
X393226Y518487D01*
X393409Y518437D01*
X393588Y518385D01*
X393602Y518384D01*
X393615Y518381D01*
X393803Y518368D01*
X393990Y518352D01*
X394003Y518354D01*
X394016Y518353D01*
X394204Y518377D01*
X394389Y518399D01*
X394402Y518403D01*
X394415Y518405D01*
X394731Y518507D01*
X396349Y519177D01*
X399179Y519177D01*
X401793Y518094D01*
X403925Y515962D01*
X403946Y515945D01*
X403963Y515924D01*
X404101Y515817D01*
X404237Y515707D01*
X404260Y515694D01*
X404282Y515678D01*
X404438Y515600D01*
X404592Y515518D01*
X404618Y515510D01*
X404642Y515498D01*
X404811Y515453D01*
X404978Y515403D01*
X405005Y515401D01*
X405031Y515394D01*
X405362Y515367D01*
X459563Y515367D01*
X459589Y515369D01*
X459616Y515367D01*
X459790Y515389D01*
X459963Y515407D01*
X459989Y515414D01*
X460015Y515418D01*
X460181Y515473D01*
X460348Y515525D01*
X460372Y515538D01*
X460397Y515546D01*
X460549Y515633D01*
X460702Y515717D01*
X460723Y515734D01*
X460746Y515747D01*
X460999Y515962D01*
X485637Y540600D01*
X485643Y540607D01*
X485649Y540612D01*
X485770Y540762D01*
X485892Y540911D01*
X485896Y540919D01*
X485902Y540926D01*
X485991Y541097D01*
X486081Y541267D01*
X486083Y541275D01*
X486087Y541283D01*
X486141Y541469D01*
X486195Y541653D01*
X486196Y541662D01*
X486199Y541670D01*
X486214Y541862D01*
X486232Y542054D01*
X486231Y542063D01*
X486232Y542072D01*
X486210Y542259D01*
X486188Y542454D01*
X486186Y542463D01*
X486185Y542471D01*
X486125Y542653D01*
X486067Y542838D01*
X486063Y542846D01*
X486060Y542854D01*
X485965Y543023D01*
X485872Y543190D01*
X485866Y543197D01*
X485862Y543205D01*
X485736Y543351D01*
X485612Y543497D01*
X485605Y543503D01*
X485599Y543510D01*
X485447Y543627D01*
X485296Y543747D01*
X485288Y543751D01*
X485281Y543756D01*
X485109Y543842D01*
X484937Y543929D01*
X484928Y543932D01*
X484920Y543936D01*
X484734Y543986D01*
X484549Y544037D01*
X484540Y544038D01*
X484531Y544040D01*
X484201Y544067D01*
X481758Y544067D01*
X480567Y545258D01*
X480567Y572342D01*
X481758Y573533D01*
X534242Y573533D01*
X535433Y572342D01*
X535433Y545258D01*
X534242Y544067D01*
X499287Y544067D01*
X499261Y544065D01*
X499234Y544067D01*
X499060Y544045D01*
X498887Y544027D01*
X498861Y544020D01*
X498835Y544016D01*
X498669Y543961D01*
X498502Y543909D01*
X498478Y543896D01*
X498453Y543888D01*
X498301Y543801D01*
X498148Y543717D01*
X498127Y543700D01*
X498104Y543687D01*
X497851Y543472D01*
X465670Y511291D01*
X465653Y511270D01*
X465632Y511253D01*
X465525Y511115D01*
X465415Y510979D01*
X465402Y510956D01*
X465386Y510935D01*
X465308Y510778D01*
X465226Y510624D01*
X465218Y510598D01*
X465206Y510574D01*
X465161Y510405D01*
X465111Y510238D01*
X465109Y510211D01*
X465102Y510185D01*
X465075Y509855D01*
X465075Y445693D01*
X465077Y445667D01*
X465075Y445640D01*
X465097Y445466D01*
X465115Y445293D01*
X465122Y445267D01*
X465126Y445241D01*
X465181Y445075D01*
X465233Y444908D01*
X465246Y444884D01*
X465254Y444859D01*
X465341Y444707D01*
X465425Y444554D01*
X465442Y444533D01*
X465455Y444510D01*
X465670Y444257D01*
X481672Y428255D01*
X481679Y428249D01*
X481684Y428243D01*
X481834Y428122D01*
X481983Y428000D01*
X481991Y427996D01*
X481998Y427990D01*
X482168Y427902D01*
X482339Y427811D01*
X482348Y427809D01*
X482355Y427805D01*
X482540Y427752D01*
X482725Y427697D01*
X482734Y427696D01*
X482742Y427693D01*
X482934Y427678D01*
X483126Y427660D01*
X483135Y427661D01*
X483144Y427660D01*
X483333Y427683D01*
X483526Y427704D01*
X483535Y427706D01*
X483543Y427707D01*
X483725Y427767D01*
X483910Y427825D01*
X483918Y427829D01*
X483926Y427832D01*
X484095Y427927D01*
X484262Y428020D01*
X484269Y428026D01*
X484277Y428030D01*
X484423Y428156D01*
X484569Y428280D01*
X484575Y428287D01*
X484582Y428293D01*
X484699Y428445D01*
X484819Y428596D01*
X484823Y428604D01*
X484828Y428611D01*
X484914Y428783D01*
X485001Y428955D01*
X485004Y428964D01*
X485008Y428972D01*
X485058Y429158D01*
X485109Y429343D01*
X485110Y429352D01*
X485112Y429361D01*
X485139Y429691D01*
X485139Y440437D01*
X503937Y440437D01*
X503937Y421639D01*
X493191Y421639D01*
X493183Y421638D01*
X493174Y421639D01*
X492980Y421618D01*
X492791Y421599D01*
X492782Y421597D01*
X492773Y421596D01*
X492588Y421537D01*
X492406Y421481D01*
X492398Y421477D01*
X492389Y421474D01*
X492220Y421381D01*
X492052Y421289D01*
X492045Y421284D01*
X492037Y421279D01*
X491890Y421155D01*
X491743Y421032D01*
X491737Y421025D01*
X491730Y421019D01*
X491610Y420867D01*
X491490Y420718D01*
X491486Y420710D01*
X491481Y420703D01*
X491393Y420530D01*
X491305Y420361D01*
X491302Y420352D01*
X491298Y420344D01*
X491246Y420158D01*
X491193Y419974D01*
X491193Y419965D01*
X491190Y419956D01*
X491176Y419763D01*
X491160Y419572D01*
X491161Y419564D01*
X491161Y419555D01*
X491185Y419362D01*
X491207Y419173D01*
X491210Y419164D01*
X491211Y419155D01*
X491273Y418972D01*
X491332Y418790D01*
X491337Y418782D01*
X491339Y418774D01*
X491436Y418607D01*
X491530Y418439D01*
X491536Y418432D01*
X491540Y418425D01*
X491755Y418172D01*
X510795Y399132D01*
X510795Y346964D01*
X510797Y346946D01*
X510795Y346928D01*
X510816Y346746D01*
X510835Y346563D01*
X510840Y346546D01*
X510842Y346529D01*
X510899Y346354D01*
X510953Y346178D01*
X510961Y346163D01*
X510967Y346146D01*
X511057Y345986D01*
X511145Y345824D01*
X511156Y345811D01*
X511165Y345795D01*
X511285Y345656D01*
X511402Y345515D01*
X511416Y345504D01*
X511428Y345490D01*
X511573Y345378D01*
X511716Y345263D01*
X511732Y345255D01*
X511746Y345244D01*
X511911Y345162D01*
X512073Y345077D01*
X512090Y345072D01*
X512106Y345064D01*
X512285Y345017D01*
X512460Y344966D01*
X512478Y344964D01*
X512495Y344960D01*
X512826Y344933D01*
X534242Y344933D01*
X535433Y343742D01*
X535433Y316658D01*
X534242Y315467D01*
X482777Y315467D01*
X482769Y315466D01*
X482760Y315467D01*
X482566Y315446D01*
X482377Y315427D01*
X482368Y315425D01*
X482359Y315424D01*
X482175Y315365D01*
X481992Y315309D01*
X481984Y315305D01*
X481975Y315302D01*
X481807Y315209D01*
X481638Y315117D01*
X481631Y315112D01*
X481623Y315107D01*
X481476Y314983D01*
X481329Y314860D01*
X481323Y314853D01*
X481316Y314847D01*
X481196Y314695D01*
X481076Y314546D01*
X481072Y314538D01*
X481067Y314531D01*
X480979Y314358D01*
X480891Y314189D01*
X480888Y314180D01*
X480884Y314172D01*
X480832Y313985D01*
X480779Y313802D01*
X480779Y313793D01*
X480776Y313784D01*
X480762Y313591D01*
X480746Y313400D01*
X480747Y313392D01*
X480747Y313383D01*
X480771Y313190D01*
X480793Y313001D01*
X480796Y312992D01*
X480797Y312983D01*
X480858Y312801D01*
X480918Y312618D01*
X480923Y312610D01*
X480925Y312602D01*
X481022Y312435D01*
X481116Y312267D01*
X481122Y312260D01*
X481126Y312253D01*
X481341Y312000D01*
X524267Y269074D01*
X526797Y266544D01*
X526797Y254920D01*
X526798Y254911D01*
X526797Y254902D01*
X526797Y254898D01*
X526797Y254896D01*
X526803Y254844D01*
X526818Y254710D01*
X526837Y254519D01*
X526839Y254511D01*
X526840Y254502D01*
X526898Y254320D01*
X526955Y254135D01*
X526959Y254127D01*
X526962Y254118D01*
X527055Y253950D01*
X527147Y253780D01*
X527152Y253774D01*
X527157Y253766D01*
X527281Y253619D01*
X527404Y253471D01*
X527411Y253466D01*
X527417Y253459D01*
X527568Y253340D01*
X527718Y253219D01*
X527726Y253215D01*
X527733Y253209D01*
X527906Y253121D01*
X528075Y253033D01*
X528084Y253031D01*
X528092Y253027D01*
X528278Y252975D01*
X528462Y252922D01*
X528471Y252921D01*
X528480Y252919D01*
X528673Y252905D01*
X528864Y252889D01*
X528872Y252890D01*
X528881Y252889D01*
X529074Y252914D01*
X529263Y252936D01*
X529272Y252939D01*
X529281Y252940D01*
X529464Y253001D01*
X529646Y253061D01*
X529654Y253065D01*
X529662Y253068D01*
X529829Y253164D01*
X529997Y253259D01*
X530004Y253265D01*
X530011Y253269D01*
X530264Y253484D01*
X534877Y258096D01*
X542159Y261113D01*
X550041Y261113D01*
X557323Y258096D01*
X562896Y252523D01*
X564527Y248586D01*
X564529Y248582D01*
X564531Y248577D01*
X564624Y248405D01*
X564718Y248231D01*
X564720Y248227D01*
X564723Y248223D01*
X564847Y248075D01*
X564974Y247920D01*
X564977Y247917D01*
X564980Y247914D01*
X565136Y247789D01*
X565287Y247667D01*
X565291Y247665D01*
X565294Y247662D01*
X565469Y247571D01*
X565643Y247480D01*
X565647Y247478D01*
X565651Y247476D01*
X565841Y247422D01*
X566030Y247366D01*
X566034Y247366D01*
X566038Y247365D01*
X566236Y247349D01*
X566431Y247332D01*
X566435Y247332D01*
X566440Y247332D01*
X566637Y247355D01*
X566831Y247377D01*
X566835Y247378D01*
X566839Y247379D01*
X567028Y247440D01*
X567214Y247500D01*
X567218Y247502D01*
X567222Y247504D01*
X567395Y247601D01*
X567566Y247696D01*
X567569Y247699D01*
X567573Y247702D01*
X567722Y247830D01*
X567871Y247958D01*
X567874Y247962D01*
X567878Y247965D01*
X567997Y248119D01*
X568120Y248275D01*
X568122Y248279D01*
X568124Y248283D01*
X568212Y248459D01*
X568300Y248635D01*
X568302Y248639D01*
X568304Y248643D01*
X568355Y248836D01*
X568407Y249023D01*
X568407Y249028D01*
X568408Y249032D01*
X568435Y249363D01*
X568435Y273336D01*
X568418Y273509D01*
X568406Y273681D01*
X568398Y273708D01*
X568395Y273736D01*
X568344Y273902D01*
X568298Y274069D01*
X568285Y274097D01*
X568277Y274121D01*
X568237Y274195D01*
X568153Y274368D01*
X559285Y289399D01*
X559240Y289461D01*
X559202Y289528D01*
X559121Y289623D01*
X559047Y289724D01*
X558990Y289776D01*
X558940Y289834D01*
X558842Y289911D01*
X558750Y289995D01*
X558684Y290035D01*
X558623Y290082D01*
X558512Y290138D01*
X558405Y290202D01*
X558332Y290228D01*
X558264Y290263D01*
X558143Y290296D01*
X558026Y290338D01*
X557949Y290349D01*
X557875Y290369D01*
X557751Y290378D01*
X557627Y290396D01*
X557550Y290392D01*
X557474Y290397D01*
X557350Y290381D01*
X557225Y290374D01*
X557151Y290355D01*
X557074Y290345D01*
X556920Y290295D01*
X556836Y290273D01*
X556803Y290257D01*
X556758Y290243D01*
X556720Y290227D01*
X552880Y290227D01*
X549332Y291697D01*
X546617Y294412D01*
X545147Y297960D01*
X545147Y317040D01*
X546617Y320588D01*
X549332Y323303D01*
X551381Y324152D01*
X552880Y324773D01*
X556720Y324773D01*
X560268Y323303D01*
X562983Y320588D01*
X564453Y317040D01*
X564453Y297907D01*
X564416Y297798D01*
X564412Y297766D01*
X564403Y297735D01*
X564387Y297566D01*
X564365Y297399D01*
X564368Y297366D01*
X564364Y297334D01*
X564382Y297165D01*
X564394Y296997D01*
X564403Y296966D01*
X564406Y296934D01*
X564456Y296772D01*
X564502Y296609D01*
X564517Y296576D01*
X564526Y296549D01*
X564567Y296474D01*
X564646Y296311D01*
X572355Y283246D01*
X572392Y283194D01*
X572423Y283138D01*
X572511Y283032D01*
X572593Y282921D01*
X572640Y282878D01*
X572680Y282829D01*
X572788Y282743D01*
X572890Y282649D01*
X572945Y282616D01*
X572994Y282577D01*
X573116Y282513D01*
X573235Y282442D01*
X573295Y282420D01*
X573351Y282391D01*
X573484Y282353D01*
X573614Y282306D01*
X573677Y282297D01*
X573738Y282280D01*
X573876Y282268D01*
X574012Y282249D01*
X574076Y282252D01*
X574140Y282247D01*
X574277Y282263D01*
X574415Y282270D01*
X574476Y282286D01*
X574539Y282294D01*
X574671Y282337D01*
X574804Y282371D01*
X574862Y282399D01*
X574922Y282419D01*
X575042Y282486D01*
X575167Y282547D01*
X575217Y282585D01*
X575273Y282616D01*
X575377Y282707D01*
X575487Y282790D01*
X575529Y282838D01*
X575578Y282880D01*
X575662Y282989D01*
X575753Y283092D01*
X575785Y283147D01*
X575824Y283198D01*
X575886Y283321D01*
X575955Y283441D01*
X575975Y283501D01*
X576004Y283558D01*
X576040Y283692D01*
X576084Y283822D01*
X576092Y283885D01*
X576108Y283947D01*
X576124Y284138D01*
X576134Y284222D01*
X576133Y284247D01*
X576135Y284278D01*
X576135Y289758D01*
X576133Y289781D01*
X576135Y289803D01*
X576113Y289980D01*
X576095Y290159D01*
X576089Y290180D01*
X576086Y290203D01*
X576030Y290372D01*
X575977Y290544D01*
X575967Y290564D01*
X575960Y290585D01*
X575871Y290740D01*
X575785Y290898D01*
X575771Y290915D01*
X575760Y290934D01*
X575643Y291069D01*
X575528Y291207D01*
X575510Y291221D01*
X575496Y291238D01*
X575354Y291347D01*
X575214Y291460D01*
X575194Y291470D01*
X575176Y291483D01*
X574881Y291635D01*
X574732Y291697D01*
X572017Y294412D01*
X570547Y297960D01*
X570547Y317040D01*
X572017Y320588D01*
X574732Y323303D01*
X576781Y324152D01*
X578280Y324773D01*
X582120Y324773D01*
X585668Y323303D01*
X588383Y320588D01*
X589853Y317040D01*
X589853Y297960D01*
X588383Y294412D01*
X585668Y291697D01*
X585519Y291635D01*
X585499Y291625D01*
X585478Y291618D01*
X585321Y291529D01*
X585164Y291445D01*
X585147Y291431D01*
X585127Y291420D01*
X584992Y291303D01*
X584853Y291188D01*
X584839Y291171D01*
X584822Y291157D01*
X584713Y291015D01*
X584600Y290876D01*
X584589Y290856D01*
X584576Y290838D01*
X584496Y290678D01*
X584413Y290519D01*
X584406Y290498D01*
X584396Y290478D01*
X584350Y290305D01*
X584300Y290133D01*
X584298Y290111D01*
X584292Y290089D01*
X584265Y289758D01*
X584265Y193401D01*
X584278Y193269D01*
X584282Y193138D01*
X584299Y193059D01*
X584305Y193000D01*
X584327Y192927D01*
X584327Y192926D01*
X584275Y192398D01*
X584275Y192319D01*
X584265Y192197D01*
X584265Y191660D01*
X584262Y191650D01*
X584215Y191527D01*
X584201Y191448D01*
X584184Y191391D01*
X584176Y191315D01*
X584176Y191314D01*
X583926Y190847D01*
X583895Y190773D01*
X583839Y190665D01*
X583634Y190168D01*
X583628Y190161D01*
X583537Y190065D01*
X583493Y189997D01*
X583456Y189951D01*
X583420Y189884D01*
X583420Y189883D01*
X583009Y189547D01*
X582953Y189491D01*
X582860Y189412D01*
X582480Y189032D01*
X582472Y189027D01*
X582351Y188973D01*
X582285Y188927D01*
X582233Y188899D01*
X582174Y188850D01*
X582078Y188784D01*
X490309Y113641D01*
X490219Y113551D01*
X490122Y113467D01*
X490077Y113409D01*
X490024Y113356D01*
X489954Y113250D01*
X489876Y113149D01*
X489843Y113083D01*
X489801Y113021D01*
X489753Y112903D01*
X489696Y112789D01*
X489677Y112717D01*
X489649Y112648D01*
X489625Y112523D01*
X489592Y112400D01*
X489585Y112314D01*
X489573Y112253D01*
X489574Y112179D01*
X489565Y112069D01*
X489565Y106626D01*
X488374Y105435D01*
X476626Y105435D01*
X475435Y106626D01*
X475435Y118374D01*
X476626Y119565D01*
X483986Y119565D01*
X484113Y119577D01*
X484241Y119581D01*
X484313Y119597D01*
X484387Y119605D01*
X484509Y119642D01*
X484633Y119670D01*
X484701Y119701D01*
X484772Y119723D01*
X484884Y119783D01*
X485000Y119836D01*
X485071Y119885D01*
X485126Y119915D01*
X485183Y119962D01*
X485273Y120024D01*
X575391Y193816D01*
X575481Y193906D01*
X575578Y193989D01*
X575623Y194048D01*
X575676Y194100D01*
X575746Y194207D01*
X575824Y194307D01*
X575857Y194374D01*
X575899Y194436D01*
X575947Y194554D01*
X576004Y194668D01*
X576023Y194740D01*
X576051Y194808D01*
X576075Y194933D01*
X576108Y195057D01*
X576115Y195143D01*
X576127Y195204D01*
X576126Y195278D01*
X576135Y195387D01*
X576135Y205964D01*
X576125Y206065D01*
X576125Y206167D01*
X576105Y206265D01*
X576095Y206365D01*
X576066Y206462D01*
X576045Y206562D01*
X576007Y206654D01*
X575977Y206750D01*
X575929Y206839D01*
X575889Y206933D01*
X575833Y207016D01*
X575785Y207104D01*
X575721Y207182D01*
X575663Y207266D01*
X575592Y207336D01*
X575528Y207413D01*
X575448Y207477D01*
X575376Y207548D01*
X575292Y207603D01*
X575214Y207665D01*
X575124Y207712D01*
X575039Y207768D01*
X574945Y207805D01*
X574857Y207851D01*
X574759Y207879D01*
X574665Y207917D01*
X574566Y207935D01*
X574470Y207962D01*
X574368Y207971D01*
X574268Y207989D01*
X574168Y207987D01*
X574068Y207995D01*
X573968Y207983D01*
X573866Y207982D01*
X573768Y207960D01*
X573669Y207948D01*
X573572Y207917D01*
X573473Y207895D01*
X573381Y207855D01*
X573286Y207823D01*
X573197Y207773D01*
X573104Y207732D01*
X573004Y207664D01*
X572935Y207626D01*
X572893Y207589D01*
X572830Y207546D01*
X490322Y141081D01*
X490225Y140986D01*
X490122Y140898D01*
X490082Y140845D01*
X490035Y140799D01*
X489959Y140687D01*
X489876Y140579D01*
X489846Y140520D01*
X489809Y140465D01*
X489757Y140340D01*
X489696Y140219D01*
X489679Y140155D01*
X489654Y140094D01*
X489627Y139961D01*
X489592Y139830D01*
X489586Y139754D01*
X489575Y139699D01*
X489575Y139620D01*
X489565Y139499D01*
X489565Y134126D01*
X488374Y132935D01*
X476626Y132935D01*
X475435Y134126D01*
X475435Y145874D01*
X476626Y147065D01*
X484074Y147065D01*
X484193Y147077D01*
X484312Y147079D01*
X484393Y147096D01*
X484475Y147105D01*
X484589Y147140D01*
X484706Y147165D01*
X484781Y147199D01*
X484860Y147223D01*
X484965Y147280D01*
X485074Y147328D01*
X485154Y147382D01*
X485214Y147415D01*
X485267Y147459D01*
X485348Y147514D01*
X567678Y213835D01*
X567775Y213930D01*
X567878Y214019D01*
X567918Y214071D01*
X567965Y214118D01*
X568041Y214230D01*
X568124Y214337D01*
X568154Y214396D01*
X568191Y214451D01*
X568243Y214576D01*
X568304Y214698D01*
X568321Y214762D01*
X568346Y214823D01*
X568373Y214956D01*
X568408Y215087D01*
X568414Y215162D01*
X568425Y215217D01*
X568425Y215296D01*
X568435Y215417D01*
X568435Y233237D01*
X568435Y233242D01*
X568435Y233246D01*
X568415Y233440D01*
X568395Y233638D01*
X568394Y233642D01*
X568394Y233646D01*
X568336Y233832D01*
X568277Y234023D01*
X568275Y234027D01*
X568274Y234031D01*
X568180Y234202D01*
X568085Y234377D01*
X568083Y234380D01*
X568080Y234384D01*
X567953Y234536D01*
X567828Y234686D01*
X567824Y234689D01*
X567821Y234692D01*
X567667Y234815D01*
X567514Y234938D01*
X567510Y234940D01*
X567507Y234943D01*
X567332Y235033D01*
X567157Y235124D01*
X567152Y235125D01*
X567148Y235127D01*
X566961Y235180D01*
X566770Y235235D01*
X566765Y235236D01*
X566761Y235237D01*
X566568Y235252D01*
X566368Y235268D01*
X566364Y235268D01*
X566360Y235268D01*
X566167Y235244D01*
X565969Y235221D01*
X565964Y235220D01*
X565960Y235219D01*
X565777Y235159D01*
X565586Y235096D01*
X565582Y235094D01*
X565578Y235093D01*
X565409Y234997D01*
X565235Y234898D01*
X565232Y234896D01*
X565228Y234893D01*
X565079Y234763D01*
X564931Y234635D01*
X564928Y234632D01*
X564924Y234629D01*
X564804Y234472D01*
X564684Y234317D01*
X564682Y234313D01*
X564679Y234310D01*
X564527Y234014D01*
X562896Y230077D01*
X557323Y224504D01*
X556843Y224305D01*
X556842Y224304D01*
X550041Y221487D01*
X542159Y221487D01*
X534877Y224504D01*
X529304Y230077D01*
X526549Y236728D01*
X526542Y236740D01*
X526538Y236753D01*
X526447Y236918D01*
X526358Y237083D01*
X526350Y237093D01*
X526343Y237105D01*
X526222Y237248D01*
X526102Y237393D01*
X526092Y237402D01*
X526083Y237412D01*
X525935Y237529D01*
X525789Y237647D01*
X525778Y237653D01*
X525767Y237661D01*
X525599Y237747D01*
X525433Y237834D01*
X525420Y237838D01*
X525408Y237844D01*
X525226Y237894D01*
X525046Y237947D01*
X525033Y237948D01*
X525020Y237952D01*
X524832Y237966D01*
X524645Y237982D01*
X524632Y237980D01*
X524619Y237981D01*
X524430Y237957D01*
X524245Y237937D01*
X524233Y237932D01*
X524219Y237931D01*
X524041Y237871D01*
X523862Y237813D01*
X523850Y237807D01*
X523838Y237803D01*
X523674Y237709D01*
X523510Y237617D01*
X523500Y237608D01*
X523489Y237602D01*
X523236Y237387D01*
X348157Y62308D01*
X348154Y62305D01*
X348151Y62302D01*
X348027Y62149D01*
X347902Y61997D01*
X347900Y61993D01*
X347897Y61989D01*
X347804Y61812D01*
X347713Y61641D01*
X347712Y61637D01*
X347710Y61633D01*
X347653Y61439D01*
X347599Y61255D01*
X347598Y61251D01*
X347597Y61247D01*
X347580Y61053D01*
X347562Y60854D01*
X347563Y60850D01*
X347562Y60845D01*
X347584Y60655D01*
X347606Y60454D01*
X347607Y60450D01*
X347608Y60445D01*
X347667Y60259D01*
X347727Y60070D01*
X347729Y60066D01*
X347731Y60062D01*
X347828Y59888D01*
X347922Y59718D01*
X347925Y59714D01*
X347927Y59711D01*
X348056Y59560D01*
X348182Y59411D01*
X348186Y59408D01*
X348189Y59405D01*
X348344Y59283D01*
X348498Y59161D01*
X348502Y59159D01*
X348506Y59156D01*
X348681Y59068D01*
X348857Y58979D01*
X348862Y58978D01*
X348866Y58976D01*
X349054Y58924D01*
X349245Y58871D01*
X349250Y58871D01*
X349254Y58869D01*
X349450Y58856D01*
X349647Y58842D01*
X349651Y58842D01*
X349656Y58842D01*
X349851Y58867D01*
X350046Y58892D01*
X350050Y58893D01*
X350055Y58894D01*
X350371Y58995D01*
X353696Y60373D01*
X357504Y60373D01*
X361023Y58915D01*
X363715Y56223D01*
X365173Y52704D01*
X365173Y48896D01*
X363715Y45377D01*
X361023Y42685D01*
X357504Y41227D01*
X353696Y41227D01*
X350177Y42685D01*
X347485Y45377D01*
X346027Y48896D01*
X346027Y52704D01*
X347405Y56029D01*
X347406Y56033D01*
X347408Y56037D01*
X347465Y56228D01*
X347521Y56415D01*
X347521Y56419D01*
X347523Y56423D01*
X347541Y56621D01*
X347559Y56815D01*
X347559Y56820D01*
X347559Y56824D01*
X347538Y57023D01*
X347517Y57216D01*
X347516Y57220D01*
X347516Y57225D01*
X347456Y57412D01*
X347398Y57600D01*
X347396Y57604D01*
X347394Y57608D01*
X347298Y57782D01*
X347204Y57953D01*
X347202Y57957D01*
X347199Y57961D01*
X347072Y58110D01*
X346945Y58262D01*
X346942Y58264D01*
X346939Y58268D01*
X346785Y58389D01*
X346630Y58513D01*
X346626Y58515D01*
X346623Y58517D01*
X346446Y58607D01*
X346272Y58696D01*
X346268Y58698D01*
X346264Y58700D01*
X346071Y58753D01*
X345885Y58806D01*
X345881Y58807D01*
X345876Y58808D01*
X345674Y58822D01*
X345483Y58837D01*
X345479Y58837D01*
X345475Y58837D01*
X345273Y58812D01*
X345084Y58789D01*
X345080Y58787D01*
X345075Y58787D01*
X344887Y58724D01*
X344702Y58662D01*
X344698Y58660D01*
X344693Y58658D01*
X344523Y58560D01*
X344352Y58463D01*
X344349Y58460D01*
X344345Y58458D01*
X344092Y58243D01*
X340368Y54519D01*
X340351Y54498D01*
X340330Y54481D01*
X340224Y54343D01*
X340113Y54207D01*
X340100Y54184D01*
X340084Y54163D01*
X340006Y54007D01*
X339924Y53852D01*
X339916Y53826D01*
X339904Y53802D01*
X339859Y53633D01*
X339809Y53466D01*
X339807Y53439D01*
X339800Y53413D01*
X339773Y53083D01*
X339773Y48896D01*
X338315Y45377D01*
X335623Y42685D01*
X332104Y41227D01*
X328296Y41227D01*
X324777Y42685D01*
X322085Y45377D01*
X320627Y48896D01*
X320627Y52704D01*
X322085Y56223D01*
X324777Y58915D01*
X328296Y60373D01*
X332104Y60373D01*
X334227Y59493D01*
X334249Y59487D01*
X334268Y59477D01*
X334441Y59429D01*
X334613Y59377D01*
X334635Y59375D01*
X334656Y59369D01*
X334836Y59356D01*
X335013Y59339D01*
X335035Y59341D01*
X335058Y59339D01*
X335236Y59362D01*
X335414Y59380D01*
X335435Y59387D01*
X335457Y59390D01*
X335627Y59447D01*
X335798Y59500D01*
X335818Y59511D01*
X335839Y59518D01*
X335995Y59608D01*
X336151Y59693D01*
X336168Y59708D01*
X336188Y59719D01*
X336441Y59934D01*
X517467Y240960D01*
X517473Y240967D01*
X517479Y240972D01*
X517600Y241122D01*
X517722Y241271D01*
X517726Y241279D01*
X517732Y241286D01*
X517821Y241457D01*
X517911Y241627D01*
X517913Y241635D01*
X517917Y241643D01*
X517971Y241829D01*
X518025Y242013D01*
X518026Y242022D01*
X518029Y242030D01*
X518044Y242222D01*
X518062Y242414D01*
X518061Y242423D01*
X518062Y242432D01*
X518039Y242621D01*
X518018Y242814D01*
X518016Y242823D01*
X518015Y242831D01*
X517955Y243013D01*
X517897Y243198D01*
X517893Y243206D01*
X517890Y243214D01*
X517795Y243383D01*
X517702Y243550D01*
X517696Y243557D01*
X517692Y243565D01*
X517566Y243711D01*
X517442Y243857D01*
X517435Y243863D01*
X517429Y243870D01*
X517277Y243987D01*
X517126Y244107D01*
X517118Y244111D01*
X517111Y244116D01*
X516939Y244202D01*
X516767Y244289D01*
X516758Y244292D01*
X516750Y244296D01*
X516564Y244346D01*
X516379Y244397D01*
X516370Y244398D01*
X516361Y244400D01*
X516031Y244427D01*
X499618Y244427D01*
X498427Y245618D01*
X498427Y259585D01*
X498425Y259611D01*
X498427Y259638D01*
X498405Y259812D01*
X498387Y259985D01*
X498380Y260011D01*
X498376Y260037D01*
X498321Y260202D01*
X498269Y260370D01*
X498256Y260394D01*
X498248Y260419D01*
X498161Y260571D01*
X498077Y260724D01*
X498060Y260745D01*
X498047Y260768D01*
X497832Y261021D01*
X399277Y359576D01*
X399256Y359593D01*
X399239Y359614D01*
X399101Y359721D01*
X398965Y359831D01*
X398942Y359844D01*
X398921Y359860D01*
X398764Y359938D01*
X398610Y360020D01*
X398584Y360028D01*
X398560Y360040D01*
X398391Y360085D01*
X398224Y360135D01*
X398197Y360137D01*
X398171Y360144D01*
X397841Y360171D01*
X383764Y360171D01*
X383746Y360169D01*
X383728Y360171D01*
X383546Y360150D01*
X383363Y360131D01*
X383346Y360126D01*
X383329Y360124D01*
X383154Y360067D01*
X382978Y360013D01*
X382963Y360005D01*
X382946Y359999D01*
X382786Y359909D01*
X382624Y359821D01*
X382611Y359810D01*
X382595Y359801D01*
X382456Y359681D01*
X382315Y359564D01*
X382304Y359550D01*
X382290Y359538D01*
X382178Y359393D01*
X382063Y359250D01*
X382055Y359234D01*
X382044Y359220D01*
X381962Y359055D01*
X381877Y358893D01*
X381872Y358876D01*
X381864Y358860D01*
X381817Y358681D01*
X381766Y358506D01*
X381764Y358488D01*
X381760Y358471D01*
X381733Y358140D01*
X381733Y357628D01*
X381731Y357625D01*
X381615Y357484D01*
X381607Y357468D01*
X381595Y357454D01*
X381512Y357289D01*
X381427Y357128D01*
X381421Y357111D01*
X381413Y357095D01*
X381364Y356918D01*
X381312Y356742D01*
X381310Y356724D01*
X381305Y356707D01*
X381292Y356525D01*
X381275Y356341D01*
X381277Y356323D01*
X381276Y356305D01*
X381299Y356124D01*
X381319Y355941D01*
X381324Y355924D01*
X381327Y355906D01*
X381385Y355733D01*
X381440Y355557D01*
X381449Y355541D01*
X381455Y355524D01*
X381546Y355366D01*
X381635Y355205D01*
X381647Y355191D01*
X381656Y355175D01*
X381689Y355136D01*
X382068Y354481D01*
X382241Y353835D01*
X382241Y350999D01*
X365168Y350999D01*
X365150Y350997D01*
X365133Y350999D01*
X364950Y350978D01*
X364768Y350959D01*
X364751Y350954D01*
X364733Y350952D01*
X364692Y350939D01*
X364598Y350966D01*
X364580Y350968D01*
X364563Y350972D01*
X364232Y350999D01*
X347159Y350999D01*
X347159Y353835D01*
X347332Y354481D01*
X347726Y355163D01*
X347785Y355234D01*
X347793Y355250D01*
X347804Y355264D01*
X347887Y355427D01*
X347973Y355590D01*
X347978Y355607D01*
X347987Y355623D01*
X348036Y355800D01*
X348088Y355975D01*
X348090Y355993D01*
X348095Y356011D01*
X348108Y356194D01*
X348125Y356376D01*
X348123Y356394D01*
X348124Y356413D01*
X348101Y356594D01*
X348081Y356777D01*
X348076Y356794D01*
X348074Y356812D01*
X348015Y356986D01*
X347960Y357161D01*
X347951Y357176D01*
X347945Y357194D01*
X347853Y357353D01*
X347765Y357513D01*
X347754Y357527D01*
X347744Y357543D01*
X347667Y357633D01*
X347667Y369342D01*
X347889Y369564D01*
X347900Y369578D01*
X347914Y369589D01*
X348028Y369733D01*
X348144Y369875D01*
X348152Y369891D01*
X348164Y369905D01*
X348247Y370069D01*
X348333Y370231D01*
X348338Y370248D01*
X348346Y370264D01*
X348395Y370441D01*
X348447Y370617D01*
X348449Y370635D01*
X348454Y370652D01*
X348467Y370835D01*
X348484Y371018D01*
X348482Y371036D01*
X348483Y371053D01*
X348460Y371235D01*
X348440Y371418D01*
X348435Y371435D01*
X348433Y371453D01*
X348375Y371626D01*
X348319Y371802D01*
X348310Y371818D01*
X348305Y371834D01*
X348213Y371994D01*
X348124Y372154D01*
X348113Y372168D01*
X348104Y372183D01*
X347889Y372436D01*
X347667Y372658D01*
X347667Y373166D01*
X347665Y373184D01*
X347667Y373202D01*
X347646Y373384D01*
X347627Y373567D01*
X347622Y373584D01*
X347620Y373601D01*
X347563Y373776D01*
X347509Y373952D01*
X347501Y373967D01*
X347495Y373984D01*
X347405Y374144D01*
X347317Y374306D01*
X347306Y374319D01*
X347297Y374335D01*
X347177Y374474D01*
X347060Y374615D01*
X347046Y374626D01*
X347034Y374640D01*
X346889Y374752D01*
X346746Y374867D01*
X346730Y374875D01*
X346716Y374886D01*
X346551Y374968D01*
X346389Y375053D01*
X346372Y375058D01*
X346356Y375066D01*
X346177Y375113D01*
X346002Y375164D01*
X345984Y375166D01*
X345967Y375170D01*
X345636Y375197D01*
X277509Y375197D01*
X277487Y375195D01*
X277465Y375197D01*
X277287Y375175D01*
X277108Y375157D01*
X277087Y375151D01*
X277065Y375148D01*
X276895Y375092D01*
X276723Y375039D01*
X276704Y375029D01*
X276683Y375022D01*
X276527Y374933D01*
X276369Y374847D01*
X276352Y374833D01*
X276333Y374822D01*
X276198Y374704D01*
X276060Y374590D01*
X276046Y374572D01*
X276029Y374558D01*
X275920Y374416D01*
X275808Y374276D01*
X275798Y374256D01*
X275784Y374238D01*
X275632Y373943D01*
X275565Y373781D01*
X273719Y371935D01*
X271306Y370935D01*
X268694Y370935D01*
X266281Y371935D01*
X264435Y373781D01*
X263435Y376194D01*
X263435Y378806D01*
X264435Y381219D01*
X266281Y383065D01*
X268694Y384065D01*
X271306Y384065D01*
X273719Y383065D01*
X274386Y382398D01*
X274407Y382381D01*
X274424Y382360D01*
X274562Y382253D01*
X274698Y382143D01*
X274721Y382130D01*
X274743Y382114D01*
X274899Y382036D01*
X275053Y381954D01*
X275079Y381946D01*
X275103Y381934D01*
X275272Y381889D01*
X275439Y381839D01*
X275466Y381837D01*
X275492Y381830D01*
X275823Y381803D01*
X345636Y381803D01*
X345654Y381805D01*
X345672Y381803D01*
X345854Y381824D01*
X346037Y381843D01*
X346054Y381848D01*
X346071Y381850D01*
X346246Y381907D01*
X346422Y381961D01*
X346437Y381969D01*
X346454Y381975D01*
X346614Y382065D01*
X346776Y382153D01*
X346789Y382164D01*
X346805Y382173D01*
X346944Y382293D01*
X347085Y382410D01*
X347096Y382424D01*
X347110Y382436D01*
X347222Y382581D01*
X347337Y382724D01*
X347345Y382740D01*
X347356Y382754D01*
X347438Y382919D01*
X347523Y383081D01*
X347528Y383098D01*
X347536Y383114D01*
X347583Y383293D01*
X347634Y383468D01*
X347636Y383486D01*
X347640Y383503D01*
X347667Y383834D01*
X347667Y384342D01*
X347889Y384564D01*
X347900Y384578D01*
X347914Y384589D01*
X348028Y384733D01*
X348144Y384875D01*
X348152Y384891D01*
X348164Y384905D01*
X348247Y385069D01*
X348333Y385231D01*
X348338Y385248D01*
X348346Y385264D01*
X348395Y385441D01*
X348447Y385617D01*
X348449Y385635D01*
X348454Y385652D01*
X348467Y385835D01*
X348484Y386018D01*
X348482Y386036D01*
X348483Y386053D01*
X348460Y386235D01*
X348440Y386418D01*
X348435Y386435D01*
X348433Y386453D01*
X348375Y386626D01*
X348319Y386802D01*
X348310Y386818D01*
X348305Y386834D01*
X348213Y386994D01*
X348124Y387154D01*
X348113Y387168D01*
X348104Y387183D01*
X347889Y387436D01*
X347667Y387658D01*
X347667Y399342D01*
X347889Y399564D01*
X347900Y399578D01*
X347914Y399589D01*
X348028Y399733D01*
X348144Y399875D01*
X348152Y399891D01*
X348164Y399905D01*
X348247Y400069D01*
X348333Y400231D01*
X348338Y400248D01*
X348346Y400264D01*
X348395Y400441D01*
X348447Y400617D01*
X348449Y400635D01*
X348454Y400652D01*
X348467Y400835D01*
X348484Y401018D01*
X348482Y401036D01*
X348483Y401053D01*
X348460Y401235D01*
X348440Y401418D01*
X348435Y401435D01*
X348433Y401453D01*
X348375Y401626D01*
X348319Y401802D01*
X348310Y401818D01*
X348305Y401834D01*
X348213Y401994D01*
X348124Y402154D01*
X348113Y402168D01*
X348104Y402183D01*
X347889Y402436D01*
X347667Y402658D01*
X347667Y410345D01*
X347665Y410371D01*
X347667Y410398D01*
X347645Y410572D01*
X347627Y410745D01*
X347620Y410771D01*
X347616Y410797D01*
X347561Y410963D01*
X347509Y411130D01*
X347496Y411154D01*
X347488Y411179D01*
X347401Y411331D01*
X347317Y411484D01*
X347300Y411505D01*
X347287Y411528D01*
X347072Y411781D01*
X271017Y487836D01*
X271017Y522754D01*
X271015Y522781D01*
X271017Y522808D01*
X270995Y522982D01*
X270977Y523155D01*
X270970Y523181D01*
X270966Y523207D01*
X270911Y523373D01*
X270859Y523540D01*
X270846Y523564D01*
X270838Y523589D01*
X270751Y523741D01*
X270667Y523894D01*
X270650Y523914D01*
X270637Y523938D01*
X270422Y524191D01*
X268290Y526323D01*
X267316Y528674D01*
X267310Y528686D01*
X267306Y528698D01*
X267215Y528864D01*
X267126Y529029D01*
X267118Y529039D01*
X267111Y529051D01*
X266989Y529194D01*
X266870Y529339D01*
X266859Y529347D01*
X266851Y529358D01*
X266704Y529474D01*
X266557Y529593D01*
X266545Y529599D01*
X266535Y529607D01*
X266367Y529692D01*
X266201Y529780D01*
X266188Y529784D01*
X266176Y529790D01*
X265995Y529840D01*
X265814Y529893D01*
X265801Y529894D01*
X265788Y529898D01*
X265599Y529911D01*
X265413Y529927D01*
X265400Y529926D01*
X265386Y529927D01*
X265198Y529903D01*
X265013Y529882D01*
X265000Y529878D01*
X264987Y529877D01*
X264808Y529817D01*
X264630Y529759D01*
X264618Y529753D01*
X264605Y529748D01*
X264443Y529655D01*
X264278Y529563D01*
X264268Y529554D01*
X264256Y529547D01*
X264003Y529333D01*
X261398Y526727D01*
X261381Y526706D01*
X261360Y526689D01*
X261254Y526551D01*
X261143Y526415D01*
X261130Y526392D01*
X261114Y526371D01*
X261036Y526214D01*
X260954Y526060D01*
X260946Y526034D01*
X260934Y526010D01*
X260889Y525841D01*
X260839Y525674D01*
X260837Y525647D01*
X260830Y525621D01*
X260803Y525291D01*
X260803Y418632D01*
X228898Y386727D01*
X228881Y386706D01*
X228860Y386689D01*
X228753Y386551D01*
X228643Y386415D01*
X228630Y386392D01*
X228614Y386371D01*
X228536Y386214D01*
X228454Y386060D01*
X228446Y386034D01*
X228434Y386010D01*
X228389Y385841D01*
X228339Y385674D01*
X228337Y385647D01*
X228330Y385621D01*
X228303Y385291D01*
X228303Y344064D01*
X228305Y344046D01*
X228303Y344028D01*
X228324Y343846D01*
X228343Y343663D01*
X228348Y343646D01*
X228350Y343629D01*
X228407Y343454D01*
X228461Y343278D01*
X228469Y343263D01*
X228475Y343246D01*
X228565Y343086D01*
X228653Y342924D01*
X228664Y342911D01*
X228673Y342895D01*
X228793Y342756D01*
X228910Y342615D01*
X228924Y342604D01*
X228936Y342590D01*
X229081Y342478D01*
X229162Y342413D01*
X229764Y341811D01*
X229778Y341800D01*
X229789Y341786D01*
X229933Y341672D01*
X230075Y341556D01*
X230091Y341548D01*
X230105Y341536D01*
X230269Y341453D01*
X230431Y341367D01*
X230448Y341362D01*
X230464Y341354D01*
X230641Y341305D01*
X230817Y341253D01*
X230835Y341251D01*
X230852Y341246D01*
X231035Y341233D01*
X231218Y341216D01*
X231236Y341218D01*
X231253Y341217D01*
X231435Y341240D01*
X231618Y341260D01*
X231635Y341265D01*
X231653Y341267D01*
X231826Y341325D01*
X232002Y341381D01*
X232018Y341390D01*
X232034Y341395D01*
X232194Y341487D01*
X232354Y341576D01*
X232368Y341587D01*
X232383Y341596D01*
X232636Y341811D01*
X232858Y342033D01*
X244542Y342033D01*
X244764Y341811D01*
X244778Y341800D01*
X244789Y341786D01*
X244933Y341672D01*
X245075Y341556D01*
X245091Y341548D01*
X245105Y341536D01*
X245269Y341453D01*
X245431Y341367D01*
X245448Y341362D01*
X245464Y341354D01*
X245641Y341305D01*
X245817Y341253D01*
X245835Y341251D01*
X245852Y341246D01*
X246035Y341233D01*
X246218Y341216D01*
X246236Y341218D01*
X246253Y341217D01*
X246435Y341240D01*
X246618Y341260D01*
X246635Y341265D01*
X246653Y341267D01*
X246826Y341325D01*
X247002Y341381D01*
X247018Y341390D01*
X247034Y341395D01*
X247194Y341487D01*
X247354Y341576D01*
X247368Y341587D01*
X247383Y341596D01*
X247636Y341811D01*
X247858Y342033D01*
X259542Y342033D01*
X259764Y341811D01*
X259778Y341800D01*
X259789Y341786D01*
X259933Y341672D01*
X260075Y341556D01*
X260091Y341548D01*
X260105Y341536D01*
X260269Y341453D01*
X260431Y341367D01*
X260448Y341362D01*
X260464Y341354D01*
X260641Y341305D01*
X260817Y341253D01*
X260835Y341251D01*
X260852Y341246D01*
X261035Y341233D01*
X261218Y341216D01*
X261236Y341218D01*
X261253Y341217D01*
X261435Y341240D01*
X261618Y341260D01*
X261635Y341265D01*
X261653Y341267D01*
X261826Y341325D01*
X262002Y341381D01*
X262018Y341390D01*
X262034Y341395D01*
X262194Y341487D01*
X262354Y341576D01*
X262368Y341587D01*
X262383Y341596D01*
X262636Y341811D01*
X262858Y342033D01*
X274542Y342033D01*
X274764Y341811D01*
X274778Y341800D01*
X274789Y341786D01*
X274933Y341672D01*
X275075Y341556D01*
X275091Y341548D01*
X275105Y341536D01*
X275269Y341453D01*
X275431Y341367D01*
X275448Y341362D01*
X275464Y341354D01*
X275641Y341305D01*
X275817Y341253D01*
X275835Y341251D01*
X275852Y341246D01*
X276035Y341233D01*
X276218Y341216D01*
X276236Y341218D01*
X276253Y341217D01*
X276435Y341240D01*
X276618Y341260D01*
X276635Y341265D01*
X276653Y341267D01*
X276826Y341325D01*
X277002Y341381D01*
X277018Y341390D01*
X277034Y341395D01*
X277194Y341487D01*
X277354Y341576D01*
X277368Y341587D01*
X277383Y341596D01*
X277636Y341811D01*
X277858Y342033D01*
X289542Y342033D01*
X289764Y341811D01*
X289778Y341800D01*
X289789Y341786D01*
X289933Y341672D01*
X290075Y341556D01*
X290091Y341548D01*
X290105Y341536D01*
X290269Y341453D01*
X290431Y341367D01*
X290448Y341362D01*
X290464Y341354D01*
X290641Y341305D01*
X290817Y341253D01*
X290835Y341251D01*
X290852Y341246D01*
X291035Y341233D01*
X291218Y341216D01*
X291236Y341218D01*
X291253Y341217D01*
X291435Y341240D01*
X291618Y341260D01*
X291635Y341265D01*
X291653Y341267D01*
X291826Y341325D01*
X292002Y341381D01*
X292018Y341390D01*
X292034Y341395D01*
X292194Y341487D01*
X292354Y341576D01*
X292368Y341587D01*
X292383Y341596D01*
X292636Y341811D01*
X292858Y342033D01*
X304542Y342033D01*
X304764Y341811D01*
X304778Y341800D01*
X304789Y341786D01*
X304933Y341672D01*
X305075Y341556D01*
X305091Y341548D01*
X305105Y341536D01*
X305269Y341453D01*
X305431Y341367D01*
X305448Y341362D01*
X305464Y341354D01*
X305641Y341305D01*
X305817Y341253D01*
X305835Y341251D01*
X305852Y341246D01*
X306035Y341233D01*
X306218Y341216D01*
X306236Y341218D01*
X306253Y341217D01*
X306435Y341240D01*
X306618Y341260D01*
X306635Y341265D01*
X306653Y341267D01*
X306826Y341325D01*
X307002Y341381D01*
X307018Y341390D01*
X307034Y341395D01*
X307194Y341487D01*
X307354Y341576D01*
X307368Y341587D01*
X307383Y341596D01*
X307636Y341811D01*
X307858Y342033D01*
X319542Y342033D01*
X319764Y341811D01*
X319778Y341800D01*
X319789Y341786D01*
X319933Y341672D01*
X320075Y341556D01*
X320091Y341548D01*
X320105Y341536D01*
X320269Y341453D01*
X320431Y341367D01*
X320448Y341362D01*
X320464Y341354D01*
X320641Y341305D01*
X320817Y341253D01*
X320835Y341251D01*
X320852Y341246D01*
X321035Y341233D01*
X321218Y341216D01*
X321236Y341218D01*
X321253Y341217D01*
X321435Y341240D01*
X321618Y341260D01*
X321635Y341265D01*
X321653Y341267D01*
X321826Y341325D01*
X322002Y341381D01*
X322018Y341390D01*
X322034Y341395D01*
X322194Y341487D01*
X322354Y341576D01*
X322368Y341587D01*
X322383Y341596D01*
X322636Y341811D01*
X322858Y342033D01*
X334542Y342033D01*
X334764Y341811D01*
X334778Y341800D01*
X334789Y341786D01*
X334933Y341672D01*
X335075Y341556D01*
X335091Y341548D01*
X335105Y341536D01*
X335269Y341453D01*
X335431Y341367D01*
X335448Y341362D01*
X335464Y341354D01*
X335641Y341305D01*
X335817Y341253D01*
X335835Y341251D01*
X335852Y341246D01*
X336035Y341233D01*
X336218Y341216D01*
X336236Y341218D01*
X336253Y341217D01*
X336435Y341240D01*
X336618Y341260D01*
X336635Y341265D01*
X336653Y341267D01*
X336826Y341325D01*
X337002Y341381D01*
X337018Y341390D01*
X337034Y341395D01*
X337194Y341487D01*
X337354Y341576D01*
X337368Y341587D01*
X337383Y341596D01*
X337636Y341811D01*
X337858Y342033D01*
X345128Y342033D01*
X345146Y342035D01*
X345164Y342033D01*
X345346Y342054D01*
X345529Y342073D01*
X345546Y342078D01*
X345563Y342080D01*
X345738Y342137D01*
X345914Y342191D01*
X345929Y342199D01*
X345946Y342205D01*
X346106Y342295D01*
X346268Y342383D01*
X346281Y342394D01*
X346297Y342403D01*
X346436Y342523D01*
X346577Y342640D01*
X346588Y342654D01*
X346602Y342666D01*
X346714Y342811D01*
X346829Y342954D01*
X346837Y342970D01*
X346848Y342984D01*
X346930Y343149D01*
X347015Y343311D01*
X347020Y343328D01*
X347028Y343344D01*
X347075Y343523D01*
X347126Y343698D01*
X347128Y343716D01*
X347132Y343733D01*
X347159Y344064D01*
X347159Y346001D01*
X362201Y346001D01*
X362201Y340959D01*
X352764Y340959D01*
X352746Y340957D01*
X352728Y340959D01*
X352546Y340938D01*
X352363Y340919D01*
X352346Y340914D01*
X352329Y340912D01*
X352154Y340855D01*
X351978Y340801D01*
X351963Y340793D01*
X351946Y340787D01*
X351786Y340697D01*
X351624Y340609D01*
X351611Y340598D01*
X351595Y340589D01*
X351456Y340469D01*
X351315Y340352D01*
X351304Y340338D01*
X351290Y340326D01*
X351178Y340181D01*
X351063Y340038D01*
X351055Y340022D01*
X351044Y340008D01*
X350962Y339843D01*
X350877Y339681D01*
X350872Y339664D01*
X350864Y339648D01*
X350816Y339469D01*
X350766Y339294D01*
X350764Y339276D01*
X350760Y339259D01*
X350733Y338928D01*
X350733Y315433D01*
X350735Y315407D01*
X350733Y315380D01*
X350755Y315206D01*
X350773Y315033D01*
X350780Y315007D01*
X350784Y314981D01*
X350839Y314815D01*
X350891Y314648D01*
X350904Y314624D01*
X350912Y314599D01*
X350999Y314447D01*
X351083Y314294D01*
X351100Y314273D01*
X351113Y314250D01*
X351328Y313997D01*
X401596Y263729D01*
X401613Y263715D01*
X401628Y263698D01*
X401769Y263587D01*
X401907Y263474D01*
X401927Y263463D01*
X401945Y263450D01*
X402105Y263369D01*
X402263Y263285D01*
X402285Y263279D01*
X402304Y263269D01*
X402477Y263221D01*
X402649Y263170D01*
X402671Y263168D01*
X402693Y263162D01*
X402872Y263150D01*
X403050Y263134D01*
X403072Y263136D01*
X403094Y263135D01*
X403272Y263158D01*
X403450Y263177D01*
X403472Y263184D01*
X403494Y263187D01*
X403810Y263288D01*
X404496Y263573D01*
X408304Y263573D01*
X411823Y262115D01*
X414515Y259423D01*
X415973Y255904D01*
X415973Y252096D01*
X414515Y248577D01*
X411823Y245885D01*
X408304Y244427D01*
X404496Y244427D01*
X400977Y245885D01*
X398285Y248577D01*
X396827Y252096D01*
X396827Y255904D01*
X397260Y256950D01*
X397267Y256971D01*
X397277Y256991D01*
X397325Y257163D01*
X397377Y257335D01*
X397379Y257357D01*
X397385Y257379D01*
X397398Y257558D01*
X397415Y257736D01*
X397413Y257758D01*
X397414Y257780D01*
X397392Y257959D01*
X397373Y258136D01*
X397367Y258157D01*
X397364Y258180D01*
X397307Y258350D01*
X397253Y258521D01*
X397243Y258540D01*
X397236Y258561D01*
X397146Y258717D01*
X397060Y258874D01*
X397046Y258891D01*
X397035Y258910D01*
X396820Y259163D01*
X348611Y307372D01*
X348590Y307389D01*
X348573Y307410D01*
X348435Y307517D01*
X348299Y307627D01*
X348276Y307640D01*
X348255Y307656D01*
X348098Y307734D01*
X347944Y307816D01*
X347918Y307824D01*
X347894Y307836D01*
X347725Y307881D01*
X347558Y307931D01*
X347531Y307933D01*
X347505Y307940D01*
X347175Y307967D01*
X337115Y307967D01*
X337107Y307966D01*
X337098Y307967D01*
X336904Y307946D01*
X336715Y307927D01*
X336706Y307925D01*
X336697Y307924D01*
X336513Y307865D01*
X336330Y307809D01*
X336322Y307805D01*
X336313Y307802D01*
X336145Y307709D01*
X335976Y307617D01*
X335969Y307612D01*
X335961Y307607D01*
X335814Y307483D01*
X335667Y307360D01*
X335661Y307353D01*
X335654Y307347D01*
X335534Y307195D01*
X335414Y307046D01*
X335410Y307038D01*
X335405Y307031D01*
X335317Y306858D01*
X335229Y306689D01*
X335226Y306680D01*
X335222Y306672D01*
X335170Y306486D01*
X335117Y306302D01*
X335117Y306293D01*
X335114Y306284D01*
X335100Y306091D01*
X335084Y305900D01*
X335085Y305892D01*
X335085Y305883D01*
X335109Y305690D01*
X335131Y305501D01*
X335134Y305492D01*
X335135Y305483D01*
X335196Y305301D01*
X335256Y305118D01*
X335261Y305110D01*
X335263Y305102D01*
X335360Y304935D01*
X335454Y304767D01*
X335460Y304760D01*
X335464Y304753D01*
X335679Y304500D01*
X376376Y263803D01*
X376393Y263789D01*
X376407Y263772D01*
X376549Y263661D01*
X376687Y263548D01*
X376707Y263538D01*
X376724Y263524D01*
X376885Y263443D01*
X377043Y263359D01*
X377064Y263353D01*
X377084Y263343D01*
X377257Y263296D01*
X377429Y263245D01*
X377451Y263243D01*
X377472Y263237D01*
X377650Y263225D01*
X377830Y263208D01*
X377852Y263211D01*
X377874Y263209D01*
X378051Y263232D01*
X378230Y263252D01*
X378251Y263258D01*
X378273Y263261D01*
X378589Y263363D01*
X379096Y263573D01*
X382904Y263573D01*
X386423Y262115D01*
X389115Y259423D01*
X390573Y255904D01*
X390573Y252096D01*
X389115Y248577D01*
X386423Y245885D01*
X382904Y244427D01*
X379096Y244427D01*
X375577Y245885D01*
X372885Y248577D01*
X371427Y252096D01*
X371427Y255904D01*
X371935Y257129D01*
X371941Y257151D01*
X371951Y257170D01*
X371999Y257343D01*
X372051Y257515D01*
X372053Y257537D01*
X372059Y257558D01*
X372072Y257738D01*
X372089Y257915D01*
X372087Y257937D01*
X372089Y257960D01*
X372066Y258139D01*
X372048Y258316D01*
X372041Y258337D01*
X372038Y258359D01*
X371981Y258530D01*
X371928Y258700D01*
X371917Y258720D01*
X371910Y258741D01*
X371820Y258897D01*
X371735Y259053D01*
X371720Y259070D01*
X371709Y259090D01*
X371494Y259343D01*
X325881Y304956D01*
X325881Y305936D01*
X325879Y305954D01*
X325881Y305972D01*
X325860Y306154D01*
X325841Y306337D01*
X325836Y306354D01*
X325834Y306371D01*
X325777Y306546D01*
X325723Y306722D01*
X325715Y306737D01*
X325709Y306754D01*
X325619Y306914D01*
X325531Y307076D01*
X325520Y307089D01*
X325511Y307105D01*
X325391Y307244D01*
X325274Y307385D01*
X325260Y307396D01*
X325248Y307410D01*
X325103Y307522D01*
X324960Y307637D01*
X324944Y307645D01*
X324930Y307656D01*
X324765Y307738D01*
X324603Y307823D01*
X324586Y307828D01*
X324570Y307836D01*
X324391Y307883D01*
X324216Y307934D01*
X324198Y307936D01*
X324181Y307940D01*
X323850Y307967D01*
X322858Y307967D01*
X322636Y308189D01*
X322623Y308200D01*
X322611Y308214D01*
X322467Y308327D01*
X322325Y308444D01*
X322309Y308452D01*
X322295Y308463D01*
X322132Y308546D01*
X321969Y308633D01*
X321952Y308638D01*
X321936Y308646D01*
X321759Y308695D01*
X321583Y308747D01*
X321565Y308749D01*
X321548Y308754D01*
X321365Y308767D01*
X321182Y308784D01*
X321164Y308782D01*
X321147Y308783D01*
X320965Y308760D01*
X320782Y308740D01*
X320765Y308735D01*
X320747Y308733D01*
X320573Y308674D01*
X320398Y308619D01*
X320383Y308610D01*
X320366Y308605D01*
X320206Y308513D01*
X320046Y308424D01*
X320032Y308413D01*
X320017Y308404D01*
X319764Y308189D01*
X319366Y307791D01*
X319349Y307770D01*
X319328Y307753D01*
X319221Y307615D01*
X319111Y307479D01*
X319098Y307456D01*
X319082Y307435D01*
X319004Y307278D01*
X318922Y307124D01*
X318914Y307098D01*
X318902Y307074D01*
X318857Y306905D01*
X318807Y306738D01*
X318805Y306711D01*
X318798Y306685D01*
X318771Y306355D01*
X318771Y297103D01*
X318773Y297077D01*
X318771Y297050D01*
X318793Y296876D01*
X318811Y296703D01*
X318818Y296677D01*
X318822Y296651D01*
X318877Y296485D01*
X318929Y296318D01*
X318942Y296294D01*
X318950Y296269D01*
X319037Y296117D01*
X319121Y295964D01*
X319138Y295943D01*
X319151Y295920D01*
X319366Y295667D01*
X351155Y263878D01*
X351172Y263863D01*
X351187Y263846D01*
X351328Y263736D01*
X351467Y263623D01*
X351486Y263612D01*
X351504Y263598D01*
X351665Y263518D01*
X351822Y263434D01*
X351844Y263428D01*
X351864Y263417D01*
X352037Y263370D01*
X352208Y263319D01*
X352231Y263317D01*
X352252Y263311D01*
X352430Y263299D01*
X352609Y263283D01*
X352632Y263285D01*
X352654Y263284D01*
X352830Y263307D01*
X353010Y263326D01*
X353031Y263333D01*
X353053Y263336D01*
X353369Y263437D01*
X353696Y263573D01*
X357504Y263573D01*
X361023Y262115D01*
X363715Y259423D01*
X365173Y255904D01*
X365173Y252096D01*
X363715Y248577D01*
X361023Y245885D01*
X357504Y244427D01*
X353696Y244427D01*
X350177Y245885D01*
X347485Y248577D01*
X346027Y252096D01*
X346027Y255904D01*
X346609Y257309D01*
X346616Y257330D01*
X346626Y257350D01*
X346674Y257523D01*
X346726Y257694D01*
X346728Y257716D01*
X346734Y257738D01*
X346747Y257918D01*
X346764Y258095D01*
X346761Y258117D01*
X346763Y258139D01*
X346741Y258318D01*
X346722Y258495D01*
X346715Y258517D01*
X346713Y258539D01*
X346655Y258709D01*
X346602Y258880D01*
X346592Y258899D01*
X346584Y258921D01*
X346495Y259076D01*
X346409Y259233D01*
X346395Y259250D01*
X346383Y259269D01*
X346169Y259522D01*
X312165Y293526D01*
X312165Y305936D01*
X312163Y305954D01*
X312165Y305972D01*
X312144Y306154D01*
X312125Y306337D01*
X312120Y306354D01*
X312118Y306371D01*
X312061Y306546D01*
X312007Y306722D01*
X311999Y306737D01*
X311993Y306754D01*
X311903Y306914D01*
X311815Y307076D01*
X311804Y307089D01*
X311795Y307105D01*
X311675Y307244D01*
X311558Y307385D01*
X311544Y307396D01*
X311532Y307410D01*
X311387Y307522D01*
X311244Y307637D01*
X311228Y307645D01*
X311214Y307656D01*
X311049Y307738D01*
X310887Y307823D01*
X310870Y307828D01*
X310854Y307836D01*
X310675Y307883D01*
X310500Y307934D01*
X310482Y307936D01*
X310465Y307940D01*
X310134Y307967D01*
X307858Y307967D01*
X307636Y308189D01*
X307623Y308200D01*
X307611Y308214D01*
X307467Y308327D01*
X307325Y308444D01*
X307309Y308452D01*
X307295Y308463D01*
X307132Y308546D01*
X306969Y308633D01*
X306952Y308638D01*
X306936Y308646D01*
X306759Y308695D01*
X306583Y308747D01*
X306565Y308749D01*
X306548Y308754D01*
X306365Y308767D01*
X306182Y308784D01*
X306164Y308782D01*
X306147Y308783D01*
X305965Y308760D01*
X305782Y308740D01*
X305765Y308735D01*
X305747Y308733D01*
X305573Y308674D01*
X305398Y308619D01*
X305383Y308610D01*
X305366Y308605D01*
X305206Y308513D01*
X305046Y308424D01*
X305032Y308413D01*
X305017Y308404D01*
X304764Y308189D01*
X304513Y307939D01*
X304399Y307927D01*
X304382Y307922D01*
X304365Y307920D01*
X304190Y307863D01*
X304014Y307809D01*
X303999Y307801D01*
X303982Y307795D01*
X303822Y307705D01*
X303660Y307617D01*
X303647Y307606D01*
X303631Y307597D01*
X303492Y307477D01*
X303351Y307360D01*
X303340Y307346D01*
X303326Y307334D01*
X303214Y307189D01*
X303099Y307046D01*
X303091Y307030D01*
X303080Y307016D01*
X302998Y306851D01*
X302913Y306689D01*
X302908Y306672D01*
X302900Y306656D01*
X302853Y306477D01*
X302802Y306302D01*
X302800Y306284D01*
X302796Y306267D01*
X302769Y305936D01*
X302769Y287959D01*
X302771Y287933D01*
X302769Y287906D01*
X302791Y287732D01*
X302809Y287559D01*
X302816Y287533D01*
X302820Y287507D01*
X302875Y287341D01*
X302927Y287174D01*
X302940Y287150D01*
X302948Y287125D01*
X303035Y286973D01*
X303119Y286820D01*
X303136Y286799D01*
X303149Y286776D01*
X303364Y286523D01*
X325935Y263952D01*
X325952Y263938D01*
X325967Y263921D01*
X326108Y263811D01*
X326246Y263697D01*
X326266Y263686D01*
X326284Y263673D01*
X326444Y263592D01*
X326602Y263508D01*
X326623Y263502D01*
X326643Y263492D01*
X326817Y263445D01*
X326988Y263394D01*
X327010Y263391D01*
X327032Y263386D01*
X327210Y263373D01*
X327389Y263357D01*
X327411Y263360D01*
X327433Y263358D01*
X327610Y263381D01*
X327789Y263401D01*
X327811Y263407D01*
X327833Y263410D01*
X328148Y263512D01*
X328296Y263573D01*
X332104Y263573D01*
X335623Y262115D01*
X338315Y259423D01*
X339773Y255904D01*
X339773Y252096D01*
X338315Y248577D01*
X335623Y245885D01*
X332104Y244427D01*
X328296Y244427D01*
X324777Y245885D01*
X322085Y248577D01*
X320627Y252096D01*
X320627Y255904D01*
X321284Y257488D01*
X321290Y257510D01*
X321300Y257530D01*
X321348Y257703D01*
X321400Y257874D01*
X321402Y257896D01*
X321408Y257918D01*
X321421Y258097D01*
X321438Y258275D01*
X321436Y258297D01*
X321437Y258319D01*
X321415Y258497D01*
X321396Y258675D01*
X321390Y258696D01*
X321387Y258718D01*
X321330Y258888D01*
X321277Y259059D01*
X321266Y259079D01*
X321259Y259100D01*
X321169Y259255D01*
X321083Y259413D01*
X321069Y259430D01*
X321058Y259449D01*
X320843Y259702D01*
X296163Y284382D01*
X296163Y305936D01*
X296161Y305954D01*
X296163Y305972D01*
X296142Y306154D01*
X296123Y306337D01*
X296118Y306354D01*
X296116Y306371D01*
X296059Y306546D01*
X296005Y306722D01*
X295997Y306737D01*
X295991Y306754D01*
X295901Y306914D01*
X295813Y307076D01*
X295802Y307089D01*
X295793Y307105D01*
X295673Y307244D01*
X295556Y307385D01*
X295542Y307396D01*
X295530Y307410D01*
X295385Y307522D01*
X295242Y307637D01*
X295226Y307645D01*
X295212Y307656D01*
X295047Y307738D01*
X294885Y307823D01*
X294868Y307828D01*
X294852Y307836D01*
X294673Y307883D01*
X294498Y307934D01*
X294480Y307936D01*
X294463Y307940D01*
X294132Y307967D01*
X292858Y307967D01*
X292636Y308189D01*
X292623Y308200D01*
X292611Y308214D01*
X292467Y308327D01*
X292325Y308444D01*
X292309Y308452D01*
X292295Y308463D01*
X292132Y308546D01*
X291969Y308633D01*
X291952Y308638D01*
X291936Y308646D01*
X291759Y308695D01*
X291583Y308747D01*
X291565Y308749D01*
X291548Y308754D01*
X291365Y308767D01*
X291182Y308784D01*
X291164Y308782D01*
X291147Y308783D01*
X290965Y308760D01*
X290782Y308740D01*
X290765Y308735D01*
X290747Y308733D01*
X290573Y308674D01*
X290398Y308619D01*
X290383Y308610D01*
X290366Y308605D01*
X290206Y308513D01*
X290046Y308424D01*
X290032Y308413D01*
X290017Y308404D01*
X289764Y308189D01*
X289542Y307967D01*
X288798Y307967D01*
X288780Y307965D01*
X288762Y307967D01*
X288580Y307946D01*
X288397Y307927D01*
X288380Y307922D01*
X288363Y307920D01*
X288188Y307863D01*
X288012Y307809D01*
X287997Y307801D01*
X287980Y307795D01*
X287820Y307705D01*
X287658Y307617D01*
X287645Y307606D01*
X287629Y307597D01*
X287490Y307477D01*
X287349Y307360D01*
X287338Y307346D01*
X287324Y307334D01*
X287212Y307189D01*
X287097Y307046D01*
X287089Y307030D01*
X287078Y307016D01*
X286996Y306851D01*
X286911Y306689D01*
X286906Y306672D01*
X286898Y306656D01*
X286851Y306477D01*
X286800Y306302D01*
X286798Y306284D01*
X286794Y306267D01*
X286767Y305936D01*
X286767Y282096D01*
X263654Y258984D01*
X263640Y258966D01*
X263623Y258952D01*
X263513Y258811D01*
X263399Y258672D01*
X263389Y258652D01*
X263375Y258635D01*
X263294Y258474D01*
X263211Y258316D01*
X263204Y258295D01*
X263194Y258275D01*
X263147Y258102D01*
X263096Y257931D01*
X263094Y257908D01*
X263088Y257887D01*
X263076Y257709D01*
X263060Y257530D01*
X263062Y257507D01*
X263060Y257485D01*
X263084Y257308D01*
X263103Y257129D01*
X263110Y257108D01*
X263113Y257086D01*
X263214Y256770D01*
X263573Y255904D01*
X263573Y252096D01*
X262115Y248577D01*
X259423Y245885D01*
X255904Y244427D01*
X252096Y244427D01*
X248577Y245885D01*
X245885Y248577D01*
X244427Y252096D01*
X244427Y255904D01*
X245885Y259423D01*
X248577Y262115D01*
X251230Y263214D01*
X251231Y263214D01*
X252096Y263573D01*
X255904Y263573D01*
X256770Y263214D01*
X256791Y263208D01*
X256811Y263198D01*
X256984Y263149D01*
X257155Y263098D01*
X257177Y263096D01*
X257199Y263090D01*
X257379Y263076D01*
X257556Y263059D01*
X257578Y263062D01*
X257601Y263060D01*
X257779Y263083D01*
X257957Y263101D01*
X257978Y263108D01*
X258000Y263111D01*
X258170Y263168D01*
X258341Y263221D01*
X258361Y263232D01*
X258382Y263239D01*
X258537Y263328D01*
X258694Y263414D01*
X258711Y263429D01*
X258731Y263440D01*
X258984Y263654D01*
X279566Y284237D01*
X279583Y284258D01*
X279604Y284275D01*
X279711Y284413D01*
X279821Y284549D01*
X279834Y284572D01*
X279850Y284593D01*
X279928Y284750D01*
X280010Y284904D01*
X280018Y284930D01*
X280030Y284954D01*
X280075Y285123D01*
X280125Y285290D01*
X280127Y285317D01*
X280134Y285343D01*
X280161Y285673D01*
X280161Y305936D01*
X280159Y305954D01*
X280161Y305972D01*
X280140Y306154D01*
X280121Y306337D01*
X280116Y306354D01*
X280114Y306371D01*
X280057Y306546D01*
X280003Y306722D01*
X279995Y306737D01*
X279989Y306754D01*
X279899Y306914D01*
X279811Y307076D01*
X279800Y307089D01*
X279791Y307105D01*
X279671Y307244D01*
X279554Y307385D01*
X279540Y307396D01*
X279528Y307410D01*
X279383Y307522D01*
X279240Y307637D01*
X279224Y307645D01*
X279210Y307656D01*
X279045Y307738D01*
X278883Y307823D01*
X278866Y307828D01*
X278850Y307836D01*
X278671Y307883D01*
X278496Y307934D01*
X278478Y307936D01*
X278461Y307940D01*
X278130Y307967D01*
X277858Y307967D01*
X277636Y308189D01*
X277623Y308200D01*
X277611Y308214D01*
X277467Y308327D01*
X277325Y308444D01*
X277309Y308452D01*
X277295Y308463D01*
X277132Y308546D01*
X276969Y308633D01*
X276952Y308638D01*
X276936Y308646D01*
X276759Y308695D01*
X276583Y308747D01*
X276565Y308749D01*
X276548Y308754D01*
X276365Y308767D01*
X276182Y308784D01*
X276164Y308782D01*
X276147Y308783D01*
X275965Y308760D01*
X275782Y308740D01*
X275765Y308735D01*
X275747Y308733D01*
X275573Y308674D01*
X275398Y308619D01*
X275383Y308610D01*
X275366Y308605D01*
X275206Y308513D01*
X275046Y308424D01*
X275032Y308413D01*
X275017Y308404D01*
X274764Y308189D01*
X274542Y307967D01*
X272796Y307967D01*
X272778Y307965D01*
X272760Y307967D01*
X272578Y307946D01*
X272395Y307927D01*
X272378Y307922D01*
X272361Y307920D01*
X272186Y307863D01*
X272010Y307809D01*
X271995Y307801D01*
X271978Y307795D01*
X271818Y307705D01*
X271656Y307617D01*
X271643Y307606D01*
X271627Y307597D01*
X271488Y307477D01*
X271347Y307360D01*
X271336Y307346D01*
X271322Y307334D01*
X271210Y307189D01*
X271095Y307046D01*
X271087Y307030D01*
X271076Y307016D01*
X270994Y306851D01*
X270909Y306689D01*
X270904Y306672D01*
X270896Y306656D01*
X270849Y306477D01*
X270798Y306302D01*
X270796Y306284D01*
X270792Y306267D01*
X270765Y305936D01*
X270765Y293526D01*
X237659Y260420D01*
X237658Y260419D01*
X237656Y260417D01*
X237644Y260403D01*
X237628Y260389D01*
X237517Y260247D01*
X237404Y260109D01*
X237394Y260089D01*
X237380Y260072D01*
X237299Y259911D01*
X237216Y259753D01*
X237209Y259732D01*
X237199Y259712D01*
X237152Y259539D01*
X237101Y259367D01*
X237099Y259345D01*
X237093Y259324D01*
X237081Y259145D01*
X237064Y258966D01*
X237067Y258944D01*
X237065Y258922D01*
X237088Y258744D01*
X237108Y258566D01*
X237114Y258545D01*
X237117Y258523D01*
X237219Y258207D01*
X238173Y255904D01*
X238173Y252096D01*
X236715Y248577D01*
X234023Y245885D01*
X230504Y244427D01*
X226696Y244427D01*
X223177Y245885D01*
X220485Y248577D01*
X219027Y252096D01*
X219027Y255904D01*
X220485Y259423D01*
X223177Y262115D01*
X225830Y263214D01*
X225831Y263214D01*
X226696Y263573D01*
X230629Y263573D01*
X230655Y263575D01*
X230682Y263573D01*
X230856Y263595D01*
X231029Y263613D01*
X231055Y263620D01*
X231081Y263624D01*
X231247Y263679D01*
X231414Y263731D01*
X231438Y263744D01*
X231463Y263752D01*
X231615Y263839D01*
X231768Y263923D01*
X231789Y263940D01*
X231812Y263953D01*
X232065Y264168D01*
X263564Y295667D01*
X263581Y295688D01*
X263602Y295705D01*
X263709Y295843D01*
X263819Y295979D01*
X263832Y296002D01*
X263848Y296023D01*
X263926Y296180D01*
X264008Y296334D01*
X264016Y296360D01*
X264028Y296384D01*
X264073Y296553D01*
X264123Y296720D01*
X264125Y296747D01*
X264132Y296773D01*
X264159Y297103D01*
X264159Y305936D01*
X264157Y305954D01*
X264159Y305972D01*
X264138Y306154D01*
X264119Y306337D01*
X264114Y306354D01*
X264112Y306371D01*
X264055Y306546D01*
X264001Y306722D01*
X263993Y306737D01*
X263987Y306754D01*
X263897Y306914D01*
X263809Y307076D01*
X263798Y307089D01*
X263789Y307105D01*
X263669Y307244D01*
X263552Y307385D01*
X263538Y307396D01*
X263526Y307410D01*
X263381Y307522D01*
X263238Y307637D01*
X263222Y307645D01*
X263208Y307656D01*
X263130Y307695D01*
X262636Y308189D01*
X262623Y308200D01*
X262611Y308214D01*
X262467Y308327D01*
X262325Y308444D01*
X262309Y308452D01*
X262295Y308463D01*
X262132Y308546D01*
X261969Y308633D01*
X261952Y308638D01*
X261936Y308646D01*
X261759Y308695D01*
X261583Y308747D01*
X261565Y308749D01*
X261548Y308754D01*
X261365Y308767D01*
X261182Y308784D01*
X261164Y308782D01*
X261147Y308783D01*
X260965Y308760D01*
X260782Y308740D01*
X260765Y308735D01*
X260747Y308733D01*
X260573Y308674D01*
X260398Y308619D01*
X260383Y308610D01*
X260366Y308605D01*
X260206Y308513D01*
X260046Y308424D01*
X260032Y308413D01*
X260017Y308404D01*
X259764Y308189D01*
X259542Y307967D01*
X256794Y307967D01*
X256776Y307965D01*
X256758Y307967D01*
X256576Y307946D01*
X256393Y307927D01*
X256376Y307922D01*
X256359Y307920D01*
X256184Y307863D01*
X256008Y307809D01*
X255993Y307801D01*
X255976Y307795D01*
X255816Y307705D01*
X255654Y307617D01*
X255641Y307606D01*
X255625Y307597D01*
X255486Y307477D01*
X255345Y307360D01*
X255334Y307346D01*
X255320Y307334D01*
X255208Y307189D01*
X255093Y307046D01*
X255085Y307030D01*
X255074Y307016D01*
X254992Y306851D01*
X254907Y306689D01*
X254902Y306672D01*
X254894Y306656D01*
X254847Y306477D01*
X254796Y306302D01*
X254794Y306284D01*
X254790Y306267D01*
X254763Y305936D01*
X254763Y302670D01*
X212334Y260241D01*
X212319Y260224D01*
X212303Y260209D01*
X212192Y260068D01*
X212079Y259929D01*
X212068Y259910D01*
X212054Y259892D01*
X211974Y259732D01*
X211890Y259574D01*
X211884Y259552D01*
X211874Y259532D01*
X211826Y259359D01*
X211775Y259188D01*
X211773Y259166D01*
X211767Y259144D01*
X211755Y258965D01*
X211739Y258787D01*
X211741Y258765D01*
X211740Y258742D01*
X211763Y258565D01*
X211782Y258387D01*
X211789Y258365D01*
X211792Y258343D01*
X211893Y258027D01*
X212773Y255904D01*
X212773Y252096D01*
X211315Y248577D01*
X208623Y245885D01*
X205104Y244427D01*
X201296Y244427D01*
X198135Y245736D01*
X198122Y245740D01*
X198111Y245746D01*
X197931Y245798D01*
X197750Y245853D01*
X197737Y245854D01*
X197724Y245858D01*
X197536Y245873D01*
X197349Y245891D01*
X197336Y245890D01*
X197322Y245891D01*
X197136Y245869D01*
X196949Y245849D01*
X196936Y245845D01*
X196923Y245844D01*
X196744Y245786D01*
X196564Y245730D01*
X196553Y245723D01*
X196540Y245719D01*
X196376Y245627D01*
X196211Y245536D01*
X196201Y245528D01*
X196189Y245521D01*
X196047Y245399D01*
X195903Y245277D01*
X195895Y245267D01*
X195884Y245258D01*
X195770Y245110D01*
X195652Y244962D01*
X195646Y244950D01*
X195638Y244940D01*
X195554Y244772D01*
X195468Y244604D01*
X195464Y244591D01*
X195458Y244579D01*
X195409Y244397D01*
X195358Y244217D01*
X195357Y244204D01*
X195354Y244191D01*
X195327Y243860D01*
X195327Y190627D01*
X195329Y190609D01*
X195327Y190591D01*
X195348Y190409D01*
X195367Y190226D01*
X195372Y190209D01*
X195374Y190192D01*
X195431Y190017D01*
X195485Y189841D01*
X195493Y189826D01*
X195499Y189809D01*
X195589Y189649D01*
X195677Y189487D01*
X195688Y189474D01*
X195697Y189458D01*
X195817Y189319D01*
X195934Y189178D01*
X195948Y189167D01*
X195960Y189153D01*
X196105Y189041D01*
X196248Y188926D01*
X196264Y188918D01*
X196278Y188907D01*
X196443Y188825D01*
X196605Y188740D01*
X196622Y188735D01*
X196638Y188727D01*
X196817Y188680D01*
X196992Y188629D01*
X197010Y188627D01*
X197027Y188623D01*
X197358Y188596D01*
X207598Y188596D01*
X208789Y187405D01*
X208789Y168195D01*
X207598Y167004D01*
X206502Y167004D01*
X206484Y167002D01*
X206466Y167004D01*
X206284Y166983D01*
X206101Y166964D01*
X206084Y166959D01*
X206067Y166957D01*
X205892Y166900D01*
X205716Y166846D01*
X205701Y166838D01*
X205684Y166832D01*
X205524Y166742D01*
X205362Y166654D01*
X205349Y166643D01*
X205333Y166634D01*
X205194Y166514D01*
X205053Y166397D01*
X205042Y166383D01*
X205028Y166371D01*
X204916Y166226D01*
X204801Y166083D01*
X204793Y166067D01*
X204782Y166053D01*
X204700Y165888D01*
X204615Y165726D01*
X204610Y165709D01*
X204602Y165693D01*
X204555Y165514D01*
X204504Y165339D01*
X204502Y165321D01*
X204498Y165304D01*
X204471Y164973D01*
X204471Y161392D01*
X204471Y161388D01*
X204471Y161383D01*
X204491Y161189D01*
X204511Y160992D01*
X204512Y160987D01*
X204512Y160983D01*
X204571Y160795D01*
X204629Y160607D01*
X204631Y160603D01*
X204632Y160599D01*
X204728Y160424D01*
X204821Y160253D01*
X204823Y160249D01*
X204826Y160245D01*
X204954Y160092D01*
X205078Y159944D01*
X205082Y159941D01*
X205085Y159937D01*
X205240Y159814D01*
X205392Y159691D01*
X205396Y159689D01*
X205400Y159686D01*
X205579Y159594D01*
X205749Y159506D01*
X205754Y159504D01*
X205758Y159502D01*
X205951Y159448D01*
X206136Y159394D01*
X206141Y159394D01*
X206145Y159393D01*
X206341Y159378D01*
X206538Y159361D01*
X206542Y159362D01*
X206546Y159362D01*
X206740Y159385D01*
X206937Y159408D01*
X206942Y159410D01*
X206946Y159410D01*
X207131Y159472D01*
X207320Y159533D01*
X207324Y159535D01*
X207328Y159537D01*
X207497Y159633D01*
X207671Y159731D01*
X207674Y159734D01*
X207678Y159736D01*
X207827Y159866D01*
X207975Y159994D01*
X207978Y159998D01*
X207982Y160001D01*
X208103Y160158D01*
X208222Y160312D01*
X208224Y160316D01*
X208227Y160320D01*
X208379Y160615D01*
X208854Y161763D01*
X210855Y163764D01*
X211875Y164186D01*
X211902Y164201D01*
X211932Y164211D01*
X212080Y164296D01*
X212230Y164377D01*
X212254Y164396D01*
X212281Y164412D01*
X212534Y164627D01*
X222416Y174509D01*
X222433Y174530D01*
X222454Y174547D01*
X222561Y174685D01*
X222671Y174821D01*
X222684Y174844D01*
X222700Y174865D01*
X222778Y175022D01*
X222860Y175176D01*
X222868Y175202D01*
X222880Y175226D01*
X222925Y175395D01*
X222975Y175562D01*
X222977Y175589D01*
X222984Y175615D01*
X223011Y175945D01*
X223011Y187405D01*
X224202Y188596D01*
X237062Y188596D01*
X238253Y187405D01*
X238253Y168195D01*
X237062Y167004D01*
X225094Y167004D01*
X225068Y167002D01*
X225041Y167004D01*
X224867Y166982D01*
X224694Y166964D01*
X224668Y166957D01*
X224642Y166953D01*
X224476Y166897D01*
X224309Y166846D01*
X224285Y166834D01*
X224260Y166825D01*
X224108Y166738D01*
X223955Y166654D01*
X223934Y166637D01*
X223911Y166624D01*
X223658Y166409D01*
X222515Y165266D01*
X222509Y165259D01*
X222503Y165254D01*
X222381Y165103D01*
X222260Y164955D01*
X222256Y164947D01*
X222250Y164940D01*
X222161Y164768D01*
X222071Y164599D01*
X222069Y164590D01*
X222065Y164583D01*
X222012Y164398D01*
X221957Y164213D01*
X221956Y164204D01*
X221953Y164196D01*
X221938Y164005D01*
X221920Y163812D01*
X221921Y163803D01*
X221920Y163794D01*
X221943Y163605D01*
X221964Y163412D01*
X221966Y163403D01*
X221967Y163395D01*
X222027Y163213D01*
X222085Y163028D01*
X222089Y163020D01*
X222092Y163012D01*
X222186Y162845D01*
X222280Y162676D01*
X222286Y162669D01*
X222290Y162661D01*
X222415Y162516D01*
X222540Y162369D01*
X222547Y162363D01*
X222553Y162356D01*
X222705Y162239D01*
X222856Y162119D01*
X222864Y162115D01*
X222871Y162110D01*
X223043Y162024D01*
X223215Y161937D01*
X223224Y161934D01*
X223232Y161930D01*
X223417Y161881D01*
X223603Y161829D01*
X223612Y161828D01*
X223621Y161826D01*
X223951Y161799D01*
X315809Y161799D01*
X317302Y161180D01*
X318446Y160036D01*
X319065Y158543D01*
X319065Y121596D01*
X319067Y121578D01*
X319065Y121560D01*
X319086Y121378D01*
X319105Y121195D01*
X319110Y121178D01*
X319112Y121161D01*
X319169Y120986D01*
X319223Y120810D01*
X319231Y120795D01*
X319237Y120778D01*
X319327Y120618D01*
X319415Y120456D01*
X319426Y120443D01*
X319435Y120427D01*
X319555Y120288D01*
X319672Y120147D01*
X319686Y120136D01*
X319698Y120122D01*
X319843Y120010D01*
X319986Y119895D01*
X320002Y119887D01*
X320016Y119876D01*
X320181Y119794D01*
X320343Y119709D01*
X320360Y119704D01*
X320376Y119696D01*
X320555Y119649D01*
X320730Y119598D01*
X320748Y119596D01*
X320765Y119592D01*
X320854Y119585D01*
X322065Y118374D01*
X322065Y106626D01*
X320874Y105435D01*
X309126Y105435D01*
X307935Y106626D01*
X307935Y118374D01*
X309151Y119589D01*
X309305Y119605D01*
X309322Y119610D01*
X309339Y119612D01*
X309514Y119669D01*
X309690Y119723D01*
X309705Y119731D01*
X309722Y119737D01*
X309882Y119827D01*
X310044Y119915D01*
X310057Y119926D01*
X310073Y119935D01*
X310212Y120055D01*
X310353Y120172D01*
X310364Y120186D01*
X310378Y120198D01*
X310490Y120343D01*
X310605Y120486D01*
X310613Y120502D01*
X310624Y120516D01*
X310706Y120681D01*
X310791Y120843D01*
X310796Y120860D01*
X310804Y120876D01*
X310851Y121055D01*
X310902Y121230D01*
X310904Y121248D01*
X310908Y121265D01*
X310935Y121596D01*
X310935Y151638D01*
X310933Y151656D01*
X310935Y151674D01*
X310914Y151856D01*
X310895Y152039D01*
X310890Y152056D01*
X310888Y152073D01*
X310831Y152248D01*
X310777Y152424D01*
X310769Y152439D01*
X310763Y152456D01*
X310673Y152616D01*
X310585Y152778D01*
X310574Y152791D01*
X310565Y152807D01*
X310445Y152946D01*
X310328Y153087D01*
X310314Y153098D01*
X310302Y153112D01*
X310157Y153224D01*
X310014Y153339D01*
X309998Y153347D01*
X309984Y153358D01*
X309819Y153440D01*
X309657Y153525D01*
X309640Y153530D01*
X309624Y153538D01*
X309445Y153585D01*
X309270Y153636D01*
X309252Y153638D01*
X309235Y153642D01*
X308904Y153669D01*
X221720Y153669D01*
X221693Y153667D01*
X221666Y153669D01*
X221492Y153647D01*
X221319Y153629D01*
X221293Y153622D01*
X221267Y153618D01*
X221101Y153563D01*
X220934Y153511D01*
X220910Y153498D01*
X220885Y153490D01*
X220733Y153403D01*
X220580Y153319D01*
X220560Y153302D01*
X220536Y153289D01*
X220283Y153074D01*
X218782Y151573D01*
X218765Y151552D01*
X218744Y151535D01*
X218637Y151397D01*
X218527Y151261D01*
X218514Y151238D01*
X218498Y151216D01*
X218420Y151060D01*
X218338Y150906D01*
X218330Y150880D01*
X218318Y150856D01*
X218273Y150687D01*
X218223Y150520D01*
X218221Y150493D01*
X218214Y150467D01*
X218187Y150136D01*
X218187Y139348D01*
X209384Y130545D01*
X209367Y130524D01*
X209346Y130507D01*
X209239Y130369D01*
X209129Y130233D01*
X209116Y130210D01*
X209100Y130189D01*
X209022Y130032D01*
X208940Y129878D01*
X208932Y129852D01*
X208920Y129828D01*
X208875Y129659D01*
X208825Y129492D01*
X208823Y129465D01*
X208816Y129439D01*
X208789Y129109D01*
X208789Y117395D01*
X207598Y116204D01*
X194738Y116204D01*
X193547Y117395D01*
X193547Y129109D01*
X193546Y129117D01*
X193547Y129126D01*
X193526Y129320D01*
X193507Y129509D01*
X193505Y129518D01*
X193504Y129527D01*
X193445Y129711D01*
X193389Y129894D01*
X193385Y129902D01*
X193382Y129911D01*
X193289Y130079D01*
X193197Y130248D01*
X193192Y130255D01*
X193187Y130263D01*
X193063Y130410D01*
X192940Y130557D01*
X192933Y130563D01*
X192927Y130570D01*
X192775Y130690D01*
X192626Y130810D01*
X192618Y130814D01*
X192611Y130819D01*
X192438Y130907D01*
X192269Y130995D01*
X192260Y130998D01*
X192252Y131002D01*
X192066Y131054D01*
X191882Y131107D01*
X191873Y131107D01*
X191864Y131110D01*
X191671Y131124D01*
X191480Y131140D01*
X191472Y131139D01*
X191463Y131139D01*
X191270Y131115D01*
X191081Y131093D01*
X191072Y131090D01*
X191063Y131089D01*
X190881Y131028D01*
X190698Y130968D01*
X190690Y130963D01*
X190682Y130961D01*
X190515Y130864D01*
X190347Y130770D01*
X190340Y130764D01*
X190333Y130760D01*
X190080Y130545D01*
X157060Y97525D01*
X157043Y97504D01*
X157022Y97487D01*
X156915Y97349D01*
X156805Y97213D01*
X156792Y97190D01*
X156776Y97169D01*
X156698Y97012D01*
X156616Y96858D01*
X156608Y96832D01*
X156596Y96808D01*
X156551Y96639D01*
X156501Y96472D01*
X156499Y96445D01*
X156492Y96419D01*
X156465Y96089D01*
X156465Y60835D01*
X156467Y60813D01*
X156465Y60791D01*
X156487Y60613D01*
X156505Y60434D01*
X156511Y60413D01*
X156514Y60391D01*
X156570Y60221D01*
X156623Y60049D01*
X156633Y60030D01*
X156640Y60009D01*
X156729Y59853D01*
X156815Y59695D01*
X156829Y59678D01*
X156840Y59659D01*
X156958Y59524D01*
X157072Y59386D01*
X157090Y59372D01*
X157104Y59355D01*
X157246Y59246D01*
X157386Y59134D01*
X157406Y59124D01*
X157424Y59110D01*
X157719Y58958D01*
X157823Y58915D01*
X159457Y57280D01*
X159494Y57250D01*
X159526Y57215D01*
X159650Y57123D01*
X159769Y57025D01*
X159811Y57003D01*
X159849Y56975D01*
X159988Y56909D01*
X160125Y56837D01*
X160170Y56823D01*
X160213Y56803D01*
X160363Y56766D01*
X160510Y56722D01*
X160558Y56718D01*
X160604Y56706D01*
X160758Y56700D01*
X160911Y56686D01*
X160959Y56691D01*
X161006Y56689D01*
X161158Y56712D01*
X161312Y56729D01*
X161357Y56743D01*
X161404Y56751D01*
X161548Y56804D01*
X161696Y56851D01*
X161737Y56874D01*
X161782Y56890D01*
X161913Y56971D01*
X162048Y57045D01*
X162084Y57076D01*
X162125Y57101D01*
X162307Y57265D01*
X162355Y57306D01*
X162362Y57314D01*
X162371Y57323D01*
X203694Y101130D01*
X203715Y101158D01*
X203747Y101189D01*
X222511Y122711D01*
X222603Y122841D01*
X222700Y122966D01*
X222719Y123004D01*
X222744Y123039D01*
X222809Y123184D01*
X222880Y123326D01*
X222891Y123368D01*
X222908Y123407D01*
X222943Y123562D01*
X222984Y123715D01*
X222988Y123763D01*
X222996Y123800D01*
X222998Y123887D01*
X223011Y124046D01*
X223011Y136605D01*
X224202Y137796D01*
X237062Y137796D01*
X238253Y136605D01*
X238253Y132834D01*
X238255Y132816D01*
X238253Y132798D01*
X238274Y132616D01*
X238293Y132433D01*
X238298Y132416D01*
X238300Y132399D01*
X238357Y132224D01*
X238411Y132048D01*
X238419Y132033D01*
X238425Y132016D01*
X238515Y131856D01*
X238603Y131694D01*
X238614Y131681D01*
X238623Y131665D01*
X238743Y131526D01*
X238860Y131385D01*
X238874Y131374D01*
X238886Y131360D01*
X239031Y131248D01*
X239174Y131133D01*
X239190Y131125D01*
X239204Y131114D01*
X239369Y131032D01*
X239531Y130947D01*
X239548Y130942D01*
X239564Y130934D01*
X239743Y130887D01*
X239918Y130836D01*
X239936Y130834D01*
X239953Y130830D01*
X240284Y130803D01*
X260677Y130803D01*
X260704Y130805D01*
X260731Y130803D01*
X260905Y130825D01*
X261078Y130843D01*
X261104Y130850D01*
X261130Y130854D01*
X261296Y130909D01*
X261463Y130961D01*
X261487Y130974D01*
X261512Y130982D01*
X261664Y131069D01*
X261817Y131153D01*
X261837Y131170D01*
X261861Y131183D01*
X262114Y131398D01*
X263781Y133065D01*
X266194Y134065D01*
X268806Y134065D01*
X271219Y133065D01*
X273065Y131219D01*
X274065Y128806D01*
X274065Y126194D01*
X273065Y123781D01*
X271219Y121935D01*
X268806Y120935D01*
X266194Y120935D01*
X263781Y121935D01*
X262114Y123602D01*
X262093Y123619D01*
X262076Y123640D01*
X261938Y123747D01*
X261802Y123857D01*
X261779Y123870D01*
X261757Y123886D01*
X261601Y123964D01*
X261447Y124046D01*
X261421Y124054D01*
X261397Y124066D01*
X261228Y124111D01*
X261061Y124161D01*
X261034Y124163D01*
X261008Y124170D01*
X260677Y124197D01*
X240284Y124197D01*
X240266Y124195D01*
X240248Y124197D01*
X240066Y124176D01*
X239883Y124157D01*
X239866Y124152D01*
X239849Y124150D01*
X239674Y124093D01*
X239498Y124039D01*
X239483Y124031D01*
X239466Y124025D01*
X239306Y123935D01*
X239144Y123847D01*
X239131Y123836D01*
X239115Y123827D01*
X238976Y123707D01*
X238835Y123590D01*
X238824Y123576D01*
X238810Y123564D01*
X238698Y123419D01*
X238583Y123276D01*
X238575Y123260D01*
X238564Y123246D01*
X238482Y123081D01*
X238397Y122919D01*
X238392Y122902D01*
X238384Y122886D01*
X238337Y122707D01*
X238286Y122532D01*
X238284Y122514D01*
X238280Y122497D01*
X238253Y122166D01*
X238253Y117395D01*
X237062Y116204D01*
X226525Y116204D01*
X226430Y116195D01*
X226334Y116195D01*
X226230Y116175D01*
X226125Y116164D01*
X226033Y116136D01*
X225938Y116118D01*
X225841Y116077D01*
X225740Y116046D01*
X225655Y116000D01*
X225566Y115964D01*
X225479Y115905D01*
X225386Y115854D01*
X225312Y115793D01*
X225232Y115739D01*
X225139Y115649D01*
X225077Y115597D01*
X225044Y115556D01*
X224994Y115508D01*
X210030Y98343D01*
X209921Y98190D01*
X209809Y98038D01*
X209804Y98026D01*
X209796Y98015D01*
X209761Y97936D01*
X208642Y96750D01*
X208621Y96722D01*
X208589Y96691D01*
X207511Y95455D01*
X207384Y95377D01*
X207374Y95367D01*
X207364Y95361D01*
X207317Y95316D01*
X207138Y95155D01*
X177559Y63798D01*
X177449Y63655D01*
X177336Y63514D01*
X177326Y63495D01*
X177313Y63479D01*
X177233Y63317D01*
X177150Y63157D01*
X177145Y63137D01*
X177135Y63118D01*
X177089Y62943D01*
X177039Y62770D01*
X177037Y62749D01*
X177032Y62729D01*
X177021Y62549D01*
X177006Y62368D01*
X177008Y62348D01*
X177007Y62327D01*
X177032Y62148D01*
X177053Y61969D01*
X177059Y61949D01*
X177062Y61928D01*
X177122Y61758D01*
X177178Y61586D01*
X177188Y61568D01*
X177195Y61548D01*
X177287Y61393D01*
X177376Y61235D01*
X177389Y61219D01*
X177400Y61201D01*
X177521Y61067D01*
X177639Y60930D01*
X177655Y60918D01*
X177669Y60902D01*
X177815Y60794D01*
X177957Y60684D01*
X177975Y60674D01*
X177992Y60662D01*
X178155Y60585D01*
X178317Y60504D01*
X178338Y60499D01*
X178356Y60490D01*
X178531Y60447D01*
X178706Y60400D01*
X178729Y60398D01*
X178747Y60393D01*
X178825Y60390D01*
X179037Y60373D01*
X179704Y60373D01*
X183223Y58915D01*
X185915Y56223D01*
X187373Y52704D01*
X187373Y48896D01*
X185915Y45377D01*
X183223Y42685D01*
X179704Y41227D01*
X175896Y41227D01*
X172377Y42685D01*
X170739Y44323D01*
X170725Y44335D01*
X170713Y44348D01*
X170570Y44462D01*
X170427Y44578D01*
X170411Y44587D01*
X170397Y44598D01*
X170233Y44681D01*
X170072Y44767D01*
X170055Y44772D01*
X170039Y44780D01*
X169861Y44830D01*
X169686Y44882D01*
X169668Y44883D01*
X169651Y44888D01*
X169467Y44902D01*
X169285Y44918D01*
X169267Y44916D01*
X169249Y44918D01*
X169067Y44895D01*
X168884Y44875D01*
X168867Y44869D01*
X168850Y44867D01*
X168676Y44809D01*
X168501Y44753D01*
X168485Y44745D01*
X168468Y44739D01*
X168308Y44647D01*
X168148Y44558D01*
X168135Y44547D01*
X168119Y44538D01*
X167866Y44323D01*
X161632Y38089D01*
X159102Y35559D01*
X138078Y35559D01*
X132343Y41294D01*
X132326Y41309D01*
X132311Y41325D01*
X132170Y41436D01*
X132031Y41549D01*
X132012Y41560D01*
X131994Y41574D01*
X131834Y41654D01*
X131676Y41738D01*
X131654Y41744D01*
X131634Y41754D01*
X131462Y41802D01*
X131290Y41853D01*
X131268Y41855D01*
X131246Y41861D01*
X131067Y41873D01*
X130889Y41889D01*
X130867Y41887D01*
X130844Y41888D01*
X130667Y41865D01*
X130489Y41846D01*
X130467Y41839D01*
X130445Y41836D01*
X130129Y41735D01*
X128904Y41227D01*
X125096Y41227D01*
X121578Y42685D01*
X119336Y44926D01*
X119329Y44931D01*
X119324Y44938D01*
X119174Y45059D01*
X119025Y45181D01*
X119017Y45185D01*
X119010Y45191D01*
X118840Y45279D01*
X118669Y45369D01*
X118661Y45372D01*
X118653Y45376D01*
X118468Y45429D01*
X118283Y45484D01*
X118274Y45485D01*
X118266Y45488D01*
X118075Y45503D01*
X117882Y45521D01*
X117873Y45520D01*
X117864Y45520D01*
X117675Y45498D01*
X117482Y45477D01*
X117473Y45475D01*
X117465Y45474D01*
X117283Y45414D01*
X117098Y45356D01*
X117090Y45351D01*
X117082Y45349D01*
X116913Y45254D01*
X116746Y45161D01*
X116739Y45155D01*
X116731Y45151D01*
X116585Y45025D01*
X116439Y44900D01*
X116433Y44893D01*
X116427Y44888D01*
X116309Y44736D01*
X116189Y44585D01*
X116185Y44577D01*
X116180Y44570D01*
X116094Y44397D01*
X116007Y44226D01*
X116004Y44217D01*
X116000Y44209D01*
X115950Y44023D01*
X115899Y43838D01*
X115898Y43829D01*
X115896Y43820D01*
X115869Y43489D01*
X115869Y25400D01*
X115871Y25382D01*
X115869Y25364D01*
X115890Y25182D01*
X115909Y24999D01*
X115914Y24982D01*
X115916Y24965D01*
X115973Y24790D01*
X116027Y24614D01*
X116035Y24599D01*
X116041Y24582D01*
X116131Y24422D01*
X116219Y24260D01*
X116230Y24247D01*
X116239Y24231D01*
X116359Y24092D01*
X116476Y23951D01*
X116490Y23940D01*
X116502Y23927D01*
X116647Y23814D01*
X116790Y23699D01*
X116806Y23691D01*
X116820Y23680D01*
X116985Y23598D01*
X117147Y23513D01*
X117164Y23508D01*
X117181Y23500D01*
X117359Y23453D01*
X117534Y23402D01*
X117552Y23400D01*
X117569Y23396D01*
X117900Y23369D01*
X590916Y23369D01*
X590925Y23370D01*
G37*
G36*
X193250Y550002D02*
X193250Y550002D01*
X193267Y550001D01*
X193450Y550022D01*
X193632Y550041D01*
X193649Y550046D01*
X193667Y550048D01*
X193842Y550105D01*
X194017Y550159D01*
X194033Y550167D01*
X194050Y550173D01*
X194210Y550263D01*
X194371Y550350D01*
X194385Y550362D01*
X194401Y550371D01*
X194540Y550491D01*
X194681Y550608D01*
X194692Y550622D01*
X194705Y550634D01*
X194818Y550779D01*
X194933Y550922D01*
X194941Y550938D01*
X194952Y550952D01*
X195034Y551117D01*
X195048Y551144D01*
X195146Y551199D01*
X195308Y551287D01*
X195321Y551298D01*
X195337Y551307D01*
X195476Y551427D01*
X195617Y551545D01*
X195628Y551558D01*
X195642Y551570D01*
X195754Y551715D01*
X195869Y551858D01*
X195877Y551874D01*
X195888Y551888D01*
X195970Y552053D01*
X196055Y552216D01*
X196060Y552233D01*
X196068Y552249D01*
X196115Y552427D01*
X196166Y552602D01*
X196168Y552620D01*
X196172Y552637D01*
X196199Y552968D01*
X196199Y570041D01*
X199035Y570041D01*
X199681Y569868D01*
X200363Y569474D01*
X200434Y569415D01*
X200450Y569407D01*
X200464Y569396D01*
X200629Y569312D01*
X200790Y569227D01*
X200807Y569221D01*
X200823Y569213D01*
X201001Y569164D01*
X201176Y569112D01*
X201194Y569110D01*
X201211Y569105D01*
X201394Y569092D01*
X201577Y569075D01*
X201595Y569077D01*
X201613Y569076D01*
X201794Y569099D01*
X201977Y569119D01*
X201994Y569124D01*
X202012Y569126D01*
X202185Y569185D01*
X202361Y569240D01*
X202377Y569249D01*
X202394Y569255D01*
X202553Y569346D01*
X202713Y569435D01*
X202727Y569447D01*
X202743Y569456D01*
X202833Y569533D01*
X204978Y569533D01*
X204996Y569535D01*
X205014Y569533D01*
X205196Y569554D01*
X205379Y569573D01*
X205396Y569578D01*
X205413Y569580D01*
X205588Y569637D01*
X205764Y569691D01*
X205779Y569699D01*
X205796Y569705D01*
X205956Y569795D01*
X206118Y569883D01*
X206131Y569894D01*
X206147Y569903D01*
X206286Y570023D01*
X206427Y570140D01*
X206438Y570154D01*
X206452Y570166D01*
X206564Y570311D01*
X206679Y570454D01*
X206687Y570470D01*
X206698Y570484D01*
X206780Y570649D01*
X206865Y570811D01*
X206870Y570828D01*
X206878Y570844D01*
X206925Y571023D01*
X206976Y571198D01*
X206978Y571216D01*
X206982Y571233D01*
X207009Y571564D01*
X207009Y610616D01*
X207007Y610634D01*
X207009Y610652D01*
X206988Y610834D01*
X206969Y611017D01*
X206964Y611034D01*
X206962Y611051D01*
X206905Y611226D01*
X206851Y611402D01*
X206843Y611417D01*
X206837Y611434D01*
X206747Y611594D01*
X206659Y611756D01*
X206648Y611769D01*
X206639Y611785D01*
X206519Y611924D01*
X206402Y612065D01*
X206388Y612076D01*
X206376Y612090D01*
X206231Y612202D01*
X206088Y612317D01*
X206072Y612325D01*
X206058Y612336D01*
X205893Y612418D01*
X205731Y612503D01*
X205714Y612508D01*
X205698Y612516D01*
X205519Y612563D01*
X205344Y612614D01*
X205326Y612616D01*
X205309Y612620D01*
X204978Y612647D01*
X199202Y612647D01*
X193547Y618302D01*
X193547Y626298D01*
X199202Y631953D01*
X207198Y631953D01*
X208114Y631037D01*
X208121Y631032D01*
X208126Y631025D01*
X208277Y630904D01*
X208425Y630782D01*
X208433Y630778D01*
X208440Y630772D01*
X208610Y630684D01*
X208781Y630594D01*
X208790Y630591D01*
X208797Y630587D01*
X208982Y630534D01*
X209167Y630479D01*
X209176Y630478D01*
X209184Y630476D01*
X209375Y630460D01*
X209568Y630442D01*
X209577Y630443D01*
X209586Y630443D01*
X209775Y630465D01*
X209968Y630486D01*
X209977Y630489D01*
X209985Y630490D01*
X210167Y630549D01*
X210352Y630607D01*
X210360Y630612D01*
X210368Y630614D01*
X210535Y630709D01*
X210704Y630802D01*
X210711Y630808D01*
X210719Y630812D01*
X210864Y630937D01*
X211011Y631063D01*
X211017Y631070D01*
X211024Y631075D01*
X211140Y631226D01*
X211261Y631379D01*
X211265Y631387D01*
X211270Y631394D01*
X211355Y631564D01*
X211443Y631737D01*
X211446Y631746D01*
X211450Y631754D01*
X211499Y631940D01*
X211551Y632125D01*
X211552Y632134D01*
X211554Y632143D01*
X211581Y632474D01*
X211581Y633299D01*
X211579Y633325D01*
X211581Y633352D01*
X211559Y633526D01*
X211541Y633699D01*
X211534Y633725D01*
X211530Y633751D01*
X211475Y633917D01*
X211423Y634084D01*
X211410Y634108D01*
X211402Y634133D01*
X211315Y634284D01*
X211231Y634438D01*
X211214Y634459D01*
X211201Y634482D01*
X210986Y634735D01*
X208269Y637452D01*
X208248Y637469D01*
X208231Y637490D01*
X208093Y637597D01*
X207957Y637707D01*
X207934Y637720D01*
X207913Y637736D01*
X207756Y637814D01*
X207602Y637896D01*
X207576Y637904D01*
X207552Y637916D01*
X207383Y637961D01*
X207216Y638011D01*
X207189Y638013D01*
X207163Y638020D01*
X206833Y638047D01*
X199202Y638047D01*
X193547Y643702D01*
X193547Y651698D01*
X195733Y653884D01*
X195738Y653891D01*
X195745Y653896D01*
X195866Y654046D01*
X195988Y654195D01*
X195992Y654203D01*
X195998Y654210D01*
X196086Y654380D01*
X196176Y654551D01*
X196179Y654560D01*
X196183Y654567D01*
X196236Y654752D01*
X196291Y654937D01*
X196292Y654946D01*
X196294Y654954D01*
X196310Y655145D01*
X196328Y655338D01*
X196327Y655347D01*
X196327Y655356D01*
X196305Y655545D01*
X196284Y655738D01*
X196281Y655747D01*
X196280Y655755D01*
X196221Y655937D01*
X196163Y656122D01*
X196158Y656130D01*
X196156Y656138D01*
X196061Y656307D01*
X195968Y656474D01*
X195962Y656481D01*
X195958Y656489D01*
X195832Y656635D01*
X195707Y656781D01*
X195700Y656787D01*
X195695Y656794D01*
X195543Y656911D01*
X195391Y657031D01*
X195383Y657035D01*
X195376Y657040D01*
X195204Y657126D01*
X195032Y657213D01*
X195024Y657216D01*
X195016Y657220D01*
X194830Y657270D01*
X194645Y657321D01*
X194636Y657322D01*
X194627Y657324D01*
X194296Y657351D01*
X191947Y657351D01*
X191921Y657349D01*
X191894Y657351D01*
X191720Y657329D01*
X191547Y657311D01*
X191521Y657304D01*
X191495Y657300D01*
X191329Y657245D01*
X191162Y657193D01*
X191138Y657180D01*
X191113Y657172D01*
X190962Y657085D01*
X190808Y657001D01*
X190787Y656984D01*
X190764Y656971D01*
X190511Y656756D01*
X187889Y654134D01*
X187878Y654121D01*
X187864Y654109D01*
X187750Y653965D01*
X187634Y653823D01*
X187626Y653807D01*
X187615Y653793D01*
X187531Y653629D01*
X187446Y653467D01*
X187440Y653450D01*
X187432Y653434D01*
X187383Y653257D01*
X187331Y653081D01*
X187329Y653064D01*
X187324Y653046D01*
X187311Y652863D01*
X187294Y652680D01*
X187296Y652663D01*
X187295Y652645D01*
X187318Y652463D01*
X187338Y652280D01*
X187343Y652263D01*
X187345Y652245D01*
X187404Y652072D01*
X187453Y651917D01*
X187453Y643702D01*
X181798Y638047D01*
X173802Y638047D01*
X173648Y638201D01*
X173641Y638206D01*
X173636Y638213D01*
X173487Y638333D01*
X173337Y638456D01*
X173329Y638460D01*
X173322Y638466D01*
X173153Y638553D01*
X172981Y638644D01*
X172972Y638647D01*
X172965Y638651D01*
X172781Y638704D01*
X172595Y638759D01*
X172586Y638760D01*
X172578Y638762D01*
X172387Y638778D01*
X172194Y638796D01*
X172185Y638795D01*
X172176Y638795D01*
X171987Y638773D01*
X171794Y638752D01*
X171785Y638749D01*
X171777Y638748D01*
X171594Y638689D01*
X171410Y638631D01*
X171402Y638626D01*
X171394Y638624D01*
X171225Y638529D01*
X171058Y638436D01*
X171051Y638430D01*
X171043Y638426D01*
X170898Y638300D01*
X170751Y638175D01*
X170745Y638168D01*
X170738Y638163D01*
X170621Y638011D01*
X170501Y637859D01*
X170497Y637851D01*
X170492Y637844D01*
X170404Y637669D01*
X170319Y637501D01*
X170316Y637492D01*
X170312Y637484D01*
X170262Y637296D01*
X170211Y637113D01*
X170210Y637104D01*
X170208Y637095D01*
X170181Y636764D01*
X170181Y633954D01*
X170182Y633945D01*
X170181Y633936D01*
X170201Y633746D01*
X170221Y633553D01*
X170223Y633545D01*
X170224Y633536D01*
X170282Y633352D01*
X170339Y633168D01*
X170343Y633161D01*
X170346Y633152D01*
X170439Y632984D01*
X170531Y632814D01*
X170536Y632808D01*
X170541Y632800D01*
X170666Y632652D01*
X170788Y632505D01*
X170795Y632500D01*
X170801Y632493D01*
X170953Y632372D01*
X171102Y632253D01*
X171110Y632249D01*
X171117Y632243D01*
X171290Y632155D01*
X171459Y632067D01*
X171468Y632065D01*
X171476Y632061D01*
X171662Y632009D01*
X171846Y631956D01*
X171855Y631955D01*
X171864Y631953D01*
X172056Y631939D01*
X172248Y631923D01*
X172256Y631924D01*
X172265Y631923D01*
X172457Y631948D01*
X172647Y631970D01*
X172656Y631973D01*
X172665Y631974D01*
X172847Y632035D01*
X173030Y632095D01*
X173038Y632099D01*
X173046Y632102D01*
X173214Y632198D01*
X173381Y632293D01*
X173388Y632299D01*
X173395Y632303D01*
X173581Y632461D01*
X175261Y632461D01*
X175261Y622808D01*
X175262Y622790D01*
X175261Y622773D01*
X175282Y622590D01*
X175301Y622408D01*
X175306Y622391D01*
X175308Y622373D01*
X175333Y622295D01*
X175294Y622158D01*
X175292Y622140D01*
X175288Y622123D01*
X175261Y621792D01*
X175261Y612139D01*
X173580Y612139D01*
X173486Y612215D01*
X173337Y612337D01*
X173329Y612341D01*
X173322Y612347D01*
X173152Y612436D01*
X172981Y612526D01*
X172972Y612529D01*
X172965Y612533D01*
X172781Y612585D01*
X172595Y612641D01*
X172586Y612642D01*
X172578Y612644D01*
X172387Y612660D01*
X172194Y612677D01*
X172185Y612676D01*
X172176Y612677D01*
X171987Y612655D01*
X171794Y612634D01*
X171785Y612631D01*
X171777Y612630D01*
X171594Y612570D01*
X171410Y612512D01*
X171402Y612508D01*
X171394Y612505D01*
X171225Y612410D01*
X171058Y612317D01*
X171051Y612312D01*
X171043Y612307D01*
X170898Y612182D01*
X170751Y612057D01*
X170745Y612050D01*
X170738Y612044D01*
X170621Y611893D01*
X170501Y611741D01*
X170497Y611733D01*
X170492Y611726D01*
X170406Y611554D01*
X170319Y611382D01*
X170316Y611374D01*
X170312Y611365D01*
X170262Y611178D01*
X170211Y610994D01*
X170210Y610985D01*
X170208Y610977D01*
X170181Y610646D01*
X170181Y571835D01*
X170189Y571753D01*
X170187Y571671D01*
X170209Y571553D01*
X170221Y571434D01*
X170245Y571355D01*
X170259Y571275D01*
X170304Y571163D01*
X170339Y571049D01*
X170378Y570977D01*
X170408Y570900D01*
X170474Y570800D01*
X170531Y570695D01*
X170583Y570632D01*
X170628Y570563D01*
X170712Y570477D01*
X170788Y570386D01*
X170852Y570334D01*
X170910Y570276D01*
X171009Y570208D01*
X171102Y570133D01*
X171175Y570096D01*
X171243Y570049D01*
X171353Y570003D01*
X171459Y569948D01*
X171538Y569925D01*
X171614Y569893D01*
X171731Y569870D01*
X171846Y569836D01*
X171928Y569830D01*
X172009Y569813D01*
X172128Y569813D01*
X172248Y569804D01*
X172329Y569813D01*
X172411Y569813D01*
X172561Y569840D01*
X172647Y569851D01*
X172686Y569863D01*
X172738Y569873D01*
X173366Y570041D01*
X176201Y570041D01*
X176201Y552968D01*
X176202Y552950D01*
X176201Y552933D01*
X176222Y552750D01*
X176241Y552568D01*
X176246Y552551D01*
X176248Y552533D01*
X176305Y552358D01*
X176359Y552183D01*
X176367Y552167D01*
X176373Y552150D01*
X176463Y551990D01*
X176550Y551829D01*
X176562Y551815D01*
X176571Y551799D01*
X176691Y551660D01*
X176808Y551519D01*
X176822Y551508D01*
X176834Y551495D01*
X176979Y551382D01*
X177122Y551267D01*
X177138Y551259D01*
X177152Y551248D01*
X177317Y551166D01*
X177344Y551152D01*
X177399Y551054D01*
X177487Y550892D01*
X177498Y550879D01*
X177507Y550863D01*
X177627Y550724D01*
X177745Y550583D01*
X177758Y550572D01*
X177770Y550558D01*
X177915Y550446D01*
X178058Y550331D01*
X178074Y550323D01*
X178088Y550312D01*
X178253Y550230D01*
X178416Y550145D01*
X178433Y550140D01*
X178449Y550132D01*
X178627Y550084D01*
X178802Y550034D01*
X178820Y550032D01*
X178837Y550028D01*
X179168Y550001D01*
X193232Y550001D01*
X193250Y550002D01*
G37*
G36*
X329186Y550939D02*
X329186Y550939D01*
X329204Y550937D01*
X329386Y550959D01*
X329569Y550977D01*
X329586Y550982D01*
X329603Y550984D01*
X329778Y551041D01*
X329954Y551095D01*
X329969Y551103D01*
X329986Y551109D01*
X330146Y551199D01*
X330308Y551287D01*
X330321Y551298D01*
X330337Y551307D01*
X330476Y551427D01*
X330617Y551545D01*
X330628Y551558D01*
X330642Y551570D01*
X330754Y551715D01*
X330869Y551858D01*
X330877Y551874D01*
X330888Y551888D01*
X330970Y552053D01*
X331055Y552216D01*
X331060Y552233D01*
X331068Y552249D01*
X331115Y552427D01*
X331166Y552602D01*
X331168Y552620D01*
X331172Y552637D01*
X331199Y552968D01*
X331199Y570041D01*
X334035Y570041D01*
X334681Y569868D01*
X335363Y569474D01*
X335434Y569415D01*
X335450Y569407D01*
X335464Y569396D01*
X335629Y569312D01*
X335790Y569227D01*
X335807Y569221D01*
X335823Y569213D01*
X336001Y569164D01*
X336176Y569112D01*
X336194Y569110D01*
X336211Y569105D01*
X336394Y569092D01*
X336577Y569075D01*
X336595Y569077D01*
X336613Y569076D01*
X336794Y569099D01*
X336977Y569119D01*
X336994Y569124D01*
X337012Y569126D01*
X337185Y569185D01*
X337361Y569240D01*
X337377Y569249D01*
X337394Y569255D01*
X337553Y569346D01*
X337713Y569435D01*
X337727Y569447D01*
X337743Y569456D01*
X337869Y569563D01*
X337967Y569573D01*
X337984Y569578D01*
X338001Y569580D01*
X338176Y569637D01*
X338352Y569691D01*
X338367Y569699D01*
X338384Y569705D01*
X338544Y569795D01*
X338706Y569883D01*
X338719Y569894D01*
X338735Y569903D01*
X338874Y570023D01*
X339015Y570140D01*
X339026Y570154D01*
X339040Y570166D01*
X339152Y570311D01*
X339267Y570454D01*
X339275Y570470D01*
X339286Y570484D01*
X339368Y570649D01*
X339453Y570811D01*
X339458Y570828D01*
X339466Y570844D01*
X339513Y571023D01*
X339564Y571198D01*
X339566Y571216D01*
X339570Y571233D01*
X339597Y571564D01*
X339597Y589865D01*
X339595Y589891D01*
X339597Y589918D01*
X339575Y590092D01*
X339557Y590265D01*
X339550Y590291D01*
X339546Y590317D01*
X339491Y590483D01*
X339439Y590650D01*
X339426Y590674D01*
X339418Y590699D01*
X339331Y590851D01*
X339247Y591004D01*
X339230Y591025D01*
X339217Y591048D01*
X339002Y591301D01*
X314663Y615640D01*
X314650Y615651D01*
X314638Y615665D01*
X314494Y615778D01*
X314352Y615895D01*
X314336Y615903D01*
X314322Y615914D01*
X314158Y615998D01*
X313996Y616083D01*
X313979Y616089D01*
X313963Y616097D01*
X313786Y616146D01*
X313610Y616198D01*
X313593Y616200D01*
X313575Y616205D01*
X313392Y616218D01*
X313209Y616235D01*
X313192Y616233D01*
X313174Y616234D01*
X312992Y616211D01*
X312809Y616191D01*
X312792Y616186D01*
X312774Y616184D01*
X312601Y616125D01*
X312425Y616070D01*
X312410Y616061D01*
X312393Y616055D01*
X312233Y615964D01*
X312073Y615875D01*
X312059Y615863D01*
X312044Y615854D01*
X311791Y615640D01*
X308798Y612647D01*
X300802Y612647D01*
X297092Y616357D01*
X297085Y616362D01*
X297080Y616369D01*
X296930Y616490D01*
X296781Y616612D01*
X296773Y616616D01*
X296766Y616622D01*
X296596Y616710D01*
X296425Y616800D01*
X296416Y616803D01*
X296409Y616807D01*
X296224Y616860D01*
X296039Y616915D01*
X296030Y616916D01*
X296022Y616918D01*
X295830Y616934D01*
X295638Y616952D01*
X295629Y616951D01*
X295620Y616951D01*
X295431Y616929D01*
X295238Y616908D01*
X295229Y616905D01*
X295221Y616904D01*
X295039Y616845D01*
X294854Y616787D01*
X294846Y616782D01*
X294838Y616780D01*
X294669Y616685D01*
X294502Y616592D01*
X294495Y616586D01*
X294487Y616582D01*
X294341Y616456D01*
X294195Y616331D01*
X294189Y616324D01*
X294182Y616319D01*
X294065Y616167D01*
X293945Y616015D01*
X293941Y616007D01*
X293936Y616000D01*
X293850Y615828D01*
X293763Y615656D01*
X293760Y615648D01*
X293756Y615640D01*
X293706Y615454D01*
X293655Y615269D01*
X293654Y615260D01*
X293652Y615251D01*
X293625Y614920D01*
X293625Y583848D01*
X291095Y581319D01*
X291095Y581318D01*
X282777Y573000D01*
X282771Y572993D01*
X282765Y572988D01*
X282644Y572838D01*
X282522Y572689D01*
X282518Y572681D01*
X282512Y572674D01*
X282423Y572503D01*
X282333Y572333D01*
X282331Y572325D01*
X282327Y572317D01*
X282273Y572131D01*
X282219Y571947D01*
X282218Y571938D01*
X282215Y571930D01*
X282200Y571738D01*
X282182Y571546D01*
X282183Y571537D01*
X282182Y571528D01*
X282205Y571339D01*
X282226Y571146D01*
X282228Y571137D01*
X282229Y571129D01*
X282289Y570947D01*
X282347Y570762D01*
X282351Y570754D01*
X282354Y570746D01*
X282449Y570577D01*
X282542Y570410D01*
X282548Y570403D01*
X282552Y570395D01*
X282678Y570249D01*
X282802Y570103D01*
X282809Y570097D01*
X282815Y570090D01*
X282967Y569973D01*
X283118Y569853D01*
X283126Y569849D01*
X283133Y569844D01*
X283305Y569758D01*
X283477Y569671D01*
X283486Y569668D01*
X283494Y569664D01*
X283680Y569614D01*
X283865Y569563D01*
X283874Y569562D01*
X283883Y569560D01*
X284213Y569533D01*
X289542Y569533D01*
X289764Y569311D01*
X289778Y569300D01*
X289789Y569286D01*
X289933Y569172D01*
X290075Y569056D01*
X290091Y569048D01*
X290105Y569036D01*
X290269Y568953D01*
X290431Y568867D01*
X290448Y568862D01*
X290464Y568854D01*
X290641Y568805D01*
X290817Y568753D01*
X290835Y568751D01*
X290852Y568746D01*
X291035Y568733D01*
X291218Y568716D01*
X291236Y568718D01*
X291253Y568717D01*
X291435Y568740D01*
X291618Y568760D01*
X291635Y568765D01*
X291653Y568767D01*
X291826Y568825D01*
X292002Y568881D01*
X292018Y568890D01*
X292034Y568895D01*
X292194Y568987D01*
X292354Y569076D01*
X292368Y569087D01*
X292383Y569096D01*
X292636Y569311D01*
X292858Y569533D01*
X304542Y569533D01*
X304764Y569311D01*
X304778Y569300D01*
X304789Y569286D01*
X304933Y569172D01*
X305075Y569056D01*
X305091Y569048D01*
X305105Y569036D01*
X305269Y568953D01*
X305431Y568867D01*
X305448Y568862D01*
X305464Y568854D01*
X305641Y568805D01*
X305817Y568753D01*
X305835Y568751D01*
X305852Y568746D01*
X306035Y568733D01*
X306218Y568716D01*
X306236Y568718D01*
X306253Y568717D01*
X306435Y568740D01*
X306618Y568760D01*
X306635Y568765D01*
X306653Y568767D01*
X306826Y568825D01*
X307002Y568881D01*
X307018Y568890D01*
X307034Y568895D01*
X307194Y568987D01*
X307354Y569076D01*
X307368Y569087D01*
X307383Y569096D01*
X307636Y569311D01*
X307858Y569533D01*
X319572Y569533D01*
X319575Y569531D01*
X319716Y569415D01*
X319732Y569407D01*
X319746Y569395D01*
X319911Y569312D01*
X320072Y569227D01*
X320089Y569221D01*
X320105Y569213D01*
X320282Y569164D01*
X320458Y569112D01*
X320476Y569110D01*
X320493Y569105D01*
X320675Y569092D01*
X320859Y569075D01*
X320877Y569077D01*
X320895Y569076D01*
X321076Y569099D01*
X321259Y569119D01*
X321276Y569124D01*
X321294Y569127D01*
X321467Y569185D01*
X321643Y569240D01*
X321659Y569249D01*
X321676Y569255D01*
X321834Y569346D01*
X321995Y569435D01*
X322009Y569447D01*
X322025Y569456D01*
X322064Y569489D01*
X322719Y569868D01*
X323365Y570041D01*
X326201Y570041D01*
X326201Y552968D01*
X326202Y552950D01*
X326201Y552933D01*
X326222Y552750D01*
X326241Y552568D01*
X326246Y552551D01*
X326248Y552533D01*
X326305Y552358D01*
X326359Y552183D01*
X326367Y552167D01*
X326373Y552150D01*
X326463Y551990D01*
X326550Y551829D01*
X326562Y551815D01*
X326571Y551799D01*
X326691Y551660D01*
X326808Y551519D01*
X326822Y551508D01*
X326834Y551495D01*
X326979Y551382D01*
X327122Y551267D01*
X327138Y551259D01*
X327152Y551248D01*
X327317Y551166D01*
X327479Y551082D01*
X327496Y551077D01*
X327512Y551069D01*
X327691Y551021D01*
X327866Y550970D01*
X327884Y550969D01*
X327901Y550964D01*
X328232Y550937D01*
X329168Y550937D01*
X329186Y550939D01*
G37*
%LPC*%
G36*
X605590Y665639D02*
X605590Y665639D01*
X598180Y668709D01*
X592509Y674380D01*
X589439Y681790D01*
X589439Y689810D01*
X592509Y697220D01*
X598180Y702891D01*
X600845Y703996D01*
X605590Y705961D01*
X613610Y705961D01*
X621020Y702891D01*
X626691Y697220D01*
X629761Y689810D01*
X629761Y681790D01*
X626691Y674380D01*
X621020Y668709D01*
X617178Y667117D01*
X613610Y665639D01*
X605590Y665639D01*
G37*
%LPD*%
%LPC*%
G36*
X542159Y43687D02*
X542159Y43687D01*
X534877Y46704D01*
X529304Y52277D01*
X526287Y59559D01*
X526287Y67441D01*
X529304Y74723D01*
X534877Y80296D01*
X542159Y83313D01*
X550041Y83313D01*
X557323Y80296D01*
X562896Y74723D01*
X565913Y67441D01*
X565913Y59559D01*
X562896Y52277D01*
X557323Y46704D01*
X550041Y43687D01*
X542159Y43687D01*
G37*
%LPD*%
%LPC*%
G36*
X512063Y448563D02*
X512063Y448563D01*
X512063Y467361D01*
X528655Y467361D01*
X529301Y467188D01*
X529880Y466853D01*
X530353Y466380D01*
X530688Y465801D01*
X530861Y465155D01*
X530861Y448563D01*
X512063Y448563D01*
G37*
%LPD*%
%LPC*%
G36*
X485139Y448563D02*
X485139Y448563D01*
X485139Y465155D01*
X485312Y465801D01*
X485647Y466380D01*
X486120Y466853D01*
X486699Y467188D01*
X487345Y467361D01*
X503937Y467361D01*
X503937Y448563D01*
X485139Y448563D01*
G37*
%LPD*%
%LPC*%
G36*
X512063Y421639D02*
X512063Y421639D01*
X512063Y440437D01*
X530861Y440437D01*
X530861Y423845D01*
X530688Y423199D01*
X530353Y422620D01*
X529880Y422147D01*
X529301Y421812D01*
X528655Y421639D01*
X512063Y421639D01*
G37*
%LPD*%
%LPC*%
G36*
X226696Y41227D02*
X226696Y41227D01*
X223177Y42685D01*
X220485Y45377D01*
X219027Y48896D01*
X219027Y52704D01*
X220485Y56223D01*
X223177Y58915D01*
X226696Y60373D01*
X230504Y60373D01*
X234023Y58915D01*
X236715Y56223D01*
X238173Y52704D01*
X238173Y48896D01*
X236715Y45377D01*
X234023Y42685D01*
X230504Y41227D01*
X226696Y41227D01*
G37*
%LPD*%
%LPC*%
G36*
X201296Y41227D02*
X201296Y41227D01*
X197777Y42685D01*
X195085Y45377D01*
X193627Y48896D01*
X193627Y52704D01*
X195085Y56223D01*
X197777Y58915D01*
X201296Y60373D01*
X205104Y60373D01*
X208623Y58915D01*
X211315Y56223D01*
X212773Y52704D01*
X212773Y48896D01*
X211315Y45377D01*
X208623Y42685D01*
X205104Y41227D01*
X201296Y41227D01*
G37*
%LPD*%
%LPC*%
G36*
X404496Y41227D02*
X404496Y41227D01*
X400977Y42685D01*
X398285Y45377D01*
X396827Y48896D01*
X396827Y52704D01*
X398285Y56223D01*
X400977Y58915D01*
X404496Y60373D01*
X408304Y60373D01*
X411823Y58915D01*
X414515Y56223D01*
X415973Y52704D01*
X415973Y48896D01*
X414515Y45377D01*
X411823Y42685D01*
X408304Y41227D01*
X404496Y41227D01*
G37*
%LPD*%
%LPC*%
G36*
X379096Y41227D02*
X379096Y41227D01*
X375577Y42685D01*
X372885Y45377D01*
X371427Y48896D01*
X371427Y52704D01*
X372885Y56223D01*
X375577Y58915D01*
X379096Y60373D01*
X382904Y60373D01*
X386423Y58915D01*
X389115Y56223D01*
X390573Y52704D01*
X390573Y48896D01*
X389115Y45377D01*
X386423Y42685D01*
X382904Y41227D01*
X379096Y41227D01*
G37*
%LPD*%
%LPC*%
G36*
X302896Y41227D02*
X302896Y41227D01*
X299377Y42685D01*
X296685Y45377D01*
X295227Y48896D01*
X295227Y52704D01*
X296685Y56223D01*
X299377Y58915D01*
X302896Y60373D01*
X306704Y60373D01*
X310223Y58915D01*
X312915Y56223D01*
X314373Y52704D01*
X314373Y48896D01*
X312915Y45377D01*
X310223Y42685D01*
X306704Y41227D01*
X302896Y41227D01*
G37*
%LPD*%
%LPC*%
G36*
X277496Y41227D02*
X277496Y41227D01*
X273977Y42685D01*
X271285Y45377D01*
X269827Y48896D01*
X269827Y52704D01*
X271285Y56223D01*
X273977Y58915D01*
X277496Y60373D01*
X281304Y60373D01*
X284823Y58915D01*
X287515Y56223D01*
X288973Y52704D01*
X288973Y48896D01*
X287515Y45377D01*
X284823Y42685D01*
X281304Y41227D01*
X277496Y41227D01*
G37*
%LPD*%
%LPC*%
G36*
X252096Y41227D02*
X252096Y41227D01*
X248577Y42685D01*
X245885Y45377D01*
X244427Y48896D01*
X244427Y52704D01*
X245885Y56223D01*
X248577Y58915D01*
X252096Y60373D01*
X255904Y60373D01*
X259423Y58915D01*
X262115Y56223D01*
X263573Y52704D01*
X263573Y48896D01*
X262115Y45377D01*
X259423Y42685D01*
X255904Y41227D01*
X252096Y41227D01*
G37*
%LPD*%
%LPC*%
G36*
X480696Y244427D02*
X480696Y244427D01*
X477177Y245885D01*
X474485Y248577D01*
X473027Y252096D01*
X473027Y255904D01*
X474485Y259423D01*
X477177Y262115D01*
X479830Y263214D01*
X479831Y263214D01*
X480696Y263573D01*
X484504Y263573D01*
X488023Y262115D01*
X490715Y259423D01*
X492173Y255904D01*
X492173Y252096D01*
X490715Y248577D01*
X488023Y245885D01*
X484504Y244427D01*
X480696Y244427D01*
G37*
%LPD*%
%LPC*%
G36*
X455296Y244427D02*
X455296Y244427D01*
X451777Y245885D01*
X449085Y248577D01*
X447627Y252096D01*
X447627Y255904D01*
X449085Y259423D01*
X451777Y262115D01*
X454430Y263214D01*
X454431Y263214D01*
X455296Y263573D01*
X459104Y263573D01*
X462623Y262115D01*
X465315Y259423D01*
X466773Y255904D01*
X466773Y252096D01*
X465315Y248577D01*
X462623Y245885D01*
X459104Y244427D01*
X455296Y244427D01*
G37*
%LPD*%
%LPC*%
G36*
X302896Y244427D02*
X302896Y244427D01*
X299377Y245885D01*
X296685Y248577D01*
X295227Y252096D01*
X295227Y255904D01*
X296685Y259423D01*
X299377Y262115D01*
X302030Y263214D01*
X302031Y263214D01*
X302896Y263573D01*
X306704Y263573D01*
X310223Y262115D01*
X312915Y259423D01*
X314373Y255904D01*
X314373Y252096D01*
X312915Y248577D01*
X310223Y245885D01*
X306704Y244427D01*
X302896Y244427D01*
G37*
%LPD*%
%LPC*%
G36*
X277496Y244427D02*
X277496Y244427D01*
X273977Y245885D01*
X271285Y248577D01*
X269827Y252096D01*
X269827Y255904D01*
X271285Y259423D01*
X273977Y262115D01*
X276630Y263214D01*
X276631Y263214D01*
X277496Y263573D01*
X281304Y263573D01*
X284823Y262115D01*
X287515Y259423D01*
X288973Y255904D01*
X288973Y252096D01*
X287515Y248577D01*
X284823Y245885D01*
X281304Y244427D01*
X277496Y244427D01*
G37*
%LPD*%
%LPC*%
G36*
X181199Y554999D02*
X181199Y554999D01*
X181199Y570041D01*
X184035Y570041D01*
X184681Y569868D01*
X185184Y569577D01*
X185267Y569539D01*
X185346Y569493D01*
X185450Y569457D01*
X185551Y569411D01*
X185640Y569391D01*
X185726Y569361D01*
X185836Y569346D01*
X185944Y569321D01*
X186035Y569318D01*
X186125Y569306D01*
X186236Y569313D01*
X186346Y569310D01*
X186436Y569325D01*
X186527Y569331D01*
X186634Y569360D01*
X186743Y569379D01*
X186828Y569411D01*
X186916Y569435D01*
X187040Y569494D01*
X187118Y569524D01*
X187158Y569550D01*
X187216Y569577D01*
X187719Y569868D01*
X188365Y570041D01*
X191201Y570041D01*
X191201Y554999D01*
X181199Y554999D01*
G37*
%LPD*%
%LPC*%
G36*
X171159Y326999D02*
X171159Y326999D01*
X171159Y339835D01*
X171332Y340481D01*
X171667Y341060D01*
X172140Y341533D01*
X172719Y341868D01*
X173365Y342041D01*
X176201Y342041D01*
X176201Y326999D01*
X171159Y326999D01*
G37*
%LPD*%
%LPC*%
G36*
X367199Y340959D02*
X367199Y340959D01*
X367199Y346001D01*
X382241Y346001D01*
X382241Y343165D01*
X382068Y342519D01*
X381733Y341940D01*
X381260Y341467D01*
X380681Y341132D01*
X380035Y340959D01*
X367199Y340959D01*
G37*
%LPD*%
%LPC*%
G36*
X173365Y306959D02*
X173365Y306959D01*
X172719Y307132D01*
X172140Y307467D01*
X171667Y307940D01*
X171332Y308519D01*
X171159Y309165D01*
X171159Y322001D01*
X176201Y322001D01*
X176201Y306959D01*
X173365Y306959D01*
G37*
%LPD*%
%LPC*%
G36*
X180339Y624839D02*
X180339Y624839D01*
X180339Y632461D01*
X182009Y632461D01*
X187961Y626509D01*
X187961Y624839D01*
X180339Y624839D01*
G37*
%LPD*%
%LPC*%
G36*
X180339Y612139D02*
X180339Y612139D01*
X180339Y619761D01*
X187961Y619761D01*
X187961Y618091D01*
X182009Y612139D01*
X180339Y612139D01*
G37*
%LPD*%
%LPC*%
G36*
X434299Y256499D02*
X434299Y256499D01*
X434299Y263787D01*
X435670Y263342D01*
X437084Y262622D01*
X438367Y261689D01*
X439489Y260567D01*
X440422Y259284D01*
X441142Y257870D01*
X441587Y256499D01*
X434299Y256499D01*
G37*
%LPD*%
%LPC*%
G36*
X422013Y256499D02*
X422013Y256499D01*
X422458Y257870D01*
X423178Y259284D01*
X424111Y260567D01*
X425233Y261689D01*
X426516Y262622D01*
X427930Y263342D01*
X429301Y263787D01*
X429301Y256499D01*
X422013Y256499D01*
G37*
%LPD*%
%LPC*%
G36*
X434299Y251501D02*
X434299Y251501D01*
X441587Y251501D01*
X441142Y250130D01*
X440422Y248716D01*
X439489Y247433D01*
X438367Y246311D01*
X437084Y245378D01*
X435670Y244658D01*
X434299Y244213D01*
X434299Y251501D01*
G37*
%LPD*%
%LPC*%
G36*
X427930Y244658D02*
X427930Y244658D01*
X426516Y245378D01*
X425233Y246311D01*
X424111Y247433D01*
X423178Y248716D01*
X422458Y250130D01*
X422013Y251501D01*
X429301Y251501D01*
X429301Y244213D01*
X427930Y244658D01*
G37*
%LPD*%
%LPC*%
G36*
X507999Y444499D02*
X507999Y444499D01*
X507999Y444501D01*
X508001Y444501D01*
X508001Y444499D01*
X507999Y444499D01*
G37*
%LPD*%
D10*
X343700Y325000D03*
X328700Y325000D03*
X313700Y325000D03*
X298700Y325000D03*
X283700Y325000D03*
X268700Y325000D03*
X253700Y325000D03*
X238700Y325000D03*
X223700Y325000D03*
X208700Y325000D03*
X193700Y324500D03*
X178700Y324500D03*
D11*
X364700Y529000D03*
X364700Y513500D03*
X364700Y498500D03*
X364700Y483500D03*
X364700Y468500D03*
X364700Y453500D03*
X364700Y438500D03*
X364700Y423500D03*
X364700Y408500D03*
X364700Y393500D03*
X364700Y378500D03*
X364700Y363500D03*
X364700Y348500D03*
D10*
X343700Y552500D03*
X328700Y552500D03*
X313700Y552500D03*
X298700Y552500D03*
X283700Y552500D03*
X268700Y552500D03*
X253700Y552500D03*
X238700Y552500D03*
X223700Y552500D03*
X208700Y552500D03*
X193700Y552500D03*
X178700Y552500D03*
D12*
X177800Y622300D03*
X177800Y647700D03*
X203200Y622300D03*
X203200Y647700D03*
X228600Y622300D03*
X228600Y647700D03*
X254000Y622300D03*
X254000Y647700D03*
X279400Y622300D03*
X279400Y647700D03*
X304800Y622300D03*
X304800Y647700D03*
X330200Y622300D03*
X330200Y647700D03*
X355600Y622300D03*
X355600Y647700D03*
D13*
X201168Y177800D03*
X230632Y177800D03*
X230632Y127000D03*
X201168Y127000D03*
D14*
X508000Y444500D03*
D15*
X508000Y558800D03*
X508000Y330200D03*
D16*
X546100Y63500D03*
X546100Y241300D03*
D17*
X508000Y254000D03*
D18*
X482600Y254000D03*
X457200Y254000D03*
X431800Y254000D03*
X406400Y254000D03*
X381000Y254000D03*
X355600Y254000D03*
X330200Y254000D03*
X304800Y254000D03*
X279400Y254000D03*
X254000Y254000D03*
X228600Y254000D03*
X203200Y254000D03*
X177800Y254000D03*
X152400Y254000D03*
X127000Y254000D03*
X406400Y50800D03*
X381000Y50800D03*
X355600Y50800D03*
X330200Y50800D03*
X304800Y50800D03*
X279400Y50800D03*
X254000Y50800D03*
X228600Y50800D03*
X203200Y50800D03*
X177800Y50800D03*
X152400Y50800D03*
X127000Y50800D03*
D19*
X554800Y299880D02*
X554800Y315120D01*
X580200Y315120D02*
X580200Y299880D01*
D20*
X283464Y283464D02*
X283464Y324612D01*
X283464Y283464D02*
X254000Y254000D01*
X283464Y324612D02*
X283700Y325000D01*
X267462Y324612D02*
X267462Y294894D01*
X228600Y256032D01*
X267462Y324612D02*
X268700Y325000D01*
X228600Y256032D02*
X228600Y254000D01*
X251460Y304038D02*
X251460Y324612D01*
X251460Y304038D02*
X203454Y256032D01*
X251460Y324612D02*
X253700Y325000D01*
X203454Y256032D02*
X203200Y254000D01*
X201168Y177800D02*
X201168Y146304D01*
X153162Y98298D01*
X153162Y52578D01*
X152400Y50800D01*
X208026Y274320D02*
X208026Y324612D01*
X208026Y274320D02*
X192024Y258318D01*
X192024Y187452D01*
X201168Y178308D01*
X208026Y324612D02*
X208700Y325000D01*
X201168Y178308D02*
X201168Y177800D01*
X230632Y127000D02*
X206168Y98940D01*
X164592Y54864D01*
X164592Y45720D01*
X157734Y38862D01*
X139446Y38862D01*
X128016Y50292D01*
X127000Y50800D01*
X270000Y378500D02*
X364700Y378500D01*
X270000Y378500D02*
X270000Y377500D01*
D21*
X270000Y377500D03*
X267500Y127500D03*
D20*
X230632Y127500D01*
X230632Y127000D01*
X365760Y393192D02*
X395478Y393192D01*
X523494Y265176D01*
X523494Y242316D01*
X331470Y50292D01*
X365760Y393192D02*
X364700Y393500D01*
X330200Y50800D02*
X331470Y50292D01*
X214884Y157734D02*
X214884Y162306D01*
X228600Y176022D01*
X230632Y177800D01*
X342900Y553212D02*
X342900Y592074D01*
X317754Y617220D01*
X317754Y651510D01*
X308610Y660654D01*
X251460Y660654D01*
X240030Y649224D01*
X240030Y642366D01*
X233172Y635508D01*
X224028Y635508D01*
X214884Y644652D01*
X214884Y651510D01*
X205740Y660654D01*
X189738Y660654D01*
X178308Y649224D01*
X342900Y553212D02*
X343700Y552500D01*
X177800Y647700D02*
X178308Y649224D01*
D22*
X214884Y157734D03*
D20*
X214884Y140716D01*
X201168Y127000D01*
D23*
X214884Y157734D02*
X315000Y157734D01*
X315000Y112500D01*
D24*
X315000Y112500D03*
X482500Y112500D03*
D23*
X580200Y192500D02*
X580200Y307500D01*
X580200Y192500D02*
X482500Y112500D01*
D20*
X400050Y363474D02*
X365760Y363474D01*
X400050Y363474D02*
X507492Y256032D01*
X365760Y363474D02*
X364700Y363500D01*
X507492Y256032D02*
X508000Y254000D01*
X345186Y315468D02*
X345186Y324612D01*
X345186Y315468D02*
X404622Y256032D01*
X345186Y324612D02*
X343700Y325000D01*
X404622Y256032D02*
X406400Y254000D01*
X192024Y310896D02*
X192024Y322326D01*
X192024Y310896D02*
X137160Y256032D01*
X128016Y256032D01*
X192024Y322326D02*
X193700Y324500D01*
X128016Y256032D02*
X127000Y254000D01*
X238700Y306200D02*
X238700Y325000D01*
X238700Y306200D02*
X217500Y285000D01*
D21*
X217500Y285000D03*
D20*
X365760Y530352D02*
X365760Y614934D01*
X368046Y617220D01*
X368046Y635508D01*
X356616Y646938D01*
X365760Y530352D02*
X364700Y529000D01*
X356616Y646938D02*
X355600Y647700D01*
X210312Y612648D02*
X210312Y553212D01*
X210312Y612648D02*
X214884Y617220D01*
X214884Y635508D01*
X203454Y646938D01*
X210312Y553212D02*
X208700Y552500D01*
X203454Y646938D02*
X203200Y647700D01*
X221742Y550926D02*
X221742Y539496D01*
X214884Y532638D01*
X173736Y532638D01*
X166878Y539496D01*
X166878Y653796D01*
X178308Y665226D01*
X212598Y665226D01*
X228600Y649224D01*
X223700Y552500D02*
X221742Y550926D01*
X228600Y647700D02*
X228600Y649224D01*
X240030Y633222D02*
X240030Y553212D01*
X240030Y633222D02*
X253746Y646938D01*
X240030Y553212D02*
X238700Y552500D01*
X253746Y646938D02*
X254000Y647700D01*
X253746Y605790D02*
X253746Y553212D01*
X253746Y605790D02*
X267462Y619506D01*
X267462Y635508D01*
X278892Y646938D01*
X253746Y553212D02*
X253700Y552500D01*
X278892Y646938D02*
X279400Y647700D01*
X304038Y646938D02*
X304038Y637794D01*
X290322Y624078D01*
X290322Y585216D01*
X269748Y564642D01*
X269748Y553212D01*
X304038Y646938D02*
X304800Y647700D01*
X269748Y553212D02*
X268700Y552500D01*
X268700Y538700D01*
X257500Y527500D01*
X257500Y420000D01*
X225000Y387500D01*
X225000Y326300D01*
X223700Y325000D01*
X315468Y530352D02*
X315468Y550926D01*
X315468Y530352D02*
X324612Y521208D01*
X397764Y512064D02*
X461772Y512064D01*
X507492Y557784D01*
X315468Y550926D02*
X313700Y552500D01*
X507492Y557784D02*
X508000Y558800D01*
X507492Y397764D02*
X507492Y331470D01*
X507492Y397764D02*
X461772Y443484D01*
X461772Y512064D01*
X507492Y331470D02*
X508000Y330200D01*
D22*
X324612Y521208D03*
X397764Y512064D03*
D20*
X363474Y409194D02*
X354330Y409194D01*
X274320Y489204D01*
X274320Y530352D01*
X363474Y409194D02*
X364700Y408500D01*
D22*
X274320Y530352D03*
D20*
X352044Y425196D02*
X363474Y425196D01*
X352044Y425196D02*
X283464Y493776D01*
X283464Y521208D01*
X363474Y425196D02*
X364700Y423500D01*
D22*
X283464Y521208D03*
D20*
X354330Y438912D02*
X363474Y438912D01*
X354330Y438912D02*
X292608Y500634D01*
X292608Y530352D01*
X363474Y438912D02*
X364700Y438500D01*
D22*
X292608Y530352D03*
D20*
X352044Y454914D02*
X363474Y454914D01*
X352044Y454914D02*
X306324Y500634D01*
X306324Y530352D01*
X363474Y454914D02*
X364700Y453500D01*
D22*
X306324Y530352D03*
D20*
X354330Y468630D02*
X363474Y468630D01*
X354330Y468630D02*
X333756Y489204D01*
X333756Y530352D01*
X363474Y468630D02*
X364700Y468500D01*
D22*
X333756Y530352D03*
D20*
X352044Y484632D02*
X363474Y484632D01*
X352044Y484632D02*
X342900Y493776D01*
X342900Y521208D01*
X363474Y484632D02*
X364700Y483500D01*
D22*
X342900Y521208D03*
D20*
X365760Y500634D02*
X377190Y500634D01*
X388620Y512064D01*
X388620Y644652D01*
X372618Y660654D01*
X352044Y660654D01*
X342900Y651510D01*
X342900Y635508D01*
X354330Y624078D01*
X365760Y500634D02*
X364700Y498500D01*
X355600Y622300D02*
X354330Y624078D01*
X365760Y514350D02*
X374904Y514350D01*
X384048Y523494D01*
X384048Y635508D01*
X370332Y649224D01*
X365760Y514350D02*
X364700Y513500D01*
D22*
X370332Y649224D03*
D21*
X317500Y592500D03*
X187500Y592500D03*
D24*
X482500Y140000D03*
D23*
X572500Y212500D02*
X572500Y275000D01*
X554800Y305000D01*
X572500Y212500D02*
X482500Y140000D01*
D20*
X329184Y306324D02*
X329184Y324612D01*
X329184Y306324D02*
X379476Y256032D01*
X329184Y324612D02*
X328700Y325000D01*
X379476Y256032D02*
X381000Y254000D01*
X315468Y294894D02*
X315468Y324612D01*
X315468Y294894D02*
X354330Y256032D01*
X315468Y324612D02*
X313700Y325000D01*
X354330Y256032D02*
X355600Y254000D01*
X299466Y285750D02*
X299466Y324612D01*
X299466Y285750D02*
X329184Y256032D01*
X299466Y324612D02*
X298700Y325000D01*
X329184Y256032D02*
X330200Y254000D01*
M02*
