G04 EAGLE Gerber RS-274X export*
G75*
%MOMM*%
%FSLAX34Y34*%
%LPD*%
%IN*%
%IPPOS*%
%AMOC8*
5,1,8,0,0,1.08239X$1,22.5*%
G01*
%ADD10C,0.254000*%


D10*
X0Y0D02*
X644400Y0D01*
X644400Y723800D01*
X0Y723800D01*
X0Y0D01*
X48100Y685363D02*
X48024Y684494D01*
X47872Y683634D01*
X47646Y682790D01*
X47348Y681970D01*
X46979Y681178D01*
X46542Y680422D01*
X46041Y679707D01*
X45480Y679038D01*
X44862Y678420D01*
X44193Y677859D01*
X43478Y677358D01*
X42722Y676921D01*
X41930Y676552D01*
X41110Y676254D01*
X40266Y676028D01*
X39407Y675876D01*
X38537Y675800D01*
X37663Y675800D01*
X36794Y675876D01*
X35934Y676028D01*
X35090Y676254D01*
X34270Y676552D01*
X33478Y676921D01*
X32722Y677358D01*
X32007Y677859D01*
X31338Y678420D01*
X30720Y679038D01*
X30159Y679707D01*
X29658Y680422D01*
X29221Y681178D01*
X28852Y681970D01*
X28554Y682790D01*
X28328Y683634D01*
X28176Y684494D01*
X28100Y685363D01*
X28100Y686237D01*
X28176Y687107D01*
X28328Y687966D01*
X28554Y688810D01*
X28852Y689630D01*
X29221Y690422D01*
X29658Y691178D01*
X30159Y691893D01*
X30720Y692562D01*
X31338Y693180D01*
X32007Y693741D01*
X32722Y694242D01*
X33478Y694679D01*
X34270Y695048D01*
X35090Y695346D01*
X35934Y695572D01*
X36794Y695724D01*
X37663Y695800D01*
X38537Y695800D01*
X39407Y695724D01*
X40266Y695572D01*
X41110Y695346D01*
X41930Y695048D01*
X42722Y694679D01*
X43478Y694242D01*
X44193Y693741D01*
X44862Y693180D01*
X45480Y692562D01*
X46041Y691893D01*
X46542Y691178D01*
X46979Y690422D01*
X47348Y689630D01*
X47646Y688810D01*
X47872Y687966D01*
X48024Y687107D01*
X48100Y686237D01*
X48100Y685363D01*
X48100Y37663D02*
X48024Y36794D01*
X47872Y35934D01*
X47646Y35090D01*
X47348Y34270D01*
X46979Y33478D01*
X46542Y32722D01*
X46041Y32007D01*
X45480Y31338D01*
X44862Y30720D01*
X44193Y30159D01*
X43478Y29658D01*
X42722Y29221D01*
X41930Y28852D01*
X41110Y28554D01*
X40266Y28328D01*
X39407Y28176D01*
X38537Y28100D01*
X37663Y28100D01*
X36794Y28176D01*
X35934Y28328D01*
X35090Y28554D01*
X34270Y28852D01*
X33478Y29221D01*
X32722Y29658D01*
X32007Y30159D01*
X31338Y30720D01*
X30720Y31338D01*
X30159Y32007D01*
X29658Y32722D01*
X29221Y33478D01*
X28852Y34270D01*
X28554Y35090D01*
X28328Y35934D01*
X28176Y36794D01*
X28100Y37663D01*
X28100Y38537D01*
X28176Y39407D01*
X28328Y40266D01*
X28554Y41110D01*
X28852Y41930D01*
X29221Y42722D01*
X29658Y43478D01*
X30159Y44193D01*
X30720Y44862D01*
X31338Y45480D01*
X32007Y46041D01*
X32722Y46542D01*
X33478Y46979D01*
X34270Y47348D01*
X35090Y47646D01*
X35934Y47872D01*
X36794Y48024D01*
X37663Y48100D01*
X38537Y48100D01*
X39407Y48024D01*
X40266Y47872D01*
X41110Y47646D01*
X41930Y47348D01*
X42722Y46979D01*
X43478Y46542D01*
X44193Y46041D01*
X44862Y45480D01*
X45480Y44862D01*
X46041Y44193D01*
X46542Y43478D01*
X46979Y42722D01*
X47348Y41930D01*
X47646Y41110D01*
X47872Y40266D01*
X48024Y39407D01*
X48100Y38537D01*
X48100Y37663D01*
X619600Y685363D02*
X619524Y684494D01*
X619372Y683634D01*
X619146Y682790D01*
X618848Y681970D01*
X618479Y681178D01*
X618042Y680422D01*
X617541Y679707D01*
X616980Y679038D01*
X616362Y678420D01*
X615693Y677859D01*
X614978Y677358D01*
X614222Y676921D01*
X613430Y676552D01*
X612610Y676254D01*
X611766Y676028D01*
X610907Y675876D01*
X610037Y675800D01*
X609163Y675800D01*
X608294Y675876D01*
X607434Y676028D01*
X606590Y676254D01*
X605770Y676552D01*
X604978Y676921D01*
X604222Y677358D01*
X603507Y677859D01*
X602838Y678420D01*
X602220Y679038D01*
X601659Y679707D01*
X601158Y680422D01*
X600721Y681178D01*
X600352Y681970D01*
X600054Y682790D01*
X599828Y683634D01*
X599676Y684494D01*
X599600Y685363D01*
X599600Y686237D01*
X599676Y687107D01*
X599828Y687966D01*
X600054Y688810D01*
X600352Y689630D01*
X600721Y690422D01*
X601158Y691178D01*
X601659Y691893D01*
X602220Y692562D01*
X602838Y693180D01*
X603507Y693741D01*
X604222Y694242D01*
X604978Y694679D01*
X605770Y695048D01*
X606590Y695346D01*
X607434Y695572D01*
X608294Y695724D01*
X609163Y695800D01*
X610037Y695800D01*
X610907Y695724D01*
X611766Y695572D01*
X612610Y695346D01*
X613430Y695048D01*
X614222Y694679D01*
X614978Y694242D01*
X615693Y693741D01*
X616362Y693180D01*
X616980Y692562D01*
X617541Y691893D01*
X618042Y691178D01*
X618479Y690422D01*
X618848Y689630D01*
X619146Y688810D01*
X619372Y687966D01*
X619524Y687107D01*
X619600Y686237D01*
X619600Y685363D01*
X619600Y37663D02*
X619524Y36794D01*
X619372Y35934D01*
X619146Y35090D01*
X618848Y34270D01*
X618479Y33478D01*
X618042Y32722D01*
X617541Y32007D01*
X616980Y31338D01*
X616362Y30720D01*
X615693Y30159D01*
X614978Y29658D01*
X614222Y29221D01*
X613430Y28852D01*
X612610Y28554D01*
X611766Y28328D01*
X610907Y28176D01*
X610037Y28100D01*
X609163Y28100D01*
X608294Y28176D01*
X607434Y28328D01*
X606590Y28554D01*
X605770Y28852D01*
X604978Y29221D01*
X604222Y29658D01*
X603507Y30159D01*
X602838Y30720D01*
X602220Y31338D01*
X601659Y32007D01*
X601158Y32722D01*
X600721Y33478D01*
X600352Y34270D01*
X600054Y35090D01*
X599828Y35934D01*
X599676Y36794D01*
X599600Y37663D01*
X599600Y38537D01*
X599676Y39407D01*
X599828Y40266D01*
X600054Y41110D01*
X600352Y41930D01*
X600721Y42722D01*
X601158Y43478D01*
X601659Y44193D01*
X602220Y44862D01*
X602838Y45480D01*
X603507Y46041D01*
X604222Y46542D01*
X604978Y46979D01*
X605770Y47348D01*
X606590Y47646D01*
X607434Y47872D01*
X608294Y48024D01*
X609163Y48100D01*
X610037Y48100D01*
X610907Y48024D01*
X611766Y47872D01*
X612610Y47646D01*
X613430Y47348D01*
X614222Y46979D01*
X614978Y46542D01*
X615693Y46041D01*
X616362Y45480D01*
X616980Y44862D01*
X617541Y44193D01*
X618042Y43478D01*
X618479Y42722D01*
X618848Y41930D01*
X619146Y41110D01*
X619372Y40266D01*
X619524Y39407D01*
X619600Y38537D01*
X619600Y37663D01*
X77470Y248099D02*
X77540Y248995D01*
X77681Y249882D01*
X77891Y250755D01*
X78168Y251609D01*
X78512Y252439D01*
X78920Y253239D01*
X79389Y254005D01*
X79917Y254732D01*
X80500Y255415D01*
X81135Y256050D01*
X81818Y256633D01*
X82545Y257161D01*
X83311Y257630D01*
X84111Y258038D01*
X84941Y258382D01*
X85795Y258659D01*
X86668Y258869D01*
X87556Y259010D01*
X88451Y259080D01*
X89349Y259080D01*
X90245Y259010D01*
X91132Y258869D01*
X92005Y258659D01*
X92859Y258382D01*
X93689Y258038D01*
X94489Y257630D01*
X95255Y257161D01*
X95982Y256633D01*
X96665Y256050D01*
X97300Y255415D01*
X97883Y254732D01*
X98411Y254005D01*
X98880Y253239D01*
X99288Y252439D01*
X99632Y251609D01*
X99909Y250755D01*
X100119Y249882D01*
X100260Y248995D01*
X100330Y248099D01*
X100330Y247201D01*
X100260Y246306D01*
X100119Y245418D01*
X99909Y244545D01*
X99632Y243691D01*
X99288Y242861D01*
X98880Y242061D01*
X98411Y241295D01*
X97883Y240568D01*
X97300Y239885D01*
X96665Y239250D01*
X95982Y238667D01*
X95255Y238139D01*
X94489Y237670D01*
X93689Y237262D01*
X92859Y236918D01*
X92005Y236641D01*
X91132Y236431D01*
X90245Y236290D01*
X89349Y236220D01*
X88451Y236220D01*
X87556Y236290D01*
X86668Y236431D01*
X85795Y236641D01*
X84941Y236918D01*
X84111Y237262D01*
X83311Y237670D01*
X82545Y238139D01*
X81818Y238667D01*
X81135Y239250D01*
X80500Y239885D01*
X79917Y240568D01*
X79389Y241295D01*
X78920Y242061D01*
X78512Y242861D01*
X78168Y243691D01*
X77891Y244545D01*
X77681Y245418D01*
X77540Y246306D01*
X77470Y247201D01*
X77470Y248099D01*
X77470Y57599D02*
X77540Y58495D01*
X77681Y59382D01*
X77891Y60255D01*
X78168Y61109D01*
X78512Y61939D01*
X78920Y62739D01*
X79389Y63505D01*
X79917Y64232D01*
X80500Y64915D01*
X81135Y65550D01*
X81818Y66133D01*
X82545Y66661D01*
X83311Y67130D01*
X84111Y67538D01*
X84941Y67882D01*
X85795Y68159D01*
X86668Y68369D01*
X87556Y68510D01*
X88451Y68580D01*
X89349Y68580D01*
X90245Y68510D01*
X91132Y68369D01*
X92005Y68159D01*
X92859Y67882D01*
X93689Y67538D01*
X94489Y67130D01*
X95255Y66661D01*
X95982Y66133D01*
X96665Y65550D01*
X97300Y64915D01*
X97883Y64232D01*
X98411Y63505D01*
X98880Y62739D01*
X99288Y61939D01*
X99632Y61109D01*
X99909Y60255D01*
X100119Y59382D01*
X100260Y58495D01*
X100330Y57599D01*
X100330Y56701D01*
X100260Y55806D01*
X100119Y54918D01*
X99909Y54045D01*
X99632Y53191D01*
X99288Y52361D01*
X98880Y51561D01*
X98411Y50795D01*
X97883Y50068D01*
X97300Y49385D01*
X96665Y48750D01*
X95982Y48167D01*
X95255Y47639D01*
X94489Y47170D01*
X93689Y46762D01*
X92859Y46418D01*
X92005Y46141D01*
X91132Y45931D01*
X90245Y45790D01*
X89349Y45720D01*
X88451Y45720D01*
X87556Y45790D01*
X86668Y45931D01*
X85795Y46141D01*
X84941Y46418D01*
X84111Y46762D01*
X83311Y47170D01*
X82545Y47639D01*
X81818Y48167D01*
X81135Y48750D01*
X80500Y49385D01*
X79917Y50068D01*
X79389Y50795D01*
X78920Y51561D01*
X78512Y52361D01*
X78168Y53191D01*
X77891Y54045D01*
X77681Y54918D01*
X77540Y55806D01*
X77470Y56701D01*
X77470Y57599D01*
M02*
