G04 EAGLE Gerber RS-274X export*
G75*
%MOMM*%
%FSLAX34Y34*%
%LPD*%
%INSilkscreen Bottom*%
%IPPOS*%
%AMOC8*
5,1,8,0,0,1.08239X$1,22.5*%
G01*
%ADD10C,0.152400*%


D10*
X614238Y486824D02*
X611526Y484112D01*
X608815Y484112D01*
X606103Y486824D01*
X606103Y500382D01*
X608815Y500382D02*
X603391Y500382D01*
X597866Y494959D02*
X597866Y486824D01*
X595155Y484112D01*
X587020Y484112D01*
X587020Y494959D01*
X581495Y494959D02*
X581495Y484112D01*
X581495Y494959D02*
X578783Y494959D01*
X576072Y492247D01*
X576072Y484112D01*
X576072Y492247D02*
X573360Y494959D01*
X570648Y492247D01*
X570648Y484112D01*
X565123Y478689D02*
X565123Y494959D01*
X556988Y494959D01*
X554277Y492247D01*
X554277Y486824D01*
X556988Y484112D01*
X565123Y484112D01*
X546040Y484112D02*
X540617Y484112D01*
X546040Y484112D02*
X548752Y486824D01*
X548752Y492247D01*
X546040Y494959D01*
X540617Y494959D01*
X537905Y492247D01*
X537905Y489535D01*
X548752Y489535D01*
X532380Y484112D02*
X532380Y494959D01*
X526957Y494959D02*
X532380Y489535D01*
X526957Y494959D02*
X524245Y494959D01*
X502366Y486824D02*
X499654Y484112D01*
X496942Y484112D01*
X494231Y486824D01*
X494231Y500382D01*
X496942Y500382D02*
X491519Y500382D01*
X485994Y500382D02*
X485994Y484112D01*
X485994Y500382D02*
X477859Y500382D01*
X475148Y497670D01*
X475148Y492247D01*
X477859Y489535D01*
X485994Y489535D01*
X469623Y494959D02*
X464199Y500382D01*
X464199Y484112D01*
X458776Y484112D02*
X469623Y484112D01*
X436879Y478689D02*
X434168Y478689D01*
X431456Y481400D01*
X431456Y494959D01*
X431456Y500382D02*
X431456Y503094D01*
X423253Y484112D02*
X417830Y484112D01*
X415118Y486824D01*
X415118Y492247D01*
X417830Y494959D01*
X423253Y494959D01*
X425965Y492247D01*
X425965Y486824D01*
X423253Y484112D01*
X409593Y494959D02*
X406882Y494959D01*
X406882Y484112D01*
X409593Y484112D02*
X404170Y484112D01*
X406882Y500382D02*
X406882Y503094D01*
X398679Y494959D02*
X398679Y484112D01*
X398679Y494959D02*
X390544Y494959D01*
X387833Y492247D01*
X387833Y484112D01*
X382308Y484112D02*
X374173Y484112D01*
X371461Y486824D01*
X374173Y489535D01*
X379596Y489535D01*
X382308Y492247D01*
X379596Y494959D01*
X371461Y494959D01*
X349564Y500382D02*
X349564Y484112D01*
X349564Y500382D02*
X338718Y500382D01*
X344141Y492247D02*
X349564Y492247D01*
X330481Y484112D02*
X325058Y484112D01*
X330481Y484112D02*
X333193Y486824D01*
X333193Y492247D01*
X330481Y494959D01*
X325058Y494959D01*
X322346Y492247D01*
X322346Y489535D01*
X333193Y489535D01*
X314110Y494959D02*
X308686Y494959D01*
X305975Y492247D01*
X305975Y484112D01*
X314110Y484112D01*
X316821Y486824D01*
X314110Y489535D01*
X305975Y489535D01*
X297738Y486824D02*
X297738Y497670D01*
X297738Y486824D02*
X295026Y484112D01*
X295026Y494959D02*
X300450Y494959D01*
X289535Y500382D02*
X289535Y484112D01*
X289535Y492247D02*
X286824Y494959D01*
X281400Y494959D01*
X278689Y492247D01*
X278689Y484112D01*
X270452Y484112D02*
X265029Y484112D01*
X270452Y484112D02*
X273164Y486824D01*
X273164Y492247D01*
X270452Y494959D01*
X265029Y494959D01*
X262317Y492247D01*
X262317Y489535D01*
X273164Y489535D01*
X256792Y484112D02*
X256792Y494959D01*
X251369Y494959D02*
X256792Y489535D01*
X251369Y494959D02*
X248657Y494959D01*
X224066Y494959D02*
X218643Y494959D01*
X215931Y492247D01*
X215931Y484112D01*
X224066Y484112D01*
X226778Y486824D01*
X224066Y489535D01*
X215931Y489535D01*
X210406Y484112D02*
X210406Y494959D01*
X202271Y494959D01*
X199560Y492247D01*
X199560Y484112D01*
X183188Y484112D02*
X183188Y500382D01*
X183188Y484112D02*
X191323Y484112D01*
X194035Y486824D01*
X194035Y492247D01*
X191323Y494959D01*
X183188Y494959D01*
X161291Y500382D02*
X161291Y484112D01*
X155868Y489535D01*
X150445Y484112D01*
X150445Y500382D01*
X144920Y500382D02*
X144920Y484112D01*
X144920Y500382D02*
X134073Y500382D01*
X139497Y492247D02*
X144920Y492247D01*
X128548Y492247D02*
X117702Y492247D01*
X112177Y484112D02*
X112177Y500382D01*
X106753Y494959D01*
X101330Y500382D01*
X101330Y484112D01*
X90382Y497670D02*
X84959Y500382D01*
X90382Y497670D02*
X95805Y492247D01*
X95805Y486824D01*
X93094Y484112D01*
X87670Y484112D01*
X84959Y486824D01*
X84959Y489535D01*
X87670Y492247D01*
X95805Y492247D01*
X79434Y484112D02*
X68587Y484112D01*
X79434Y484112D02*
X68587Y494959D01*
X68587Y497670D01*
X71299Y500382D01*
X76722Y500382D01*
X79434Y497670D01*
X63062Y497670D02*
X63062Y486824D01*
X63062Y497670D02*
X60350Y500382D01*
X54927Y500382D01*
X52215Y497670D01*
X52215Y486824D01*
X54927Y484112D01*
X60350Y484112D01*
X63062Y486824D01*
X52215Y497670D01*
X611526Y473712D02*
X614238Y471000D01*
X611526Y473712D02*
X606103Y473712D01*
X603391Y471000D01*
X603391Y468289D01*
X606103Y465577D01*
X608815Y465577D01*
X606103Y465577D02*
X603391Y462865D01*
X603391Y460154D01*
X606103Y457442D01*
X611526Y457442D01*
X614238Y460154D01*
X597866Y462865D02*
X597866Y473712D01*
X597866Y462865D02*
X592443Y457442D01*
X587020Y462865D01*
X587020Y473712D01*
X565123Y468289D02*
X565123Y452019D01*
X565123Y468289D02*
X556988Y468289D01*
X554277Y465577D01*
X554277Y460154D01*
X556988Y457442D01*
X565123Y457442D01*
X546040Y457442D02*
X540617Y457442D01*
X537905Y460154D01*
X537905Y465577D01*
X540617Y468289D01*
X546040Y468289D01*
X548752Y465577D01*
X548752Y460154D01*
X546040Y457442D01*
X532380Y460154D02*
X532380Y468289D01*
X532380Y460154D02*
X529669Y457442D01*
X526957Y460154D01*
X524245Y457442D01*
X521534Y460154D01*
X521534Y468289D01*
X513297Y457442D02*
X507874Y457442D01*
X513297Y457442D02*
X516009Y460154D01*
X516009Y465577D01*
X513297Y468289D01*
X507874Y468289D01*
X505162Y465577D01*
X505162Y462865D01*
X516009Y462865D01*
X499637Y457442D02*
X499637Y468289D01*
X494214Y468289D02*
X499637Y462865D01*
X494214Y468289D02*
X491502Y468289D01*
X469623Y473712D02*
X466911Y473712D01*
X466911Y457442D01*
X469623Y457442D02*
X464199Y457442D01*
X458708Y468289D02*
X455997Y468289D01*
X455997Y457442D01*
X458708Y457442D02*
X453285Y457442D01*
X455997Y473712D02*
X455997Y476424D01*
X447794Y468289D02*
X447794Y457442D01*
X447794Y468289D02*
X439659Y468289D01*
X436947Y465577D01*
X436947Y457442D01*
X428711Y457442D02*
X423287Y457442D01*
X428711Y457442D02*
X431422Y460154D01*
X431422Y465577D01*
X428711Y468289D01*
X423287Y468289D01*
X420576Y465577D01*
X420576Y462865D01*
X431422Y462865D01*
X415051Y457442D02*
X406916Y457442D01*
X404204Y460154D01*
X406916Y462865D01*
X412339Y462865D01*
X415051Y465577D01*
X412339Y468289D01*
X404204Y468289D01*
X398679Y460154D02*
X398679Y457442D01*
X398679Y460154D02*
X395967Y460154D01*
X395967Y457442D01*
X398679Y457442D01*
X614238Y447042D02*
X614238Y433484D01*
X611526Y430772D01*
X606103Y430772D01*
X603391Y433484D01*
X603391Y447042D01*
X597866Y430772D02*
X589732Y430772D01*
X587020Y433484D01*
X589732Y436195D01*
X595155Y436195D01*
X597866Y438907D01*
X595155Y441619D01*
X587020Y441619D01*
X578783Y430772D02*
X573360Y430772D01*
X578783Y430772D02*
X581495Y433484D01*
X581495Y438907D01*
X578783Y441619D01*
X573360Y441619D01*
X570648Y438907D01*
X570648Y436195D01*
X581495Y436195D01*
X546040Y441619D02*
X537905Y441619D01*
X546040Y441619D02*
X548752Y438907D01*
X548752Y433484D01*
X546040Y430772D01*
X537905Y430772D01*
X529669Y441619D02*
X524245Y441619D01*
X521534Y438907D01*
X521534Y430772D01*
X529669Y430772D01*
X532380Y433484D01*
X529669Y436195D01*
X521534Y436195D01*
X516009Y430772D02*
X516009Y441619D01*
X516009Y436195D02*
X510585Y441619D01*
X507874Y441619D01*
X499654Y430772D02*
X494231Y430772D01*
X499654Y430772D02*
X502366Y433484D01*
X502366Y438907D01*
X499654Y441619D01*
X494231Y441619D01*
X491519Y438907D01*
X491519Y436195D01*
X502366Y436195D01*
X483282Y430772D02*
X483282Y444330D01*
X480571Y447042D01*
X480571Y438907D02*
X485994Y438907D01*
X475080Y441619D02*
X475080Y433484D01*
X472368Y430772D01*
X464233Y430772D01*
X464233Y441619D01*
X458708Y447042D02*
X455997Y447042D01*
X455997Y430772D01*
X458708Y430772D02*
X453285Y430772D01*
X447794Y447042D02*
X445082Y447042D01*
X445082Y430772D01*
X442371Y430772D02*
X447794Y430772D01*
X436879Y433484D02*
X436879Y441619D01*
X436879Y433484D02*
X434168Y430772D01*
X426033Y430772D01*
X426033Y428060D02*
X426033Y441619D01*
X426033Y428060D02*
X428744Y425349D01*
X431456Y425349D01*
X401425Y433484D02*
X401425Y444330D01*
X401425Y433484D02*
X398713Y430772D01*
X398713Y441619D02*
X404136Y441619D01*
X390510Y430772D02*
X385087Y430772D01*
X382375Y433484D01*
X382375Y438907D01*
X385087Y441619D01*
X390510Y441619D01*
X393222Y438907D01*
X393222Y433484D01*
X390510Y430772D01*
X360479Y425349D02*
X360479Y441619D01*
X352344Y441619D01*
X349632Y438907D01*
X349632Y433484D01*
X352344Y430772D01*
X360479Y430772D01*
X341396Y430772D02*
X335972Y430772D01*
X333261Y433484D01*
X333261Y438907D01*
X335972Y441619D01*
X341396Y441619D01*
X344107Y438907D01*
X344107Y433484D01*
X341396Y430772D01*
X327736Y433484D02*
X327736Y441619D01*
X327736Y433484D02*
X325024Y430772D01*
X322312Y433484D01*
X319601Y430772D01*
X316889Y433484D01*
X316889Y441619D01*
X308652Y430772D02*
X303229Y430772D01*
X308652Y430772D02*
X311364Y433484D01*
X311364Y438907D01*
X308652Y441619D01*
X303229Y441619D01*
X300518Y438907D01*
X300518Y436195D01*
X311364Y436195D01*
X294993Y430772D02*
X294993Y441619D01*
X294993Y436195D02*
X289569Y441619D01*
X286858Y441619D01*
X264978Y447042D02*
X264978Y430772D01*
X256843Y430772D01*
X254131Y433484D01*
X254131Y438907D01*
X256843Y441619D01*
X264978Y441619D01*
X245895Y430772D02*
X240472Y430772D01*
X237760Y433484D01*
X237760Y438907D01*
X240472Y441619D01*
X245895Y441619D01*
X248606Y438907D01*
X248606Y433484D01*
X245895Y430772D01*
X229523Y433484D02*
X229523Y444330D01*
X229523Y433484D02*
X226812Y430772D01*
X226812Y441619D02*
X232235Y441619D01*
X221321Y447042D02*
X221321Y430772D01*
X221321Y438907D02*
X218609Y441619D01*
X213186Y441619D01*
X210474Y438907D01*
X210474Y430772D01*
X603391Y420372D02*
X603391Y404102D01*
X611526Y404102D01*
X614238Y406814D01*
X614238Y412237D01*
X611526Y414949D01*
X603391Y414949D01*
X595155Y404102D02*
X589732Y404102D01*
X595155Y404102D02*
X597866Y406814D01*
X597866Y412237D01*
X595155Y414949D01*
X589732Y414949D01*
X587020Y412237D01*
X587020Y409525D01*
X597866Y409525D01*
X581495Y414949D02*
X576072Y404102D01*
X570648Y414949D01*
X565123Y414949D02*
X562412Y414949D01*
X562412Y404102D01*
X565123Y404102D02*
X559700Y404102D01*
X562412Y420372D02*
X562412Y423084D01*
X551497Y414949D02*
X543362Y414949D01*
X551497Y414949D02*
X554209Y412237D01*
X554209Y406814D01*
X551497Y404102D01*
X543362Y404102D01*
X535126Y404102D02*
X529702Y404102D01*
X535126Y404102D02*
X537837Y406814D01*
X537837Y412237D01*
X535126Y414949D01*
X529702Y414949D01*
X526991Y412237D01*
X526991Y409525D01*
X537837Y409525D01*
X521466Y404102D02*
X513331Y404102D01*
X510619Y406814D01*
X513331Y409525D01*
X518754Y409525D01*
X521466Y412237D01*
X518754Y414949D01*
X510619Y414949D01*
X486011Y417660D02*
X486011Y404102D01*
X486011Y417660D02*
X483299Y420372D01*
X483299Y412237D02*
X488723Y412237D01*
X477808Y414949D02*
X477808Y404102D01*
X477808Y409525D02*
X472385Y414949D01*
X469673Y414949D01*
X461454Y404102D02*
X456030Y404102D01*
X453319Y406814D01*
X453319Y412237D01*
X456030Y414949D01*
X461454Y414949D01*
X464165Y412237D01*
X464165Y406814D01*
X461454Y404102D01*
X447794Y404102D02*
X447794Y414949D01*
X445082Y414949D01*
X442371Y412237D01*
X442371Y404102D01*
X442371Y412237D02*
X439659Y414949D01*
X436947Y412237D01*
X436947Y404102D01*
X412339Y404102D02*
X406916Y404102D01*
X404204Y406814D01*
X404204Y412237D01*
X406916Y414949D01*
X412339Y414949D01*
X415051Y412237D01*
X415051Y406814D01*
X412339Y404102D01*
X398679Y404102D02*
X398679Y414949D01*
X390544Y414949D01*
X387833Y412237D01*
X387833Y404102D01*
X379596Y404102D02*
X374173Y404102D01*
X379596Y404102D02*
X382308Y406814D01*
X382308Y412237D01*
X379596Y414949D01*
X374173Y414949D01*
X371461Y412237D01*
X371461Y409525D01*
X382308Y409525D01*
X349564Y417660D02*
X346853Y420372D01*
X341429Y420372D01*
X338718Y417660D01*
X338718Y414949D01*
X341429Y412237D01*
X344141Y412237D01*
X341429Y412237D02*
X338718Y409525D01*
X338718Y406814D01*
X341429Y404102D01*
X346853Y404102D01*
X349564Y406814D01*
X333193Y409525D02*
X333193Y420372D01*
X333193Y409525D02*
X327770Y404102D01*
X322346Y409525D01*
X322346Y420372D01*
X300450Y420372D02*
X297738Y420372D01*
X297738Y404102D01*
X300450Y404102D02*
X295026Y404102D01*
X289535Y414949D02*
X286824Y414949D01*
X286824Y404102D01*
X289535Y404102D02*
X284112Y404102D01*
X286824Y420372D02*
X286824Y423084D01*
X278621Y414949D02*
X278621Y404102D01*
X278621Y414949D02*
X270486Y414949D01*
X267774Y412237D01*
X267774Y404102D01*
X259538Y404102D02*
X254114Y404102D01*
X259538Y404102D02*
X262249Y406814D01*
X262249Y412237D01*
X259538Y414949D01*
X254114Y414949D01*
X251403Y412237D01*
X251403Y409525D01*
X262249Y409525D01*
X245878Y406814D02*
X245878Y404102D01*
X245878Y406814D02*
X243166Y406814D01*
X243166Y404102D01*
X245878Y404102D01*
X614238Y393702D02*
X614238Y377432D01*
X614238Y393702D02*
X606103Y393702D01*
X603391Y390990D01*
X603391Y385567D01*
X606103Y382855D01*
X614238Y382855D01*
X595155Y393702D02*
X589732Y393702D01*
X595155Y393702D02*
X597866Y390990D01*
X597866Y380144D01*
X595155Y377432D01*
X589732Y377432D01*
X587020Y380144D01*
X587020Y390990D01*
X589732Y393702D01*
X581495Y393702D02*
X581495Y377432D01*
X576072Y382855D01*
X570648Y377432D01*
X570648Y393702D01*
X565123Y393702D02*
X554277Y393702D01*
X565123Y393702D02*
X565123Y377432D01*
X554277Y377432D01*
X559700Y385567D02*
X565123Y385567D01*
X548752Y377432D02*
X548752Y393702D01*
X540617Y393702D01*
X537905Y390990D01*
X537905Y385567D01*
X540617Y382855D01*
X548752Y382855D01*
X543328Y382855D02*
X537905Y377432D01*
X513297Y393702D02*
X507874Y393702D01*
X513297Y393702D02*
X516009Y390990D01*
X516009Y380144D01*
X513297Y377432D01*
X507874Y377432D01*
X505162Y380144D01*
X505162Y390990D01*
X507874Y393702D01*
X499637Y393702D02*
X499637Y377432D01*
X488790Y377432D02*
X499637Y393702D01*
X488790Y393702D02*
X488790Y377432D01*
X483266Y377432D02*
X483266Y393702D01*
X483266Y377432D02*
X472419Y377432D01*
X466894Y390990D02*
X466894Y393702D01*
X466894Y390990D02*
X461471Y385567D01*
X456047Y390990D01*
X456047Y393702D01*
X461471Y385567D02*
X461471Y377432D01*
X431439Y393702D02*
X426016Y393702D01*
X431439Y393702D02*
X434151Y390990D01*
X434151Y380144D01*
X431439Y377432D01*
X426016Y377432D01*
X423304Y380144D01*
X423304Y390990D01*
X426016Y393702D01*
X417779Y393702D02*
X417779Y377432D01*
X406933Y377432D02*
X417779Y393702D01*
X406933Y393702D02*
X406933Y377432D01*
X401408Y393702D02*
X390561Y393702D01*
X401408Y393702D02*
X401408Y377432D01*
X390561Y377432D01*
X395984Y385567D02*
X401408Y385567D01*
X352293Y377432D02*
X352293Y393702D01*
X346870Y388279D01*
X341446Y393702D01*
X341446Y377432D01*
X333210Y393702D02*
X327787Y393702D01*
X333210Y393702D02*
X335921Y390990D01*
X335921Y380144D01*
X333210Y377432D01*
X327787Y377432D01*
X325075Y380144D01*
X325075Y390990D01*
X327787Y393702D01*
X319550Y393702D02*
X319550Y377432D01*
X311415Y377432D01*
X308703Y380144D01*
X308703Y390990D01*
X311415Y393702D01*
X319550Y393702D01*
X303178Y393702D02*
X303178Y380144D01*
X300467Y377432D01*
X295043Y377432D01*
X292332Y380144D01*
X292332Y393702D01*
X286807Y393702D02*
X286807Y377432D01*
X275960Y377432D01*
X270435Y393702D02*
X259589Y393702D01*
X270435Y393702D02*
X270435Y377432D01*
X259589Y377432D01*
X265012Y385567D02*
X270435Y385567D01*
X614238Y367032D02*
X614238Y350762D01*
X608815Y356185D01*
X603391Y350762D01*
X603391Y367032D01*
X597866Y367032D02*
X597866Y350762D01*
X597866Y358897D02*
X587020Y358897D01*
X587020Y367032D02*
X587020Y350762D01*
X581495Y367032D02*
X570648Y367032D01*
X581495Y367032D02*
X581495Y350762D01*
X570648Y350762D01*
X576072Y358897D02*
X581495Y358897D01*
X565123Y350762D02*
X565123Y367032D01*
X554277Y350762D01*
X554277Y367032D01*
X532380Y353474D02*
X529669Y350762D01*
X526957Y350762D01*
X524245Y353474D01*
X524245Y367032D01*
X521534Y367032D02*
X526957Y367032D01*
X516009Y367032D02*
X516009Y353474D01*
X513297Y350762D01*
X507874Y350762D01*
X505162Y353474D01*
X505162Y367032D01*
X499637Y367032D02*
X499637Y350762D01*
X494214Y361609D02*
X499637Y367032D01*
X494214Y361609D02*
X488790Y367032D01*
X488790Y350762D01*
X483266Y350762D02*
X483266Y367032D01*
X475131Y367032D01*
X472419Y364320D01*
X472419Y358897D01*
X475131Y356185D01*
X483266Y356185D01*
X466894Y367032D02*
X456047Y367032D01*
X466894Y367032D02*
X466894Y350762D01*
X456047Y350762D01*
X461471Y358897D02*
X466894Y358897D01*
X450522Y350762D02*
X450522Y367032D01*
X442387Y367032D01*
X439676Y364320D01*
X439676Y358897D01*
X442387Y356185D01*
X450522Y356185D01*
X445099Y356185D02*
X439676Y350762D01*
X409644Y367032D02*
X406933Y364320D01*
X409644Y367032D02*
X415068Y367032D01*
X417779Y364320D01*
X417779Y361609D01*
X415068Y358897D01*
X409644Y358897D01*
X406933Y356185D01*
X406933Y353474D01*
X409644Y350762D01*
X415068Y350762D01*
X417779Y353474D01*
X401408Y367032D02*
X390561Y367032D01*
X401408Y367032D02*
X401408Y350762D01*
X390561Y350762D01*
X395984Y358897D02*
X401408Y358897D01*
X379613Y350762D02*
X379613Y367032D01*
X385036Y367032D02*
X374190Y367032D01*
M02*
