G04 EAGLE Gerber RS-274X export*
G75*
%MOMM*%
%FSLAX34Y34*%
%LPD*%
%INSoldermask Top*%
%IPPOS*%
%AMOC8*
5,1,8,0,0,1.08239X$1,22.5*%
G01*
%ADD10C,2.203200*%
%ADD11R,1.203200X3.203200*%
%ADD12R,3.203200X1.203200*%
%ADD13P,1.869504X8X22.500000*%
%ADD14R,1.320800X1.955800*%
%ADD15R,4.267200X4.267200*%
%ADD16R,5.283200X2.743200*%
%ADD17C,2.489200*%
%ADD18C,3.759200*%
%ADD19R,1.711200X1.711200*%
%ADD20C,1.711200*%
%ADD21C,1.727200*%
%ADD22C,1.109600*%
%ADD23C,1.219200*%
%ADD24R,1.209600X1.209600*%

G36*
X518112Y354433D02*
X518112Y354433D01*
X518142Y354440D01*
X518183Y354441D01*
X528133Y356131D01*
X528162Y356142D01*
X528202Y356147D01*
X537901Y358941D01*
X537928Y358955D01*
X537968Y358965D01*
X547292Y362827D01*
X547318Y362843D01*
X547356Y362858D01*
X556190Y367740D01*
X556214Y367759D01*
X556250Y367778D01*
X564481Y373618D01*
X564503Y373640D01*
X564537Y373662D01*
X572062Y380387D01*
X572081Y380412D01*
X572113Y380438D01*
X578838Y387963D01*
X578854Y387990D01*
X578882Y388019D01*
X584722Y396250D01*
X584736Y396278D01*
X584760Y396310D01*
X589642Y405144D01*
X589652Y405173D01*
X589673Y405208D01*
X593535Y414532D01*
X593542Y414562D01*
X593559Y414599D01*
X596353Y424298D01*
X596356Y424328D01*
X596369Y424367D01*
X598059Y434317D01*
X598059Y434320D01*
X598060Y434322D01*
X598059Y434349D01*
X598067Y434388D01*
X598633Y444464D01*
X598630Y444495D01*
X598633Y444536D01*
X598067Y454612D01*
X598060Y454642D01*
X598059Y454683D01*
X596369Y464633D01*
X596358Y464662D01*
X596353Y464702D01*
X593559Y474401D01*
X593545Y474428D01*
X593535Y474468D01*
X589673Y483792D01*
X589657Y483818D01*
X589642Y483856D01*
X584760Y492690D01*
X584741Y492714D01*
X584722Y492750D01*
X578882Y500981D01*
X578860Y501003D01*
X578838Y501037D01*
X572113Y508562D01*
X572088Y508581D01*
X572062Y508613D01*
X564537Y515338D01*
X564510Y515354D01*
X564481Y515382D01*
X556250Y521222D01*
X556222Y521236D01*
X556190Y521260D01*
X547356Y526142D01*
X547327Y526152D01*
X547292Y526173D01*
X537968Y530035D01*
X537938Y530042D01*
X537901Y530059D01*
X528202Y532853D01*
X528172Y532856D01*
X528133Y532869D01*
X518183Y534559D01*
X518152Y534559D01*
X518112Y534567D01*
X508036Y535133D01*
X508005Y535130D01*
X507964Y535133D01*
X497888Y534567D01*
X497858Y534560D01*
X497817Y534559D01*
X487867Y532869D01*
X487838Y532858D01*
X487798Y532853D01*
X478099Y530059D01*
X478072Y530045D01*
X478032Y530035D01*
X468708Y526173D01*
X468682Y526157D01*
X468644Y526142D01*
X459810Y521260D01*
X459786Y521241D01*
X459750Y521222D01*
X451519Y515382D01*
X451497Y515360D01*
X451463Y515338D01*
X443938Y508613D01*
X443919Y508588D01*
X443887Y508562D01*
X437162Y501037D01*
X437146Y501010D01*
X437118Y500981D01*
X431278Y492750D01*
X431264Y492722D01*
X431240Y492690D01*
X426358Y483856D01*
X426348Y483827D01*
X426327Y483792D01*
X422465Y474468D01*
X422458Y474438D01*
X422441Y474401D01*
X419647Y464702D01*
X419644Y464672D01*
X419631Y464633D01*
X417941Y454683D01*
X417941Y454652D01*
X417933Y454612D01*
X417367Y444536D01*
X417371Y444505D01*
X417367Y444464D01*
X417933Y434388D01*
X417940Y434358D01*
X417941Y434317D01*
X419631Y424367D01*
X419642Y424338D01*
X419647Y424298D01*
X422441Y414599D01*
X422455Y414572D01*
X422465Y414532D01*
X426327Y405208D01*
X426343Y405182D01*
X426358Y405144D01*
X431240Y396310D01*
X431259Y396286D01*
X431278Y396250D01*
X437118Y388019D01*
X437140Y387997D01*
X437162Y387963D01*
X443887Y380438D01*
X443912Y380419D01*
X443938Y380387D01*
X451463Y373662D01*
X451490Y373646D01*
X451519Y373618D01*
X459750Y367778D01*
X459778Y367764D01*
X459810Y367740D01*
X468644Y362858D01*
X468673Y362848D01*
X468708Y362827D01*
X478032Y358965D01*
X478062Y358958D01*
X478099Y358941D01*
X487798Y356147D01*
X487828Y356144D01*
X487867Y356131D01*
X497817Y354441D01*
X497848Y354441D01*
X497888Y354433D01*
X507964Y353867D01*
X507995Y353871D01*
X508036Y353867D01*
X518112Y354433D01*
G37*
D10*
X38100Y685800D03*
X38100Y38100D03*
X609600Y685800D03*
X609600Y38100D03*
D11*
X343700Y325000D03*
X328700Y325000D03*
X313700Y325000D03*
X298700Y325000D03*
X283700Y325000D03*
X268700Y325000D03*
X253700Y325000D03*
X238700Y325000D03*
X223700Y325000D03*
X208700Y325000D03*
X193700Y324500D03*
X178700Y324500D03*
D12*
X364700Y529000D03*
X364700Y513500D03*
X364700Y498500D03*
X364700Y483500D03*
X364700Y468500D03*
X364700Y453500D03*
X364700Y438500D03*
X364700Y423500D03*
X364700Y408500D03*
X364700Y393500D03*
X364700Y378500D03*
X364700Y363500D03*
X364700Y348500D03*
D11*
X343700Y552500D03*
X328700Y552500D03*
X313700Y552500D03*
X298700Y552500D03*
X283700Y552500D03*
X268700Y552500D03*
X253700Y552500D03*
X238700Y552500D03*
X223700Y552500D03*
X208700Y552500D03*
X193700Y552500D03*
X178700Y552500D03*
D13*
X177800Y622300D03*
X177800Y647700D03*
X203200Y622300D03*
X203200Y647700D03*
X228600Y622300D03*
X228600Y647700D03*
X254000Y622300D03*
X254000Y647700D03*
X279400Y622300D03*
X279400Y647700D03*
X304800Y622300D03*
X304800Y647700D03*
X330200Y622300D03*
X330200Y647700D03*
X355600Y622300D03*
X355600Y647700D03*
D14*
X201168Y177800D03*
X230632Y177800D03*
X230632Y127000D03*
X201168Y127000D03*
D15*
X508000Y444500D03*
D16*
X508000Y558800D03*
X508000Y330200D03*
D17*
X88900Y247650D03*
X88900Y57150D03*
D18*
X546100Y63500D03*
X546100Y241300D03*
D19*
X508000Y254000D03*
D20*
X482600Y254000D03*
X457200Y254000D03*
X431800Y254000D03*
X406400Y254000D03*
X381000Y254000D03*
X355600Y254000D03*
X330200Y254000D03*
X304800Y254000D03*
X279400Y254000D03*
X254000Y254000D03*
X228600Y254000D03*
X203200Y254000D03*
X177800Y254000D03*
X152400Y254000D03*
X127000Y254000D03*
X406400Y50800D03*
X381000Y50800D03*
X355600Y50800D03*
X330200Y50800D03*
X304800Y50800D03*
X279400Y50800D03*
X254000Y50800D03*
X228600Y50800D03*
X203200Y50800D03*
X177800Y50800D03*
X152400Y50800D03*
X127000Y50800D03*
D21*
X554800Y299880D02*
X554800Y315120D01*
X580200Y315120D02*
X580200Y299880D01*
D22*
X270000Y377500D03*
X267500Y127500D03*
D23*
X214884Y157734D03*
D24*
X315000Y112500D03*
X482500Y112500D03*
D22*
X217500Y285000D03*
D23*
X324612Y521208D03*
X397764Y512064D03*
X274320Y530352D03*
X283464Y521208D03*
X292608Y530352D03*
X306324Y530352D03*
X333756Y530352D03*
X342900Y521208D03*
X370332Y649224D03*
D22*
X317500Y592500D03*
X187500Y592500D03*
D24*
X482500Y140000D03*
M02*
