G04 EAGLE Gerber RS-274X export*
G75*
%MOMM*%
%FSLAX34Y34*%
%LPD*%
%INSolderpaste Top*%
%IPPOS*%
%AMOC8*
5,1,8,0,0,1.08239X$1,22.5*%
G01*
%ADD10R,1.000000X3.000000*%
%ADD11R,3.000000X1.000000*%
%ADD12R,1.117600X1.752600*%
%ADD13R,4.064000X4.064000*%
%ADD14R,5.080000X2.540000*%


D10*
X343700Y325000D03*
X328700Y325000D03*
X313700Y325000D03*
X298700Y325000D03*
X283700Y325000D03*
X268700Y325000D03*
X253700Y325000D03*
X238700Y325000D03*
X223700Y325000D03*
X208700Y325000D03*
X193700Y324500D03*
X178700Y324500D03*
D11*
X364700Y529000D03*
X364700Y513500D03*
X364700Y498500D03*
X364700Y483500D03*
X364700Y468500D03*
X364700Y453500D03*
X364700Y438500D03*
X364700Y423500D03*
X364700Y408500D03*
X364700Y393500D03*
X364700Y378500D03*
X364700Y363500D03*
X364700Y348500D03*
D10*
X343700Y552500D03*
X328700Y552500D03*
X313700Y552500D03*
X298700Y552500D03*
X283700Y552500D03*
X268700Y552500D03*
X253700Y552500D03*
X238700Y552500D03*
X223700Y552500D03*
X208700Y552500D03*
X193700Y552500D03*
X178700Y552500D03*
D12*
X201168Y177800D03*
X230632Y177800D03*
X230632Y127000D03*
X201168Y127000D03*
D13*
X508000Y444500D03*
D14*
X508000Y558800D03*
X508000Y330200D03*
M02*
