M48
;GenerationSoftware,Autodesk,EAGLE,9.4.2*%
;CreationDate,2019-07-04T08:09:48Z*%
FMAT,2
ICI,OFF
METRIC,TZ,000.000
T8C0.500
T7C0.600
T6C0.610
T5C1.000
T4C1.016
T3C2.000
T2C2.286
T1C2.540
%
G90
M71
T1
X54610Y24130
X54610Y6350
T2
X8890Y24765
X8890Y5715
T3
X3810Y68580
X3810Y3810
X60960Y68580
X60960Y3810
T4
X20320Y62230
X20320Y64770
X22860Y62230
X22860Y64770
X25400Y62230
X25400Y64770
X27940Y62230
X27940Y64770
X33020Y62230
X30480Y62230
X30480Y64770
X55480Y30750
X58020Y30750
X35560Y64770
X35560Y62230
X33020Y64770
X17780Y62230
X17780Y64770
T5
X35560Y5080
X33020Y5080
X27940Y5080
X25400Y5080
X22860Y5080
X20320Y5080
X17780Y5080
X15240Y5080
X12700Y5080
X30480Y5080
X22860Y25400
X50800Y25400
X48260Y25400
X45720Y25400
X43180Y25400
X40640Y25400
X38100Y25400
X35560Y25400
X33020Y25400
X30480Y25400
X27940Y25400
X25400Y25400
X20320Y25400
X17780Y25400
X15240Y25400
X12700Y25400
X40640Y5080
X38100Y5080
T6
X21488Y15773
X32461Y52121
X39776Y51206
X27432Y53035
X29261Y53035
X30632Y53035
X37033Y64922
X34290Y52121
X28346Y52121
X33376Y53035
T7
X31500Y11250
X48250Y11250
X48250Y14000
T8
X26750Y12750
X21750Y28500
X27000Y37750
X18750Y59250
X31750Y59250
M30